# Blender v3.0.0 OBJ File: 'City.blend'
# www.blender.org
o food_factory_rotor
v 0.000000 0.000000 -0.075003
v -0.053033 0.000000 -0.053036
v -0.075000 0.000000 -0.000003
v -0.053033 0.000000 0.053030
v 0.000000 0.000000 0.074997
v 0.053033 0.000000 0.053030
v 0.075000 0.000000 -0.000003
v 0.053033 0.000000 -0.053036
v 0.000000 0.030000 -0.075003
v -0.053033 0.030000 -0.053036
v -0.075000 0.030000 -0.000003
v -0.053033 0.030000 0.053030
v 0.000000 0.030000 0.074997
v 0.053033 0.030000 0.053030
v 0.075000 0.030000 -0.000003
v 0.053033 0.030000 -0.053036
v -0.097428 0.029438 -0.000035
v 0.000000 0.112857 -0.056285
v 0.000000 0.102562 -0.097463
v 0.039775 0.112857 -0.039809
v 0.068892 0.102562 -0.068927
v -0.068892 0.029438 0.068857
v 0.056250 0.112857 -0.000035
v 0.097428 0.102562 -0.000035
v 0.112500 0.088500 -0.000035
v 0.039775 0.112857 0.039740
v 0.068892 0.102562 0.068857
v 0.079550 0.088500 0.079515
v 0.000000 0.029438 0.097393
v 0.000000 0.043500 0.112465
v 0.000000 0.112857 0.056215
v 0.000000 0.102562 0.097393
v 0.000000 0.088500 0.112465
v -0.112500 0.088500 -0.000035
v 0.000000 0.116625 -0.000035
v -0.039775 0.112857 0.039740
v -0.068892 0.102562 0.068857
v -0.079549 0.088500 0.079515
v 0.068892 0.029438 0.068857
v 0.079550 0.043500 0.079515
v -0.056250 0.112857 -0.000035
v -0.097428 0.102562 -0.000035
v 0.097428 0.029438 -0.000035
v -0.039775 0.112857 -0.039809
v -0.068892 0.102562 -0.068927
v -0.079549 0.088500 -0.079584
v 0.079550 0.088500 -0.079584
v 0.000000 0.088500 -0.112535
v 0.112500 0.043500 -0.000035
v 0.068892 0.029438 -0.068927
v 0.079550 0.043500 -0.079584
v 0.000000 0.029438 -0.097463
v 0.000000 0.043500 -0.112535
v -0.068892 0.029438 -0.068927
v -0.079549 0.043500 -0.079584
v -0.112500 0.043500 -0.000035
v -0.079549 0.043500 0.079515
vt 0.125000 0.125000
vt 0.125000 0.125000
vt 0.125000 0.125000
vt 0.125000 0.125000
vt 0.125000 0.125000
vt 0.125000 0.125000
vt 0.125000 0.125000
vt 0.125000 0.125000
vt 0.125000 0.125000
vt 0.125000 0.125000
vt 0.125000 0.125000
vt 0.125000 0.125000
vt 0.125000 0.125000
vt 0.125000 0.125000
vt 0.125000 0.125000
vt 0.125000 0.125000
vt 0.125000 0.125000
vt 0.125000 0.125000
vt 0.125000 0.125000
vt 0.125000 0.125000
vt 0.125000 0.125000
vt 0.125000 0.125000
vt 0.125000 0.125000
vt 0.125000 0.125000
vt 0.125000 0.125000
vt 0.125000 0.125000
vt 0.125000 0.125000
vt 0.125000 0.125000
vt 0.125000 0.125000
vt 0.125000 0.125000
vt 0.125000 0.125000
vt 0.125000 0.125000
vt 0.125000 0.125000
vt 0.125000 0.125000
vt 0.125000 0.125000
vt 0.125000 0.125000
vt 0.125000 0.125000
vt 0.125000 0.125000
vt 0.125000 0.125000
vt 0.125000 0.125000
vt 0.125000 0.125000
vt 0.375000 0.125000
vt 0.375000 0.125000
vt 0.375000 0.125000
vt 0.375000 0.125000
vt 0.375000 0.125000
vt 0.375000 0.125000
vt 0.375000 0.125000
vt 0.375000 0.125000
vt 0.375000 0.125000
vt 0.375000 0.125000
vt 0.375000 0.125000
vt 0.375000 0.125000
vt 0.375000 0.125000
vt 0.375000 0.125000
vt 0.375000 0.125000
vt 0.375000 0.125000
vt 0.125000 0.125000
vt 0.125000 0.125000
vt 0.375000 0.125000
vt 0.375000 0.125000
vt 0.375000 0.125000
vt 0.375000 0.125000
vt 0.375000 0.125000
vt 0.375000 0.125000
vt 0.375000 0.125000
vt 0.375000 0.125000
vt 0.125000 0.125000
vt 0.125000 0.125000
vt 0.125000 0.125000
vt 0.125000 0.125000
vt 0.125000 0.125000
vt 0.125000 0.125000
vn -0.7071 0.0000 -0.7071
vn 0.0000 0.0000 -1.0000
vn 0.7071 0.0000 -0.7071
vn 1.0000 0.0000 -0.0000
vn 0.7071 0.0000 0.7071
vn 0.0000 0.0000 1.0000
vn -0.7071 0.0000 0.7071
vn -1.0000 0.0000 -0.0000
vn -0.0000 0.7312 -0.6822
vn -0.0000 0.8525 -0.5227
vn 0.3696 0.8525 -0.3696
vn 0.4824 0.7312 -0.4824
vn -0.0000 0.9842 -0.1768
vn 0.0000 1.0000 -0.0000
vn 0.1250 0.9842 -0.1250
vn 0.5227 0.8525 -0.0000
vn 0.6822 0.7312 -0.0000
vn 0.1768 0.9842 0.0000
vn 0.1250 0.9842 0.1250
vn 0.3696 0.8525 0.3696
vn 0.4824 0.7312 0.4824
vn -0.0000 0.9842 0.1768
vn -0.0000 0.8525 0.5227
vn -0.0000 0.7312 0.6822
vn -0.1250 0.9842 0.1250
vn -0.3696 0.8525 0.3696
vn -0.4824 0.7312 0.4824
vn -0.1768 0.9842 -0.0000
vn -0.5227 0.8525 -0.0000
vn -0.6822 0.7312 -0.0000
vn -0.1250 0.9842 -0.1250
vn -0.3696 0.8525 -0.3696
vn -0.4824 0.7312 -0.4824
vn -0.4402 -0.8979 -0.0000
vn -0.3113 -0.8979 -0.3113
vn -0.0000 -0.8979 -0.4402
vn 0.3113 -0.8979 -0.3113
vn -0.0000 -0.7312 -0.6822
vn 0.4824 -0.7312 -0.4824
vn 0.6822 -0.7312 -0.0000
vn 0.4402 -0.8979 -0.0000
vn 0.4824 -0.7312 0.4824
vn 0.3113 -0.8979 0.3113
vn -0.0000 -0.7312 0.6822
vn 0.0000 -0.8979 0.4402
vn -0.4824 -0.7312 0.4824
vn -0.3113 -0.8979 0.3113
vn -0.6822 -0.7312 -0.0000
vn -0.4824 -0.7312 -0.4824
vn 0.0000 -1.0000 -0.0000
s 1
f 2/1/1 10/2/1 9/3/2 1/4/2
f 1/4/2 9/3/2 16/5/3 8/6/3
f 7/7/4 15/8/4 14/9/5 6/10/5
f 5/11/6 13/12/6 12/13/7 4/14/7
f 3/15/8 11/16/8 10/2/1 2/1/1
f 8/6/3 16/5/3 15/8/4 7/7/4
f 6/10/5 14/9/5 13/12/6 5/11/6
f 4/14/7 12/13/7 11/16/8 3/15/8
f 48/17/9 19/18/10 21/19/11 47/20/12
f 18/21/13 35/22/14 20/23/15
f 19/18/10 18/21/13 20/23/15 21/19/11
f 47/20/12 21/19/11 24/24/16 25/25/17
f 20/23/15 35/22/14 23/26/18
f 21/19/11 20/23/15 23/26/18 24/24/16
f 23/26/18 35/22/14 26/27/19
f 24/24/16 23/26/18 26/27/19 27/28/20
f 25/25/17 24/24/16 27/28/20 28/29/21
f 27/28/20 26/27/19 31/30/22 32/31/23
f 28/29/21 27/28/20 32/31/23 33/32/24
f 26/27/19 35/22/14 31/30/22
f 32/31/23 31/30/22 36/33/25 37/34/26
f 33/32/24 32/31/23 37/34/26 38/35/27
f 31/30/22 35/22/14 36/33/25
f 37/34/26 36/33/25 41/36/28 42/37/29
f 38/35/27 37/34/26 42/37/29 34/38/30
f 36/33/25 35/22/14 41/36/28
f 42/37/29 41/36/28 44/39/31 45/40/32
f 34/38/30 42/37/29 45/40/32 46/41/33
f 41/36/28 35/22/14 44/39/31
f 45/40/32 44/39/31 18/21/13 19/18/10
f 46/41/33 45/40/32 19/18/10 48/17/9
f 44/39/31 35/22/14 18/21/13
f 17/42/34 54/43/35 52/44/36 50/45/37
f 52/44/36 53/46/38 51/47/39 50/45/37
f 50/45/37 51/47/39 49/48/40 43/49/41
f 43/49/41 49/48/40 40/50/42 39/51/43
f 39/51/43 40/50/42 30/52/44 29/53/45
f 29/53/45 30/52/44 57/54/46 22/55/47
f 22/55/47 57/54/46 56/56/48 17/42/34
f 17/42/34 56/56/48 55/57/49 54/43/35
f 43/49/41 39/51/43 29/53/45 22/55/47
f 43/49/41 22/55/47 17/42/34 50/45/37
f 54/43/35 55/57/49 53/46/38 52/44/36
f 33/32/6 40/58/5 28/29/5
f 28/29/5 49/59/4 25/25/4
f 57/54/7 30/52/6 38/60/7
f 34/61/8 56/56/8 57/54/7
f 46/62/1 55/57/1 56/56/8
f 55/57/1 48/63/2 53/46/2
f 51/47/3 53/46/2 47/64/3
f 49/48/4 51/47/3 25/65/4
f 40/50/5 49/48/4 28/66/5
f 30/52/6 40/50/5 33/67/6
f 38/35/7 30/68/6 33/32/6
f 34/38/8 57/69/7 38/35/7
f 48/17/50 47/20/50 34/38/50 46/41/50
f 47/20/50 25/25/50 38/35/50 34/38/50
f 25/25/50 28/29/50 33/32/50 38/35/50
f 25/25/4 51/70/3 47/20/3
f 47/20/3 53/71/2 48/17/2
f 48/17/2 55/72/1 46/41/1
f 46/41/1 56/73/8 34/38/8
