# Blender v3.0.0 OBJ File: 'City.blend'
# www.blender.org
o rounded_hopper_car_2_hopper_car_3.001
v -0.057812 0.412921 1.981015
v -0.057813 0.412921 1.865389
v -0.057813 0.297295 1.865389
v -0.057812 0.297295 1.981015
v 0.057813 0.412921 1.865389
v 0.057813 0.412921 1.981015
v 0.057813 0.297295 1.981015
v 0.057813 0.297295 1.865389
v -0.028217 0.412921 1.931757
v -0.028217 0.297295 1.931757
v 0.028218 0.297295 1.931757
v 0.028218 0.297295 1.865389
v -0.028217 0.412921 1.865389
v 0.028218 0.412921 1.865389
v 0.028218 0.412921 1.931757
v -0.028217 0.297295 1.865389
v 0.057812 0.412921 -1.983137
v 0.057812 0.412921 -1.867512
v 0.057812 0.297296 -1.867512
v 0.057812 0.297296 -1.983137
v -0.057813 0.412921 -1.867512
v -0.057813 0.412921 -1.983137
v -0.057813 0.297296 -1.983137
v -0.057813 0.297296 -1.867512
v 0.028217 0.412921 -1.933879
v 0.028217 0.297296 -1.933879
v -0.028217 0.297296 -1.933879
v -0.028217 0.297296 -1.867512
v 0.028217 0.412921 -1.867512
v -0.028217 0.412921 -1.867512
v -0.028217 0.412921 -1.933879
v 0.028217 0.297296 -1.867512
v -0.129705 0.455057 1.880519
v -0.129705 0.455057 -1.881913
v -0.129705 0.251536 -1.881913
v -0.129705 0.251535 1.880520
v 0.129705 0.455057 -1.881913
v 0.129705 0.251536 -1.881913
v 0.129705 0.455057 1.880519
v 0.129705 0.251535 1.880520
v 0.430600 0.542400 -1.875600
v 0.430600 0.446800 -1.875600
v -0.430600 0.446800 -1.875600
v -0.430600 0.542400 -1.875600
v 0.430600 0.542400 1.874001
v -0.430600 0.542400 1.874001
v -0.430600 0.446800 1.874001
v 0.430600 0.446800 1.874001
v 0.175200 0.542400 1.219001
v 0.175200 0.542400 -1.219100
v -0.175300 0.542400 -1.219100
v -0.175300 0.542400 1.219001
v 0.430600 0.446800 1.219001
v 0.430600 0.542400 1.219001
v 0.430600 0.542400 -1.219100
v 0.430600 0.446800 -1.219100
v -0.430600 0.446800 1.219001
v -0.175300 0.446800 1.219001
v 0.175200 0.446800 -1.219100
v -0.175300 0.446800 -1.219100
v -0.430600 0.542400 1.219001
v -0.430600 0.446800 -1.219100
v -0.430600 0.542400 -1.219100
v 0.175200 0.446800 1.219001
v -0.430600 0.492400 -1.219100
v -0.430600 0.492400 1.219001
v -0.380600 0.542400 1.219001
v -0.380600 0.542400 -1.219100
v -0.380600 0.492400 1.219001
v -0.380600 0.492400 -1.219100
v 0.381400 0.542400 1.219001
v 0.381400 0.542400 -1.219100
v 0.381400 0.492400 -1.219100
v 0.381400 0.492400 1.219001
v 0.431400 0.542400 1.219001
v 0.431400 0.542400 -1.219100
v 0.431400 0.492400 1.219001
v 0.431400 0.492400 -1.219100
v 0.108200 1.509310 -1.226124
v 0.044800 1.509310 -1.289524
v 0.044800 1.564209 -1.289524
v 0.108200 1.564209 -1.226124
v -0.044800 1.509310 -1.289524
v -0.044800 1.564209 -1.289524
v -0.108200 1.509310 -1.226124
v -0.108200 1.564209 -1.226124
v -0.108200 1.509309 -1.136524
v -0.108200 1.564209 -1.136524
v -0.044800 1.509309 -1.073125
v -0.044800 1.564209 -1.073125
v 0.044800 1.509309 -1.073125
v 0.044800 1.564209 -1.073125
v 0.108200 1.509309 -1.136524
v 0.108200 1.564209 -1.136524
v 0.108200 1.509309 -0.438575
v 0.044800 1.509309 -0.501975
v 0.044800 1.564209 -0.501975
v 0.108200 1.564209 -0.438575
v -0.044800 1.509309 -0.501975
v -0.044800 1.564209 -0.501975
v -0.108200 1.509309 -0.438575
v -0.108200 1.564209 -0.438575
v -0.108200 1.509309 -0.348975
v -0.108200 1.564209 -0.348975
v -0.044800 1.509309 -0.285575
v -0.044800 1.564209 -0.285575
v 0.044800 1.509309 -0.285575
v 0.044800 1.564209 -0.285575
v 0.108200 1.509309 -0.348975
v 0.108200 1.564209 -0.348975
v 0.108200 1.509309 0.348975
v 0.044800 1.509309 0.285575
v 0.044800 1.564209 0.285575
v 0.108200 1.564209 0.348975
v -0.044800 1.509309 0.285575
v -0.044800 1.564209 0.285575
v -0.108200 1.509309 0.348975
v -0.108200 1.564209 0.348975
v -0.108200 1.509309 0.438575
v -0.108200 1.564209 0.438575
v -0.044800 1.509309 0.501975
v -0.044800 1.564209 0.501975
v 0.044800 1.509309 0.501975
v 0.044800 1.564209 0.501975
v 0.108200 1.509309 0.438575
v 0.108200 1.564209 0.438575
v 0.108200 1.509309 1.136525
v 0.044800 1.509309 1.073125
v 0.044800 1.564209 1.073125
v 0.108200 1.564209 1.136525
v -0.044800 1.509309 1.073125
v -0.044800 1.564209 1.073125
v -0.108200 1.509309 1.136525
v -0.108200 1.564209 1.136525
v -0.108200 1.509309 1.226125
v -0.108200 1.564209 1.226125
v -0.044800 1.509309 1.289525
v -0.044800 1.564209 1.289525
v 0.044800 1.509309 1.289525
v 0.044800 1.564209 1.289525
v 0.108200 1.509309 1.226125
v 0.108200 1.564209 1.226125
v -0.344498 0.542400 -1.772841
v -0.418296 0.542400 -1.699043
v -0.418296 0.542400 -1.772835
v -0.344504 0.542400 -1.699043
v -0.344498 1.129797 -1.772841
v -0.418296 1.129797 -1.699043
v -0.418296 1.129797 -1.772835
v -0.344504 1.129797 -1.699043
v -0.344498 0.542400 1.688201
v -0.418296 0.542400 1.761999
v -0.418296 0.542400 1.688208
v -0.344504 0.542400 1.761999
v -0.344498 1.129797 1.688201
v -0.418296 1.129797 1.761999
v -0.418296 1.129797 1.688208
v -0.344504 1.129797 1.761999
v 0.344498 0.542400 -1.772841
v 0.418296 0.542400 -1.699043
v 0.418296 0.542400 -1.772835
v 0.344504 0.542400 -1.699043
v 0.344498 1.129797 -1.772841
v 0.418296 1.129797 -1.699043
v 0.418296 1.129797 -1.772835
v 0.344504 1.129797 -1.699043
v 0.344498 0.542400 1.688201
v 0.418296 0.542400 1.761999
v 0.418296 0.542400 1.688208
v 0.344504 0.542400 1.761999
v 0.344498 1.129797 1.688201
v 0.418296 1.129797 1.761999
v 0.418296 1.129797 1.688208
v 0.344504 1.129797 1.761999
v -0.275006 1.418305 1.825099
v -0.411576 1.243798 1.825099
v -0.485487 1.015795 1.727079
v -0.485487 0.793684 1.536107
v -0.381394 0.542400 1.320050
v 0.381397 0.542400 1.320050
v 0.485490 0.793684 1.536107
v 0.485490 1.015795 1.727079
v 0.411579 1.243798 1.825099
v 0.275009 1.418305 1.825099
v -0.275006 1.418305 -1.825100
v -0.411576 1.243798 -1.825100
v -0.485487 1.015795 -1.727080
v -0.485487 0.793684 -1.536109
v -0.381394 0.542400 -1.320053
v 0.381397 0.542400 -1.320053
v 0.485490 0.793684 -1.536109
v 0.485490 1.015795 -1.727080
v 0.411579 1.243798 -1.825100
v 0.275009 1.418305 -1.825100
v -0.448532 1.129796 1.825099
v 0.448535 1.129797 1.825099
v -0.448532 1.129796 -1.825100
v 0.448535 1.129797 -1.825099
v 0.175009 1.509309 -1.825100
v 0.275009 1.459309 -1.825100
v -0.275006 1.459309 -1.825100
v -0.175006 1.509309 -1.825100
v 0.275009 1.459309 1.825099
v 0.175009 1.509309 1.825099
v -0.175006 1.509309 1.825099
v -0.275006 1.459309 1.825099
v -0.129705 0.455057 0.755333
v -0.129705 0.455057 -0.755334
v 0.129705 0.455057 -0.755334
v 0.129705 0.455057 0.755333
v -0.129705 0.251536 -0.755334
v -0.129705 0.251536 0.755334
v 0.129705 0.251536 -0.755334
v 0.129705 0.251536 0.755334
v -0.129705 0.455057 0.655333
v 0.129705 0.455057 0.655333
v -0.129705 0.360014 0.655334
v 0.129705 0.360014 0.655334
v 0.129705 0.360014 -0.655334
v -0.129705 0.360014 -0.655334
v 0.129705 0.455057 -0.655334
v -0.129705 0.455057 -0.655334
v 0.381400 0.542400 -0.052305
v 0.183400 0.283147 -0.252305
v -0.183400 0.283147 -0.252305
v -0.381400 0.542400 -0.052305
v 0.183395 0.283147 -0.619100
v 0.381400 0.542400 -0.819100
v -0.381400 0.542400 -0.819100
v -0.183400 0.283147 -0.619100
v 0.381400 0.542400 0.819000
v -0.183400 0.283147 0.619000
v -0.381400 0.542400 0.819000
v 0.183395 0.283147 0.252205
v 0.183395 0.283147 0.619005
v 0.381400 0.542400 0.052205
v -0.381400 0.542400 0.052205
v -0.183400 0.283147 0.252205
vt 0.125000 0.125000
vt 0.125000 0.125000
vt 0.125000 0.125000
vt 0.125000 0.125000
vt 0.125000 0.125000
vt 0.125000 0.125000
vt 0.125000 0.125000
vt 0.125000 0.125000
vt 0.125000 0.125000
vt 0.125000 0.125000
vt 0.125000 0.125000
vt 0.125000 0.125000
vt 0.125000 0.125000
vt 0.125000 0.125000
vt 0.125000 0.125000
vt 0.125000 0.125000
vt 0.125000 0.125000
vt 0.125000 0.125000
vt 0.125000 0.125000
vt 0.125000 0.125000
vt 0.125000 0.125000
vt 0.125000 0.125000
vt 0.125000 0.125000
vt 0.125000 0.125000
vt 0.125000 0.125000
vt 0.125000 0.125000
vt 0.125000 0.125000
vt 0.125000 0.125000
vt 0.125000 0.125000
vt 0.125000 0.125000
vt 0.125000 0.125000
vt 0.125000 0.125000
vt 0.125000 0.125000
vt 0.125000 0.125000
vt 0.125000 0.125000
vt 0.125000 0.125000
vt 0.125000 0.125000
vt 0.125000 0.125000
vt 0.125000 0.125000
vt 0.125000 0.125000
vt 0.125000 0.125000
vt 0.125000 0.125000
vt 0.125000 0.125000
vt 0.125000 0.125000
vt 0.125000 0.125000
vt 0.125000 0.125000
vt 0.375000 0.375000
vt 0.375000 0.375000
vt 0.375000 0.375000
vt 0.375000 0.375000
vt 0.375000 0.375000
vt 0.375000 0.375000
vt 0.375000 0.375000
vt 0.375000 0.375000
vt 0.375000 0.375000
vt 0.375000 0.375000
vt 0.375000 0.375000
vt 0.375000 0.375000
vt 0.375000 0.375000
vt 0.375000 0.375000
vt 0.375000 0.375000
vt 0.375000 0.375000
vt 0.375000 0.375000
vt 0.375000 0.375000
vt 0.375000 0.375000
vt 0.375000 0.375000
vt 0.375000 0.375000
vt 0.375000 0.375000
vt 0.375000 0.375000
vt 0.375000 0.375000
vt 0.375000 0.375000
vt 0.375000 0.375000
vt 0.375000 0.375000
vt 0.375000 0.375000
vt 0.375000 0.375000
vt 0.375000 0.375000
vt 0.375000 0.375000
vt 0.375000 0.375000
vt 0.375000 0.375000
vt 0.375000 0.375000
vt 0.375000 0.375000
vt 0.375000 0.375000
vt 0.375000 0.375000
vt 0.375000 0.375000
vt 0.625000 0.125000
vt 0.625000 0.125000
vt 0.625000 0.125000
vt 0.625000 0.125000
vt 0.125000 0.375000
vt 0.125000 0.375000
vt 0.125000 0.375000
vt 0.125000 0.375000
vt 0.625000 0.125000
vt 0.625000 0.125000
vt 0.625000 0.125000
vt 0.625000 0.125000
vt 0.625000 0.125000
vt 0.625000 0.125000
vt 0.625000 0.125000
vt 0.625000 0.125000
vt 0.625000 0.125000
vt 0.625000 0.125000
vt 0.125000 0.375000
vt 0.125000 0.375000
vt 0.125000 0.375000
vt 0.125000 0.375000
vt 0.125000 0.375000
vt 0.125000 0.375000
vt 0.125000 0.375000
vt 0.125000 0.375000
vt 0.125000 0.375000
vt 0.125000 0.375000
vt 0.125000 0.375000
vt 0.125000 0.375000
vt 0.125000 0.375000
vt 0.125000 0.375000
vt 0.125000 0.375000
vt 0.125000 0.375000
vt 0.125000 0.375000
vt 0.125000 0.375000
vt 0.125000 0.375000
vt 0.125000 0.375000
vt 0.125000 0.375000
vt 0.125000 0.375000
vt 0.125000 0.375000
vt 0.125000 0.375000
vt 0.125000 0.375000
vt 0.125000 0.375000
vt 0.125000 0.375000
vt 0.125000 0.375000
vt 0.125000 0.375000
vt 0.125000 0.375000
vt 0.125000 0.375000
vt 0.125000 0.375000
vt 0.125000 0.375000
vt 0.125000 0.375000
vt 0.125000 0.375000
vt 0.125000 0.375000
vt 0.125000 0.375000
vt 0.125000 0.375000
vt 0.125000 0.375000
vt 0.125000 0.375000
vt 0.125000 0.375000
vt 0.125000 0.375000
vt 0.125000 0.375000
vt 0.125000 0.375000
vt 0.125000 0.375000
vt 0.125000 0.375000
vt 0.125000 0.375000
vt 0.125000 0.375000
vt 0.125000 0.375000
vt 0.125000 0.375000
vt 0.125000 0.375000
vt 0.125000 0.375000
vt 0.125000 0.375000
vt 0.125000 0.375000
vt 0.125000 0.375000
vt 0.125000 0.375000
vt 0.125000 0.375000
vt 0.125000 0.375000
vt 0.125000 0.375000
vt 0.125000 0.375000
vt 0.875000 0.125000
vt 0.875000 0.125000
vt 0.875000 0.125000
vt 0.875000 0.125000
vt 0.875000 0.125000
vt 0.875000 0.125000
vt 0.875000 0.125000
vt 0.875000 0.125000
vt 0.875000 0.125000
vt 0.875000 0.125000
vt 0.875000 0.125000
vt 0.875000 0.125000
vt 0.875000 0.125000
vt 0.875000 0.125000
vt 0.875000 0.125000
vt 0.875000 0.125000
vt 0.875000 0.125000
vt 0.875000 0.125000
vt 0.875000 0.125000
vt 0.875000 0.125000
vt 0.875000 0.125000
vt 0.875000 0.125000
vt 0.875000 0.125000
vt 0.875000 0.125000
vt 0.875000 0.125000
vt 0.875000 0.125000
vt 0.875000 0.125000
vt 0.875000 0.125000
vt 0.875000 0.125000
vt 0.875000 0.125000
vt 0.875000 0.125000
vt 0.875000 0.125000
vt 0.375000 0.125000
vt 0.375000 0.125000
vt 0.375000 0.125000
vt 0.375000 0.125000
vt 0.375000 0.125000
vt 0.375000 0.125000
vt 0.375000 0.125000
vt 0.375000 0.125000
vt 0.375000 0.125000
vt 0.375000 0.125000
vt 0.875000 0.125000
vt 0.875000 0.125000
vt 0.875000 0.125000
vt 0.875000 0.125000
vt 0.375000 0.125000
vt 0.375000 0.125000
vt 0.375000 0.125000
vt 0.375000 0.125000
vt 0.375000 0.125000
vt 0.375000 0.125000
vt 0.375000 0.125000
vt 0.375000 0.125000
vt 0.375000 0.125000
vt 0.375000 0.125000
vt 0.375000 0.125000
vt 0.375000 0.125000
vt 0.375000 0.125000
vt 0.875000 0.125000
vt 0.875000 0.125000
vt 0.875000 0.125000
vt 0.875000 0.125000
vt 0.875000 0.125000
vt 0.875000 0.125000
vt 0.375000 0.125000
vt 0.875000 0.125000
vt 0.875000 0.125000
vt 0.125000 0.125000
vt 0.125000 0.125000
vt 0.125000 0.125000
vt 0.125000 0.125000
vt 0.125000 0.125000
vt 0.125000 0.125000
vt 0.125000 0.125000
vt 0.125000 0.125000
vt 0.125000 0.125000
vt 0.125000 0.125000
vt 0.625000 0.125000
vt 0.625000 0.125000
vn -1.0000 0.0000 0.0000
vn 1.0000 0.0000 0.0000
vn 0.8572 0.0000 0.5150
vn 0.0000 -1.0000 0.0000
vn 0.0000 1.0000 0.0000
vn -0.8572 0.0000 0.5150
vn 0.0000 0.0000 1.0000
vn -0.8572 0.0000 -0.5150
vn 0.8572 0.0000 -0.5150
vn 0.0000 0.0000 -1.0000
vn 0.7947 -0.6070 -0.0000
vn -0.7947 -0.6070 -0.0000
vn 0.9239 0.0000 -0.3827
vn 0.9239 0.0000 0.3827
vn 0.3827 0.0000 0.9239
vn -0.3827 0.0000 0.9239
vn 0.3827 0.0000 -0.9239
vn -0.9239 0.0000 0.3827
vn -0.9239 0.0000 -0.3827
vn -0.3827 0.0000 -0.9239
vn -0.0001 0.0000 -1.0000
vn 0.0001 0.0000 -1.0000
vn -1.0000 0.0000 0.0001
vn 1.0000 0.0000 0.0001
vn -0.8829 0.4695 0.0000
vn -0.7875 0.6163 0.0000
vn -0.9513 0.3084 0.0000
vn 0.9939 -0.1099 0.0000
vn 0.9239 -0.3827 0.0000
vn 0.0000 -0.6520 0.7583
vn -0.9239 -0.3827 0.0000
vn -0.9939 -0.1099 0.0000
vn 0.9513 0.3084 0.0000
vn 0.9743 0.2254 0.0000
vn 0.7875 0.6163 0.0000
vn 0.8829 0.4695 0.0000
vn -0.9743 0.2254 0.0000
vn 0.0000 -0.6520 -0.7583
vn -0.4472 0.8944 0.0000
vn 0.4472 0.8944 0.0000
vn 0.0000 -0.6778 0.7353
vn 0.0000 -0.6778 -0.7353
vn 0.0000 -0.6108 0.7918
vn 0.0000 -0.6108 -0.7918
s 1
f 1/1/1 2/2/1 3/3/1 4/4/1
f 5/5/2 6/6/2 7/7/2 8/8/2
f 9/9/3 1/1/3 4/4/3 10/10/3
f 11/11/4 12/12/4 8/8/4 7/7/4
f 9/9/5 13/13/5 2/2/5 1/1/5
f 6/6/5 5/5/5 14/14/5 15/15/5
f 15/15/5 14/14/5 13/13/5 9/9/5
f 4/4/4 3/3/4 16/16/4 10/10/4
f 10/10/4 16/16/4 12/12/4 11/11/4
f 6/6/6 15/15/6 11/11/6 7/7/6
f 15/15/7 9/9/7 10/10/7 11/11/7
f 17/17/2 18/18/2 19/19/2 20/20/2
f 21/21/1 22/22/1 23/23/1 24/24/1
f 25/25/8 17/17/8 20/20/8 26/26/8
f 27/27/4 28/28/4 24/24/4 23/23/4
f 25/25/5 29/29/5 18/18/5 17/17/5
f 22/22/5 21/21/5 30/30/5 31/31/5
f 31/31/5 30/30/5 29/29/5 25/25/5
f 20/20/4 19/19/4 32/32/4 26/26/4
f 26/26/4 32/32/4 28/28/4 27/27/4
f 22/22/9 31/31/9 27/27/9 23/23/9
f 31/31/10 25/25/10 26/26/10 27/27/10
f 208/33/1 34/34/1 35/35/1 211/36/1
f 34/34/10 37/37/10 38/38/10 35/35/10
f 210/39/2 39/40/2 40/41/2 214/42/2
f 39/40/7 33/43/7 36/44/7 40/41/7
f 211/36/4 35/35/4 38/38/4 213/45/4
f 207/46/5 33/43/5 39/40/5 210/39/5
f 51/47/5 52/48/5 49/49/5 50/50/5
f 58/51/1 52/48/1 51/47/1 60/52/1
f 63/53/5 51/47/5 44/54/5
f 60/52/7 51/47/7 63/53/7 62/55/7
f 63/53/5 61/56/5 67/57/5 68/58/5
f 50/50/7 59/59/7 56/60/7 55/61/7
f 65/62/1 66/63/1 61/56/1 63/53/1
f 55/61/5 41/64/5 50/50/5
f 53/65/2 54/66/2 45/67/2 48/68/2
f 44/54/5 51/47/5 50/50/5 41/64/5
f 63/53/1 44/54/1 43/69/1 62/55/1
f 43/69/4 42/70/4 59/59/4 60/52/4
f 47/71/7 48/68/7 45/67/7 46/72/7
f 70/73/4 69/74/4 66/63/4 65/62/4
f 52/48/10 58/51/10 57/75/10 61/56/10
f 42/70/2 41/64/2 55/61/2 56/60/2
f 59/59/4 64/76/4 58/51/4 60/52/4
f 68/58/2 67/57/2 69/74/2 70/73/2
f 56/60/4 59/59/4 42/70/4
f 62/55/4 43/69/4 60/52/4
f 57/75/1 47/71/1 46/72/1 61/56/1
f 59/59/2 50/50/2 49/49/2 64/76/2
f 64/76/10 49/49/10 54/66/10 53/65/10
f 71/77/1 72/78/1 73/79/1
f 73/79/1 74/80/1 71/77/1
f 75/81/5 76/82/5 72/78/5
f 72/78/5 71/77/5 75/81/5
f 77/83/2 78/84/2 76/82/2
f 76/82/2 75/81/2 77/83/2
f 74/80/4 73/79/4 78/84/4
f 78/84/4 77/83/4 74/80/4
f 224/85/4 225/86/4 230/87/4 227/88/4
f 113/89/5 118/90/5 122/91/5 126/92/5
f 234/93/11 236/94/11 231/95/11 235/96/11
f 238/97/4 234/93/4 235/96/4 232/98/4
f 228/99/11 223/100/11 224/85/11 227/88/11
f 237/101/12 238/97/12 232/98/12 233/102/12
f 98/103/13 110/104/14 109/105/14 95/106/13
f 82/107/13 94/108/14 93/109/14 79/110/13
f 124/111/15 122/91/16 121/112/16 123/113/15
f 81/114/17 82/107/13 79/110/13 80/115/17
f 88/116/18 86/117/19 85/118/19 87/119/18
f 84/120/20 81/114/17 80/115/17 83/121/20
f 90/122/16 88/116/18 87/119/18 89/123/16
f 100/124/20 97/125/17 96/126/17 99/127/20
f 94/108/14 92/128/15 91/129/15 93/109/14
f 104/130/18 102/131/19 101/132/19 103/133/18
f 97/125/17 98/103/13 95/106/13 96/126/17
f 102/131/19 100/124/20 99/127/20 101/132/19
f 81/114/5 84/120/5 86/117/5
f 86/117/5 88/116/5 90/122/5
f 90/122/5 92/128/5 94/108/5
f 82/107/5 81/114/5 94/108/5
f 114/134/13 126/92/14 125/135/14 111/136/13
f 116/137/20 113/89/17 112/138/17 115/139/20
f 110/104/14 108/140/15 107/141/15 109/105/14
f 120/142/18 118/90/19 117/143/19 119/144/18
f 92/128/15 90/122/16 89/123/16 91/129/15
f 118/90/19 116/137/20 115/139/20 117/143/19
f 86/117/19 84/120/20 83/121/20 85/118/19
f 97/125/5 100/124/5 102/131/5
f 102/131/5 104/130/5 106/145/5
f 106/145/5 108/140/5 110/104/5
f 81/114/5 86/117/5 90/122/5 94/108/5
f 98/103/5 97/125/5 110/104/5
f 122/91/16 120/142/18 119/144/18 121/112/16
f 126/92/14 124/111/15 123/113/15 125/135/14
f 108/140/15 106/145/16 105/146/16 107/141/15
f 113/89/17 114/134/13 111/136/13 112/138/17
f 113/89/5 116/137/5 118/90/5
f 118/90/5 120/142/5 122/91/5
f 122/91/5 124/111/5 126/92/5
f 97/125/5 102/131/5 106/145/5 110/104/5
f 114/134/5 113/89/5 126/92/5
f 106/145/16 104/130/18 103/133/18 105/146/16
f 129/147/5 134/148/5 138/149/5 142/150/5
f 140/151/15 138/149/16 137/152/16 139/153/15
f 130/154/13 142/150/14 141/155/14 127/156/13
f 132/157/20 129/147/17 128/158/17 131/159/20
f 136/160/18 134/148/19 133/161/19 135/162/18
f 134/148/19 132/157/20 131/159/20 133/161/19
f 138/149/16 136/160/18 135/162/18 137/152/16
f 142/150/14 140/151/15 139/153/15 141/155/14
f 129/147/17 130/154/13 127/156/13 128/158/17
f 129/147/5 132/157/5 134/148/5
f 134/148/5 136/160/5 138/149/5
f 138/149/5 140/151/5 142/150/5
f 130/154/5 129/147/5 142/150/5
f 43/69/10 44/54/10 41/64/10 42/70/10
f 48/68/4 64/76/4 53/65/4
f 54/66/5 49/49/5 45/67/5
f 57/75/4 58/51/4 47/71/4
f 61/56/5 46/72/5 52/48/5
f 48/68/4 47/71/4 58/51/4 64/76/4
f 52/48/5 46/72/5 45/67/5 49/49/5
f 146/163/7 150/164/7 148/165/7 144/166/7
f 143/167/21 145/168/21 149/169/21 147/170/21
f 144/166/1 148/165/1 149/169/1 145/168/1
f 154/171/7 158/172/7 156/173/7 152/174/7
f 151/175/21 153/176/21 157/177/21 155/178/21
f 152/174/1 156/173/1 157/177/1 153/176/1
f 162/179/7 160/180/7 164/181/7 166/182/7
f 159/183/22 163/184/22 165/185/22 161/186/22
f 160/180/2 161/186/2 165/185/2 164/181/2
f 170/187/7 168/188/7 172/189/7 174/190/7
f 167/191/22 171/192/22 173/193/22 169/194/22
f 168/188/2 169/194/2 173/193/2 172/189/2
f 174/190/23 171/192/23 167/191/23 170/187/23
f 158/172/24 154/171/24 151/175/24 155/178/24
f 150/164/24 146/163/24 143/167/24 147/170/24
f 166/182/23 163/184/23 159/183/23 162/179/23
f 176/195/25 175/196/26 185/197/26 186/198/25
f 195/199/27 176/195/25 186/198/25 197/200/27
f 181/201/28 180/202/29 190/203/29 191/204/28
f 200/205/10 201/206/10 202/207/10 199/208/10
f 181/201/30 182/209/30 177/210/30 178/211/30
f 179/212/31 178/211/32 188/213/32 189/214/31
f 196/215/33 182/209/34 192/216/34 198/217/33
f 184/218/35 183/219/36 193/220/36 194/221/35
f 185/222/1 175/223/1 206/224/1 201/206/1
f 203/225/7 204/226/7 205/227/7 206/224/7
f 199/208/5 202/207/5 205/227/5 204/226/5
f 182/209/34 181/201/28 191/204/28 192/216/34
f 188/213/32 178/211/32 177/210/37 187/228/37
f 184/229/2 194/230/2 200/205/2 203/225/2
f 206/224/7 175/223/7 184/229/7 203/225/7
f 195/199/7 196/215/7 183/219/7 176/195/7
f 179/212/30 180/202/30 181/201/30 178/211/30
f 197/200/10 186/198/10 193/220/10 198/217/10
f 187/228/38 192/216/38 191/204/38 188/213/38
f 189/214/38 188/213/38 191/204/38 190/203/38
f 187/228/38 197/200/38 198/217/38 192/216/38
f 177/210/30 182/209/30 196/215/30 195/199/30
f 183/219/36 196/215/33 198/217/33 193/220/36
f 177/210/37 195/199/27 197/200/27 187/228/37
f 205/227/39 202/207/39 201/206/39 206/224/39
f 199/208/40 204/226/40 203/225/40 200/205/40
f 201/206/10 200/205/10 194/230/10 185/222/10
f 186/198/10 185/197/10 194/221/10 193/220/10
f 176/195/7 183/219/7 184/218/7 175/196/7
f 34/34/5 208/33/5 209/231/5 37/37/5
f 36/44/4 212/232/4 214/42/4 40/41/4
f 213/45/41 219/233/41 220/234/41 211/36/41
f 37/37/2 209/231/2 213/45/2 38/38/2
f 33/43/1 207/46/1 212/232/1 36/44/1
f 211/36/1 220/234/1 222/235/1 208/33/1
f 210/39/5 216/236/5 215/237/5 207/46/5
f 207/46/1 215/237/1 217/238/1 212/232/1
f 212/232/42 217/238/42 218/239/42 214/42/42
f 214/42/2 218/239/2 216/236/2 210/39/2
f 208/33/5 222/235/5 221/240/5 209/231/5
f 218/239/4 217/238/4 220/234/4 219/233/4
f 209/231/2 221/240/2 219/233/2 213/45/2
f 217/238/1 215/237/1 222/235/1 220/234/1
f 219/233/2 221/240/2 216/236/2 218/239/2
f 221/240/5 222/235/5 215/237/5 216/236/5
f 225/86/12 226/241/12 229/242/12 230/87/12
f 225/86/43 224/85/43 223/100/43 226/241/43
f 229/242/44 228/99/44 227/88/44 230/87/44
f 232/98/43 235/96/43 231/95/43 233/102/43
f 237/101/44 236/94/44 234/93/44 238/97/44
f 180/202/4 179/212/4 189/214/4 190/203/4
