# Blender v3.0.0 OBJ File: 'City.blend'
# www.blender.org
o oil_rig_1_3
v 0.000000 -1.900000 -0.100000
v -0.070711 -1.900000 -0.070711
v -0.100000 -1.900000 0.000000
v -0.070711 -1.900000 0.070711
v 0.000000 -1.900000 0.100000
v 0.070711 -1.900000 0.070711
v 0.100000 -1.900000 -0.000000
v 0.070711 -1.900000 -0.070711
v 0.000000 -1.200000 -0.100000
v -0.070711 -1.200000 -0.070711
v -0.100000 -1.200000 0.000000
v -0.070711 -1.200000 0.070711
v 0.000000 -1.200000 0.100000
v 0.070711 -1.200000 0.070711
v 0.100000 -1.200000 -0.000000
v 0.070711 -1.200000 -0.070711
v -0.020000 -1.200000 0.000000
v 0.000000 -1.200000 0.020000
v -0.000000 -1.200000 -0.020000
v 0.020000 -1.200000 -0.000000
v -0.020000 -0.000000 0.000000
v 0.000000 -0.000000 0.020000
v -0.000000 -0.000000 -0.020000
v 0.020000 -0.000000 -0.000000
vt 0.125000 0.125000
vt 0.125000 0.125000
vt 0.125000 0.125000
vt 0.125000 0.125000
vt 0.125000 0.125000
vt 0.125000 0.125000
vt 0.125000 0.125000
vt 0.125000 0.125000
vt 0.375000 0.125000
vt 0.375000 0.125000
vt 0.375000 0.125000
vt 0.375000 0.125000
vt 0.375000 0.125000
vt 0.375000 0.125000
vt 0.375000 0.125000
vt 0.375000 0.125000
vt 0.375000 0.125000
vt 0.375000 0.125000
vt 0.375000 0.125000
vt 0.375000 0.125000
vt 0.375000 0.125000
vt 0.375000 0.125000
vt 0.375000 0.125000
vt 0.375000 0.125000
vn 0.7071 0.0000 0.7071
vn -0.7071 0.0000 -0.7071
vn 0.7071 0.0000 -0.7071
vn -0.7071 0.0000 0.7071
vn 0.0000 1.0000 0.0000
vn 1.0000 0.0000 0.0000
vn 0.0000 0.0000 1.0000
vn -1.0000 0.0000 0.0000
vn -0.0000 0.0000 -1.0000
s off
f 18/1/1 20/2/1 24/3/1 22/4/1
f 19/5/2 17/6/2 21/7/2 23/8/2
f 20/2/3 19/5/3 23/8/3 24/3/3
f 17/6/4 18/1/4 22/4/4 21/7/4
f 23/8/5 21/7/5 22/4/5 24/3/5
s 1
f 8/9/3 16/10/3 15/11/6 7/12/6
f 6/13/1 14/14/1 13/15/7 5/16/7
f 4/17/4 12/18/4 11/19/8 3/20/8
f 2/21/2 10/22/2 9/23/9 1/24/9
f 1/24/9 9/23/9 16/10/3 8/9/3
f 7/12/6 15/11/6 14/14/1 6/13/1
f 5/16/7 13/15/7 12/18/4 4/17/4
f 3/20/8 11/19/8 10/22/2 2/21/2
f 13/15/5 14/14/5 15/11/5 12/18/5
f 12/18/5 15/11/5 16/10/5 11/19/5
f 9/23/5 10/22/5 11/19/5 16/10/5
