# Blender v3.0.0 OBJ File: 'City.blend'
# www.blender.org
o oil_rig_1_2
v -0.025000 0.000003 0.399997
v 0.000000 0.000003 0.374997
v 0.025000 0.000003 0.399997
v 0.000000 0.000003 0.424997
v -0.025000 -1.239997 0.399997
v 0.000000 -1.239997 0.374997
v 0.025000 -1.239997 0.399997
v 0.000000 -1.239997 0.424997
v 0.000000 -1.239997 -0.375003
v 0.025000 -1.239997 -0.400003
v 0.000000 -1.239997 -0.425003
v -0.025000 -1.239997 -0.400003
v 0.000000 0.000003 -0.375003
v 0.025000 0.000003 -0.400003
v 0.000000 0.000003 -0.425003
v -0.025000 0.000003 -0.400003
vt 0.125000 0.125000
vt 0.125000 0.125000
vt 0.125000 0.125000
vt 0.125000 0.125000
vt 0.125000 0.125000
vt 0.125000 0.125000
vt 0.125000 0.125000
vt 0.125000 0.125000
vt 0.125000 0.125000
vt 0.125000 0.125000
vt 0.125000 0.125000
vt 0.125000 0.125000
vt 0.125000 0.125000
vt 0.125000 0.125000
vt 0.125000 0.125000
vt 0.125000 0.125000
vn 0.7071 0.0000 0.7071
vn -0.7071 -0.0000 -0.7071
vn 0.7071 -0.0000 -0.7071
vn 0.0000 -1.0000 0.0000
vn -0.7071 0.0000 0.7071
vn 0.0000 1.0000 0.0000
s 1
f 7/1/1 3/2/1 4/3/1 8/4/1
f 5/5/2 1/6/2 2/7/2 6/8/2
f 6/8/3 2/7/3 3/2/3 7/1/3
f 7/1/4 8/4/4 5/5/4 6/8/4
f 9/9/5 13/10/5 16/11/5 12/12/5
f 11/13/3 15/14/3 14/15/3 10/16/3
f 12/12/2 16/11/2 15/14/2 11/13/2
f 10/16/1 14/15/1 13/10/1 9/9/1
f 10/16/4 9/9/4 12/12/4 11/13/4
f 8/4/5 4/3/5 1/6/5 5/5/5
f 2/7/6 1/6/6 4/3/6 3/2/6
f 13/10/6 14/15/6 15/14/6 16/11/6
