# Blender v3.0.0 OBJ File: 'City.blend'
# www.blender.org
o oil_rig_1
v 1.500000 0.000000 0.700000
v 2.300000 0.000000 0.700000
v 1.500000 0.000000 -0.600000
v 2.300000 0.000000 -0.600000
v 1.500000 1.200000 0.700000
v 2.300000 0.800000 0.700000
v 1.500000 1.200000 -0.600000
v 2.300000 0.800000 -0.600000
v 1.477639 1.211180 0.725000
v 2.322361 0.788820 0.725000
v 1.477639 1.211180 -0.625000
v 2.322361 0.788820 -0.625000
v 1.500000 1.255902 -0.625000
v 1.500000 1.255902 0.725000
v 2.344721 0.833541 0.725000
v 2.344721 0.833541 -0.625000
v 1.477639 1.211180 -0.432143
v 1.477639 1.211180 -0.239286
v 1.477639 1.211180 -0.046429
v 1.477639 1.211180 0.146429
v 1.477639 1.211180 0.339286
v 1.477639 1.211180 0.532143
v 2.322361 0.788820 0.532143
v 2.322361 0.788820 0.339286
v 2.322361 0.788820 0.146429
v 2.322361 0.788820 -0.046429
v 2.322361 0.788820 -0.239286
v 2.322361 0.788820 -0.432143
v 1.500000 1.255902 -0.432143
v 1.500000 1.255902 -0.239286
v 1.500000 1.255902 -0.046429
v 1.500000 1.255902 0.146429
v 1.500000 1.255902 0.339286
v 1.500000 1.255902 0.532143
v 2.344721 0.833541 0.532143
v 2.344721 0.833541 0.339286
v 2.344721 0.833541 0.146429
v 2.344721 0.833541 -0.046429
v 2.344721 0.833541 -0.239286
v 2.344721 0.833541 -0.432143
v 1.200000 0.100000 0.600000
v -0.600000 0.100000 0.600000
v -0.600000 0.000000 0.600000
v 1.200000 0.000000 0.600000
v 1.200000 0.000000 -0.600000
v -0.600000 0.000000 -0.600000
v 1.200000 0.100000 -0.600000
v -0.600000 0.100000 -0.600000
v 0.750000 0.100000 0.300000
v 0.150000 0.100000 0.300000
v 0.750000 0.100000 -0.300000
v 0.150000 0.100000 -0.300000
v 0.550000 0.800000 0.300000
v 0.350000 0.800000 0.300000
v 0.550000 0.800000 -0.300000
v 0.350000 0.800000 -0.300000
v 0.350000 1.200000 -0.100000
v 0.350000 1.200000 0.100000
v 0.550000 1.200000 0.100000
v 0.550000 1.200000 -0.100000
v 1.050000 0.100000 0.100000
v 1.050000 0.100000 -0.100000
v 0.550000 1.100000 -0.100000
v 0.550000 1.100000 0.100000
v 0.350000 1.100000 0.100000
v -0.150000 0.100000 0.100000
v -0.150000 0.100000 -0.100000
v 0.350000 1.100000 -0.100000
v -0.900000 0.100000 0.500000
v -0.900000 0.100000 0.700000
v -0.700000 0.100000 0.700000
v -0.700000 0.100000 0.500000
v -0.900000 0.100000 -0.700000
v -0.900000 0.100000 -0.500000
v -0.700000 0.100000 -0.500000
v -0.700000 0.100000 -0.700000
v -0.900000 2.000000 -0.100000
v -0.900000 2.000000 0.100000
v -0.700000 2.000000 0.100000
v -0.700000 2.000000 -0.100000
v -0.700000 1.683333 -0.000000
v -0.900000 1.683333 0.000000
v -0.900000 2.100000 -0.100000
v -0.900000 2.100000 0.100000
v -0.700000 2.100000 0.100000
v -0.700000 2.100000 -0.100000
v -0.800000 2.200000 0.100000
v -0.870710 2.170711 0.100000
v -0.800000 2.200000 -0.100000
v -0.870710 2.170711 -0.100000
v -0.729289 2.170711 0.100000
v -0.729289 2.170711 -0.100000
v -2.121421 0.000000 0.141421
v -2.180000 0.000000 0.000000
v -2.121421 0.000000 -0.141421
v -1.980000 0.000000 -0.200000
v -1.980000 0.000000 0.200000
v -1.838579 0.000000 0.141421
v -1.780000 0.000000 -0.000000
v -1.838579 0.000000 -0.141421
v -2.121421 0.200000 0.141421
v -2.180000 0.200000 0.000000
v -2.121421 0.200000 -0.141421
v -1.980000 0.200000 -0.200000
v -1.980000 0.200000 0.200000
v -1.838579 0.200000 0.141421
v -1.780000 0.200000 -0.000000
v -1.838579 0.200000 -0.141421
v -0.600000 0.100000 0.800000
v -0.600000 0.000000 0.800000
v -1.000000 0.100000 0.800000
v -1.000000 0.000000 0.800000
v -1.000000 0.100000 -0.800000
v -1.000000 0.000000 -0.800000
v -0.600000 0.100000 -0.800000
v -0.600000 0.000000 -0.800000
v 1.500000 0.000000 -0.400000
v 1.300000 0.000000 -0.400000
v 1.300000 0.000000 -0.100000
v 1.500000 0.000000 -0.100000
v 1.300000 0.500000 -0.400000
v 1.300000 0.500000 -0.100000
v 1.400000 0.600000 -0.400000
v 1.400000 0.600000 -0.100000
v 1.500000 0.600000 -0.400000
v 1.500000 0.600000 -0.100000
v 1.700000 0.000000 0.700000
v 1.700000 0.000000 0.740000
v 1.740000 0.000000 0.740000
v 1.740000 0.000000 0.720000
v 2.060000 0.000000 0.720000
v 2.060000 0.000000 0.740000
v 2.100000 0.000000 0.740000
v 2.100000 0.000000 0.700000
v 1.700000 0.700000 0.700000
v 1.700000 0.700000 0.740000
v 1.740000 0.660000 0.740000
v 1.740000 0.660000 0.720000
v 2.060000 0.660000 0.720000
v 2.060000 0.660000 0.740000
v 2.100000 0.700000 0.740000
v 2.100000 0.700000 0.700000
v 2.020000 0.380000 0.720000
v 2.020000 0.350000 0.720000
v 1.960000 0.350000 0.720000
v 1.960000 0.380000 0.720000
v 2.020000 0.380000 0.740000
v 2.020000 0.350000 0.740000
v 1.960000 0.350000 0.740000
v 1.960000 0.380000 0.740000
v -1.980000 0.200000 -0.100000
v -2.050711 0.200000 -0.070711
v -2.080000 0.200000 0.000000
v -2.050711 0.200000 0.070711
v -1.980000 0.200000 0.100000
v -1.909289 0.200000 0.070711
v -1.880000 0.200000 -0.000000
v -1.909289 0.200000 -0.070711
vt 0.625000 0.625000
vt 0.625000 0.625000
vt 0.625000 0.625000
vt 0.625000 0.625000
vt 0.625000 0.625000
vt 0.625000 0.625000
vt 0.625000 0.625000
vt 0.625000 0.625000
vt 0.625000 0.625000
vt 0.625000 0.625000
vt 0.625000 0.625000
vt 0.625000 0.625000
vt 0.625000 0.625000
vt 0.625000 0.625000
vt 0.625000 0.625000
vt 0.625000 0.625000
vt 0.875000 0.625000
vt 0.875000 0.625000
vt 0.875000 0.625000
vt 0.875000 0.625000
vt 0.625000 0.625000
vt 0.625000 0.625000
vt 0.625000 0.625000
vt 0.625000 0.625000
vt 0.625000 0.625000
vt 0.625000 0.625000
vt 0.625000 0.625000
vt 0.625000 0.625000
vt 0.875000 0.125000
vt 0.875000 0.125000
vt 0.875000 0.125000
vt 0.875000 0.125000
vt 0.875000 0.125000
vt 0.875000 0.125000
vt 0.875000 0.125000
vt 0.875000 0.125000
vt 0.125000 0.375000
vt 0.125000 0.375000
vt 0.125000 0.375000
vt 0.125000 0.375000
vt 0.625000 0.375000
vt 0.625000 0.375000
vt 0.625000 0.375000
vt 0.625000 0.375000
vt 0.125000 0.375000
vt 0.125000 0.375000
vt 0.125000 0.375000
vt 0.125000 0.375000
vt 0.125000 0.375000
vt 0.125000 0.375000
vt 0.125000 0.375000
vt 0.125000 0.375000
vt 0.125000 0.375000
vt 0.125000 0.375000
vt 0.375000 0.375000
vt 0.375000 0.375000
vt 0.375000 0.375000
vt 0.375000 0.375000
vt 0.125000 0.375000
vt 0.125000 0.375000
vt 0.125000 0.375000
vt 0.125000 0.375000
vt 0.375000 0.375000
vt 0.375000 0.375000
vt 0.375000 0.375000
vt 0.375000 0.375000
vt 0.125000 0.375000
vt 0.125000 0.375000
vt 0.125000 0.375000
vt 0.125000 0.375000
vt 0.375000 0.375000
vt 0.375000 0.375000
vt 0.375000 0.375000
vt 0.375000 0.375000
vt 0.125000 0.375000
vt 0.125000 0.375000
vt 0.375000 0.375000
vt 0.375000 0.375000
vt 0.375000 0.375000
vt 0.375000 0.375000
vt 0.125000 0.375000
vt 0.125000 0.375000
vt 0.125000 0.375000
vt 0.125000 0.375000
vt 0.375000 0.375000
vt 0.375000 0.375000
vt 0.375000 0.375000
vt 0.375000 0.375000
vt 0.125000 0.375000
vt 0.125000 0.375000
vt 0.125000 0.375000
vt 0.125000 0.375000
vt 0.375000 0.375000
vt 0.375000 0.375000
vt 0.375000 0.375000
vt 0.375000 0.375000
vt 0.625000 0.375000
vt 0.625000 0.375000
vt 0.625000 0.375000
vt 0.625000 0.375000
vt 0.875000 0.375000
vt 0.875000 0.375000
vt 0.875000 0.375000
vt 0.875000 0.375000
vt 0.625000 0.375000
vt 0.625000 0.375000
vt 0.625000 0.375000
vt 0.625000 0.375000
vt 0.875000 0.375000
vt 0.875000 0.375000
vt 0.875000 0.375000
vt 0.875000 0.375000
vt 0.625000 0.375000
vt 0.625000 0.375000
vt 0.625000 0.375000
vt 0.625000 0.375000
vt 0.875000 0.375000
vt 0.875000 0.375000
vt 0.875000 0.375000
vt 0.875000 0.375000
vt 0.125000 0.125000
vt 0.125000 0.125000
vt 0.125000 0.125000
vt 0.125000 0.125000
vt 0.125000 0.125000
vt 0.125000 0.125000
vt 0.125000 0.125000
vt 0.125000 0.125000
vt 0.125000 0.125000
vt 0.125000 0.125000
vt 0.125000 0.875000
vt 0.125000 0.875000
vt 0.125000 0.875000
vt 0.125000 0.875000
vt 0.625000 0.125000
vt 0.625000 0.125000
vt 0.625000 0.125000
vt 0.625000 0.125000
vt 0.625000 0.125000
vt 0.625000 0.125000
vt 0.625000 0.125000
vt 0.625000 0.125000
vt 0.375000 0.125000
vt 0.375000 0.125000
vt 0.375000 0.125000
vt 0.375000 0.125000
vt 0.375000 0.125000
vt 0.375000 0.125000
vt 0.375000 0.125000
vt 0.375000 0.125000
vt 0.375000 0.125000
vt 0.375000 0.125000
vt 0.375000 0.125000
vt 0.375000 0.125000
vt 0.375000 0.125000
vt 0.375000 0.125000
vt 0.375000 0.125000
vt 0.375000 0.125000
vt 0.375000 0.125000
vt 0.375000 0.125000
vt 0.375000 0.125000
vt 0.375000 0.125000
vt 0.375000 0.125000
vt 0.375000 0.125000
vt 0.375000 0.125000
vt 0.375000 0.125000
vt 0.375000 0.125000
vt 0.375000 0.125000
vt 0.375000 0.125000
vt 0.375000 0.125000
vt 0.375000 0.125000
vt 0.375000 0.125000
vt 0.375000 0.125000
vt 0.375000 0.125000
vt 0.375000 0.125000
vt 0.375000 0.125000
vt 0.375000 0.125000
vt 0.375000 0.125000
vt 0.125000 0.125000
vt 0.125000 0.125000
vt 0.125000 0.125000
vt 0.125000 0.125000
vt 0.125000 0.125000
vt 0.125000 0.125000
vt 0.125000 0.125000
vt 0.125000 0.125000
vt 0.125000 0.125000
vt 0.125000 0.125000
vt 0.125000 0.125000
vt 0.125000 0.125000
vt 0.125000 0.125000
vt 0.125000 0.125000
vt 0.125000 0.125000
vt 0.125000 0.125000
vt 0.125000 0.125000
vt 0.125000 0.125000
vt 0.125000 0.125000
vt 0.125000 0.125000
vt 0.125000 0.125000
vt 0.125000 0.125000
vt 0.125000 0.875000
vt 0.125000 0.875000
vt 0.125000 0.875000
vt 0.125000 0.875000
vt 0.125000 0.625000
vt 0.125000 0.625000
vt 0.125000 0.625000
vt 0.125000 0.625000
vt 0.125000 0.625000
vt 0.125000 0.625000
vt 0.125000 0.625000
vt 0.125000 0.625000
vt 0.375000 0.625000
vt 0.375000 0.625000
vt 0.375000 0.625000
vt 0.375000 0.625000
vt 0.375000 0.625000
vt 0.375000 0.625000
vt 0.125000 0.625000
vt 0.125000 0.625000
vt 0.125000 0.875000
vt 0.125000 0.875000
vt 0.125000 0.875000
vt 0.125000 0.875000
vt 0.125000 0.875000
vt 0.125000 0.875000
vt 0.125000 0.875000
vt 0.125000 0.875000
vt 0.125000 0.875000
vt 0.125000 0.875000
vt 0.125000 0.875000
vt 0.125000 0.875000
vt 0.125000 0.875000
vt 0.125000 0.875000
vt 0.125000 0.875000
vt 0.125000 0.875000
vt 0.375000 0.875000
vt 0.375000 0.875000
vt 0.375000 0.875000
vt 0.375000 0.875000
vt 0.375000 0.875000
vt 0.375000 0.875000
vt 0.375000 0.875000
vt 0.375000 0.875000
vn 1.0000 0.0000 0.0000
vn -1.0000 0.0000 0.0000
vn -0.0000 0.0000 1.0000
vn 0.0000 -1.0000 0.0000
vn 0.0000 1.0000 0.0000
vn -0.0000 0.0000 -1.0000
vn -0.8944 0.4472 0.0000
vn 0.4472 0.8944 0.0000
vn 0.8944 -0.4472 0.0000
vn -0.4472 -0.8944 0.0000
vn -0.9615 0.2747 0.0000
vn 0.9615 0.2747 0.0000
vn 0.8944 0.4472 0.0000
vn 0.0000 0.3011 0.9536
vn 0.0000 -0.3011 -0.9536
vn 0.9808 0.1951 0.0000
vn 0.0000 0.3011 -0.9536
vn 0.0000 -0.3011 0.9536
vn -0.9808 0.1951 0.0000
vn -0.7071 0.7071 0.0000
vn 0.7071 0.7071 0.0000
vn 0.7071 0.0000 0.7071
vn -0.7071 0.0000 -0.7071
vn -0.7071 0.0000 0.7071
vn 0.7071 0.0000 -0.7071
vn -0.3827 0.9239 0.0000
s off
f 133/1/1 134/2/1 142/3/1 141/4/1
f 131/5/2 132/6/2 140/7/2 139/8/2
f 129/9/1 130/10/1 138/11/1 137/12/1
f 127/13/2 128/14/2 136/15/2 135/16/2
f 132/6/3 133/1/3 141/4/3 140/7/3
f 130/17/3 131/18/3 139/19/3 138/20/3
f 128/14/3 129/9/3 137/12/3 136/15/3
f 137/12/4 138/11/4 139/8/4 140/7/4
f 136/15/3 137/12/3 140/7/3 141/4/3
f 135/16/5 136/15/5 141/4/5 142/3/5
f 143/21/5 146/22/5 150/23/5 147/24/5
f 144/25/4 148/26/4 149/27/4 145/28/4
f 145/28/2 149/27/2 150/23/2 146/22/2
f 143/21/1 147/24/1 148/26/1 144/25/1
f 147/24/3 150/23/3 149/27/3 148/26/3
s 1
f 4/29/6 3/30/6 7/31/6 8/32/6
f 1/33/3 2/34/3 6/35/3 5/36/3
f 11/37/7 17/38/7 29/39/7 13/40/7
f 34/41/8 14/42/8 15/43/8 35/44/8
f 12/45/6 11/37/6 13/40/6 16/46/6
f 9/47/3 10/48/3 15/49/3 14/50/3
f 28/51/9 12/45/9 16/46/9 40/52/9
f 22/53/7 9/47/7 14/50/7 34/54/7
f 17/55/7 18/56/7 30/57/7 29/58/7
f 18/59/7 19/60/7 31/61/7 30/62/7
f 19/63/7 20/64/7 32/65/7 31/66/7
f 20/67/7 21/68/7 33/69/7 32/70/7
f 21/71/7 22/72/7 34/73/7 33/74/7
f 10/48/9 23/75/9 35/76/9 15/49/9
f 23/77/9 24/78/9 36/79/9 35/80/9
f 24/81/9 25/82/9 37/83/9 36/84/9
f 25/85/9 26/86/9 38/87/9 37/88/9
f 26/89/9 27/90/9 39/91/9 38/92/9
f 27/93/9 28/94/9 40/95/9 39/96/9
f 13/97/8 29/98/8 40/99/8 16/100/8
f 29/101/8 30/102/8 39/103/8 40/104/8
f 30/105/8 31/106/8 38/107/8 39/108/8
f 31/109/8 32/110/8 37/111/8 38/112/8
f 32/113/8 33/114/8 36/115/8 37/116/8
f 33/117/8 34/118/8 35/119/8 36/120/8
f 28/51/10 17/38/10 11/37/10 12/45/10
f 17/55/10 28/94/10 27/93/10 18/56/10
f 20/67/10 25/82/10 24/81/10 21/68/10
f 3/30/2 1/33/2 5/36/2 7/31/2
f 22/53/10 23/75/10 10/48/10 9/47/10
f 19/63/10 26/86/10 25/85/10 20/64/10
f 18/59/10 27/90/10 26/89/10 19/60/10
f 21/71/10 24/78/10 23/77/10 22/72/10
f 2/34/1 4/29/1 8/32/1 6/35/1
f 46/121/6 48/122/6 47/123/6 45/124/6
f 44/125/3 41/126/3 42/127/3 43/128/3
f 44/125/1 45/124/1 47/123/1 41/126/1
f 43/128/1 42/127/1 109/129/1 110/130/1
f 48/131/5 42/132/5 41/133/5 47/134/5
f 50/135/11 54/136/11 56/137/11 52/138/11
f 51/139/6 52/138/6 56/137/6 55/140/6
f 49/141/12 51/139/12 55/140/12 53/142/12
f 49/141/3 53/142/3 54/136/3 50/135/3
f 65/143/3 64/144/3 59/145/3 58/146/3
f 58/146/5 59/145/5 60/147/5 57/148/5
f 63/149/6 68/150/6 57/148/6 60/147/6
f 54/136/5 53/142/5 55/140/5 56/137/5
f 66/151/7 65/143/7 68/150/7 67/152/7
f 61/153/13 62/154/13 63/149/13 64/144/13
f 61/153/3 64/144/3 65/143/3 66/151/3
f 63/149/6 62/154/6 67/152/6 68/150/6
f 57/148/2 68/150/2 65/143/2 58/146/2
f 60/147/1 59/145/1 64/144/1 63/149/1
f 70/155/2 78/156/2 82/157/2 69/158/2
f 70/155/14 71/159/14 79/160/14 78/156/14
f 72/161/15 69/158/15 82/157/15 81/162/15
f 79/160/1 80/163/1 86/164/16 85/165/16
f 74/166/2 82/157/2 77/167/2 73/168/2
f 75/169/1 76/170/1 80/163/1 81/162/1
f 73/168/17 77/167/17 80/163/17 76/170/17
f 80/163/1 79/160/1 81/162/1
f 72/161/1 81/162/1 79/160/1 71/159/1
f 78/156/2 77/167/2 82/157/2
f 75/169/18 81/162/18 82/157/18 74/166/18
f 85/165/3 91/171/3 88/172/3 84/173/3
f 77/167/2 78/156/2 84/173/19 83/174/19
f 80/163/6 77/167/6 83/174/6 86/164/6
f 78/156/3 79/160/3 85/165/3 84/173/3
f 88/172/20 87/175/5 89/176/5 90/177/20
f 87/175/5 91/171/21 92/178/21 89/176/5
f 84/173/19 88/172/20 90/177/20 83/174/19
f 91/171/21 85/165/16 86/164/16 92/178/21
f 87/175/3 88/172/3 91/171/3
f 83/174/6 90/177/6 92/178/6 86/164/6
f 89/176/6 92/178/6 90/177/6
f 99/179/1 107/180/1 106/181/22 98/182/22
f 95/183/23 103/184/23 104/185/6 96/186/6
f 93/187/24 101/188/24 102/189/2 94/190/2
f 100/191/25 108/192/25 107/180/1 99/179/1
f 98/182/22 106/181/22 105/193/3 97/194/3
f 94/190/2 102/189/2 103/184/23 95/183/23
f 97/194/3 105/193/3 101/188/24 93/187/24
f 96/186/6 104/185/6 108/192/25 100/191/25
f 110/130/3 109/129/3 111/195/3 112/196/3
f 112/196/2 111/195/2 113/197/2 114/198/2
f 114/198/6 113/197/6 115/199/6 116/200/6
f 48/122/1 46/121/1 116/200/1 115/199/1
f 109/201/5 42/132/5 111/202/5
f 115/203/5 113/204/5 48/131/5
f 48/131/5 113/204/5 111/202/5 42/132/5
f 118/205/6 121/206/6 123/207/6 125/208/6
f 118/205/2 119/209/2 122/210/2 121/206/2
f 126/211/3 124/212/3 122/210/3 119/209/3
f 121/213/20 122/214/20 124/215/26 123/216/26
f 123/216/26 124/215/26 126/217/5 125/218/5
f 120/219/3 126/211/3 119/209/3
f 118/205/6 125/208/6 117/220/6
f 105/221/5 106/222/5 156/223/5 155/224/5
f 101/225/5 105/221/5 155/224/5 154/226/5
f 102/227/5 101/225/5 154/226/5 153/228/5
f 103/229/5 102/227/5 153/228/5 152/230/5
f 104/231/5 103/229/5 152/230/5 151/232/5
f 108/233/5 104/231/5 151/232/5 158/234/5
f 107/235/5 108/233/5 158/234/5 157/236/5
f 106/222/5 107/235/5 157/236/5 156/223/5
f 155/237/5 156/238/5 157/239/5 154/240/5
f 154/240/5 157/239/5 158/241/5 153/242/5
f 151/243/5 152/244/5 153/242/5 158/241/5
