# Blender v3.0.0 OBJ File: 'City.blend'
# www.blender.org
o tram_wheel
v -0.039998 -0.000002 0.040000
v -0.039998 0.028282 0.028284
v -0.039998 0.039998 -0.000000
v -0.039998 0.028282 -0.028284
v -0.039998 -0.000002 -0.040000
v -0.039998 -0.028286 -0.028284
v -0.039998 -0.040002 -0.000000
v -0.039998 -0.028286 0.028284
v -0.059998 -0.000002 0.040000
v -0.059998 0.028282 0.028284
v -0.059998 0.039998 -0.000000
v -0.059998 0.028282 -0.028284
v -0.059998 -0.000002 -0.040000
v -0.059998 -0.028286 -0.028284
v -0.059998 -0.040002 -0.000000
v -0.059998 -0.028286 0.028284
v -0.000000 0.000000 -0.150000
v -0.000000 0.057403 -0.138582
v -0.000000 0.106066 -0.106066
v -0.000000 0.138582 -0.057402
v -0.000000 0.150000 0.000000
v -0.000000 0.138582 0.057403
v -0.000000 0.106066 0.106066
v -0.000000 0.057403 0.138582
v -0.000000 0.000000 0.150000
v -0.000000 -0.057402 0.138582
v -0.000000 -0.106066 0.106066
v -0.000000 -0.138582 0.057403
v -0.000000 -0.150000 0.000000
v -0.000000 -0.138582 -0.057402
v -0.000000 -0.106066 -0.106066
v -0.000000 -0.057402 -0.138582
v -0.020000 0.000000 -0.150000
v -0.020000 0.057403 -0.138582
v -0.020000 0.106066 -0.106066
v -0.020000 0.138582 -0.057402
v -0.020000 0.150000 0.000000
v -0.020000 0.138582 0.057403
v -0.020000 0.106066 0.106066
v -0.020000 0.057403 0.138582
v -0.020000 0.000000 0.150000
v -0.020000 -0.057402 0.138582
v -0.020000 -0.106066 0.106066
v -0.020000 -0.138582 0.057403
v -0.020000 -0.150000 0.000000
v -0.020000 -0.138582 -0.057402
v -0.020000 -0.106066 -0.106066
v -0.020000 -0.057402 -0.138582
v -0.040000 0.049599 -0.119742
v -0.040000 0.000000 -0.129608
v -0.040000 -0.049599 -0.119742
v -0.040000 -0.091647 -0.091647
v -0.040000 -0.119742 -0.049599
v -0.040000 -0.129608 0.000000
v -0.040000 -0.119742 0.049599
v -0.040000 -0.091647 0.091647
v -0.040000 -0.049599 0.119742
v -0.040000 0.000000 0.129608
v -0.040000 0.049599 0.119742
v -0.040000 0.091647 0.091647
v -0.040000 0.119742 0.049599
v -0.040000 0.129608 0.000000
v -0.040000 0.119742 -0.049599
v -0.040000 0.091647 -0.091647
vt 0.375000 0.125000
vt 0.375000 0.125000
vt 0.375000 0.125000
vt 0.375000 0.125000
vt 0.375000 0.125000
vt 0.375000 0.125000
vt 0.375000 0.125000
vt 0.375000 0.125000
vt 0.375000 0.125000
vt 0.375000 0.125000
vt 0.375000 0.125000
vt 0.375000 0.125000
vt 0.375000 0.125000
vt 0.375000 0.125000
vt 0.375000 0.125000
vt 0.375000 0.125000
vt 0.125000 0.125000
vt 0.125000 0.125000
vt 0.125000 0.125000
vt 0.125000 0.125000
vt 0.125000 0.125000
vt 0.125000 0.125000
vt 0.125000 0.125000
vt 0.125000 0.125000
vt 0.125000 0.125000
vt 0.125000 0.125000
vt 0.125000 0.125000
vt 0.125000 0.125000
vt 0.125000 0.125000
vt 0.125000 0.125000
vt 0.125000 0.125000
vt 0.125000 0.125000
vt 0.125000 0.125000
vt 0.125000 0.125000
vt 0.125000 0.125000
vt 0.125000 0.125000
vt 0.125000 0.125000
vt 0.125000 0.125000
vt 0.125000 0.125000
vt 0.125000 0.125000
vt 0.125000 0.125000
vt 0.125000 0.125000
vt 0.125000 0.125000
vt 0.125000 0.125000
vt 0.125000 0.125000
vt 0.125000 0.125000
vt 0.125000 0.125000
vt 0.125000 0.125000
vt 0.375000 0.125000
vt 0.375000 0.125000
vt 0.375000 0.125000
vt 0.375000 0.125000
vt 0.125000 0.125000
vt 0.125000 0.125000
vt 0.125000 0.125000
vt 0.125000 0.125000
vt 0.375000 0.125000
vt 0.375000 0.125000
vt 0.375000 0.125000
vt 0.375000 0.125000
vt 0.375000 0.125000
vt 0.375000 0.125000
vt 0.375000 0.125000
vt 0.375000 0.125000
vt 0.375000 0.125000
vt 0.375000 0.125000
vt 0.375000 0.125000
vt 0.375000 0.125000
vt 0.375000 0.125000
vt 0.375000 0.125000
vt 0.375000 0.125000
vt 0.375000 0.125000
vt 0.375000 0.125000
vt 0.375000 0.125000
vt 0.375000 0.125000
vt 0.375000 0.125000
vt 0.375000 0.125000
vt 0.375000 0.125000
vt 0.375000 0.125000
vt 0.375000 0.125000
vt 0.375000 0.125000
vt 0.375000 0.125000
vt 0.375000 0.125000
vt 0.375000 0.125000
vt 0.125000 0.125000
vt 0.125000 0.125000
vt 0.125000 0.125000
vt 0.125000 0.125000
vt 0.125000 0.125000
vt 0.125000 0.125000
vt 0.125000 0.125000
vt 0.125000 0.125000
vt 0.125000 0.125000
vt 0.125000 0.125000
vt 0.125000 0.125000
vt 0.125000 0.125000
vn -0.0000 -0.7071 0.7071
vn 0.0000 -1.0000 0.0000
vn 0.0000 -0.7071 -0.7071
vn 0.0000 -0.0000 -1.0000
vn 0.0000 0.7071 -0.7071
vn -0.0000 1.0000 -0.0000
vn -0.0000 0.7071 0.7071
vn 0.0000 0.0000 1.0000
vn -1.0000 0.0000 0.0000
vn 0.0000 -0.3827 -0.9239
vn 0.0000 0.3827 0.9239
vn 0.0000 0.3827 -0.9239
vn 0.0000 -0.3827 0.9239
vn 0.0000 0.9239 -0.3827
vn 0.0000 -0.9239 0.3827
vn 0.0000 0.9239 0.3827
vn 0.0000 -0.9239 -0.3827
vn -0.7139 0.4951 0.4951
vn -0.7139 0.2680 0.6469
vn -0.7139 -0.4951 -0.4951
vn -0.7139 -0.2680 -0.6469
vn -0.7139 -0.0000 0.7002
vn -0.7139 0.0000 -0.7002
vn -0.7139 -0.2680 0.6469
vn -0.7139 0.2680 -0.6469
vn -0.7139 0.4951 -0.4951
vn -0.7139 -0.4951 0.4951
vn -0.7139 0.6469 -0.2680
vn -0.7139 -0.6469 0.2680
vn -0.7139 0.7002 -0.0000
vn -0.7139 -0.7002 -0.0000
vn -0.7139 0.6469 0.2680
vn -0.7139 -0.6469 -0.2680
vn 1.0000 -0.0000 -0.0000
s 1
f 8/1/1 16/2/1 15/3/2 7/4/2
f 6/5/3 14/6/3 13/7/4 5/8/4
f 4/9/5 12/10/5 11/11/6 3/12/6
f 2/13/7 10/14/7 9/15/8 1/16/8
f 1/16/8 9/15/8 16/2/1 8/1/1
f 7/4/2 15/3/2 14/6/3 6/5/3
f 5/8/4 13/7/4 12/10/5 4/9/5
f 3/12/6 11/11/6 10/14/7 2/13/7
f 11/11/9 12/10/9 13/7/9 10/14/9
f 10/14/9 13/7/9 14/6/9 9/15/9
f 15/3/9 16/2/9 9/15/9 14/6/9
f 32/17/10 31/18/3 47/19/3 48/20/10
f 25/21/8 24/22/11 40/23/11 41/24/8
f 18/25/12 17/26/4 33/27/4 34/28/12
f 17/26/4 32/17/10 48/20/10 33/27/4
f 26/29/13 25/21/8 41/24/8 42/30/13
f 19/31/5 18/25/12 34/28/12 35/32/5
f 27/33/1 26/29/13 42/30/13 43/34/1
f 20/35/14 19/31/5 35/32/5 36/36/14
f 28/37/15 27/33/1 43/34/1 44/38/15
f 21/39/6 20/35/14 36/36/14 37/40/6
f 29/41/2 28/37/15 44/38/15 45/42/2
f 22/43/16 21/39/6 37/40/6 38/44/16
f 30/45/17 29/41/2 45/42/2 46/46/17
f 23/47/7 22/43/16 38/44/16 39/48/7
f 31/18/3 30/45/17 46/46/17 47/19/3
f 24/22/11 23/47/7 39/48/7 40/23/11
f 39/49/18 60/50/18 59/51/19 40/52/19
f 50/53/9 51/54/9 52/55/9 53/56/9
f 47/57/20 52/58/20 51/59/21 48/60/21
f 40/52/19 59/51/19 58/61/22 41/62/22
f 48/60/21 51/59/21 50/63/23 33/64/23
f 41/62/22 58/61/22 57/65/24 42/66/24
f 34/67/25 49/68/25 64/69/26 35/70/26
f 42/66/24 57/65/24 56/71/27 43/72/27
f 35/70/26 64/69/26 63/73/28 36/74/28
f 43/72/27 56/71/27 55/75/29 44/76/29
f 36/74/28 63/73/28 62/77/30 37/78/30
f 44/76/29 55/75/29 54/79/31 45/80/31
f 37/78/30 62/77/30 61/81/32 38/82/32
f 45/80/31 54/79/31 53/83/33 46/84/33
f 38/82/32 61/81/32 60/50/18 39/49/18
f 46/84/33 53/83/33 52/58/20 47/57/20
f 33/64/23 50/63/23 49/68/25 34/67/25
f 49/85/9 50/53/9 53/56/9 54/86/9
f 64/87/9 49/85/9 54/86/9 55/88/9
f 55/88/9 56/89/9 63/90/9 64/87/9
f 56/89/9 57/91/9 62/92/9 63/90/9
f 57/91/9 58/93/9 61/94/9 62/92/9
f 58/93/9 59/95/9 60/96/9 61/94/9
f 31/18/34 32/17/34 17/26/34 30/45/34
f 18/25/34 29/41/34 30/45/34 17/26/34
f 19/31/34 28/37/34 29/41/34 18/25/34
f 20/35/34 27/33/34 28/37/34 19/31/34
f 21/39/34 26/29/34 27/33/34 20/35/34
f 22/43/34 25/21/34 26/29/34 21/39/34
f 23/47/34 24/22/34 25/21/34 22/43/34
