# Blender v3.0.0 OBJ File: 'City.blend'
# www.blender.org
o fr_monorail_st_c_2
v 0.780000 0.070000 0.500000
v -0.330000 0.070000 0.500000
v 0.780000 0.370000 0.000000
v -0.330000 0.370000 0.000000
v 0.780000 0.000000 0.500000
v -0.330000 0.000000 0.500000
v -0.530000 0.000000 0.500000
v -0.330000 0.370000 0.500000
v -0.530000 0.370000 0.500000
v -0.530000 0.370000 -0.500000
v -0.430000 -0.000000 -0.500000
v -0.530000 0.000000 -0.200000
v 0.780000 0.370000 0.500000
v 0.900000 -0.000000 -0.500000
v 0.780000 0.770000 -0.500000
v 0.780000 0.370000 -0.500000
v -0.330000 0.370000 -0.500000
v -0.430000 0.270000 -0.500000
v -0.530000 0.270000 -0.200000
v -0.530000 0.270000 -0.500000
v 0.900000 0.470000 -0.500000
v 0.900000 0.206762 0.300000
v 0.900000 -0.000000 0.300000
v 0.780000 0.770000 -0.400000
v 0.780000 0.710000 -0.400000
v 0.900000 0.370000 0.500000
v 0.900000 -0.000000 0.500000
v 0.900000 0.770000 -0.500000
v 0.900000 0.770000 -0.400000
v 0.900000 0.710000 -0.400000
v -0.330000 0.370000 -0.200000
v -0.530000 0.370000 -0.200000
v -0.330000 0.600000 0.500000
v -0.530000 0.600000 0.500000
v -0.330000 0.600000 -0.200000
v -0.530000 0.600000 -0.200000
vt 0.375000 0.125000
vt 0.375000 0.125000
vt 0.375000 0.125000
vt 0.375000 0.125000
vt 0.375000 0.125000
vt 0.375000 0.125000
vt 0.375000 0.125000
vt 0.375000 0.125000
vt 0.125000 0.125000
vt 0.125000 0.125000
vt 0.125000 0.125000
vt 0.125000 0.125000
vt 0.125000 0.125000
vt 0.125000 0.125000
vt 0.125000 0.125000
vt 0.125000 0.125000
vt 0.125000 0.125000
vt 0.375000 0.125000
vt 0.375000 0.125000
vt 0.375000 0.125000
vt 0.375000 0.125000
vt 0.375000 0.125000
vt 0.375000 0.125000
vt 0.375000 0.125000
vt 0.375000 0.125000
vt 0.375000 0.125000
vt 0.375000 0.125000
vt 0.375000 0.125000
vt 0.375000 0.125000
vt 0.375000 0.125000
vt 0.375000 0.125000
vt 0.375000 0.125000
vt 0.625000 0.125000
vt 0.625000 0.125000
vt 0.625000 0.125000
vt 0.625000 0.125000
vt 0.375000 0.125000
vt 0.375000 0.125000
vt 0.375000 0.125000
vt 0.375000 0.125000
vt 0.375000 0.125000
vt 0.375000 0.125000
vt 0.375000 0.125000
vt 0.375000 0.125000
vt 0.625000 0.125000
vt 0.625000 0.125000
vt 0.625000 0.125000
vt 0.625000 0.125000
vt 0.375000 0.125000
vt 0.375000 0.125000
vt 0.375000 0.125000
vn 0.0000 1.0000 0.0000
vn 0.0000 0.0000 -1.0000
vn -1.0000 0.0000 0.0000
vn 0.0000 0.8575 0.5145
vn 0.0000 0.0000 1.0000
vn 1.0000 0.0000 0.0000
vn 0.0000 0.9355 0.3534
vn -0.9487 0.0000 -0.3162
vn 0.0000 -1.0000 -0.0000
s off
f 32/1/1 31/2/1 17/3/1 10/4/1
f 31/2/2 32/1/2 36/5/2 35/6/2
f 32/1/3 9/7/3 34/8/3 36/5/3
f 17/9/1 31/10/1 3/11/1 16/12/1
s 1
f 1/13/4 3/11/4 4/14/4 2/15/4
f 1/13/5 2/15/5 6/16/5 5/17/5
f 6/18/5 2/19/5 7/20/5
f 4/21/6 8/22/6 2/19/6
f 9/7/5 8/22/5 33/23/5 34/8/5
f 7/20/5 2/19/5 8/22/5 9/7/5
f 13/24/7 26/25/7 30/26/7 25/27/7
f 1/28/5 5/29/5 27/30/5
f 1/28/5 27/30/5 26/25/5 13/24/5
f 1/28/3 13/24/3 25/27/3 3/31/3
f 16/32/3 3/31/3 25/27/3
f 11/33/8 12/34/8 19/35/8 18/36/8
f 18/37/9 19/38/9 20/39/9
f 12/40/3 7/20/3 9/7/3 19/38/3
f 15/41/1 24/42/1 29/43/1 28/44/1
f 15/41/3 16/32/3 25/27/3 24/42/3
f 24/42/5 25/27/5 30/26/5 29/43/5
f 14/45/6 21/46/6 22/47/6 23/48/6
f 23/49/6 22/50/6 26/25/6 27/30/6
f 21/51/6 28/44/6 29/43/6
f 21/51/6 29/43/6 30/26/6
f 22/50/6 21/51/6 30/26/6 26/25/6
f 34/8/1 33/23/1 35/6/1 36/5/1
f 9/7/3 32/1/3 19/38/3
f 10/4/3 20/39/3 19/38/3 32/1/3
f 4/21/6 35/6/6 33/23/6 8/22/6
f 31/2/6 35/6/6 4/21/6
f 4/14/1 3/11/1 31/10/1
