# Blender v3.0.0 OBJ File: 'City.blend'
# www.blender.org
o fr_monorail_st_ic
v 0.280000 0.000000 -0.500000
v 0.280000 0.320000 -0.500000
v 0.530000 0.000000 -0.500000
v 0.530000 0.370000 -0.500000
v 0.530000 0.370000 0.500000
v 0.430000 -0.000000 0.500000
v 0.530000 0.000000 0.200000
v -0.529998 0.270000 0.500000
v -0.529998 0.270000 0.200000
v -0.429998 0.270000 0.500000
v 0.330000 0.370000 0.500000
v 0.430000 0.270000 0.500000
v 0.530000 0.270000 0.200000
v 0.530000 0.270000 0.500000
v -0.329998 0.370000 0.500000
v -0.529998 -0.000000 0.200000
v -0.429998 0.000000 0.500000
v -0.529998 0.370000 0.500000
v -0.529997 0.370000 -0.500000
v -0.279997 0.320000 -0.500000
v -0.529997 -0.000000 -0.500000
v -0.279997 -0.000000 -0.500000
v -0.429998 0.370000 0.200000
v -0.429997 0.370000 -0.400000
v 0.430003 0.370000 -0.400000
v 0.430002 0.370000 0.200000
v 0.430000 0.520000 -0.500000
v -0.429997 0.520000 -0.500000
v -0.429997 0.520000 -0.400000
v 0.430003 0.520000 -0.400000
v -0.429997 0.770000 -0.500000
v -0.429997 0.770000 -0.400000
v 0.430000 0.770000 -0.500000
v 0.430003 0.770000 -0.400000
v -0.529998 0.370000 0.200000
v 0.530000 0.370000 0.200000
v 0.530000 0.600000 -0.400000
v -0.529997 0.600000 -0.400000
v -0.429998 0.600000 0.200000
v 0.430002 0.600000 0.200000
v -0.529998 0.600000 0.200000
v 0.530000 0.600000 0.200000
v 0.530000 0.520000 -0.500000
v -0.529997 0.520000 -0.500000
v 0.530000 0.770000 -0.399999
v -0.529997 0.770000 -0.400000
v 0.530000 0.770000 -0.500000
v -0.529997 0.770000 -0.500000
v -0.429997 0.600000 -0.400000
v 0.430003 0.600000 -0.400000
v 0.280000 0.000000 -0.400000
v 0.280000 0.320000 -0.400000
v -0.279997 0.320000 -0.400000
v -0.279997 -0.000000 -0.400000
v -0.430003 0.667001 -0.449999
v -0.430003 0.683501 -0.421420
v -0.430003 0.716501 -0.421420
v -0.430003 0.733001 -0.449999
v -0.430003 0.716501 -0.478578
v -0.430003 0.683501 -0.478578
v 0.429997 0.667001 -0.449999
v 0.429997 0.683501 -0.421420
v 0.429997 0.716501 -0.421420
v 0.429997 0.733001 -0.449999
v 0.429997 0.716501 -0.478578
v 0.429997 0.683501 -0.478578
v -0.430003 0.557001 -0.449999
v -0.430003 0.573501 -0.421420
v -0.430003 0.606501 -0.421420
v -0.430003 0.623001 -0.449999
v -0.430003 0.606501 -0.478578
v -0.430003 0.573501 -0.478578
v 0.429997 0.557001 -0.449999
v 0.429997 0.573501 -0.421420
v 0.429997 0.606501 -0.421420
v 0.429997 0.623001 -0.449999
v 0.429997 0.606501 -0.478578
v 0.429997 0.573501 -0.478578
v -0.329997 0.370000 -0.300000
v 0.330003 0.370000 -0.300000
vt 0.375000 0.125000
vt 0.375000 0.125000
vt 0.375000 0.125000
vt 0.375000 0.125000
vt 0.625000 0.125000
vt 0.625000 0.125000
vt 0.625000 0.125000
vt 0.625000 0.125000
vt 0.375000 0.125000
vt 0.375000 0.125000
vt 0.375000 0.125000
vt 0.375000 0.125000
vt 0.375000 0.125000
vt 0.375000 0.125000
vt 0.375000 0.125000
vt 0.375000 0.125000
vt 0.625000 0.125000
vt 0.625000 0.125000
vt 0.625000 0.125000
vt 0.625000 0.125000
vt 0.375000 0.125000
vt 0.375000 0.125000
vt 0.375000 0.125000
vt 0.375000 0.125000
vt 0.375000 0.125000
vt 0.375000 0.125000
vt 0.375000 0.125000
vt 0.375000 0.125000
vt 0.375000 0.125000
vt 0.375000 0.125000
vt 0.375000 0.125000
vt 0.375000 0.125000
vt 0.375000 0.125000
vt 0.375000 0.125000
vt 0.375000 0.125000
vt 0.375000 0.125000
vt 0.375000 0.125000
vt 0.375000 0.125000
vt 0.375000 0.125000
vt 0.375000 0.125000
vt 0.375000 0.125000
vt 0.375000 0.125000
vt 0.375000 0.125000
vt 0.375000 0.125000
vt 0.375000 0.125000
vt 0.375000 0.125000
vt 0.375000 0.125000
vt 0.375000 0.125000
vt 0.375000 0.125000
vt 0.375000 0.125000
vt 0.375000 0.125000
vt 0.375000 0.125000
vt 0.375000 0.125000
vt 0.375000 0.125000
vt 0.375000 0.125000
vt 0.375000 0.125000
vt 0.375000 0.125000
vt 0.375000 0.125000
vt 0.625000 0.125000
vt 0.625000 0.125000
vt 0.625000 0.125000
vt 0.625000 0.125000
vt 0.875000 0.125000
vt 0.875000 0.125000
vt 0.875000 0.125000
vt 0.875000 0.125000
vt 0.875000 0.125000
vt 0.875000 0.125000
vt 0.875000 0.125000
vt 0.875000 0.125000
vt 0.875000 0.125000
vt 0.875000 0.125000
vt 0.875000 0.125000
vt 0.875000 0.125000
vt 0.875000 0.125000
vt 0.875000 0.125000
vt 0.875000 0.125000
vt 0.875000 0.125000
vt 0.875000 0.125000
vt 0.875000 0.125000
vt 0.875000 0.125000
vt 0.875000 0.125000
vt 0.875000 0.125000
vt 0.875000 0.125000
vt 0.875000 0.125000
vt 0.875000 0.125000
vt 0.125000 0.125000
vt 0.125000 0.125000
vt 0.125000 0.125000
vt 0.125000 0.125000
vt 0.375000 0.125000
vt 0.375000 0.125000
vt 0.375000 0.125000
vt 0.375000 0.125000
vn -1.0000 -0.0000 -0.0000
vn 0.9487 0.0000 0.3162
vn 0.0000 -1.0000 0.0000
vn 1.0000 -0.0000 0.0000
vn -0.9487 0.0000 0.3162
vn 0.0000 0.0000 -1.0000
vn -0.0000 -0.0000 1.0000
vn 0.0000 1.0000 -0.0000
vn 0.0000 0.5000 -0.8660
vn -0.0000 0.5000 0.8660
vn -0.0000 -0.5000 0.8660
vn 0.0000 -0.5000 -0.8660
s 1
f 16/1/1 9/2/1 19/3/1 21/4/1
f 6/5/2 7/6/2 13/7/2 12/8/2
f 12/9/3 13/10/3 14/11/3
f 36/12/4 5/13/4 14/11/4 13/10/4
f 7/14/4 3/15/4 4/16/4 13/10/4
f 17/17/5 10/18/5 9/19/5 16/20/5
f 10/21/3 8/22/3 9/2/3
f 35/23/1 9/2/1 8/22/1 18/24/1
f 2/25/6 20/26/6 28/27/6 27/28/6
f 24/29/7 25/30/7 30/31/7 29/32/7
f 29/32/8 30/31/8 27/28/8 28/27/8
f 39/33/4 29/32/4 49/34/4
f 9/2/1 35/23/1 19/3/1
f 13/10/4 4/16/4 36/12/4
f 26/35/7 36/12/7 42/36/7 40/37/7
f 19/3/1 35/23/1 41/38/1 38/39/1
f 35/23/7 23/40/7 39/33/7 41/38/7
f 36/12/4 4/16/4 37/41/4 42/36/4
f 23/40/4 24/29/4 29/32/4 39/33/4
f 26/35/1 40/37/1 30/31/1 25/30/1
f 19/3/1 38/39/1 44/42/1
f 28/27/6 20/26/6 19/3/6 44/42/6
f 20/26/6 22/43/6 21/4/6 19/3/6
f 3/15/6 1/44/6 2/25/6 4/16/6
f 2/25/6 27/28/6 43/45/6 4/16/6
f 4/16/4 43/45/4 37/41/4
f 44/42/1 38/39/1 46/46/1 48/47/1
f 37/41/4 43/45/4 47/48/4 45/49/4
f 28/27/6 44/42/6 48/47/6 31/50/6
f 33/51/6 47/48/6 43/45/6 27/28/6
f 33/51/8 34/52/8 45/49/8 47/48/8
f 31/50/8 48/47/8 46/46/8 32/53/8
f 40/37/1 50/54/1 30/31/1
f 40/37/8 42/36/8 37/41/8 50/54/8
f 49/34/8 38/39/8 41/38/8 39/33/8
f 29/32/4 28/27/4 49/34/4
f 28/27/4 31/50/4 32/53/4 49/34/4
f 30/31/1 50/54/1 27/28/1
f 34/52/1 33/51/1 27/28/1 50/54/1
f 37/41/7 45/49/7 34/52/7 50/54/7
f 38/39/7 29/32/7 32/53/7 46/46/7
f 20/26/3 2/25/3 52/55/3 53/56/3
f 2/25/1 1/44/1 51/57/1 52/55/1
f 22/43/4 20/26/4 53/56/4 54/58/4
f 53/59/6 52/60/6 51/61/6 54/62/6
f 59/63/9 58/64/8 64/65/8 65/66/9
f 57/67/10 56/68/11 62/69/11 63/70/10
f 60/71/12 59/63/9 65/66/9 66/72/12
f 58/64/8 57/67/10 63/70/10 64/65/8
f 56/68/11 55/73/3 61/74/3 62/69/11
f 55/73/3 60/71/12 66/72/12 61/74/3
f 71/75/9 70/76/8 76/77/8 77/78/9
f 69/79/10 68/80/11 74/81/11 75/82/10
f 72/83/12 71/75/9 77/78/9 78/84/12
f 70/76/8 69/79/10 75/82/10 76/77/8
f 68/80/11 67/85/3 73/86/3 74/81/11
f 67/85/3 72/83/12 78/84/12 73/86/3
f 15/87/8 11/88/8 80/89/8 79/90/8
f 5/13/8 36/12/8 26/35/8 11/91/8
f 18/24/8 15/92/8 23/40/8 35/23/8
f 25/30/8 24/29/8 79/93/8 80/94/8
f 23/40/8 15/92/8 79/93/8 24/29/8
f 25/30/8 80/94/8 11/91/8 26/35/8
l 30 37
