# Blender v3.0.0 OBJ File: 'City.blend'
# www.blender.org
o fr_monorail_st_id_0
v 0.270002 0.429998 -0.500000
v 0.270002 0.429998 0.500000
v 0.270002 0.369998 -0.600000
v 0.270002 0.369998 0.600000
v -0.270002 0.429998 0.500000
v -0.270002 0.429998 -0.500000
v -0.270002 0.369998 0.600000
v -0.270002 0.369998 -0.600000
v -0.500002 -0.000002 -0.020000
v -0.500002 0.019998 0.000000
v -0.500002 -0.000002 0.020000
v -0.570002 0.029998 -0.020000
v -0.570002 0.049998 0.000000
v -0.570002 0.029998 0.020000
v -1.000002 0.029998 -0.020000
v -1.000002 0.049998 0.000000
v -1.000002 0.029998 0.020000
v -0.270002 0.429998 0.500000
v -0.270002 0.429998 -0.500000
v 0.269998 0.429998 0.500000
v 0.269998 0.429998 -0.500000
v -0.162002 0.429998 -0.500000
v -0.054002 0.429998 -0.500000
v 0.053998 0.429998 -0.500000
v 0.161998 0.429998 -0.500000
v -0.162002 0.429998 0.500000
v -0.054002 0.429998 0.500000
v 0.053998 0.429998 0.500000
v 0.161998 0.429998 0.500000
v 0.500002 -0.000002 0.020000
v 0.500002 0.019998 -0.000000
v 0.500002 -0.000002 -0.020000
v 0.570002 0.029998 0.020000
v 0.570002 0.049998 -0.000000
v 0.570002 0.029998 -0.020000
v 1.000002 0.029998 0.020000
v 1.000002 0.049998 -0.000000
v 1.000002 0.029998 -0.020000
vt 0.125000 0.125000
vt 0.125000 0.125000
vt 0.125000 0.125000
vt 0.125000 0.125000
vt 0.125000 0.125000
vt 0.125000 0.125000
vt 0.125000 0.125000
vt 0.125000 0.125000
vt 0.125000 0.125000
vt 0.125000 0.125000
vt 0.125000 0.125000
vt 0.125000 0.125000
vt 0.125000 0.125000
vt 0.125000 0.125000
vt 0.125000 0.125000
vt 0.125000 0.125000
vt 0.375000 0.125000
vt 0.375000 0.125000
vt 0.375000 0.125000
vt 0.375000 0.125000
vt 0.375000 0.125000
vt 0.375000 0.125000
vt 0.375000 0.125000
vt 0.375000 0.125000
vt 0.375000 0.125000
vt 0.375000 0.125000
vt 0.375000 0.125000
vt 0.375000 0.125000
vt 0.625000 0.125000
vt 0.625000 0.125000
vt 0.625000 0.125000
vt 0.625000 0.125000
vt 0.625000 0.125000
vt 0.625000 0.125000
vt 0.625000 0.125000
vt 0.625000 0.125000
vt 0.625000 0.125000
vt 0.625000 0.125000
vt 0.625000 0.125000
vt 0.625000 0.125000
vt 0.625000 0.125000
vt 0.625000 0.125000
vt 0.625000 0.125000
vt 0.625000 0.125000
vt 0.625000 0.125000
vt 0.625000 0.125000
vn -0.0000 1.0000 0.0000
vn 1.0000 0.0000 -0.0000
vn 0.0000 0.8575 -0.5145
vn -1.0000 0.0000 0.0000
vn -0.0000 0.8575 0.5145
vn 0.3939 0.9191 0.0000
vn 0.1852 0.9827 0.0000
vn 0.1587 0.6981 0.6981
vn 0.2900 0.6767 0.6767
vn 0.2900 0.6767 -0.6767
vn 0.1587 0.6981 -0.6981
vn 0.0000 0.7071 0.7071
vn -0.0000 0.7071 -0.7071
vn -0.3939 0.9191 0.0000
vn -0.1852 0.9827 0.0000
vn -0.1587 0.6981 -0.6981
vn -0.2900 0.6767 -0.6767
vn -0.2900 0.6767 0.6767
vn -0.1587 0.6981 0.6981
s off
f 26/1/1 27/2/1 23/3/1 22/4/1
f 28/5/1 29/6/1 25/7/1 24/8/1
s 1
f 1/9/2 2/10/2 4/11/2 3/12/2
f 8/13/3 6/14/3 1/9/3 3/12/3
f 5/15/4 6/14/4 8/13/4 7/16/4
f 5/15/5 7/16/5 4/11/5 2/10/5
s off
f 29/17/1 20/18/1 21/19/1 25/20/1
f 18/21/1 26/22/1 22/23/1 19/24/1
f 27/25/1 28/26/1 24/27/1 23/28/1
s 1
f 10/29/6 13/30/7 14/31/8 11/32/9
f 9/33/10 12/34/11 13/30/7 10/29/6
f 13/30/7 16/35/12 17/36/12 14/31/8
f 12/34/11 15/37/13 16/35/13 13/30/7
f 31/38/14 34/39/15 35/40/16 32/41/17
f 30/42/18 33/43/19 34/39/15 31/38/14
f 34/39/15 37/44/13 38/45/13 35/40/16
f 33/43/19 36/46/12 37/44/12 34/39/15
