# Blender v3.0.0 OBJ File: 'City.blend'
# www.blender.org
o fr_monorail_st_i
v 0.330000 0.370000 0.500000
v 0.330000 0.370000 -0.500000
v -0.330000 0.370000 0.500000
v -0.330000 0.370000 -0.500000
v -0.430000 0.370000 0.500000
v -0.430000 0.370000 -0.500000
v -0.430000 0.270000 0.500000
v -0.430000 0.270000 -0.500000
v -0.430000 -0.000000 0.500000
v -0.430000 -0.000000 -0.500000
v 0.430001 -0.000000 0.500000
v 0.430001 -0.000000 -0.500000
v 0.430001 0.270000 0.500000
v 0.430001 0.270000 -0.500000
v 0.430000 0.370000 -0.500000
v 0.430000 0.370000 0.500000
v 0.529998 0.270000 -0.333333
v 0.529998 0.270000 -0.166666
v 0.529998 0.270000 0.000000
v 0.529998 0.270000 0.166667
v 0.529998 0.270000 0.333334
v 0.529998 0.370000 -0.333333
v 0.529998 0.370000 -0.166666
v 0.529998 0.370000 0.000000
v 0.529998 0.370000 0.166667
v 0.529998 0.370000 0.333334
v 0.429998 0.270000 -0.333333
v 0.429998 0.270000 -0.166666
v 0.429998 0.270000 0.000000
v 0.429998 0.270000 0.166667
v 0.429998 0.270000 0.333334
v 0.429998 0.370000 -0.333333
v 0.429998 0.370000 -0.166666
v 0.429998 0.370000 0.000000
v 0.429998 0.370000 0.166667
v 0.429998 0.370000 0.333334
v 0.529998 0.270000 -0.500000
v 0.529998 0.270000 0.500000
v 0.529998 0.370000 -0.500000
v 0.529998 0.370000 0.500000
v 0.429998 0.270000 -0.500000
v 0.429998 0.270000 0.500000
v 0.429998 0.370000 -0.500000
v 0.429998 0.370000 0.500000
v -0.430000 0.370000 0.500000
v -0.430000 0.370000 -0.500000
v -0.430000 0.270000 0.500000
v -0.430000 0.270000 -0.500000
v -0.530000 0.370000 0.500000
v -0.530000 0.370000 -0.500000
v -0.530000 0.270000 0.500000
v -0.530000 0.270000 -0.500000
v -0.430000 0.370000 0.333334
v -0.430000 0.370000 0.166667
v -0.430000 0.370000 0.000000
v -0.430000 0.370000 -0.166666
v -0.430000 0.370000 -0.333333
v -0.430000 0.270000 0.333334
v -0.430000 0.270000 0.166667
v -0.430000 0.270000 0.000000
v -0.430000 0.270000 -0.166666
v -0.430000 0.270000 -0.333333
v -0.530000 0.370000 0.333334
v -0.530000 0.370000 0.166667
v -0.530000 0.370000 0.000000
v -0.530000 0.370000 -0.166666
v -0.530000 0.370000 -0.333333
v -0.530000 0.270000 0.333334
v -0.530000 0.270000 0.166667
v -0.530000 0.270000 0.000000
v -0.530000 0.270000 -0.166666
v -0.530000 0.270000 -0.333333
vt 0.125000 0.125000
vt 0.125000 0.125000
vt 0.125000 0.125000
vt 0.125000 0.125000
vt 0.375000 0.125000
vt 0.375000 0.125000
vt 0.375000 0.125000
vt 0.375000 0.125000
vt 0.625000 0.125000
vt 0.625000 0.125000
vt 0.625000 0.125000
vt 0.625000 0.125000
vt 0.625000 0.125000
vt 0.625000 0.125000
vt 0.625000 0.125000
vt 0.625000 0.125000
vt 0.375000 0.125000
vt 0.375000 0.125000
vt 0.375000 0.125000
vt 0.375000 0.125000
vt 0.375000 0.375000
vt 0.375000 0.375000
vt 0.375000 0.375000
vt 0.375000 0.375000
vt 0.125000 0.375000
vt 0.125000 0.375000
vt 0.125000 0.375000
vt 0.125000 0.375000
vt 0.375000 0.375000
vt 0.375000 0.375000
vt 0.375000 0.375000
vt 0.375000 0.375000
vt 0.125000 0.375000
vt 0.125000 0.375000
vt 0.125000 0.375000
vt 0.125000 0.375000
vt 0.375000 0.375000
vt 0.375000 0.375000
vt 0.375000 0.375000
vt 0.375000 0.375000
vt 0.375000 0.375000
vt 0.375000 0.375000
vt 0.375000 0.375000
vt 0.375000 0.375000
vt 0.125000 0.375000
vt 0.125000 0.375000
vt 0.125000 0.375000
vt 0.125000 0.375000
vt 0.375000 0.375000
vt 0.375000 0.375000
vt 0.375000 0.375000
vt 0.375000 0.375000
vt 0.125000 0.375000
vt 0.125000 0.375000
vt 0.125000 0.375000
vt 0.125000 0.375000
vt 0.375000 0.375000
vt 0.375000 0.375000
vt 0.375000 0.375000
vt 0.375000 0.375000
vt 0.125000 0.375000
vt 0.125000 0.375000
vt 0.125000 0.375000
vt 0.125000 0.375000
vt 0.125000 0.375000
vt 0.125000 0.375000
vt 0.125000 0.375000
vt 0.125000 0.375000
vt 0.125000 0.375000
vt 0.125000 0.375000
vt 0.125000 0.375000
vt 0.125000 0.375000
vt 0.125000 0.375000
vt 0.125000 0.375000
vt 0.125000 0.375000
vt 0.125000 0.375000
vt 0.375000 0.375000
vt 0.375000 0.375000
vt 0.375000 0.375000
vt 0.375000 0.375000
vt 0.125000 0.375000
vt 0.125000 0.375000
vt 0.125000 0.375000
vt 0.125000 0.375000
vt 0.375000 0.375000
vt 0.375000 0.375000
vt 0.375000 0.375000
vt 0.375000 0.375000
vt 0.125000 0.375000
vt 0.125000 0.375000
vt 0.125000 0.375000
vt 0.125000 0.375000
vt 0.375000 0.375000
vt 0.375000 0.375000
vt 0.375000 0.375000
vt 0.375000 0.375000
vt 0.375000 0.375000
vt 0.375000 0.375000
vt 0.125000 0.375000
vt 0.125000 0.375000
vt 0.375000 0.375000
vt 0.375000 0.375000
vt 0.125000 0.375000
vt 0.125000 0.375000
vt 0.375000 0.375000
vt 0.375000 0.375000
vt 0.375000 0.375000
vt 0.375000 0.375000
vt 0.125000 0.375000
vt 0.125000 0.375000
vt 0.375000 0.375000
vt 0.375000 0.375000
vt 0.125000 0.375000
vt 0.125000 0.375000
vt 0.375000 0.375000
vt 0.375000 0.375000
vn 0.0000 1.0000 -0.0000
vn -1.0000 0.0000 0.0000
vn 1.0000 0.0000 0.0000
vn 0.0000 -1.0000 -0.0000
s 1
f 1/1/1 2/2/1 4/3/1 3/4/1
f 3/5/1 4/6/1 6/7/1 5/8/1
f 7/9/2 8/10/2 10/11/2 9/12/2
f 14/13/3 13/14/3 11/15/3 12/16/3
f 16/17/1 15/18/1 2/19/1 1/20/1
f 30/21/4 20/22/4 21/23/4 31/24/4
f 29/25/4 19/26/4 20/27/4 30/28/4
f 28/29/4 18/30/4 19/31/4 29/32/4
f 27/33/4 17/34/4 18/35/4 28/36/4
f 41/37/4 37/38/4 17/39/4 27/40/4
f 35/41/1 36/42/1 26/43/1 25/44/1
f 34/45/1 35/46/1 25/47/1 24/48/1
f 33/49/1 34/50/1 24/51/1 23/52/1
f 32/53/1 33/54/1 23/55/1 22/56/1
f 43/57/1 32/58/1 22/59/1 39/60/1
f 25/44/3 26/43/3 21/23/3 20/22/3
f 24/48/3 25/47/3 20/27/3 19/26/3
f 23/52/3 24/51/3 19/31/3 18/30/3
f 22/56/3 23/55/3 18/35/3 17/34/3
f 39/60/3 22/59/3 17/39/3 37/38/3
f 26/61/3 40/62/3 38/63/3 21/64/3
f 36/65/1 44/66/1 40/62/1 26/61/1
f 31/67/4 21/64/4 38/63/4 42/68/4
f 58/69/4 47/70/4 51/71/4 68/72/4
f 53/73/1 63/74/1 49/75/1 45/76/1
f 63/74/2 68/72/2 51/71/2 49/75/2
f 50/77/2 52/78/2 72/79/2 67/80/2
f 67/81/2 72/82/2 71/83/2 66/84/2
f 66/85/2 71/86/2 70/87/2 65/88/2
f 65/89/2 70/90/2 69/91/2 64/92/2
f 64/93/2 69/94/2 68/95/2 63/96/2
f 46/97/1 50/77/1 67/80/1 57/98/1
f 57/99/1 67/81/1 66/84/1 56/100/1
f 56/101/1 66/85/1 65/88/1 55/102/1
f 55/103/1 65/89/1 64/92/1 54/104/1
f 54/105/1 64/93/1 63/96/1 53/106/1
f 48/107/4 62/108/4 72/79/4 52/78/4
f 62/109/4 61/110/4 71/83/4 72/82/4
f 61/111/4 60/112/4 70/87/4 71/86/4
f 60/113/4 59/114/4 69/91/4 70/90/4
f 59/115/4 58/116/4 68/95/4 69/94/4
