# Blender v3.0.0 OBJ File: 'City.blend'
# www.blender.org
o fr_monorail_st_d_1
v -0.330002 0.369998 -0.500000
v -0.270002 0.369998 0.500000
v -0.270002 0.369998 -0.500000
v -0.330002 0.369998 0.500000
v -0.400000 0.370000 0.500000
v -0.200000 0.370000 0.500000
v -0.200000 0.370000 0.800000
v -0.400000 0.370000 0.800000
v -0.400000 0.670000 0.500000
v -0.204816 0.580992 0.783189
v -0.289008 0.665184 0.783189
v -0.400000 0.670000 0.800000
v -0.270002 0.429998 0.500000
v -0.270002 0.429998 -0.500000
v -0.250002 0.429998 0.500000
v -0.250002 0.429998 -0.500000
v -0.150002 0.369998 0.500000
v -0.150002 0.369998 -0.500000
v -0.270002 0.369998 0.500000
v -0.270002 0.369998 -0.500000
v -0.300003 0.439998 -0.500000
v -0.343304 0.414998 -0.500000
v -0.343304 0.364998 -0.500000
v -0.256702 0.364998 -0.500000
v -0.256702 0.414998 -0.500000
v -0.300003 0.439998 -0.540000
v -0.343304 0.414998 -0.540000
v -0.343304 0.364998 -0.540000
v -0.256702 0.364998 -0.540000
v -0.256702 0.414998 -0.540000
v -0.330002 1.069998 -0.500000
v -0.270002 1.069998 0.500000
v -0.270002 1.069998 -0.500000
v -0.330002 1.069998 0.500000
v -0.389776 1.075203 -0.500000
v -0.330002 1.069998 0.500000
v -0.330002 1.069998 -0.500000
v -0.389776 1.075203 0.500000
v -0.450499 0.377842 -0.500000
v -0.390725 0.372637 0.500000
v -0.390725 0.372637 -0.500000
v -0.450499 0.377842 0.500000
v -0.330002 1.089998 -0.520000
v -0.347322 1.079998 -0.520000
v -0.347322 1.059998 -0.520000
v -0.330002 1.049998 -0.520000
v -0.312681 1.059998 -0.520000
v -0.312681 1.079998 -0.520000
v -0.330002 1.089998 0.520000
v -0.347322 1.079998 0.520000
v -0.347322 1.059998 0.520000
v -0.330002 1.049998 0.520000
v -0.312681 1.059998 0.520000
v -0.312681 1.079998 0.520000
v -0.270002 0.969998 0.500000
v -0.270002 0.869998 0.500000
v -0.270002 0.769998 0.500000
v -0.270002 0.669998 0.500000
v -0.270002 0.569998 0.500000
v -0.270002 0.469998 0.500000
v -0.270002 0.969998 -0.500000
v -0.270002 0.869998 -0.500000
v -0.270002 0.769998 -0.500000
v -0.270002 0.669998 -0.500000
v -0.270002 0.569998 -0.500000
v -0.270002 0.469998 -0.500000
v -0.398450 0.975580 -0.500000
v -0.407125 0.875957 -0.500000
v -0.415800 0.776334 -0.500000
v -0.424475 0.676711 -0.500000
v -0.433150 0.577088 -0.500000
v -0.441824 0.477465 -0.500000
v -0.398450 0.975580 0.500000
v -0.407125 0.875957 0.500000
v -0.415800 0.776334 0.500000
v -0.424475 0.676711 0.500000
v -0.433149 0.577088 0.500000
v -0.441824 0.477465 0.500000
v -0.307966 0.670000 0.500000
v -0.200000 0.562034 0.500000
v -0.200000 0.562034 0.800000
v -0.307966 0.670000 0.800000
v -0.289008 0.665184 0.676811
v -0.204816 0.580992 0.676811
v -0.211887 0.573921 0.676811
v -0.296079 0.658113 0.676811
v -0.296079 0.658113 0.783189
v -0.211887 0.573921 0.783189
v -0.500002 -0.000002 -0.020000
v -0.500002 0.019998 -0.000000
v -0.500002 -0.000002 0.020000
v -0.570002 0.029998 -0.020000
v -0.570002 0.049998 -0.000000
v -0.570002 0.029998 0.020000
v -1.000002 0.029998 -0.020000
v -1.000002 0.049998 -0.000000
v -1.000002 0.029998 0.020000
vt 0.125000 0.125000
vt 0.125000 0.125000
vt 0.125000 0.125000
vt 0.125000 0.125000
vt 0.125000 0.125000
vt 0.125000 0.125000
vt 0.125000 0.125000
vt 0.125000 0.125000
vt 0.125000 0.125000
vt 0.125000 0.125000
vt 0.375000 0.125000
vt 0.375000 0.125000
vt 0.375000 0.125000
vt 0.375000 0.125000
vt 0.375000 0.125000
vt 0.375000 0.125000
vt 0.375000 0.125000
vt 0.375000 0.125000
vt 0.625000 0.125000
vt 0.625000 0.125000
vt 0.625000 0.125000
vt 0.625000 0.125000
vt 0.625000 0.125000
vt 0.625000 0.125000
vt 0.625000 0.125000
vt 0.625000 0.125000
vt 0.625000 0.125000
vt 0.625000 0.125000
vt 0.625000 0.125000
vt 0.625000 0.125000
vt 0.625000 0.125000
vt 0.625000 0.125000
vt 0.625000 0.125000
vt 0.625000 0.125000
vt 0.625000 0.125000
vt 0.625000 0.125000
vt 0.625000 0.125000
vt 0.625000 0.125000
vt 0.625000 0.125000
vt 0.625000 0.125000
vt 0.625000 0.125000
vt 0.625000 0.125000
vt 0.625000 0.125000
vt 0.625000 0.125000
vt 0.625000 0.125000
vt 0.625000 0.125000
vt 0.625000 0.125000
vt 0.625000 0.125000
vt 0.625000 0.125000
vt 0.625000 0.125000
vt 0.625000 0.125000
vt 0.625000 0.125000
vt 0.625000 0.125000
vt 0.625000 0.125000
vt 0.625000 0.125000
vt 0.625000 0.125000
vt 0.625000 0.125000
vt 0.625000 0.125000
vt 0.625000 0.125000
vt 0.625000 0.125000
vt 0.625000 0.125000
vt 0.625000 0.125000
vt 0.625000 0.125000
vt 0.625000 0.125000
vt 0.625000 0.125000
vt 0.625000 0.125000
vt 0.625000 0.125000
vt 0.625000 0.125000
vt 0.625000 0.125000
vt 0.625000 0.125000
vt 0.625000 0.125000
vt 0.625000 0.125000
vt 0.625000 0.125000
vt 0.625000 0.125000
vt 0.625000 0.125000
vt 0.625000 0.125000
vt 0.875000 0.125000
vt 0.875000 0.125000
vt 0.875000 0.125000
vt 0.875000 0.125000
vt 0.875000 0.125000
vt 0.875000 0.125000
vt 0.875000 0.125000
vt 0.875000 0.125000
vt 0.875000 0.125000
vt 0.875000 0.125000
vt 0.875000 0.125000
vt 0.875000 0.125000
vt 0.875000 0.125000
vt 0.875000 0.125000
vt 0.875000 0.125000
vt 0.875000 0.125000
vt 0.875000 0.125000
vt 0.875000 0.125000
vt 0.875000 0.125000
vt 0.875000 0.125000
vt 0.875000 0.125000
vt 0.875000 0.125000
vt 0.875000 0.125000
vt 0.875000 0.125000
vt 0.875000 0.125000
vt 0.875000 0.125000
vt 0.875000 0.125000
vt 0.875000 0.125000
vt 0.875000 0.125000
vt 0.875000 0.125000
vt 0.875000 0.125000
vt 0.875000 0.125000
vt 0.875000 0.125000
vt 0.875000 0.125000
vt 0.875000 0.125000
vt 0.875000 0.125000
vt 0.875000 0.125000
vt 0.875000 0.125000
vt 0.875000 0.125000
vt 0.875000 0.125000
vt 0.875000 0.125000
vt 0.875000 0.125000
vt 0.875000 0.125000
vt 0.875000 0.125000
vt 0.125000 0.375000
vt 0.125000 0.375000
vt 0.125000 0.375000
vt 0.125000 0.375000
vt 0.125000 0.375000
vt 0.125000 0.375000
vt 0.125000 0.375000
vt 0.125000 0.375000
vt 0.125000 0.375000
vn -0.0000 0.0000 1.0000
vn -1.0000 0.0000 0.0000
vn 0.0000 0.0000 -1.0000
vn 1.0000 0.0000 0.0000
vn 0.7071 0.7071 0.0000
vn 0.0000 1.0000 0.0000
vn 0.7071 -0.7071 0.0000
vn -0.7071 0.7071 0.0000
vn 0.0000 -1.0000 -0.0000
vn 0.2669 0.9637 0.0000
vn 0.5145 0.8575 0.0000
vn 0.8660 0.5000 0.0000
vn -0.8660 0.5000 0.0000
vn 0.0868 0.9962 0.0000
vn -0.9962 0.0867 0.0000
vn 0.9962 -0.0867 -0.0000
vn 0.8660 -0.5000 0.0000
vn -0.8660 -0.5000 0.0000
vn 0.3939 0.9191 -0.0000
vn 0.1852 0.9827 -0.0000
vn 0.1587 0.6981 0.6981
vn 0.2900 0.6767 0.6767
vn 0.2900 0.6767 -0.6767
vn 0.1587 0.6981 -0.6981
vn 0.0000 0.7071 0.7071
vn 0.0000 0.7071 -0.7071
s 1
f 8/1/1 7/2/1 81/3/1
f 82/4/1 12/5/1 8/1/1
f 5/6/2 8/1/2 12/5/2 9/7/2
f 80/8/3 5/6/3 79/9/3
f 6/10/4 80/8/4 81/3/4 7/2/4
f 79/9/5 82/4/5 81/3/5 80/8/5
f 9/7/6 12/5/6 82/4/6 79/9/6
f 81/3/1 82/4/1 8/1/1
f 6/10/3 5/6/3 80/8/3
f 5/6/3 9/7/3 79/9/3
f 88/11/7 85/12/7 84/13/7 10/14/7
f 85/12/3 86/15/3 83/16/3 84/13/3
f 83/16/5 11/17/5 10/14/5 84/13/5
f 86/15/8 87/18/8 11/17/8 83/16/8
f 87/18/1 88/11/1 10/14/1 11/17/1
f 1/19/9 3/20/9 2/21/9 4/22/9
f 66/23/4 60/24/4 2/21/4 3/20/4
f 3/20/3 1/19/3 66/23/3
f 14/25/6 13/26/6 15/27/10 16/28/10
f 16/28/10 15/27/10 17/29/11 18/30/11
f 13/26/2 14/25/2 20/31/2 19/32/2
f 14/25/3 16/28/3 18/30/3 20/31/3
f 13/26/1 19/32/1 17/29/1 15/27/1
f 24/33/4 29/34/4 30/35/12 25/36/12
f 28/37/3 27/38/3 30/35/3 29/34/3
f 21/39/6 26/40/6 27/38/13 22/41/13
f 25/36/12 30/35/12 26/40/6 21/39/6
f 26/40/3 30/35/3 27/38/3
f 22/41/13 27/38/13 28/37/2 23/42/2
f 21/39/1 22/41/1 25/36/1
f 23/42/1 24/33/1 25/36/1 22/41/1
f 1/19/2 4/22/2 34/43/2 31/44/2
f 32/45/1 34/43/1 55/46/1
f 42/47/1 40/48/1 78/49/1
f 35/50/3 37/51/3 67/52/3
f 38/53/14 36/54/14 37/51/14 35/50/14
f 31/44/6 34/43/6 32/45/6 33/55/6
f 72/56/3 41/57/3 39/58/3
f 71/59/3 41/57/3 72/56/3
f 70/60/3 41/57/3 71/59/3
f 37/51/3 41/57/3 70/60/3 69/61/3
f 37/51/3 69/61/3 68/62/3
f 37/51/3 68/62/3 67/52/3
f 72/56/15 78/49/15 77/63/15 71/59/15
f 70/60/15 76/64/15 75/65/15 69/61/15
f 68/62/15 74/66/15 73/67/15 67/52/15
f 73/67/1 36/54/1 38/53/1
f 74/66/1 36/54/1 73/67/1
f 75/65/1 36/54/1 74/66/1
f 40/48/1 36/54/1 75/65/1 76/64/1
f 40/48/1 76/64/1 77/63/1
f 40/48/1 77/63/1 78/49/1
f 4/22/1 2/21/1 60/24/1
f 4/22/1 60/24/1 59/68/1
f 4/22/1 59/68/1 58/69/1
f 34/43/1 4/22/1 58/69/1 57/70/1
f 34/43/1 57/70/1 56/71/1
f 34/43/1 56/71/1 55/46/1
f 31/44/3 33/55/3 61/72/3
f 31/44/3 61/72/3 62/73/3
f 31/44/3 62/73/3 63/74/3
f 1/19/3 31/44/3 63/74/3 64/75/3
f 1/19/3 64/75/3 65/76/3
f 1/19/3 65/76/3 66/23/3
f 33/55/4 32/45/4 55/46/4 61/72/4
f 62/73/4 56/71/4 57/70/4 63/74/4
f 64/75/4 58/69/4 59/68/4 65/76/4
f 67/77/15 73/78/15 38/79/15 35/80/15
f 37/81/16 36/82/16 40/83/16 41/84/16
f 46/85/9 47/86/17 53/87/17 52/88/9
f 44/89/13 45/90/18 51/91/18 50/92/13
f 47/86/17 48/93/12 54/94/12 53/87/17
f 45/90/18 46/85/9 52/88/9 51/91/18
f 43/95/6 44/89/13 50/92/13 49/96/6
f 48/93/12 43/95/6 49/96/6 54/94/12
f 53/87/1 54/94/1 49/96/1 52/88/1
f 50/92/1 51/91/1 52/88/1 49/96/1
f 43/95/3 48/93/3 45/90/3 44/89/3
f 46/85/3 45/90/3 48/93/3 47/86/3
f 39/97/15 42/98/15 78/99/15 72/100/15
f 71/101/15 77/102/15 76/103/15 70/104/15
f 69/105/15 75/106/15 74/107/15 68/108/15
f 61/109/4 55/110/4 56/111/4 62/112/4
f 63/113/4 57/114/4 58/115/4 64/116/4
f 65/117/4 59/118/4 60/119/4 66/120/4
f 90/121/19 93/122/20 94/123/21 91/124/22
f 89/125/23 92/126/24 93/122/20 90/121/19
f 93/122/20 96/127/25 97/128/25 94/123/21
f 92/126/24 95/129/26 96/127/26 93/122/20
