# Blender v3.0.0 OBJ File: 'City.blend'
# www.blender.org
o c_b_train
v -0.200000 0.250000 0.350000
v 0.200000 0.250000 0.350000
v -0.200000 0.250000 -0.350000
v 0.200000 0.250000 -0.350000
v 0.200000 0.500000 -0.350000
v 0.200000 0.500000 0.350000
v -0.200000 0.500000 0.350000
v -0.200000 0.500000 -0.350000
v 0.200000 0.500000 -0.060000
v 0.200000 0.400000 -0.110000
v 0.200000 0.400000 -0.210000
v 0.200000 0.500000 -0.260000
v 0.200000 0.700000 -0.060000
v 0.180000 0.210000 -0.230000
v 0.180000 0.266569 -0.206569
v 0.180000 0.266569 -0.093431
v 0.180000 0.210000 -0.070000
v 0.180000 0.153431 -0.093431
v 0.180000 0.130000 -0.150000
v 0.180000 0.153431 -0.206569
v 0.120000 0.210000 -0.230000
v 0.120000 0.266569 -0.206569
v 0.120000 0.266569 -0.093431
v 0.120000 0.210000 -0.070000
v 0.120000 0.153431 -0.093431
v 0.120000 0.130000 -0.150000
v 0.120000 0.153431 -0.206569
v -0.120000 0.210000 -0.230000
v -0.120000 0.266569 -0.206569
v -0.120000 0.266569 -0.093431
v -0.120000 0.210000 -0.070000
v -0.120000 0.153431 -0.093431
v -0.120000 0.130000 -0.150000
v -0.120000 0.153431 -0.206569
v -0.180000 0.210000 -0.230000
v -0.180000 0.266569 -0.206569
v -0.180000 0.266569 -0.093431
v -0.180000 0.210000 -0.070000
v -0.180000 0.153431 -0.093431
v -0.180000 0.130000 -0.150000
v -0.180000 0.153431 -0.206569
v 0.180000 0.210000 0.070000
v 0.180000 0.266569 0.093431
v 0.180000 0.266569 0.206569
v 0.180000 0.210000 0.230000
v 0.180000 0.153431 0.206569
v 0.180000 0.130000 0.150000
v 0.180000 0.153431 0.093431
v 0.120000 0.210000 0.070000
v 0.120000 0.266569 0.093431
v 0.120000 0.266569 0.206569
v 0.120000 0.210000 0.230000
v 0.120000 0.153431 0.206569
v 0.120000 0.130000 0.150000
v 0.120000 0.153431 0.093431
v -0.120000 0.210000 0.070000
v -0.120000 0.266569 0.093431
v -0.120000 0.266569 0.206569
v -0.120000 0.210000 0.230000
v -0.120000 0.153431 0.206569
v -0.120000 0.130000 0.150000
v -0.120000 0.153431 0.093431
v -0.180000 0.210000 0.070000
v -0.180000 0.266569 0.093431
v -0.180000 0.266569 0.206569
v -0.180000 0.210000 0.230000
v -0.180000 0.153431 0.206569
v -0.180000 0.130000 0.150000
v -0.180000 0.153431 0.093431
v 0.200000 0.700000 -0.210000
v 0.200000 0.600000 -0.260000
v -0.200000 0.500000 -0.060000
v -0.200000 0.400000 -0.110000
v -0.200000 0.400000 -0.210000
v -0.200000 0.500000 -0.260000
v -0.200000 0.700000 -0.060000
v -0.200000 0.700000 -0.210000
v -0.200000 0.600000 -0.260000
v 0.200000 0.730000 -0.230000
v -0.200000 0.730000 -0.230000
v 0.200000 0.600000 -0.290000
v -0.200000 0.600000 -0.290000
v 0.200000 0.500000 -0.290000
v -0.200000 0.500000 -0.290000
v 0.200000 0.370000 -0.230000
v -0.200000 0.370000 -0.230000
v 0.200000 0.370000 -0.090000
v -0.200000 0.370000 -0.090000
v 0.200000 0.500000 -0.030000
v -0.200000 0.500000 -0.030000
v 0.200000 0.730000 -0.030000
v -0.200000 0.730000 -0.030000
v 0.150000 0.500000 -0.030000
v 0.150000 0.550000 -0.030000
v 0.100000 0.600000 -0.030000
v -0.100000 0.600000 -0.030000
v -0.150000 0.550000 -0.030000
v -0.150000 0.500000 -0.030000
v 0.150000 0.500000 0.340000
v 0.150000 0.550000 0.340000
v 0.100000 0.600000 0.340000
v -0.100000 0.600000 0.340000
v -0.150000 0.550000 0.340000
v -0.150000 0.500000 0.340000
v 0.170000 0.520000 -0.290000
v 0.170000 0.600000 -0.290000
v 0.170000 0.704000 -0.242000
v -0.170000 0.704000 -0.242000
v -0.170000 0.600000 -0.290000
v -0.170000 0.520000 -0.290000
vt 0.125000 0.125000
vt 0.125000 0.125000
vt 0.125000 0.125000
vt 0.125000 0.125000
vt 0.125000 0.125000
vt 0.125000 0.125000
vt 0.125000 0.125000
vt 0.125000 0.125000
vt 0.125000 0.125000
vt 0.125000 0.125000
vt 0.625000 0.125000
vt 0.625000 0.125000
vt 0.625000 0.125000
vt 0.625000 0.125000
vt 0.625000 0.125000
vt 0.625000 0.125000
vt 0.625000 0.125000
vt 0.625000 0.125000
vt 0.625000 0.125000
vt 0.625000 0.125000
vt 0.625000 0.125000
vt 0.625000 0.125000
vt 0.625000 0.125000
vt 0.625000 0.125000
vt 0.625000 0.125000
vt 0.625000 0.125000
vt 0.625000 0.125000
vt 0.625000 0.125000
vt 0.625000 0.125000
vt 0.625000 0.125000
vt 0.625000 0.125000
vt 0.625000 0.125000
vt 0.625000 0.125000
vt 0.625000 0.125000
vt 0.625000 0.125000
vt 0.625000 0.125000
vt 0.625000 0.125000
vt 0.625000 0.125000
vt 0.625000 0.125000
vt 0.625000 0.125000
vt 0.625000 0.125000
vt 0.625000 0.125000
vt 0.625000 0.125000
vt 0.625000 0.125000
vt 0.625000 0.125000
vt 0.625000 0.125000
vt 0.625000 0.125000
vt 0.625000 0.125000
vt 0.625000 0.125000
vt 0.625000 0.125000
vt 0.625000 0.125000
vt 0.625000 0.125000
vt 0.625000 0.125000
vt 0.625000 0.125000
vt 0.625000 0.125000
vt 0.625000 0.125000
vt 0.625000 0.125000
vt 0.625000 0.125000
vt 0.625000 0.125000
vt 0.625000 0.125000
vt 0.625000 0.125000
vt 0.625000 0.125000
vt 0.625000 0.125000
vt 0.625000 0.125000
vt 0.625000 0.125000
vt 0.625000 0.125000
vt 0.125000 0.125000
vt 0.125000 0.125000
vt 0.875000 0.125000
vt 0.875000 0.125000
vt 0.875000 0.125000
vt 0.875000 0.125000
vt 0.875000 0.125000
vt 0.875000 0.125000
vt 0.875000 0.125000
vt 0.875000 0.125000
vt 0.875000 0.125000
vt 0.875000 0.125000
vt 0.875000 0.125000
vt 0.875000 0.125000
vt 0.875000 0.125000
vt 0.875000 0.125000
vt 0.875000 0.125000
vt 0.875000 0.125000
vt 0.875000 0.125000
vt 0.875000 0.125000
vt 0.875000 0.125000
vt 0.875000 0.125000
vt 0.875000 0.125000
vt 0.875000 0.125000
vt 0.875000 0.125000
vt 0.875000 0.125000
vt 0.875000 0.125000
vt 0.875000 0.125000
vt 0.875000 0.125000
vt 0.875000 0.125000
vt 0.125000 0.125000
vt 0.125000 0.125000
vt 0.125000 0.125000
vt 0.125000 0.125000
vt 0.125000 0.375000
vt 0.125000 0.375000
vt 0.125000 0.375000
vt 0.125000 0.375000
vt 0.125000 0.375000
vt 0.125000 0.375000
vt 0.125000 0.375000
vt 0.125000 0.375000
vt 0.125000 0.375000
vt 0.125000 0.375000
vt 0.125000 0.375000
vt 0.125000 0.375000
vt 0.375000 0.125000
vt 0.375000 0.125000
vt 0.375000 0.125000
vt 0.375000 0.125000
vt 0.375000 0.125000
vt 0.375000 0.125000
vt 0.375000 0.125000
vt 0.375000 0.125000
vt 0.375000 0.125000
vt 0.375000 0.125000
vt 0.375000 0.125000
vt 0.375000 0.125000
vt 0.375000 0.125000
vt 0.375000 0.125000
vt 0.875000 0.125000
vt 0.875000 0.125000
vt 0.375000 0.125000
vt 0.375000 0.125000
vt 0.375000 0.125000
vt 0.375000 0.125000
vt 0.875000 0.125000
vt 0.875000 0.125000
vt 0.875000 0.125000
vt 0.875000 0.125000
vt 0.375000 0.125000
vt 0.375000 0.125000
vn 0.0000 -1.0000 0.0000
vn 0.0000 0.0000 -1.0000
vn -1.0000 -0.0000 0.0000
vn 0.0000 0.0000 1.0000
vn 0.0000 0.3827 -0.9239
vn 0.0000 -0.7071 -0.7071
vn 0.0000 -0.7071 0.7071
vn 0.0000 0.3827 0.9239
vn 0.0000 1.0000 0.0000
vn 1.0000 0.0000 0.0000
vn -0.7071 0.7071 0.0000
vn 0.7071 0.7071 0.0000
vn 0.0000 0.4191 -0.9080
s 1
f 1/1/1 3/2/1 4/3/1 2/4/1
f 3/2/2 8/5/2 5/6/2 4/3/2
f 3/2/3 86/7/3 84/8/3 8/5/3
f 2/4/4 6/9/4 7/10/4 1/1/4
f 15/11/5 14/12/2 21/13/2 22/14/5
f 14/12/2 20/15/6 27/16/6 21/13/2
f 19/17/1 18/18/7 25/19/7 26/20/1
f 17/21/4 16/22/8 23/23/8 24/24/4
f 20/15/6 19/17/1 26/20/1 27/16/6
f 18/18/7 17/21/4 24/24/4 25/19/7
f 29/25/5 28/26/2 35/27/2 36/28/5
f 28/26/2 34/29/6 41/30/6 35/27/2
f 33/31/1 32/32/7 39/33/7 40/34/1
f 31/35/4 30/36/8 37/37/8 38/38/4
f 34/29/6 33/31/1 40/34/1 41/30/6
f 32/32/7 31/35/4 38/38/4 39/33/7
f 43/39/5 42/40/2 49/41/2 50/42/5
f 42/40/2 48/43/6 55/44/6 49/41/2
f 47/45/1 46/46/7 53/47/7 54/48/1
f 45/49/4 44/50/8 51/51/8 52/52/4
f 48/43/6 47/45/1 54/48/1 55/44/6
f 46/46/7 45/49/4 52/52/4 53/47/7
f 57/53/5 56/54/2 63/55/2 64/56/5
f 56/54/2 62/57/6 69/58/6 63/55/2
f 61/59/1 60/60/7 67/61/7 68/62/1
f 59/63/4 58/64/8 65/65/8 66/66/4
f 62/57/6 61/59/1 68/62/1 69/58/6
f 60/60/7 59/63/4 66/66/4 67/61/7
f 5/6/9 8/5/9 84/8/9 83/67/9
f 5/6/10 83/67/10 85/68/10 4/3/10
f 26/20/3 25/19/3 27/16/3
f 25/19/3 24/24/3 21/13/3 27/16/3
f 22/14/3 21/13/3 24/24/3 23/23/3
f 19/17/10 20/15/10 18/18/10
f 18/18/10 20/15/10 14/12/10 17/21/10
f 15/11/10 16/22/10 17/21/10 14/12/10
f 54/48/3 53/47/3 55/44/3
f 53/47/3 52/52/3 49/41/3 55/44/3
f 50/42/3 49/41/3 52/52/3 51/51/3
f 47/45/10 48/43/10 46/46/10
f 45/49/10 46/46/10 48/43/10 42/40/10
f 42/40/10 43/39/10 44/50/10 45/49/10
f 61/59/10 62/57/10 60/60/10
f 33/31/10 34/29/10 32/32/10
f 31/35/10 32/32/10 34/29/10 28/26/10
f 28/26/10 29/25/10 30/36/10 31/35/10
f 59/63/10 60/60/10 62/57/10 56/54/10
f 56/54/10 57/53/10 58/64/10 59/63/10
f 68/62/3 67/61/3 69/58/3
f 67/61/3 66/66/3 63/55/3 69/58/3
f 64/56/3 63/55/3 66/66/3 65/65/3
f 40/34/3 39/33/3 41/30/3
f 39/33/3 38/38/3 35/27/3 41/30/3
f 36/28/3 35/27/3 38/38/3 37/37/3
f 90/69/4 89/70/4 91/71/4 92/72/4
f 79/73/10 91/71/10 13/74/10 70/75/10
f 9/76/10 13/74/10 91/71/10 89/70/10
f 10/77/10 9/76/10 89/70/10 87/78/10
f 11/79/10 10/77/10 87/78/10 85/80/10
f 12/81/10 11/79/10 85/80/10 83/82/10
f 12/81/10 83/82/10 81/83/10 71/84/10
f 79/73/10 70/75/10 71/84/10 81/83/10
f 80/85/3 77/86/3 76/87/3 92/72/3
f 76/87/3 72/88/3 90/69/3 92/72/3
f 72/88/3 73/89/3 88/90/3 90/69/3
f 73/89/3 74/91/3 86/92/3 88/90/3
f 74/91/3 75/93/3 84/94/3 86/92/3
f 75/93/3 78/95/3 82/96/3 84/94/3
f 80/85/3 82/96/3 78/95/3 77/86/3
f 4/3/10 85/68/10 87/97/10 2/4/10
f 1/1/3 88/98/3 86/7/3 3/2/3
f 7/10/3 90/99/3 88/98/3 1/1/3
f 2/4/10 87/97/10 89/100/10 6/9/10
f 6/9/9 89/100/9 90/99/9 7/10/9
f 95/101/9 96/102/9 102/103/9 101/104/9
f 93/105/10 94/106/10 100/107/10 99/108/10
f 96/102/11 97/109/11 103/110/11 102/103/11
f 94/106/12 95/101/12 101/104/12 100/107/12
f 97/109/3 98/111/3 104/112/3 103/110/3
f 100/107/4 101/104/4 102/103/4 103/110/4
f 99/108/4 100/107/4 103/110/4 104/112/4
f 73/113/3 72/114/3 75/115/3 74/116/3
f 76/117/3 78/118/3 75/115/3 72/114/3
f 77/119/3 78/118/3 76/117/3
f 10/120/10 11/121/10 12/122/10 9/123/10
f 13/124/10 9/123/10 12/122/10 71/125/10
f 70/126/10 13/124/10 71/125/10
f 107/127/13 108/128/13 80/85/13 79/73/13
f 109/129/13 108/130/13 107/131/13 106/132/13
f 82/96/13 80/85/13 108/128/13 109/133/13
f 79/73/13 81/83/13 106/134/13 107/127/13
f 92/72/9 91/71/9 79/73/9 80/85/9
f 105/135/2 106/134/2 81/83/2 83/82/2
f 84/94/2 82/96/2 109/133/2 110/136/2
f 84/94/2 110/136/2 105/135/2 83/82/2
f 105/137/2 110/138/2 109/129/2 106/132/2
