# Blender v3.0.0 OBJ File: 'City.blend'
# www.blender.org
o c_b_heap
v -0.369298 0.050000 1.823593
v 0.242607 0.050000 1.883688
v 1.057625 0.050000 0.992079
v 0.740802 0.050000 1.480644
v -0.870404 0.050000 1.446202
v -0.974878 0.050000 0.633444
v -1.348594 0.050000 -0.106504
v -0.986910 0.050000 -0.610416
v -0.970640 0.050000 -1.067122
v -0.730916 0.050001 -1.738642
v 0.095309 0.050000 -1.991744
v 0.778734 0.050000 -1.595234
v 1.065710 0.050000 -1.102061
v 1.269447 0.050000 -0.194793
v 0.972112 0.050000 0.394166
v -0.145528 0.550000 1.331300
v 0.096410 0.550000 1.433165
v 0.574282 0.550000 0.786211
v 0.421557 0.550000 1.188251
v -0.428832 0.550000 1.186629
v -0.601929 0.550000 0.597641
v -0.841383 0.550000 -0.019980
v -0.551305 0.550000 -0.437367
v -0.496248 0.550000 -1.001483
v -0.393769 0.550001 -1.404479
v 0.065474 0.550000 -1.544204
v 0.426670 0.550000 -1.338645
v 0.621153 0.550000 -0.890225
v 0.806989 0.550000 -0.260432
v 0.590212 0.550000 0.298691
v 0.018658 0.850000 0.748084
v 0.102217 0.850000 0.443832
v -0.068947 0.850000 0.535017
v -0.286087 0.850000 0.001185
v -0.138788 0.850000 -0.356504
v -0.003435 0.850000 -0.895559
v 0.220515 0.850000 -0.683938
v 0.215621 0.850000 -0.371883
v 0.141530 0.850000 0.092323
vt 0.125000 0.125000
vt 0.125000 0.125000
vt 0.125000 0.125000
vt 0.125000 0.125000
vt 0.125000 0.125000
vt 0.125000 0.125000
vt 0.125000 0.125000
vt 0.125000 0.125000
vt 0.125000 0.125000
vt 0.125000 0.125000
vt 0.125000 0.125000
vt 0.125000 0.125000
vt 0.125000 0.125000
vt 0.125000 0.125000
vt 0.125000 0.125000
vt 0.125000 0.125000
vt 0.125000 0.125000
vt 0.125000 0.125000
vt 0.125000 0.125000
vt 0.125000 0.125000
vt 0.125000 0.125000
vt 0.125000 0.125000
vt 0.125000 0.125000
vt 0.125000 0.125000
vt 0.125000 0.125000
vt 0.125000 0.125000
vt 0.125000 0.125000
vt 0.125000 0.125000
vt 0.125000 0.125000
vt 0.125000 0.125000
vt 0.125000 0.125000
vt 0.125000 0.125000
vt 0.125000 0.125000
vt 0.125000 0.125000
vt 0.125000 0.125000
vt 0.125000 0.125000
vt 0.125000 0.125000
vt 0.125000 0.125000
vt 0.125000 0.125000
vn 0.0796 0.6662 -0.7415
vn 0.0749 0.7797 -0.6217
vn 0.4475 0.7725 -0.4506
vn 0.5445 0.6694 -0.5053
vn 0.7121 0.6816 0.1679
vn 0.6216 0.7736 0.1231
vn 0.4834 0.7840 0.3894
vn 0.5614 0.6796 0.4721
vn 0.5856 0.7785 -0.2256
vn 0.6861 0.6789 -0.2614
vn -0.5929 0.7070 0.3854
vn -0.4880 0.7956 0.3590
vn -0.6074 0.7682 0.2021
vn -0.7337 0.6344 0.2433
vn 0.6355 0.7706 0.0468
vn 0.7303 0.6794 0.0705
vn -0.6337 0.7725 -0.0414
vn -0.7098 0.7004 -0.0750
vn 0.6207 0.7767 0.1069
vn 0.7449 0.6545 0.1294
vn -0.5886 0.7790 -0.2159
vn -0.6814 0.6916 -0.2394
vn -0.6296 0.7664 -0.1269
vn -0.7244 0.6756 -0.1371
vn -0.2708 0.7027 0.6579
vn -0.2313 0.8077 0.5423
vn -0.4312 0.7880 -0.4394
vn -0.5025 0.6991 -0.5086
vn 0.1773 0.7051 0.6865
vn 0.1168 0.7973 0.5921
vn -0.0797 0.9744 -0.2101
vn 0.3004 0.9468 -0.1156
vn 0.0127 0.9781 0.2077
vn -0.2399 0.9670 0.0853
vn 0.2639 0.9645 0.0059
vn -0.3094 0.9505 -0.0261
vn 0.2517 0.9667 0.0467
vn -0.2569 0.9623 -0.0888
vn 0.2741 0.9607 0.0438
s 1
f 11/1/1 26/2/2 27/3/3 12/4/4
f 3/5/5 18/6/6 19/7/7 4/8/8
f 12/4/4 27/3/3 28/9/9 13/10/10
f 5/11/11 20/12/12 21/13/13 6/14/14
f 13/10/10 28/9/9 29/15/15 14/16/16
f 6/14/14 21/13/13 22/17/17 7/18/18
f 14/16/16 29/15/15 30/19/19 15/20/20
f 7/18/18 22/17/17 23/21/21 8/22/22
f 3/5/5 15/20/20 30/19/19 18/6/6
f 8/22/22 23/21/21 24/23/23 9/24/24
f 1/25/25 16/26/26 20/12/12 5/11/11
f 9/24/24 24/23/23 25/27/27 10/28/28
f 2/29/29 17/30/30 16/26/26 1/25/25
f 10/28/28 25/27/27 26/2/2 11/1/1
f 4/8/8 19/7/7 17/30/30 2/29/29
f 28/9/9 27/3/3 36/31/31 37/32/32
f 21/13/13 20/12/12 31/33/33 33/34/34
f 29/15/15 28/9/9 37/32/32 38/35/35
f 22/17/17 21/13/13 33/34/34 34/36/36
f 30/19/19 29/15/15 38/35/35 39/37/37
f 23/21/21 22/17/17 34/36/36 35/38/38
f 18/6/6 30/19/19 39/37/37 32/39/39
f 24/23/23 23/21/21 35/38/38 36/31/31
f 20/12/12 16/26/26 31/33/33
f 25/27/27 24/23/23 36/31/31
f 16/26/26 17/30/30 31/33/33
f 26/2/2 25/27/27 36/31/31
f 17/30/30 19/7/7 31/33/33
f 27/3/3 26/2/2 36/31/31
f 19/7/7 18/6/6 32/39/39 31/33/33
f 33/34/34 31/33/33 32/39/39
f 34/36/36 33/34/34 32/39/39 39/37/37
f 34/36/36 39/37/37 38/35/35 35/38/38
f 35/38/38 38/35/35 37/32/32 36/31/31
