# Blender v3.0.0 OBJ File: 'City.blend'
# www.blender.org
o open_car_3
v 0.356069 1.198740 1.787109
v -0.356069 1.198740 1.787109
v -0.406069 0.446803 1.837109
v 0.406069 0.446803 1.837109
v 0.356069 1.198740 -1.788730
v 0.406069 0.446803 -1.838731
v -0.406069 0.446803 -1.838731
v -0.356069 1.198740 -1.788730
v 0.406069 1.198740 1.837109
v -0.406069 1.198740 1.837109
v 0.406069 1.198740 -1.838731
v -0.406069 1.198740 -1.838731
v 0.356069 0.498740 1.787109
v -0.356069 0.498740 1.787109
v 0.356069 0.498740 -1.788731
v -0.356069 0.498740 -1.788731
v -0.406069 0.446803 1.044128
v -0.406069 0.446803 -1.045751
v 0.406069 0.446803 1.044128
v 0.406069 0.446803 -1.045751
v -0.406069 0.246803 0.544127
v -0.406069 0.246803 -0.545752
v 0.406069 0.246803 0.544127
v 0.406069 0.246803 -0.545752
v 0.406060 0.483702 1.288592
v 0.442960 0.483702 1.325491
v 0.442960 0.483702 1.288595
v 0.406064 0.483702 1.325491
v 0.406060 1.161844 1.288592
v 0.442960 1.161844 1.325491
v 0.442960 1.161844 1.288595
v 0.406064 1.161844 1.325491
v 0.406064 1.161844 -1.838731
v 0.442960 1.198740 -1.875629
v 0.442960 1.161844 -1.875629
v 0.406060 1.198743 -1.838731
v 0.406060 0.483702 1.837108
v 0.442960 0.446803 1.874005
v 0.442960 0.483699 1.874005
v 0.406064 0.446803 1.837108
v 0.406060 0.483702 1.044128
v 0.442960 0.446803 1.044128
v 0.442960 0.483699 1.044128
v 0.406064 0.446803 1.044128
v 0.406060 0.283702 0.544127
v 0.442960 0.246803 0.544127
v 0.442960 0.283699 0.544127
v 0.406064 0.246803 0.544127
v 0.406060 0.283702 -0.545752
v 0.442960 0.246803 -0.545752
v 0.442960 0.283699 -0.545752
v 0.406064 0.246803 -0.545752
v 0.406060 0.483702 -1.045751
v 0.442960 0.446803 -1.045751
v 0.442960 0.483699 -1.045751
v 0.406064 0.446803 -1.045751
v 0.406060 0.483702 -1.838731
v 0.442960 0.446803 -1.875629
v 0.442960 0.483699 -1.875629
v 0.406064 0.446803 -1.838731
v -0.406060 0.483702 1.837108
v -0.442960 0.446803 1.874005
v -0.442960 0.483699 1.874005
v -0.406064 0.446803 1.837108
v -0.406060 0.483702 1.044128
v -0.442960 0.446803 1.044128
v -0.442960 0.483699 1.044128
v -0.406064 0.446803 1.044128
v -0.406060 0.283702 0.544127
v -0.442960 0.246803 0.544127
v -0.442960 0.283699 0.544127
v -0.406064 0.246803 0.544127
v -0.406060 0.283702 -0.545752
v -0.442960 0.246803 -0.545752
v -0.442960 0.283699 -0.545752
v -0.406064 0.246803 -0.545752
v -0.406060 0.483702 -1.045751
v -0.442960 0.446803 -1.045751
v -0.442960 0.483699 -1.045751
v -0.406064 0.446803 -1.045751
v -0.406060 0.483702 -1.838731
v -0.442960 0.446803 -1.875629
v -0.442960 0.483699 -1.875629
v -0.406064 0.446803 -1.838731
v 0.406060 1.198743 1.837109
v 0.442960 1.161844 1.874006
v 0.442960 1.198740 1.874006
v 0.406064 1.161844 1.837109
v -0.406064 1.161844 -1.838731
v -0.442960 1.198740 -1.875629
v -0.442960 1.161844 -1.875629
v -0.406061 1.198743 -1.838731
v -0.406061 1.198743 1.837108
v -0.442960 1.161844 1.874006
v -0.442960 1.198740 1.874006
v -0.406064 1.161844 1.837108
v 0.406060 0.450702 0.961628
v 0.442960 0.465459 0.998527
v 0.442960 0.450700 0.961631
v 0.406064 0.465462 0.998527
v 0.406060 1.161844 0.961628
v 0.442960 1.161844 0.998527
v 0.442960 1.161844 0.961631
v 0.406064 1.161844 0.998527
v 0.406060 0.319917 0.634664
v 0.442960 0.334673 0.671563
v 0.442960 0.319915 0.634667
v 0.406064 0.334676 0.671563
v 0.406060 1.161844 0.634664
v 0.442960 1.161844 0.671563
v 0.442960 1.161844 0.634668
v 0.406064 1.161844 0.671563
v 0.406060 0.283699 0.307700
v 0.442960 0.283699 0.344599
v 0.442960 0.283699 0.307704
v 0.406064 0.283699 0.344599
v 0.406060 1.161844 0.307700
v 0.442960 1.161844 0.344599
v 0.442960 1.161844 0.307704
v 0.406064 1.161844 0.344599
v 0.406060 0.283699 -0.019264
v 0.442960 0.283699 0.017635
v 0.442960 0.283699 -0.019260
v 0.406064 0.283699 0.017635
v 0.406060 1.161844 -0.019264
v 0.442960 1.161844 0.017636
v 0.442960 1.161844 -0.019260
v 0.406064 1.161844 0.017636
v 0.406060 0.283699 -0.346228
v 0.442960 0.283699 -0.309328
v 0.442960 0.283699 -0.346224
v 0.406064 0.283699 -0.309328
v 0.406060 1.161844 -0.346228
v 0.442960 1.161844 -0.309328
v 0.442960 1.161844 -0.346224
v 0.406064 1.161844 -0.309328
v 0.406060 0.334679 -0.673192
v 0.442960 0.319915 -0.636292
v 0.442960 0.334674 -0.673188
v 0.406064 0.319915 -0.636292
v 0.406060 1.161844 -0.673192
v 0.442960 1.161844 -0.636292
v 0.442960 1.161844 -0.673188
v 0.406064 1.161844 -0.636292
v 0.406060 0.465464 -1.000156
v 0.442960 0.450701 -0.963256
v 0.442960 0.465459 -1.000152
v 0.406064 0.450704 -0.963256
v 0.406060 1.161844 -1.000156
v 0.442960 1.161844 -0.963256
v 0.442960 1.161844 -1.000152
v 0.406064 1.161844 -0.963256
v 0.406060 0.483702 -1.327120
v 0.442960 0.483702 -1.290220
v 0.442960 0.483702 -1.327116
v 0.406064 0.483702 -1.290220
v 0.406060 1.161845 -1.327120
v 0.442960 1.161845 -1.290220
v 0.442960 1.161845 -1.327116
v 0.406064 1.161845 -1.290220
v -0.406061 0.483702 1.288592
v -0.442960 0.483702 1.325491
v -0.442960 0.483702 1.288595
v -0.406064 0.483702 1.325491
v -0.406061 1.161844 1.288592
v -0.442960 1.161844 1.325491
v -0.442960 1.161844 1.288595
v -0.406064 1.161844 1.325491
v -0.406061 0.450702 0.961628
v -0.442960 0.465459 0.998527
v -0.442960 0.450700 0.961631
v -0.406064 0.465462 0.998527
v -0.406061 1.161844 0.961628
v -0.442960 1.161844 0.998527
v -0.442960 1.161844 0.961631
v -0.406064 1.161844 0.998527
v -0.406061 0.319917 0.634664
v -0.442960 0.334673 0.671563
v -0.442960 0.319915 0.634667
v -0.406064 0.334676 0.671563
v -0.406061 1.161844 0.634664
v -0.442960 1.161844 0.671563
v -0.442960 1.161844 0.634668
v -0.406064 1.161844 0.671563
v -0.406061 0.283699 0.307700
v -0.442960 0.283699 0.344599
v -0.442960 0.283699 0.307704
v -0.406064 0.283699 0.344599
v -0.406061 1.161844 0.307700
v -0.442960 1.161844 0.344599
v -0.442960 1.161844 0.307704
v -0.406064 1.161844 0.344599
v -0.406061 0.283699 -0.019264
v -0.442960 0.283699 0.017635
v -0.442960 0.283699 -0.019260
v -0.406064 0.283699 0.017635
v -0.406061 1.161844 -0.019264
v -0.442960 1.161844 0.017636
v -0.442960 1.161844 -0.019260
v -0.406064 1.161844 0.017636
v -0.406061 0.283699 -0.346228
v -0.442960 0.283699 -0.309328
v -0.442960 0.283699 -0.346224
v -0.406064 0.283699 -0.309328
v -0.406061 1.161844 -0.346228
v -0.442960 1.161844 -0.309328
v -0.442960 1.161844 -0.346224
v -0.406064 1.161844 -0.309328
v -0.406061 0.334678 -0.673192
v -0.442960 0.319915 -0.636292
v -0.442960 0.334674 -0.673188
v -0.406064 0.319915 -0.636292
v -0.406061 1.161844 -0.673192
v -0.442960 1.161844 -0.636292
v -0.442960 1.161844 -0.673188
v -0.406064 1.161844 -0.636292
v -0.406061 0.465464 -1.000156
v -0.442960 0.450701 -0.963256
v -0.442960 0.465459 -1.000152
v -0.406064 0.450704 -0.963256
v -0.406061 1.161844 -1.000156
v -0.442960 1.161844 -0.963256
v -0.442960 1.161844 -1.000152
v -0.406064 1.161844 -0.963256
v -0.406061 0.483702 -1.327120
v -0.442960 0.483702 -1.290220
v -0.442960 0.483702 -1.327116
v -0.406064 0.483702 -1.290220
v -0.406061 1.161845 -1.327120
v -0.442960 1.161845 -1.290220
v -0.442960 1.161845 -1.327116
v -0.406064 1.161845 -1.290220
v -0.057812 0.412921 1.981015
v -0.057813 0.412921 1.865389
v -0.057813 0.297295 1.865389
v -0.057812 0.297295 1.981015
v 0.057813 0.412921 1.865389
v 0.057813 0.412921 1.981015
v 0.057813 0.297295 1.981015
v 0.057813 0.297295 1.865389
v -0.028217 0.412921 1.931757
v -0.028217 0.297295 1.931757
v 0.028218 0.297295 1.931757
v 0.028218 0.297295 1.865389
v -0.028217 0.412921 1.865389
v 0.028218 0.412921 1.865389
v 0.028218 0.412921 1.931757
v -0.028217 0.297295 1.865389
v 0.057812 0.412921 -1.983137
v 0.057812 0.412921 -1.867512
v 0.057812 0.297296 -1.867512
v 0.057812 0.297296 -1.983137
v -0.057813 0.412921 -1.867512
v -0.057813 0.412921 -1.983137
v -0.057813 0.297296 -1.983137
v -0.057813 0.297296 -1.867512
v 0.028217 0.412921 -1.933879
v 0.028217 0.297296 -1.933879
v -0.028217 0.297296 -1.933879
v -0.028217 0.297296 -1.867512
v 0.028217 0.412921 -1.867512
v -0.028217 0.412921 -1.867512
v -0.028217 0.412921 -1.933879
v 0.028217 0.297296 -1.867512
v -0.129705 0.455057 1.880519
v -0.129705 0.455057 -1.881913
v -0.129705 0.251536 -1.881913
v -0.129705 0.251535 1.880520
v 0.129705 0.455057 -1.881913
v 0.129705 0.251536 -1.881913
v 0.129705 0.455057 1.880519
v 0.129705 0.251535 1.880520
v 0.406060 0.483702 1.615555
v 0.442960 0.483702 1.652454
v 0.442960 0.483702 1.615559
v 0.406064 0.483702 1.652454
v 0.406060 1.161844 1.615555
v 0.442960 1.161844 1.652455
v 0.442960 1.161844 1.615559
v 0.406064 1.161844 1.652455
v 0.406060 0.483702 -1.654084
v -0.406061 0.483702 1.615555
v -0.442960 0.483702 1.652454
v -0.442960 0.483702 1.615559
v -0.406064 0.483702 1.652454
v -0.406061 1.161844 1.615555
v -0.442960 1.161844 1.652455
v -0.442960 1.161844 1.615559
v -0.406064 1.161844 1.652455
v 0.442960 0.483702 -1.617184
v 0.442960 0.483702 -1.654080
v 0.406064 0.483702 -1.617184
v 0.406060 1.161845 -1.654083
v 0.442960 1.161845 -1.617184
v 0.442960 1.161845 -1.654080
v 0.406064 1.161845 -1.617184
v -0.406061 0.483702 -1.654084
v -0.442960 0.483702 -1.617184
v -0.442960 0.483702 -1.654080
v -0.406064 0.483702 -1.617184
v -0.406061 1.161845 -1.654083
v -0.442960 1.161845 -1.617184
v -0.442960 1.161845 -1.654080
v -0.406064 1.161845 -1.617184
vt 0.625000 0.125000
vt 0.625000 0.125000
vt 0.625000 0.125000
vt 0.625000 0.125000
vt 0.625000 0.125000
vt 0.625000 0.125000
vt 0.625000 0.125000
vt 0.625000 0.125000
vt 0.625000 0.125000
vt 0.875000 0.125000
vt 0.875000 0.125000
vt 0.875000 0.125000
vt 0.875000 0.125000
vt 0.625000 0.125000
vt 0.875000 0.125000
vt 0.875000 0.125000
vt 0.875000 0.125000
vt 0.875000 0.125000
vt 0.375000 0.125000
vt 0.375000 0.125000
vt 0.375000 0.125000
vt 0.375000 0.125000
vt 0.375000 0.125000
vt 0.375000 0.125000
vt 0.375000 0.125000
vt 0.375000 0.125000
vt 0.875000 0.125000
vt 0.875000 0.125000
vt 0.875000 0.125000
vt 0.875000 0.125000
vt 0.625000 0.125000
vt 0.875000 0.125000
vt 0.875000 0.125000
vt 0.875000 0.125000
vt 0.875000 0.125000
vt 0.875000 0.125000
vt 0.875000 0.125000
vt 0.625000 0.125000
vt 0.875000 0.125000
vt 0.875000 0.125000
vt 0.625000 0.125000
vt 0.625000 0.125000
vt 0.625000 0.125000
vt 0.625000 0.125000
vt 0.375000 0.125000
vt 0.375000 0.125000
vt 0.375000 0.125000
vt 0.375000 0.125000
vt 0.375000 0.125000
vt 0.375000 0.125000
vt 0.375000 0.125000
vt 0.375000 0.125000
vt 0.375000 0.125000
vt 0.375000 0.125000
vt 0.375000 0.125000
vt 0.375000 0.125000
vt 0.375000 0.125000
vt 0.375000 0.125000
vt 0.375000 0.125000
vt 0.375000 0.125000
vt 0.375000 0.125000
vt 0.375000 0.125000
vt 0.375000 0.125000
vt 0.375000 0.125000
vt 0.375000 0.125000
vt 0.375000 0.125000
vt 0.375000 0.125000
vt 0.375000 0.125000
vt 0.375000 0.125000
vt 0.375000 0.125000
vt 0.375000 0.125000
vt 0.375000 0.125000
vt 0.375000 0.125000
vt 0.375000 0.125000
vt 0.375000 0.125000
vt 0.375000 0.125000
vt 0.375000 0.125000
vt 0.375000 0.125000
vt 0.375000 0.125000
vt 0.375000 0.125000
vt 0.375000 0.125000
vt 0.375000 0.125000
vt 0.375000 0.125000
vt 0.375000 0.125000
vt 0.375000 0.125000
vt 0.375000 0.125000
vt 0.375000 0.125000
vt 0.375000 0.125000
vt 0.375000 0.125000
vt 0.375000 0.125000
vt 0.375000 0.125000
vt 0.375000 0.125000
vt 0.375000 0.125000
vt 0.375000 0.125000
vt 0.375000 0.125000
vt 0.375000 0.125000
vt 0.375000 0.125000
vt 0.375000 0.125000
vt 0.375000 0.125000
vt 0.375000 0.125000
vt 0.375000 0.125000
vt 0.375000 0.125000
vt 0.375000 0.125000
vt 0.375000 0.125000
vt 0.375000 0.125000
vt 0.375000 0.125000
vt 0.375000 0.125000
vt 0.375000 0.125000
vt 0.375000 0.125000
vt 0.375000 0.125000
vt 0.375000 0.125000
vt 0.375000 0.125000
vt 0.375000 0.125000
vt 0.375000 0.125000
vt 0.375000 0.125000
vt 0.375000 0.125000
vt 0.375000 0.125000
vt 0.375000 0.125000
vt 0.375000 0.125000
vt 0.375000 0.125000
vt 0.375000 0.125000
vt 0.375000 0.125000
vt 0.375000 0.125000
vt 0.375000 0.125000
vt 0.375000 0.125000
vt 0.375000 0.125000
vt 0.375000 0.125000
vt 0.375000 0.125000
vt 0.375000 0.125000
vt 0.375000 0.125000
vt 0.375000 0.125000
vt 0.375000 0.125000
vt 0.375000 0.125000
vt 0.375000 0.125000
vt 0.375000 0.125000
vt 0.375000 0.125000
vt 0.375000 0.125000
vt 0.375000 0.125000
vt 0.375000 0.125000
vt 0.375000 0.125000
vt 0.375000 0.125000
vt 0.375000 0.125000
vt 0.375000 0.125000
vt 0.375000 0.125000
vt 0.375000 0.125000
vt 0.375000 0.125000
vt 0.375000 0.125000
vt 0.375000 0.125000
vt 0.375000 0.125000
vt 0.375000 0.125000
vt 0.375000 0.125000
vt 0.375000 0.125000
vt 0.375000 0.125000
vt 0.375000 0.125000
vt 0.375000 0.125000
vt 0.375000 0.125000
vt 0.375000 0.125000
vt 0.375000 0.125000
vt 0.375000 0.125000
vt 0.375000 0.125000
vt 0.375000 0.125000
vt 0.375000 0.125000
vt 0.375000 0.125000
vt 0.375000 0.125000
vt 0.375000 0.125000
vt 0.375000 0.125000
vt 0.375000 0.125000
vt 0.375000 0.125000
vt 0.375000 0.125000
vt 0.375000 0.125000
vt 0.375000 0.125000
vt 0.375000 0.125000
vt 0.375000 0.125000
vt 0.375000 0.125000
vt 0.375000 0.125000
vt 0.375000 0.125000
vt 0.375000 0.125000
vt 0.375000 0.125000
vt 0.375000 0.125000
vt 0.375000 0.125000
vt 0.375000 0.125000
vt 0.375000 0.125000
vt 0.375000 0.125000
vt 0.375000 0.125000
vt 0.375000 0.125000
vt 0.375000 0.125000
vt 0.375000 0.125000
vt 0.375000 0.125000
vt 0.375000 0.125000
vt 0.375000 0.125000
vt 0.375000 0.125000
vt 0.375000 0.125000
vt 0.375000 0.125000
vt 0.375000 0.125000
vt 0.375000 0.125000
vt 0.375000 0.125000
vt 0.375000 0.125000
vt 0.375000 0.125000
vt 0.375000 0.125000
vt 0.375000 0.125000
vt 0.375000 0.125000
vt 0.375000 0.125000
vt 0.375000 0.125000
vt 0.375000 0.125000
vt 0.375000 0.125000
vt 0.375000 0.125000
vt 0.375000 0.125000
vt 0.375000 0.125000
vt 0.375000 0.125000
vt 0.375000 0.125000
vt 0.375000 0.125000
vt 0.375000 0.125000
vt 0.375000 0.125000
vt 0.375000 0.125000
vt 0.375000 0.125000
vt 0.375000 0.125000
vt 0.375000 0.125000
vt 0.375000 0.125000
vt 0.375000 0.125000
vt 0.375000 0.125000
vt 0.375000 0.125000
vt 0.375000 0.125000
vt 0.375000 0.125000
vt 0.375000 0.125000
vt 0.375000 0.125000
vt 0.375000 0.125000
vt 0.375000 0.125000
vt 0.375000 0.125000
vt 0.375000 0.125000
vt 0.375000 0.125000
vt 0.375000 0.125000
vt 0.375000 0.125000
vt 0.375000 0.125000
vt 0.375000 0.125000
vt 0.375000 0.125000
vt 0.375000 0.125000
vt 0.375000 0.125000
vt 0.375000 0.125000
vt 0.375000 0.125000
vt 0.375000 0.125000
vt 0.375000 0.125000
vt 0.375000 0.125000
vt 0.375000 0.125000
vt 0.375000 0.125000
vt 0.375000 0.125000
vt 0.375000 0.125000
vt 0.375000 0.125000
vt 0.375000 0.125000
vt 0.375000 0.125000
vt 0.375000 0.125000
vt 0.375000 0.125000
vt 0.375000 0.125000
vt 0.125000 0.125000
vt 0.125000 0.125000
vt 0.125000 0.125000
vt 0.125000 0.125000
vt 0.125000 0.125000
vt 0.125000 0.125000
vt 0.125000 0.125000
vt 0.125000 0.125000
vt 0.125000 0.125000
vt 0.125000 0.125000
vt 0.125000 0.125000
vt 0.125000 0.125000
vt 0.125000 0.125000
vt 0.125000 0.125000
vt 0.125000 0.125000
vt 0.125000 0.125000
vt 0.125000 0.125000
vt 0.125000 0.125000
vt 0.125000 0.125000
vt 0.125000 0.125000
vt 0.125000 0.125000
vt 0.125000 0.125000
vt 0.125000 0.125000
vt 0.125000 0.125000
vt 0.125000 0.125000
vt 0.125000 0.125000
vt 0.125000 0.125000
vt 0.125000 0.125000
vt 0.125000 0.125000
vt 0.125000 0.125000
vt 0.125000 0.125000
vt 0.125000 0.125000
vt 0.125000 0.125000
vt 0.125000 0.125000
vt 0.125000 0.125000
vt 0.125000 0.125000
vt 0.125000 0.125000
vt 0.125000 0.125000
vt 0.125000 0.125000
vt 0.125000 0.125000
vt 0.375000 0.125000
vt 0.375000 0.125000
vt 0.375000 0.125000
vt 0.375000 0.125000
vt 0.375000 0.125000
vt 0.375000 0.125000
vt 0.375000 0.125000
vt 0.375000 0.125000
vt 0.375000 0.125000
vt 0.375000 0.125000
vt 0.375000 0.125000
vt 0.375000 0.125000
vt 0.375000 0.125000
vt 0.375000 0.125000
vt 0.375000 0.125000
vt 0.375000 0.125000
vt 0.375000 0.125000
vt 0.375000 0.125000
vt 0.375000 0.125000
vt 0.375000 0.125000
vt 0.375000 0.125000
vt 0.375000 0.125000
vt 0.375000 0.125000
vt 0.375000 0.125000
vt 0.375000 0.125000
vt 0.375000 0.125000
vt 0.375000 0.125000
vt 0.375000 0.125000
vt 0.375000 0.125000
vt 0.375000 0.125000
vt 0.375000 0.125000
vt 0.375000 0.125000
vn 0.0000 -0.0000 1.0000
vn 0.0000 0.0000 -1.0000
vn -1.0000 0.0000 0.0000
vn 0.0000 -1.0000 -0.0000
vn 1.0000 -0.0000 0.0000
vn 0.0000 1.0000 0.0000
vn 0.0000 -0.9285 -0.3714
vn 0.0000 -0.9285 0.3714
vn 0.0001 0.0000 -1.0000
vn 0.0001 1.0000 0.0000
vn 0.0001 0.9285 -0.3714
vn 0.0001 0.9285 0.3714
vn -0.0001 0.9820 -0.1891
vn -0.0001 0.9285 -0.3714
vn -0.0001 1.0000 0.0000
vn -0.0001 0.9285 0.3714
vn -0.0001 0.0000 -1.0000
vn 0.8572 -0.0000 0.5150
vn -0.8572 -0.0000 0.5150
vn -0.8572 0.0000 -0.5150
vn 0.8572 0.0000 -0.5150
s 1
f 9/1/1 10/2/1 3/3/1 4/4/1
f 11/5/2 6/6/2 7/7/2 12/8/2
f 3/3/3 10/2/3 17/9/3
f 18/10/4 7/11/4 6/12/4 20/13/4
f 6/6/5 11/5/5 20/14/5
f 1/15/3 5/16/3 15/17/3 13/18/3
f 1/19/6 2/20/6 10/21/6 9/22/6
f 5/23/6 1/19/6 9/22/6 11/24/6
f 8/25/6 5/23/6 11/24/6 12/26/6
f 2/20/6 8/25/6 12/26/6 10/21/6
f 14/27/6 13/18/6 15/17/6 16/28/6
f 5/16/1 8/29/1 16/28/1 15/17/1
f 2/30/2 1/15/2 13/18/2 14/27/2
f 8/29/5 2/30/5 14/27/5 16/28/5
f 19/31/5 9/1/5 4/4/5
f 11/5/5 9/1/5 19/31/5 20/14/5
f 3/32/4 17/33/4 19/34/4 4/35/4
f 18/10/7 20/13/7 24/36/7 22/37/7
f 12/8/3 7/7/3 18/38/3
f 10/2/3 12/8/3 18/38/3 17/9/3
f 21/39/4 22/37/4 24/36/4 23/40/4
f 20/14/5 19/31/5 23/41/5 24/42/5
f 17/9/3 18/38/3 22/43/3 21/44/3
f 19/34/8 17/33/8 21/39/8 23/40/8
f 28/45/1 26/46/1 30/47/1 32/48/1
f 25/49/9 29/50/9 31/51/9 27/52/9
f 26/46/5 27/52/5 31/51/5 30/47/5
f 40/53/4 44/54/4 42/55/4 38/56/4
f 39/57/6 43/58/10 41/59/10 37/60/6
f 38/56/5 42/55/5 43/58/5 39/57/5
f 44/54/8 48/61/8 46/62/8 42/55/8
f 43/58/11 47/63/11 45/64/11 41/59/11
f 42/55/5 46/62/5 47/63/5 43/58/5
f 48/61/4 52/65/4 50/66/4 46/62/4
f 47/63/10 51/67/10 49/68/10 45/64/10
f 46/62/5 50/66/5 51/67/5 47/63/5
f 52/65/7 56/69/7 54/70/7 50/66/7
f 51/67/12 55/71/12 53/72/12 49/68/12
f 50/66/5 54/70/5 55/71/5 51/67/5
f 56/69/4 60/73/4 58/74/4 54/70/4
f 55/71/10 59/75/6 57/76/6 53/72/10
f 54/70/5 58/74/5 59/75/5 55/71/5
f 64/77/4 62/78/4 66/79/4 68/80/4
f 63/81/6 61/82/6 65/83/13 67/84/13
f 62/78/3 63/81/3 67/84/3 66/79/3
f 68/80/8 66/79/8 70/85/8 72/86/8
f 67/84/13 65/83/13 69/87/14 71/88/14
f 66/79/3 67/84/3 71/88/3 70/85/3
f 72/86/4 70/85/4 74/89/4 76/90/4
f 71/88/15 69/87/15 73/91/15 75/92/15
f 70/85/3 71/88/3 75/92/3 74/89/3
f 76/90/7 74/89/7 78/93/7 80/94/7
f 75/92/16 73/91/16 77/95/16 79/96/16
f 74/89/3 75/92/3 79/96/3 78/93/3
f 80/94/4 78/93/4 82/97/4 84/98/4
f 79/96/15 77/95/15 81/99/6 83/100/6
f 78/93/3 79/96/3 83/100/3 82/97/3
f 88/101/4 33/102/4 35/103/4 86/104/4
f 87/105/6 34/106/6 36/107/6 85/108/6
f 86/104/5 35/103/5 34/106/5 87/105/5
f 96/109/4 94/110/4 91/111/4 89/112/4
f 95/113/6 93/114/6 92/115/6 90/116/6
f 94/110/3 95/113/3 90/116/3 91/111/3
f 38/56/4 62/78/4 64/77/4 40/53/4
f 37/60/6 61/82/6 63/81/6 39/57/6
f 39/57/1 63/81/1 62/78/1 38/56/1
f 86/104/4 94/110/4 96/109/4 88/101/4
f 33/102/4 89/112/4 91/111/4 35/103/4
f 35/103/2 91/111/2 90/116/2 34/106/2
f 60/73/4 84/98/4 82/97/4 58/74/4
f 58/74/2 82/97/2 83/100/2 59/75/2
f 100/117/1 98/118/1 102/119/1 104/120/1
f 97/121/9 101/122/9 103/123/9 99/124/9
f 98/118/5 99/124/5 103/123/5 102/119/5
f 108/125/1 106/126/1 110/127/1 112/128/1
f 105/129/9 109/130/9 111/131/9 107/132/9
f 106/126/5 107/132/5 111/131/5 110/127/5
f 116/133/1 114/134/1 118/135/1 120/136/1
f 113/137/9 117/138/9 119/139/9 115/140/9
f 114/134/5 115/140/5 119/139/5 118/135/5
f 124/141/1 122/142/1 126/143/1 128/144/1
f 121/145/9 125/146/9 127/147/9 123/148/9
f 122/142/5 123/148/5 127/147/5 126/143/5
f 132/149/1 130/150/1 134/151/1 136/152/1
f 129/153/9 133/154/9 135/155/9 131/156/9
f 130/150/5 131/156/5 135/155/5 134/151/5
f 140/157/1 138/158/1 142/159/1 144/160/1
f 137/161/9 141/162/9 143/163/9 139/164/9
f 138/158/5 139/164/5 143/163/5 142/159/5
f 148/165/1 146/166/1 150/167/1 152/168/1
f 145/169/9 149/170/9 151/171/9 147/172/9
f 146/166/5 147/172/5 151/171/5 150/167/5
f 156/173/1 154/174/1 158/175/1 160/176/1
f 153/177/9 157/178/9 159/179/9 155/180/9
f 154/174/5 155/180/5 159/179/5 158/175/5
f 164/181/1 168/182/1 166/183/1 162/184/1
f 161/185/17 163/186/17 167/187/17 165/188/17
f 162/184/3 166/183/3 167/187/3 163/186/3
f 172/189/1 176/190/1 174/191/1 170/192/1
f 169/193/17 171/194/17 175/195/17 173/196/17
f 170/192/3 174/191/3 175/195/3 171/194/3
f 180/197/1 184/198/1 182/199/1 178/200/1
f 177/201/17 179/202/17 183/203/17 181/204/17
f 178/200/3 182/199/3 183/203/3 179/202/3
f 188/205/1 192/206/1 190/207/1 186/208/1
f 185/209/17 187/210/17 191/211/17 189/212/17
f 186/208/3 190/207/3 191/211/3 187/210/3
f 196/213/1 200/214/1 198/215/1 194/216/1
f 193/217/17 195/218/17 199/219/17 197/220/17
f 194/216/3 198/215/3 199/219/3 195/218/3
f 204/221/1 208/222/1 206/223/1 202/224/1
f 201/225/17 203/226/17 207/227/17 205/228/17
f 202/224/3 206/223/3 207/227/3 203/226/3
f 212/229/1 216/230/1 214/231/1 210/232/1
f 209/233/17 211/234/17 215/235/17 213/236/17
f 210/232/3 214/231/3 215/235/3 211/234/3
f 220/237/1 224/238/1 222/239/1 218/240/1
f 217/241/17 219/242/17 223/243/17 221/244/17
f 218/240/3 222/239/3 223/243/3 219/242/3
f 228/245/1 232/246/1 230/247/1 226/248/1
f 225/249/17 227/250/17 231/251/17 229/252/17
f 226/248/3 230/247/3 231/251/3 227/250/3
f 233/253/3 234/254/3 235/255/3 236/256/3
f 237/257/5 238/258/5 239/259/5 240/260/5
f 241/261/18 233/253/18 236/256/18 242/262/18
f 243/263/4 244/264/4 240/260/4 239/259/4
f 241/261/6 245/265/6 234/254/6 233/253/6
f 238/258/6 237/257/6 246/266/6 247/267/6
f 247/267/6 246/266/6 245/265/6 241/261/6
f 236/256/4 235/255/4 248/268/4 242/262/4
f 242/262/4 248/268/4 244/264/4 243/263/4
f 238/258/19 247/267/19 243/263/19 239/259/19
f 247/267/1 241/261/1 242/262/1 243/263/1
f 249/269/5 250/270/5 251/271/5 252/272/5
f 253/273/3 254/274/3 255/275/3 256/276/3
f 257/277/20 249/269/20 252/272/20 258/278/20
f 259/279/4 260/280/4 256/276/4 255/275/4
f 257/277/6 261/281/6 250/270/6 249/269/6
f 254/274/6 253/273/6 262/282/6 263/283/6
f 263/283/6 262/282/6 261/281/6 257/277/6
f 252/272/4 251/271/4 264/284/4 258/278/4
f 258/278/4 264/284/4 260/280/4 259/279/4
f 254/274/21 263/283/21 259/279/21 255/275/21
f 263/283/2 257/277/2 258/278/2 259/279/2
f 265/285/3 266/286/3 267/287/3 268/288/3
f 266/286/2 269/289/2 270/290/2 267/287/2
f 269/289/5 271/291/5 272/292/5 270/290/5
f 271/291/1 265/285/1 268/288/1 272/292/1
f 268/288/4 267/287/4 270/290/4 272/292/4
f 266/286/6 265/285/6 271/291/6 269/289/6
f 87/105/1 95/113/1 94/110/1 86/104/1
f 85/108/6 93/114/6 95/113/6 87/105/6
f 34/106/6 90/116/6 92/115/6 36/107/6
f 59/75/6 83/100/6 81/99/6 57/76/6
f 276/293/1 274/294/1 278/295/1 280/296/1
f 273/297/9 277/298/9 279/299/9 275/300/9
f 274/294/5 275/300/5 279/299/5 278/295/5
f 285/301/1 289/302/1 287/303/1 283/304/1
f 282/305/17 284/306/17 288/307/17 286/308/17
f 283/304/3 287/303/3 288/307/3 284/306/3
f 292/309/1 290/310/1 294/311/1 296/312/1
f 281/313/9 293/314/9 295/315/9 291/316/9
f 290/310/5 291/316/5 295/315/5 294/311/5
f 300/317/1 304/318/1 302/319/1 298/320/1
f 297/321/17 299/322/17 303/323/17 301/324/17
f 298/320/3 302/319/3 303/323/3 299/322/3
