# Blender v3.0.0 OBJ File: 'City.blend'
# www.blender.org
o comfortable_furniture_comfortable_furniture_item
v 0.093886 0.000000 -0.074541
v 0.093886 0.000000 -0.044247
v 0.063813 0.000000 -0.044247
v 0.063813 0.000000 -0.074541
v -0.063813 0.000000 -0.074541
v -0.063813 0.000000 -0.044247
v -0.093886 0.000000 -0.044247
v -0.093886 0.000000 -0.074541
v 0.093886 -0.000000 0.042698
v 0.093886 -0.000000 0.072992
v 0.063813 -0.000000 0.072992
v 0.063813 -0.000000 0.042698
v -0.063813 -0.000000 0.042698
v -0.063813 -0.000000 0.072992
v -0.093886 -0.000000 0.072992
v -0.093886 -0.000000 0.042698
v 0.093886 0.028328 -0.074541
v 0.093886 0.028328 -0.044247
v -0.093886 0.028328 -0.074541
v -0.063813 0.028328 -0.074541
v -0.093886 0.028328 0.072992
v -0.093886 0.028328 0.042698
v 0.093886 0.028328 0.072992
v 0.063813 0.028328 0.072992
v -0.063813 0.028328 -0.044247
v -0.093886 0.028328 -0.044247
v -0.063813 0.028328 0.072992
v -0.063813 0.028328 0.042698
v 0.093886 0.028328 0.042698
v 0.063813 0.028328 -0.044247
v 0.063813 0.028328 -0.074541
v 0.063813 0.028328 0.042698
v -0.060000 0.070000 0.082992
v 0.060000 0.070000 0.082992
v 0.060000 0.120000 -0.017008
v -0.060000 0.190000 -0.042008
v 0.060000 0.190000 -0.042008
v -0.060000 0.120000 -0.017008
v 0.060000 0.190000 -0.084541
v -0.060000 0.190000 -0.084541
v 0.060000 0.070000 -0.017008
v -0.060000 0.070000 -0.017008
v -0.060000 0.070000 0.082992
v 0.060000 0.070000 0.082992
v 0.060000 0.070000 -0.017008
v -0.060000 0.070000 -0.017008
v 0.050000 0.080000 0.072992
v -0.050000 0.080000 0.072992
v -0.050000 0.080000 -0.007008
v 0.050000 0.080000 -0.007008
v 0.060000 0.120000 -0.017008
v -0.060000 0.120000 -0.017008
v 0.060000 0.070000 -0.017008
v -0.060000 0.070000 -0.017008
v -0.050000 0.110000 -0.007008
v 0.050000 0.110000 -0.007008
v -0.050000 0.080000 -0.007008
v 0.050000 0.080000 -0.007008
v 0.060000 0.120000 -0.017008
v -0.060000 0.190000 -0.042008
v 0.060000 0.190000 -0.042008
v -0.060000 0.120000 -0.017008
v 0.050000 0.183946 -0.029227
v 0.050000 0.132781 -0.010954
v -0.050000 0.183946 -0.029227
v -0.050000 0.132781 -0.010954
v 0.060000 0.110000 0.082992
v -0.060000 0.110000 0.082992
v 0.060000 0.110000 -0.017008
v -0.060000 0.110000 -0.017008
v 0.060000 0.110000 -0.084541
v -0.060000 0.110000 -0.084541
v 0.060000 0.120000 -0.017008
v -0.060000 0.120000 -0.017008
v -0.098887 0.120000 -0.084541
v -0.098886 0.120000 0.082992
v 0.060000 0.120000 0.082992
v 0.098886 0.120000 0.082992
v -0.060000 0.120000 0.082992
v 0.098887 0.120000 -0.084541
v 0.060000 0.120000 -0.084541
v -0.060000 0.120000 -0.084541
v 0.088886 0.028328 -0.084541
v 0.098886 0.028328 -0.074541
v -0.098886 0.028328 -0.074541
v -0.088886 0.028328 -0.084541
v 0.098886 0.028328 0.072992
v 0.088886 0.028328 0.082992
v -0.088886 0.028328 0.082992
v -0.098886 0.028328 0.072992
v 0.088886 0.110000 0.082992
v 0.098886 0.110000 0.072992
v -0.098886 0.110000 0.072992
v -0.088886 0.110000 0.082992
v -0.088887 0.110000 -0.084541
v -0.098887 0.110000 -0.074541
v 0.098887 0.110000 -0.074541
v 0.088887 0.110000 -0.084541
v 0.060000 0.110000 -0.017008
v -0.060000 0.110000 -0.017008
v -0.098887 0.110000 -0.084541
v -0.098886 0.110000 0.082992
v 0.060000 0.110000 0.082992
v 0.098886 0.110000 0.082992
v -0.060000 0.110000 0.082992
v 0.098887 0.110000 -0.084541
v 0.060000 0.110000 -0.084541
v -0.060000 0.110000 -0.084541
vt 0.125000 0.125000
vt 0.125000 0.125000
vt 0.125000 0.125000
vt 0.125000 0.125000
vt 0.125000 0.125000
vt 0.125000 0.125000
vt 0.125000 0.125000
vt 0.125000 0.125000
vt 0.125000 0.125000
vt 0.125000 0.125000
vt 0.125000 0.125000
vt 0.125000 0.125000
vt 0.125000 0.125000
vt 0.125000 0.125000
vt 0.125000 0.125000
vt 0.125000 0.125000
vt 0.125000 0.125000
vt 0.125000 0.125000
vt 0.125000 0.125000
vt 0.125000 0.125000
vt 0.125000 0.125000
vt 0.125000 0.125000
vt 0.125000 0.125000
vt 0.125000 0.125000
vt 0.375000 0.125000
vt 0.375000 0.125000
vt 0.375000 0.125000
vt 0.375000 0.125000
vt 0.375000 0.125000
vt 0.375000 0.125000
vt 0.375000 0.125000
vt 0.375000 0.125000
vt 0.375000 0.125000
vt 0.375000 0.125000
vt 0.375000 0.125000
vt 0.375000 0.125000
vt 0.375000 0.125000
vt 0.375000 0.125000
vt 0.375000 0.125000
vt 0.375000 0.125000
vt 0.375000 0.125000
vt 0.375000 0.125000
vt 0.375000 0.125000
vt 0.375000 0.125000
vt 0.625000 0.125000
vt 0.625000 0.125000
vt 0.625000 0.125000
vt 0.625000 0.125000
vt 0.625000 0.125000
vt 0.625000 0.125000
vt 0.625000 0.125000
vt 0.625000 0.125000
vt 0.625000 0.125000
vt 0.625000 0.125000
vt 0.625000 0.125000
vt 0.625000 0.125000
vt 0.625000 0.125000
vt 0.625000 0.125000
vt 0.625000 0.125000
vt 0.625000 0.125000
vt 0.625000 0.125000
vt 0.625000 0.125000
vt 0.625000 0.125000
vt 0.625000 0.125000
vt 0.625000 0.125000
vt 0.625000 0.125000
vt 0.625000 0.125000
vt 0.625000 0.125000
vt 0.625000 0.125000
vt 0.625000 0.125000
vt 0.625000 0.125000
vt 0.625000 0.125000
vt 0.625000 0.125000
vt 0.625000 0.125000
vt 0.625000 0.125000
vt 0.625000 0.125000
vt 0.625000 0.125000
vt 0.625000 0.125000
vt 0.625000 0.125000
vt 0.625000 0.125000
vt 0.625000 0.125000
vt 0.625000 0.125000
vt 0.625000 0.125000
vt 0.625000 0.125000
vt 0.625000 0.125000
vt 0.625000 0.125000
vt 0.625000 0.125000
vt 0.625000 0.125000
vt 0.625000 0.125000
vt 0.625000 0.125000
vt 0.625000 0.125000
vt 0.625000 0.125000
vt 0.625000 0.125000
vt 0.625000 0.125000
vt 0.625000 0.125000
vt 0.625000 0.125000
vt 0.625000 0.125000
vt 0.625000 0.125000
vt 0.625000 0.125000
vt 0.625000 0.125000
vt 0.625000 0.125000
vt 0.625000 0.125000
vt 0.625000 0.125000
vt 0.625000 0.125000
vt 0.625000 0.125000
vt 0.625000 0.125000
vt 0.625000 0.125000
vt 0.625000 0.125000
vn -0.3002 0.9054 -0.3002
vn 0.3002 0.9054 -0.3002
vn 0.4082 0.8165 -0.4082
vn -0.4082 0.8165 -0.4082
vn 0.3002 0.9054 0.3002
vn -0.3002 0.9054 0.3002
vn -0.4082 0.8165 0.4082
vn 0.4082 0.8165 0.4082
vn 0.3002 0.3002 0.9054
vn 0.3002 -0.3002 0.9054
vn 0.4082 -0.4082 0.8165
vn 0.4082 0.4082 0.8165
vn -0.3002 0.3002 0.9054
vn -0.3002 -0.3002 0.9054
vn -0.4082 -0.4082 0.8165
vn -0.4082 0.4082 0.8165
vn -0.3002 0.5872 0.7517
vn 0.3002 0.5872 0.7517
vn 0.4082 0.6591 0.6316
vn -0.4082 0.6591 0.6316
vn -0.3002 0.0218 0.9536
vn 0.3002 0.0218 0.9536
vn -0.4082 -0.1098 0.9062
vn 0.4082 -0.1098 0.9062
vn -0.0000 1.0000 -0.0000
vn 0.0000 -1.0000 0.0000
vn 0.0000 -0.0000 1.0000
vn -1.0000 0.0000 0.0000
vn 0.0000 0.0000 -1.0000
vn 1.0000 -0.0000 0.0000
vn -0.7071 -0.0000 0.7071
vn -0.7071 -0.0000 -0.7071
vn 0.7071 -0.0000 -0.7071
vn 0.7071 -0.0000 0.7071
s 1
f 49/1/1 50/2/2 45/3/3 46/4/4
f 47/5/5 50/2/2 49/1/1 48/6/6
f 48/6/6 49/1/1 46/4/4 43/7/7
f 50/2/2 47/5/5 44/8/8 45/3/3
f 47/5/5 48/6/6 43/7/7 44/8/8
f 56/9/9 58/10/10 53/11/11 51/12/12
f 55/13/13 57/14/14 58/10/10 56/9/9
f 58/10/10 57/14/14 54/15/15 53/11/11
f 57/14/14 55/13/13 52/16/16 54/15/15
f 55/13/13 56/9/9 51/12/12 52/16/16
f 65/17/17 63/18/18 61/19/19 60/20/20
f 65/17/17 66/21/21 64/22/22 63/18/18
f 66/21/21 65/17/17 60/20/20 62/23/23
f 64/22/22 66/21/21 62/23/23 59/24/24
f 63/18/18 64/22/22 59/24/24 61/19/19
s off
f 76/25/25 79/26/25 74/27/25 82/28/25 75/29/25
f 78/30/25 80/31/25 81/32/25 73/33/25 77/34/25
f 102/35/26 101/36/26 108/37/26 100/38/26 105/39/26
f 104/40/26 103/41/26 99/42/26 107/43/26 106/44/26
f 77/34/27 103/41/27 104/40/27 78/30/27
f 81/32/28 107/43/28 99/42/28 73/33/28
f 80/31/29 106/44/29 107/43/29 81/32/29
f 76/25/27 102/35/27 105/39/27 79/26/27
f 73/33/28 99/42/28 103/41/28 77/34/28
f 82/28/29 108/37/29 101/36/29 75/29/29
f 75/29/28 101/36/28 102/35/28 76/25/28
f 79/26/30 105/39/30 100/38/30 74/27/30
f 74/27/30 100/38/30 108/37/30 82/28/30
f 78/30/30 104/40/30 106/44/30 80/31/30
s 1
f 1/45/26 2/46/26 3/47/26 4/48/26
f 5/49/26 6/50/26 7/51/26 8/52/26
f 9/53/26 10/54/26 11/55/26 12/56/26
f 13/57/26 14/58/26 15/59/26 16/60/26
f 2/46/30 1/45/30 17/61/30 18/62/30
f 5/49/29 8/52/29 19/63/29 20/64/29
f 16/60/28 15/59/28 21/65/28 22/66/28
f 11/55/27 10/54/27 23/67/27 24/68/27
f 7/51/27 6/50/27 25/69/27 26/70/27
f 15/59/27 14/58/27 27/71/27 21/65/27
f 13/57/29 16/60/29 22/66/29 28/72/29
f 10/54/30 9/53/30 29/73/30 23/67/30
f 3/47/27 2/46/27 18/62/27 30/74/27
f 1/45/29 4/48/29 31/75/29 17/61/29
f 6/50/30 5/49/30 20/64/30 25/69/30
f 9/53/29 12/56/29 32/76/29 29/73/29
f 8/52/28 7/51/28 26/70/28 19/63/28
f 14/58/30 13/57/30 28/72/30 27/71/30
f 4/48/28 3/47/28 30/74/28 31/75/28
f 12/56/28 11/55/28 24/68/28 32/76/28
f 86/77/29 95/78/29 72/79/29
f 68/80/27 94/81/27 89/82/27 33/83/27
f 83/84/26 84/85/26 87/86/26 88/87/26
f 38/88/28 36/89/28 40/90/28 72/79/28
f 71/91/30 39/92/30 37/93/30 35/94/30
f 40/90/29 39/92/29 71/91/29 72/79/29
f 40/90/25 36/89/25 37/93/25 39/92/25
f 34/95/27 33/83/27 89/82/27 88/87/27
f 42/96/30 70/97/30 68/80/30 33/83/30
f 71/91/29 98/98/29 83/84/29
f 85/99/28 90/100/28 93/101/28 96/102/28
f 86/77/29 72/79/29 71/91/29 83/84/29
f 67/103/28 69/104/28 41/105/28 34/95/28
f 34/95/27 88/87/27 91/106/27 67/103/27
f 88/87/26 89/82/26 86/77/26 83/84/26
f 89/82/31 94/81/31 93/101/31 90/100/31
f 95/78/32 86/77/32 85/99/32 96/102/32
f 83/84/33 98/98/33 97/107/33 84/85/33
f 91/106/34 88/87/34 87/86/34 92/108/34
f 87/86/30 84/85/30 97/107/30 92/108/30
f 90/100/26 85/99/26 86/77/26 89/82/26
l 38 70
l 35 69
