# Blender v3.0.0 OBJ File: 'City.blend'
# www.blender.org
o tools_tools_item
v 0.060000 0.114000 -0.012000
v 0.060000 0.114000 0.012000
v 0.084000 0.114000 -0.012000
v 0.084000 0.114000 0.012000
v -0.060000 0.114000 0.012000
v -0.060000 0.114000 -0.012000
v -0.084000 0.114000 0.012000
v -0.084000 0.114000 -0.012000
v 0.144000 0.090000 0.048000
v 0.120000 0.114000 0.048000
v 0.120000 0.090000 0.072000
v -0.144000 0.090000 -0.048000
v -0.120000 0.114000 -0.048000
v -0.120000 0.090000 -0.072000
v 0.120000 0.090000 -0.072000
v 0.120000 0.114000 -0.048000
v 0.144000 0.090000 -0.048000
v -0.144000 0.090000 0.048000
v -0.120000 0.090000 0.072000
v -0.120000 0.114000 0.048000
v 0.144000 0.000000 0.048000
v 0.120000 0.000000 0.072000
v -0.144000 0.000000 -0.048000
v -0.120000 0.000000 -0.072000
v 0.120000 0.000000 -0.072000
v 0.144000 0.000000 -0.048000
v -0.120000 0.000000 0.072000
v -0.144000 0.000000 0.048000
v 0.060000 0.126000 -0.012000
v 0.060000 0.126000 0.012000
v 0.084000 0.126000 -0.012000
v 0.084000 0.126000 0.012000
v -0.060000 0.126000 0.012000
v -0.060000 0.126000 -0.012000
v -0.084000 0.126000 0.012000
v -0.084000 0.126000 -0.012000
v 0.047999 0.138001 -0.012000
v 0.047999 0.138001 0.012000
v 0.047999 0.162001 -0.012000
v 0.047999 0.162001 0.012000
v -0.048001 0.137999 0.012000
v -0.048001 0.137999 -0.012000
v -0.048001 0.161999 0.012000
v -0.048001 0.161999 -0.012000
v -0.096000 0.012000 0.072000
v -0.096000 0.072000 0.072000
v 0.096000 0.072000 0.072000
v 0.096000 0.012000 0.072000
v -0.096000 0.012000 -0.072000
v -0.096000 0.072000 -0.072000
v 0.096000 0.072000 -0.072000
v 0.096000 0.012000 -0.072000
vt 0.125000 0.125000
vt 0.125000 0.125000
vt 0.125000 0.125000
vt 0.125000 0.125000
vt 0.125000 0.125000
vt 0.125000 0.125000
vt 0.125000 0.125000
vt 0.125000 0.125000
vt 0.125000 0.125000
vt 0.125000 0.125000
vt 0.125000 0.125000
vt 0.125000 0.125000
vt 0.125000 0.125000
vt 0.125000 0.125000
vt 0.625000 0.125000
vt 0.625000 0.125000
vt 0.625000 0.125000
vt 0.625000 0.125000
vt 0.125000 0.125000
vt 0.125000 0.125000
vt 0.125000 0.125000
vt 0.125000 0.125000
vt 0.125000 0.125000
vt 0.125000 0.125000
vt 0.125000 0.125000
vt 0.125000 0.125000
vt 0.125000 0.125000
vt 0.125000 0.125000
vt 0.625000 0.125000
vt 0.625000 0.125000
vt 0.625000 0.125000
vt 0.625000 0.125000
vt 0.625000 0.125000
vt 0.625000 0.125000
vt 0.625000 0.125000
vt 0.625000 0.125000
vt 0.625000 0.125000
vt 0.625000 0.125000
vt 0.625000 0.125000
vt 0.625000 0.125000
vt 0.625000 0.125000
vt 0.625000 0.125000
vt 0.625000 0.125000
vt 0.625000 0.125000
vt 0.625000 0.125000
vt 0.625000 0.125000
vt 0.625000 0.125000
vt 0.625000 0.125000
vt 0.375000 0.125000
vt 0.375000 0.125000
vt 0.375000 0.125000
vt 0.375000 0.125000
vt 0.125000 0.125000
vt 0.125000 0.125000
vt 0.375000 0.125000
vt 0.375000 0.125000
vt 0.375000 0.125000
vt 0.375000 0.125000
vt 0.125000 0.125000
vt 0.125000 0.125000
vn -1.0000 0.0000 0.0000
vn 0.0000 0.0000 1.0000
vn 1.0000 -0.0000 -0.0000
vn 0.5774 0.5774 0.5774
vn -0.5774 0.5774 -0.5774
vn 0.5774 0.5774 -0.5774
vn -0.5774 0.5774 0.5774
vn -0.7071 0.7071 0.0000
vn 0.0000 0.7071 -0.7071
vn 0.7071 0.7071 -0.0000
vn -0.0000 0.7071 0.7071
vn 0.7071 -0.0000 -0.7071
vn -0.7071 -0.0000 -0.7071
vn -0.7071 0.0000 0.7071
vn 0.7071 0.0000 0.7071
vn -0.0000 1.0000 -0.0000
vn 0.0000 0.0000 -1.0000
vn -0.9239 -0.3827 0.0000
vn 0.9239 -0.3827 0.0000
vn -0.3827 -0.9239 0.0000
vn 0.3827 -0.9239 0.0000
vn 0.0000 -1.0000 0.0000
s 1
f 18/1/1 12/2/1 23/3/1 28/4/1
f 11/5/2 19/6/2 46/7/2 47/8/2
f 22/9/2 11/5/2 47/8/2 48/10/2
f 9/11/3 21/12/3 26/13/3 17/14/3
f 4/15/3 3/16/3 31/17/3 32/18/3
f 19/6/2 27/19/2 45/20/2 46/7/2
f 9/11/4 10/21/4 11/5/4
f 12/2/5 13/22/5 14/23/5
f 15/24/6 16/25/6 17/14/6
f 18/1/7 19/6/7 20/26/7
f 12/2/8 18/1/8 20/26/8 13/22/8
f 13/22/9 16/25/9 15/24/9 14/23/9
f 9/11/10 17/14/10 16/25/10 10/21/10
f 10/21/11 20/26/11 19/6/11 11/5/11
f 17/14/12 26/13/12 25/27/12 15/24/12
f 14/23/13 24/28/13 23/3/13 12/2/13
f 18/1/14 28/4/14 27/19/14 19/6/14
f 11/5/15 22/9/15 21/12/15 9/11/15
f 13/22/16 20/26/16 10/21/16 16/25/16
f 7/29/2 5/30/2 33/31/2 35/32/2
f 8/33/1 7/29/1 35/32/1 36/34/1
f 2/35/2 4/15/2 32/18/2 30/36/2
f 3/16/17 1/37/17 29/38/17 31/17/17
f 1/37/1 2/35/1 30/36/18 29/38/18
f 5/30/3 6/39/3 34/40/19 33/31/19
f 6/39/17 8/33/17 36/34/17 34/40/17
f 30/36/2 32/18/2 40/41/2 38/42/2
f 34/40/17 36/34/17 44/43/17 42/44/17
f 31/17/17 29/38/17 37/45/17 39/46/17
f 29/38/18 30/36/18 38/42/20 37/45/20
f 36/34/8 35/32/8 43/47/8 44/43/8
f 32/18/10 31/17/10 39/46/10 40/41/10
f 35/32/2 33/31/2 41/48/2 43/47/2
f 33/31/19 34/40/19 42/44/21 41/48/21
f 44/43/16 43/47/16 40/41/16 39/46/16
f 38/42/2 40/41/2 43/47/2 41/48/2
f 41/48/21 42/44/21 37/45/20 38/42/20
f 42/44/17 44/43/17 39/46/17 37/45/17
f 45/49/2 48/50/2 47/51/2 46/52/2
f 45/20/2 27/19/2 22/9/2 48/10/2
f 15/24/17 51/53/17 50/54/17 14/23/17
f 49/55/17 50/56/17 51/57/17 52/58/17
f 25/27/17 52/59/17 51/53/17 15/24/17
f 14/23/17 50/54/17 49/60/17 24/28/17
f 49/60/17 52/59/17 25/27/17 24/28/17
f 28/4/22 21/12/22 22/9/22 27/19/22
f 21/12/22 28/4/22 23/3/22 26/13/22
f 26/13/22 23/3/22 24/28/22 25/27/22
