# Blender v3.0.0 OBJ File: 'City.blend'
# www.blender.org
o washing_machine_washing_machine_item
v -0.000000 0.080441 0.135000
v -0.037280 0.090430 0.135000
v -0.064570 0.117721 0.135000
v -0.074559 0.155000 0.135000
v -0.064570 0.192280 0.135000
v -0.037280 0.219570 0.135000
v 0.000000 0.229559 0.135000
v 0.037280 0.219570 0.135000
v 0.064570 0.192280 0.135000
v 0.074559 0.155000 0.135000
v 0.064570 0.117721 0.135000
v 0.037280 0.090430 0.135000
v 0.000000 0.067500 0.115000
v -0.043750 0.079223 0.115000
v -0.075777 0.111250 0.115000
v -0.087500 0.155000 0.115000
v -0.075777 0.198750 0.115000
v -0.043750 0.230777 0.115000
v 0.000000 0.242500 0.115000
v 0.043750 0.230777 0.115000
v 0.075777 0.198750 0.115000
v 0.087500 0.155000 0.115000
v 0.075777 0.111250 0.115000
v 0.043750 0.079223 0.115000
v -0.043750 0.079223 0.135000
v 0.000000 0.067500 0.135000
v -0.075777 0.111250 0.135000
v -0.087500 0.155000 0.135000
v -0.075777 0.198750 0.135000
v -0.043750 0.230777 0.135000
v 0.000000 0.242500 0.135000
v 0.043750 0.230777 0.135000
v 0.075777 0.198750 0.135000
v 0.087500 0.155000 0.135000
v 0.075777 0.111250 0.135000
v 0.043750 0.079223 0.135000
v -0.037280 0.090430 0.125000
v -0.000000 0.080441 0.125000
v -0.064570 0.117721 0.125000
v -0.074559 0.155000 0.125000
v -0.064570 0.192280 0.125000
v -0.037280 0.219570 0.125000
v 0.000000 0.229559 0.125000
v 0.037280 0.219570 0.125000
v 0.064570 0.192280 0.125000
v 0.074559 0.155000 0.125000
v 0.064570 0.117721 0.125000
v 0.037280 0.090430 0.125000
v 0.110000 0.030000 0.120000
v 0.125000 0.030000 0.105000
v -0.125000 0.030000 0.105000
v -0.110000 0.030000 0.120000
v -0.125000 0.030000 -0.129999
v 0.125000 0.030000 -0.129999
v 0.125000 0.260000 0.105000
v -0.125000 0.260000 0.105000
v -0.125000 0.260000 -0.129999
v 0.125000 0.260000 -0.129999
v 0.125000 0.000000 0.105000
v 0.110000 0.000000 0.120000
v -0.110000 0.000000 0.120000
v -0.125000 0.000000 0.105000
v -0.125000 -0.000000 -0.129999
v 0.125000 -0.000000 -0.129999
v 0.125000 0.300000 0.090000
v -0.125000 0.300000 0.090000
v -0.125000 0.300000 -0.129999
v 0.125000 0.300000 -0.129999
v -0.084998 0.271464 0.110379
v -0.094429 0.276564 0.108472
v -0.094429 0.286765 0.104658
v -0.084998 0.291865 0.102752
v -0.075567 0.286765 0.104658
v -0.075567 0.276564 0.108472
v -0.084998 0.274091 0.117404
v -0.094429 0.279191 0.115497
v -0.094429 0.289391 0.111683
v -0.084998 0.294491 0.109777
v -0.075567 0.289391 0.111683
v -0.075567 0.279191 0.115497
v -0.049998 0.271464 0.110379
v -0.059429 0.276564 0.108472
v -0.059429 0.286765 0.104658
v -0.049998 0.291865 0.102752
v -0.040567 0.286765 0.104658
v -0.040567 0.276564 0.108472
v -0.049998 0.274091 0.117404
v -0.059429 0.279191 0.115497
v -0.059429 0.289391 0.111683
v -0.049998 0.294491 0.109777
v -0.040567 0.289391 0.111683
v -0.040567 0.279191 0.115497
v -0.014998 0.271464 0.110379
v -0.024429 0.276564 0.108472
v -0.024429 0.286765 0.104658
v -0.014998 0.291865 0.102752
v -0.005567 0.286765 0.104658
v -0.005567 0.276564 0.108472
v -0.014998 0.274091 0.117404
v -0.024429 0.279191 0.115497
v -0.024429 0.289391 0.111683
v -0.014998 0.294491 0.109777
v -0.005567 0.289391 0.111683
v -0.005567 0.279191 0.115497
v 0.110000 0.300000 0.105000
v 0.110000 0.260000 0.120000
v -0.110000 0.260000 0.120000
v -0.110000 0.300000 0.105000
v 0.045000 0.270000 0.118750
v 0.045000 0.290000 0.111250
v 0.100001 0.290000 0.111250
v 0.100001 0.270000 0.118750
v 0.045000 0.268420 0.114537
v 0.100001 0.268420 0.114537
v 0.045000 0.288420 0.107037
v 0.100001 0.288420 0.107037
vt 0.125000 0.125000
vt 0.125000 0.125000
vt 0.125000 0.125000
vt 0.125000 0.125000
vt 0.125000 0.125000
vt 0.125000 0.125000
vt 0.125000 0.125000
vt 0.125000 0.125000
vt 0.125000 0.125000
vt 0.125000 0.125000
vt 0.125000 0.125000
vt 0.125000 0.125000
vt 0.375000 0.125000
vt 0.375000 0.125000
vt 0.375000 0.125000
vt 0.375000 0.125000
vt 0.375000 0.125000
vt 0.375000 0.125000
vt 0.375000 0.125000
vt 0.375000 0.125000
vt 0.375000 0.125000
vt 0.375000 0.125000
vt 0.375000 0.125000
vt 0.375000 0.125000
vt 0.625000 0.125000
vt 0.625000 0.125000
vt 0.625000 0.125000
vt 0.625000 0.125000
vt 0.625000 0.125000
vt 0.625000 0.125000
vt 0.625000 0.125000
vt 0.625000 0.125000
vt 0.625000 0.125000
vt 0.625000 0.125000
vt 0.625000 0.125000
vt 0.625000 0.125000
vt 0.875000 0.125000
vt 0.875000 0.125000
vt 0.875000 0.125000
vt 0.875000 0.125000
vt 0.875000 0.125000
vt 0.875000 0.125000
vt 0.875000 0.125000
vt 0.875000 0.125000
vt 0.875000 0.125000
vt 0.875000 0.125000
vt 0.875000 0.125000
vt 0.875000 0.125000
vt 0.875000 0.125000
vt 0.875000 0.125000
vt 0.875000 0.125000
vt 0.875000 0.125000
vt 0.875000 0.125000
vt 0.875000 0.125000
vt 0.875000 0.125000
vt 0.875000 0.125000
vt 0.875000 0.125000
vt 0.875000 0.125000
vt 0.875000 0.125000
vt 0.875000 0.125000
vt 0.875000 0.125000
vt 0.875000 0.125000
vt 0.875000 0.125000
vt 0.875000 0.125000
vt 0.875000 0.125000
vt 0.875000 0.125000
vt 0.875000 0.125000
vt 0.875000 0.125000
vt 0.875000 0.125000
vt 0.875000 0.125000
vt 0.875000 0.125000
vt 0.875000 0.125000
vt 0.125000 0.375000
vt 0.125000 0.375000
vt 0.125000 0.375000
vt 0.125000 0.375000
vt 0.125000 0.375000
vt 0.125000 0.375000
vt 0.125000 0.375000
vt 0.125000 0.375000
vt 0.375000 0.375000
vt 0.375000 0.375000
vt 0.375000 0.375000
vt 0.375000 0.375000
vt 0.375000 0.375000
vt 0.375000 0.375000
vt 0.375000 0.375000
vt 0.375000 0.375000
vt 0.375000 0.375000
vt 0.375000 0.375000
vt 0.375000 0.375000
vt 0.375000 0.375000
vt 0.375000 0.375000
vt 0.375000 0.375000
vt 0.375000 0.375000
vt 0.375000 0.375000
vt 0.375000 0.375000
vt 0.375000 0.375000
vt 0.375000 0.375000
vt 0.375000 0.375000
vt 0.375000 0.375000
vt 0.375000 0.375000
vt 0.375000 0.375000
vt 0.375000 0.375000
vt 0.375000 0.375000
vt 0.375000 0.375000
vt 0.375000 0.375000
vt 0.375000 0.375000
vt 0.375000 0.375000
vt 0.375000 0.375000
vt 0.375000 0.375000
vt 0.375000 0.375000
vt 0.375000 0.375000
vt 0.375000 0.375000
vt 0.375000 0.375000
vt 0.375000 0.375000
vt 0.375000 0.375000
vt 0.375000 0.375000
vt 0.375000 0.375000
vt 0.375000 0.375000
vt 0.375000 0.375000
vt 0.375000 0.375000
vt 0.375000 0.375000
vt 0.375000 0.375000
vt 0.375000 0.375000
vt 0.375000 0.375000
vt 0.375000 0.375000
vt 0.375000 0.375000
vt 0.625000 0.375000
vt 0.625000 0.375000
vt 0.625000 0.375000
vt 0.625000 0.375000
vt 0.625000 0.375000
vt 0.625000 0.375000
vt 0.625000 0.375000
vt 0.625000 0.375000
vt 0.625000 0.375000
vt 0.625000 0.375000
vt 0.625000 0.375000
vt 0.625000 0.375000
vn 0.3827 0.0000 0.9239
vn -0.3827 0.0000 0.9239
vn 0.9239 0.0000 0.3827
vn 1.0000 0.0000 0.0000
vn -0.9239 0.0000 0.3827
vn -1.0000 0.0000 0.0000
vn 0.0000 0.0000 -1.0000
vn -0.8795 0.1671 0.4457
vn -0.9467 0.1131 0.3016
vn 0.0000 1.0000 0.0000
vn 0.8795 0.1671 0.4457
vn 0.9467 0.1131 0.3016
vn 0.3945 0.3227 0.8604
vn 0.3354 0.3308 0.8821
vn -0.3354 0.3308 0.8821
vn -0.3945 0.3227 0.8604
vn 0.0000 0.9367 -0.3502
vn -0.8660 0.4683 -0.1751
vn -0.8660 -0.4683 0.1751
vn 0.0000 -0.9367 0.3502
vn 0.8660 -0.4683 0.1751
vn 0.8660 0.4683 -0.1751
vn 0.0000 0.3502 0.9367
vn 0.0000 0.3511 0.9363
vn 0.0000 0.9363 -0.3511
vn 0.0000 -0.9363 0.3511
vn 0.8660 -0.5000 0.0000
vn 0.5000 0.8660 0.0000
vn -0.8660 0.5000 0.0000
vn 0.5000 -0.8660 0.0000
vn -0.5000 -0.8660 0.0000
vn 0.0000 -1.0000 0.0000
vn 0.8660 0.5000 0.0000
vn -0.5000 0.8660 0.0000
vn -0.8660 -0.5000 0.0000
vn -0.0000 0.0000 1.0000
s 1
f 49/1/1 106/2/1 107/3/2 52/4/2
f 50/5/3 54/6/4 58/7/4 55/8/3
f 51/9/5 56/10/5 57/11/6 53/12/6
f 58/7/7 54/6/7 53/12/7 57/11/7
f 106/2/1 49/1/1 50/5/3 55/8/3
f 56/10/5 51/9/5 52/4/2 107/3/2
f 54/13/4 50/14/3 59/15/3 64/16/4
f 51/17/5 53/18/6 63/19/6 62/20/5
f 59/15/3 50/14/3 49/21/1 60/22/1
f 51/17/5 62/20/5 61/23/2 52/24/2
f 53/18/7 54/13/7 64/16/7 63/19/7
f 49/21/1 52/24/2 61/23/2 60/22/1
f 57/25/6 56/26/8 66/27/9 67/28/6
f 66/27/10 108/29/10 105/30/10 65/31/10
f 66/27/10 65/31/10 68/32/10 67/28/10
f 55/33/11 58/34/4 68/32/4 65/31/12
f 68/32/7 58/34/7 57/25/7 67/28/7
f 105/30/13 106/35/14 55/33/11 65/31/12
f 107/36/15 108/29/16 66/27/9 56/26/8
f 105/30/13 108/29/16 107/36/15 106/35/14
f 72/37/17 71/38/18 77/39/18 78/40/17
f 70/41/19 69/42/20 75/43/20 76/44/19
f 69/42/20 74/45/21 80/46/21 75/43/20
f 73/47/22 72/37/17 78/40/17 79/48/22
f 71/38/18 70/41/19 76/44/19 77/39/18
f 74/45/21 73/47/22 79/48/22 80/46/21
f 76/44/23 75/43/23 80/46/23 79/48/23 78/40/23 77/39/23
f 84/49/17 83/50/18 89/51/18 90/52/17
f 82/53/19 81/54/20 87/55/20 88/56/19
f 81/54/20 86/57/21 92/58/21 87/55/20
f 85/59/22 84/49/17 90/52/17 91/60/22
f 83/50/18 82/53/19 88/56/19 89/51/18
f 86/57/21 85/59/22 91/60/22 92/58/21
f 88/56/23 87/55/23 92/58/23 91/60/23 90/52/23 89/51/23
f 96/61/17 95/62/18 101/63/18 102/64/17
f 94/65/19 93/66/20 99/67/20 100/68/19
f 93/66/20 98/69/21 104/70/21 99/67/20
f 97/71/22 96/61/17 102/64/17 103/72/22
f 95/62/18 94/65/19 100/68/19 101/63/18
f 98/69/21 97/71/22 103/72/22 104/70/21
f 100/68/23 99/67/23 104/70/23 103/72/23 102/64/23 101/63/23
f 111/73/24 110/74/24 109/75/24 112/76/24
f 111/73/25 116/77/25 115/78/25 110/74/25
f 109/75/26 113/79/26 114/80/26 112/76/26
f 112/76/4 114/80/4 116/77/4 111/73/4
f 110/74/6 115/78/6 113/79/6 109/75/6
f 35/81/27 23/82/27 22/83/4 34/84/4
f 32/85/28 20/86/28 19/87/10 31/88/10
f 29/89/29 17/90/29 16/91/6 28/92/6
f 36/93/30 24/94/30 23/82/27 35/81/27
f 25/95/31 14/96/31 13/97/32 26/98/32
f 33/99/33 21/100/33 20/86/28 32/85/28
f 30/101/34 18/102/34 17/90/29 29/89/29
f 26/98/32 13/97/32 24/94/30 36/93/30
f 27/103/35 15/104/35 14/96/31 25/95/31
f 34/84/4 22/83/4 21/100/33 33/99/33
f 31/88/10 19/87/10 18/102/34 30/101/34
f 28/92/6 16/91/6 15/104/35 27/103/35
f 7/105/32 6/106/30 42/107/30 43/108/32
f 1/109/36 2/110/36 25/95/36 26/98/36
f 2/110/36 3/111/36 27/103/36 25/95/36
f 3/111/36 4/112/36 28/92/36 27/103/36
f 4/112/36 5/113/36 29/89/36 28/92/36
f 5/113/36 6/106/36 30/101/36 29/89/36
f 6/106/36 7/105/36 31/88/36 30/101/36
f 7/105/36 8/114/36 32/85/36 31/88/36
f 8/114/36 9/115/36 33/99/36 32/85/36
f 9/115/36 10/116/36 34/84/36 33/99/36
f 10/116/36 11/117/36 35/81/36 34/84/36
f 11/117/36 12/118/36 36/93/36 35/81/36
f 12/118/36 1/109/36 26/98/36 36/93/36
f 4/112/4 3/111/33 39/119/33 40/120/4
f 11/117/29 10/116/6 46/121/6 47/122/29
f 8/114/31 7/105/32 43/108/32 44/123/31
f 5/113/27 4/112/4 40/120/4 41/124/27
f 12/118/34 11/117/29 47/122/29 48/125/34
f 2/110/28 1/109/10 38/126/10 37/127/28
f 9/115/35 8/114/31 44/123/31 45/128/35
f 6/106/30 5/113/27 41/124/27 42/107/30
f 1/109/10 12/118/34 48/125/34 38/126/10
f 3/111/33 2/110/28 37/127/28 39/119/33
f 10/116/6 9/115/35 45/128/35 46/121/6
f 37/129/36 38/130/36 48/131/36 47/132/36 46/133/36 45/134/36 44/135/36 43/136/36 42/137/36 41/138/36 40/139/36 39/140/36
