# Blender v3.0.0 OBJ File: 'City.blend'
# www.blender.org
o platform_car_2_short
v -0.057800 0.297300 1.161000
v -0.057800 0.412900 1.161000
v -0.057800 0.412900 1.045400
v -0.057800 0.297300 1.045400
v 0.057800 0.297300 1.045400
v 0.057800 0.412900 1.045400
v 0.057800 0.412900 1.161000
v 0.057800 0.297300 1.161000
v -0.028200 0.297300 1.111700
v -0.028200 0.412900 1.111700
v 0.028200 0.297300 1.111700
v 0.028200 0.297300 1.045400
v -0.028200 0.412900 1.045400
v 0.028200 0.412900 1.111700
v 0.028200 0.412900 1.045400
v -0.028200 0.297300 1.045400
v 0.057800 0.297300 -1.161000
v 0.057800 0.412900 -1.161000
v 0.057800 0.412900 -1.045400
v 0.057800 0.297300 -1.045400
v -0.057800 0.297300 -1.045400
v -0.057800 0.412900 -1.045400
v -0.057800 0.412900 -1.161000
v -0.057800 0.297300 -1.161000
v 0.028200 0.297300 -1.111700
v 0.028200 0.412900 -1.111700
v -0.028200 0.297300 -1.111700
v -0.028200 0.297300 -1.045400
v 0.028200 0.412900 -1.045400
v -0.028200 0.412900 -1.111700
v -0.028200 0.412900 -1.045400
v 0.028200 0.297300 -1.045400
v -0.129700 0.251500 1.060500
v -0.129700 0.455100 1.060500
v -0.129700 0.455100 -1.059800
v -0.129700 0.251500 -1.059800
v 0.129700 0.455100 -1.059800
v 0.129700 0.251500 -1.059800
v 0.129700 0.455100 1.060500
v 0.129700 0.251500 1.060500
v 0.380519 0.788740 0.994756
v -0.380519 0.788740 0.994756
v -0.380519 0.446803 0.994756
v 0.380519 0.446803 0.994756
v 0.380519 0.788740 -0.994257
v 0.380519 0.446803 -0.994257
v -0.380519 0.446803 -0.994257
v -0.380519 0.788740 -0.994257
v 0.360591 0.788740 0.954000
v 0.360591 0.788740 -0.953500
v 0.360591 0.554600 -0.953500
v 0.360591 0.554600 0.954000
v -0.360591 0.788740 0.954000
v -0.360591 0.788740 -0.953500
v -0.360591 0.554600 -0.953500
v -0.360591 0.554600 0.954000
v -0.380519 0.788740 0.994756
v -0.380519 0.709493 0.994756
v -0.380519 0.709493 -0.994257
v -0.380519 0.788740 -0.994257
v -0.430519 0.788740 0.994756
v -0.430519 0.788740 -0.994257
v -0.430519 0.709493 -0.994257
v -0.430519 0.709493 0.994756
v -0.430519 0.709493 -0.044602
v -0.380519 0.709493 -0.044602
v -0.430519 0.709493 0.042978
v -0.380519 0.709493 0.042978
v 0.430518 0.788740 0.994756
v 0.430518 0.709493 0.994756
v 0.430518 0.709493 -0.994257
v 0.430518 0.788740 -0.994257
v 0.380518 0.788740 0.994756
v 0.380518 0.788740 -0.994257
v 0.380518 0.709493 -0.994257
v 0.380518 0.709493 0.994756
v 0.430518 0.501347 -0.044603
v 0.380518 0.709493 -0.044602
v 0.430518 0.709493 -0.044602
v 0.380518 0.709493 0.042978
v 0.430518 0.709493 0.042978
v -0.430519 0.501347 -0.044603
v -0.430519 0.501347 0.042978
v 0.380518 0.501347 -0.044603
v -0.406022 0.445792 -0.044603
v -0.406022 0.445792 0.042978
v 0.430518 0.501347 0.042978
v 0.380518 0.501347 0.042978
v -0.380519 0.501347 0.042978
v -0.380519 0.501347 -0.044603
v -0.380519 0.445792 -0.044603
v -0.380519 0.445792 0.042978
v 0.406022 0.445792 -0.044603
v 0.406022 0.445792 0.042978
v 0.380518 0.445792 0.042978
v 0.380518 0.445792 -0.044603
v -0.380519 0.709493 0.994756
v -0.380519 0.709493 0.907176
v -0.430519 0.709493 0.907176
v -0.430519 0.709493 0.994756
v -0.380519 0.501347 0.994756
v -0.430519 0.501347 0.994756
v -0.430519 0.501347 0.907176
v 0.430518 0.709493 0.994756
v 0.430518 0.709493 0.907176
v 0.380518 0.709493 0.907176
v 0.380518 0.709493 0.994756
v 0.430518 0.501347 0.907176
v 0.430518 0.501347 0.994756
v 0.380518 0.501347 0.994756
v 0.380518 0.445792 0.994756
v 0.406022 0.445792 0.994756
v 0.406022 0.445792 0.907176
v 0.380518 0.501347 0.907176
v -0.380519 0.501347 0.907176
v -0.380519 0.445792 0.907176
v -0.380519 0.445792 0.994756
v -0.406022 0.445792 0.994756
v -0.406022 0.445792 0.907176
v 0.380518 0.445792 0.907176
v -0.430519 0.501347 -0.906676
v -0.380519 0.709493 -0.906676
v -0.430519 0.709493 -0.906676
v -0.380519 0.709493 -0.994256
v -0.430519 0.709493 -0.994256
v -0.430519 0.501347 -0.994257
v 0.380518 0.501347 -0.906676
v 0.430518 0.709493 -0.906676
v 0.380518 0.709493 -0.906676
v 0.430518 0.501347 -0.994257
v 0.430518 0.709493 -0.994256
v 0.380518 0.709493 -0.994256
v 0.380518 0.501347 -0.994257
v 0.430518 0.501347 -0.906676
v -0.406022 0.445792 -0.994257
v -0.406022 0.445792 -0.906676
v -0.380519 0.501347 -0.994257
v -0.380519 0.445792 -0.994257
v -0.380519 0.501347 -0.906676
v -0.380519 0.445792 -0.906676
v 0.406022 0.445792 -0.994257
v 0.406022 0.445792 -0.906676
v 0.380518 0.445792 -0.906676
v 0.380518 0.445792 -0.994257
vt 0.125000 0.125000
vt 0.125000 0.125000
vt 0.125000 0.125000
vt 0.125000 0.125000
vt 0.125000 0.125000
vt 0.125000 0.125000
vt 0.125000 0.125000
vt 0.125000 0.125000
vt 0.125000 0.125000
vt 0.125000 0.125000
vt 0.125000 0.125000
vt 0.125000 0.125000
vt 0.125000 0.125000
vt 0.125000 0.125000
vt 0.125000 0.125000
vt 0.125000 0.125000
vt 0.125000 0.125000
vt 0.125000 0.125000
vt 0.125000 0.125000
vt 0.125000 0.125000
vt 0.125000 0.125000
vt 0.125000 0.125000
vt 0.125000 0.125000
vt 0.125000 0.125000
vt 0.125000 0.125000
vt 0.125000 0.125000
vt 0.125000 0.125000
vt 0.125000 0.125000
vt 0.125000 0.125000
vt 0.125000 0.125000
vt 0.125000 0.125000
vt 0.125000 0.125000
vt 0.125000 0.125000
vt 0.125000 0.125000
vt 0.125000 0.125000
vt 0.125000 0.125000
vt 0.125000 0.125000
vt 0.125000 0.125000
vt 0.125000 0.125000
vt 0.125000 0.125000
vt 0.375000 0.125000
vt 0.375000 0.125000
vt 0.375000 0.125000
vt 0.375000 0.125000
vt 0.375000 0.125000
vt 0.375000 0.125000
vt 0.375000 0.125000
vt 0.375000 0.125000
vt 0.625000 0.125000
vt 0.625000 0.125000
vt 0.625000 0.125000
vt 0.625000 0.125000
vt 0.875000 0.125000
vt 0.875000 0.125000
vt 0.875000 0.125000
vt 0.875000 0.125000
vt 0.625000 0.125000
vt 0.625000 0.125000
vt 0.625000 0.125000
vt 0.625000 0.125000
vt 0.375000 0.125000
vt 0.375000 0.125000
vt 0.375000 0.125000
vt 0.375000 0.125000
vt 0.875000 0.125000
vt 0.875000 0.125000
vt 0.875000 0.125000
vt 0.875000 0.125000
vt 0.375000 0.125000
vt 0.375000 0.125000
vt 0.375000 0.125000
vt 0.375000 0.125000
vt 0.375000 0.125000
vt 0.375000 0.125000
vt 0.375000 0.125000
vt 0.375000 0.125000
vt 0.375000 0.125000
vt 0.375000 0.125000
vt 0.375000 0.125000
vt 0.375000 0.125000
vt 0.375000 0.125000
vt 0.375000 0.125000
vt 0.375000 0.125000
vt 0.375000 0.125000
vt 0.375000 0.125000
vt 0.375000 0.125000
vt 0.375000 0.125000
vt 0.375000 0.125000
vt 0.375000 0.125000
vt 0.375000 0.125000
vt 0.375000 0.125000
vt 0.375000 0.125000
vt 0.375000 0.125000
vt 0.375000 0.125000
vt 0.375000 0.125000
vt 0.375000 0.125000
vt 0.375000 0.125000
vt 0.375000 0.125000
vt 0.375000 0.125000
vt 0.375000 0.125000
vt 0.375000 0.125000
vt 0.375000 0.125000
vt 0.375000 0.125000
vt 0.375000 0.125000
vt 0.375000 0.125000
vt 0.375000 0.125000
vt 0.375000 0.125000
vt 0.375000 0.125000
vt 0.375000 0.125000
vt 0.375000 0.125000
vt 0.375000 0.125000
vt 0.375000 0.125000
vt 0.375000 0.125000
vt 0.375000 0.125000
vt 0.375000 0.125000
vt 0.375000 0.125000
vt 0.375000 0.125000
vt 0.375000 0.125000
vt 0.375000 0.125000
vt 0.375000 0.125000
vt 0.375000 0.125000
vt 0.375000 0.125000
vt 0.375000 0.125000
vt 0.375000 0.125000
vt 0.375000 0.125000
vt 0.375000 0.125000
vt 0.375000 0.125000
vt 0.375000 0.125000
vt 0.375000 0.125000
vt 0.375000 0.125000
vt 0.375000 0.125000
vt 0.375000 0.125000
vt 0.375000 0.125000
vt 0.375000 0.125000
vt 0.375000 0.125000
vt 0.375000 0.125000
vt 0.375000 0.125000
vt 0.375000 0.125000
vt 0.375000 0.125000
vt 0.375000 0.125000
vt 0.375000 0.125000
vt 0.375000 0.125000
vt 0.375000 0.125000
vt 0.375000 0.125000
vt 0.375000 0.125000
vt 0.375000 0.125000
vt 0.375000 0.125000
vt 0.375000 0.125000
vt 0.375000 0.125000
vt 0.375000 0.125000
vt 0.375000 0.125000
vt 0.375000 0.125000
vt 0.375000 0.125000
vt 0.375000 0.125000
vt 0.375000 0.125000
vt 0.375000 0.125000
vn 0.0000 0.0000 -1.0000
vn -1.0000 -0.0000 0.0000
vn 0.0000 -0.0000 1.0000
vn 0.0000 -1.0000 0.0000
vn 0.0000 1.0000 0.0000
vn 1.0000 0.0000 0.0000
vn -0.8573 -0.0000 0.5148
vn 0.8573 -0.0000 0.5148
vn 0.8573 0.0000 -0.5148
vn -0.8573 0.0000 -0.5148
vn -0.9150 -0.4035 0.0000
vn 0.9150 -0.4035 0.0000
s 1
f 26/1/1 25/2/1 27/3/1 30/4/1
f 3/5/2 4/6/2 1/7/2 2/8/2
f 34/9/3 33/10/3 40/11/3 39/12/3
f 5/13/4 8/14/4 11/15/4
f 11/15/4 12/16/4 5/13/4
f 3/5/5 2/8/5 10/17/5
f 10/17/5 13/18/5 3/5/5
f 14/19/5 7/20/5 6/21/5
f 6/21/5 15/22/5 14/19/5
f 37/23/1 38/24/1 36/25/1 35/26/1
f 9/27/4 1/7/4 4/6/4
f 4/6/4 16/28/4 9/27/4
f 32/29/4 28/30/4 27/3/4 25/2/4
f 35/26/2 36/25/2 33/10/2 34/9/2
f 23/31/2 24/32/2 21/33/2 22/34/2
f 7/20/6 8/14/6 5/13/6 6/21/6
f 19/35/6 20/36/6 17/37/6 18/38/6
f 31/39/5 29/40/5 26/1/5 30/4/5
f 21/33/4 24/32/4 27/3/4
f 27/3/4 28/30/4 21/33/4
f 19/35/5 18/38/5 26/1/5
f 26/1/5 29/40/5 19/35/5
f 30/4/5 23/31/5 22/34/5
f 22/34/5 31/39/5 30/4/5
f 39/12/6 40/11/6 38/24/6 37/23/6
f 25/2/4 17/37/4 20/36/4
f 20/36/4 32/29/4 25/2/4
f 35/26/5 34/9/5 39/12/5 37/23/5
f 14/19/7 11/15/7 8/14/7 7/20/7
f 2/8/8 1/7/8 9/27/8 10/17/8
f 30/4/9 27/3/9 24/32/9 23/31/9
f 36/25/4 38/24/4 40/11/4 33/10/4
f 18/38/10 17/37/10 25/2/10 26/1/10
f 16/28/4 12/16/4 11/15/4 9/27/4
f 10/17/3 9/27/3 11/15/3 14/19/3
f 41/41/3 42/42/3 43/43/3 44/44/3
f 45/45/1 46/46/1 47/47/1 48/48/1
f 42/49/2 48/50/2 47/51/2 43/52/2
f 43/43/4 47/47/4 46/46/4 44/44/4
f 49/53/2 50/54/2 51/55/2 52/56/2
f 46/57/6 45/58/6 41/59/6 44/60/6
f 49/61/5 53/62/5 42/42/5 41/41/5
f 54/63/5 50/64/5 45/45/5 48/48/5
f 50/64/5 49/61/5 41/41/5 45/45/5
f 53/62/5 54/63/5 48/48/5 42/42/5
f 52/56/5 51/55/5 55/65/5 56/66/5
f 53/67/1 49/53/1 52/56/1 56/66/1
f 54/68/6 53/67/6 56/66/6 55/65/6
f 50/54/3 54/68/3 55/65/3 51/55/3
f 57/69/6 58/70/6 59/71/6 60/72/6
f 61/73/2 62/74/2 63/75/2 64/76/2
f 60/72/1 59/71/1 63/75/1 62/74/1
f 58/70/3 57/69/3 61/73/3 64/76/3
f 57/69/5 60/72/5 62/74/5 61/73/5
f 59/71/4 58/70/4 64/76/4 63/75/4
f 90/77/1 82/78/1 65/79/1 66/80/1
f 82/78/2 83/81/2 67/82/2 65/79/2
f 68/83/5 66/80/5 65/79/5 67/82/5
f 83/81/3 89/84/3 68/83/3 67/82/3
f 69/85/6 70/86/6 71/87/6 72/88/6
f 73/89/2 74/90/2 75/91/2 76/92/2
f 72/88/1 71/87/1 75/91/1 74/90/1
f 70/86/3 69/85/3 73/89/3 76/92/3
f 69/85/5 72/88/5 74/90/5 73/89/5
f 71/87/4 70/86/4 76/92/4 75/91/4
f 77/93/1 84/94/1 78/95/1 79/96/1
f 81/97/5 79/96/5 78/95/5 80/98/5
f 87/99/6 77/93/6 79/96/6 81/97/6
f 88/100/3 87/99/3 81/97/3 80/98/3
f 83/81/11 82/78/11 85/101/11 86/102/11
f 91/103/4 92/104/4 86/102/4 85/101/4
f 93/105/4 94/106/4 95/107/4 96/108/4
f 77/93/12 87/99/12 94/106/12 93/105/12
f 87/99/3 88/100/3 95/107/3 94/106/3
f 84/94/1 77/93/1 93/105/1 96/108/1
f 89/84/3 83/81/3 86/102/3 92/104/3
f 82/78/1 90/77/1 91/103/1 85/101/1
f 97/109/5 98/110/5 99/111/5 100/112/5
f 102/113/3 101/114/3 97/109/3 100/112/3
f 103/115/2 102/113/2 100/112/2 99/111/2
f 115/116/1 103/115/1 99/111/1 98/110/1
f 104/117/5 105/118/5 106/119/5 107/120/5
f 109/121/6 108/122/6 105/118/6 104/117/6
f 110/123/3 109/121/3 104/117/3 107/120/3
f 108/122/1 114/124/1 106/119/1 105/118/1
f 109/121/3 110/123/3 111/125/3 112/126/3
f 108/122/12 109/121/12 112/126/12 113/127/12
f 116/128/4 117/129/4 118/130/4 119/131/4
f 113/127/4 112/126/4 111/125/4 120/132/4
f 114/124/1 108/122/1 113/127/1 120/132/1
f 101/114/3 102/113/3 118/130/3 117/129/3
f 103/115/1 115/116/1 116/128/1 119/131/1
f 102/113/11 103/115/11 119/131/11 118/130/11
f 121/133/3 139/134/3 122/135/3 123/136/3
f 122/135/5 124/137/5 125/138/5 123/136/5
f 126/139/2 121/133/2 123/136/2 125/138/2
f 137/140/1 126/139/1 125/138/1 124/137/1
f 127/141/3 134/142/3 128/143/3 129/144/3
f 134/142/6 130/145/6 131/146/6 128/143/6
f 128/143/5 131/146/5 132/147/5 129/144/5
f 130/145/1 133/148/1 132/147/1 131/146/1
f 121/133/11 126/139/11 135/149/11 136/150/11
f 126/139/1 137/140/1 138/151/1 135/149/1
f 139/134/3 121/133/3 136/150/3 140/152/3
f 138/151/4 140/152/4 136/150/4 135/149/4
f 141/153/4 142/154/4 143/155/4 144/156/4
f 130/145/12 134/142/12 142/154/12 141/153/12
f 134/142/3 127/141/3 143/155/3 142/154/3
f 133/148/1 130/145/1 141/153/1 144/156/1
f 15/22/5 13/18/5 10/17/5 14/19/5
