# Blender v3.0.0 OBJ File: 'City.blend'
# www.blender.org
o advanced_circuit_advanced_circuit_item
v 0.115000 0.020000 0.040000
v 0.115000 0.055000 0.040000
v 0.075000 0.055000 0.040000
v 0.075000 0.020000 0.040000
v 0.075000 0.020000 0.005000
v 0.075000 0.055000 0.005000
v 0.115000 0.055000 0.005000
v 0.115000 0.020000 0.005000
v 0.115000 0.020000 0.065000
v 0.115000 0.055000 0.065000
v 0.075000 0.055000 0.065000
v 0.075000 0.020000 0.065000
v 0.075000 0.020000 0.100000
v 0.075000 0.055000 0.100000
v 0.115000 0.055000 0.100000
v 0.115000 0.020000 0.100000
v -0.140000 -0.000000 0.115000
v 0.140000 -0.000000 0.115000
v -0.140000 -0.000000 -0.115000
v 0.140000 -0.000000 -0.115000
v -0.140000 0.020000 0.115000
v 0.140000 0.020000 0.115000
v -0.140000 0.020000 -0.115000
v 0.140000 0.020000 -0.115000
v -0.095000 0.020000 -0.100000
v -0.116651 0.020000 -0.087500
v -0.116651 0.020000 -0.062500
v -0.095000 0.020000 -0.050000
v -0.073349 0.020000 -0.062500
v -0.073349 0.020000 -0.087500
v -0.095000 0.075000 -0.100000
v -0.116651 0.075000 -0.087500
v -0.116651 0.075000 -0.062500
v -0.095000 0.075000 -0.050000
v -0.073349 0.075000 -0.062500
v -0.073349 0.075000 -0.087500
v -0.035000 0.020000 -0.100000
v -0.056651 0.020000 -0.087500
v -0.056651 0.020000 -0.062500
v -0.035000 0.020000 -0.050000
v -0.013349 0.020000 -0.062500
v -0.013349 0.020000 -0.087500
v -0.035000 0.075000 -0.100000
v -0.056651 0.075000 -0.087500
v -0.056651 0.075000 -0.062500
v -0.035000 0.075000 -0.050000
v -0.013349 0.075000 -0.062500
v -0.013349 0.075000 -0.087500
v -0.000000 0.020000 0.085000
v -0.010000 0.030000 0.075000
v -0.075000 0.030000 0.075000
v -0.085000 0.020000 0.085000
v -0.085000 0.020000 -0.000000
v -0.075000 0.030000 0.010000
v -0.010000 0.030000 0.010000
v -0.000000 0.020000 -0.000000
v 0.025000 0.020000 -0.000000
v 0.025000 0.065000 -0.000000
v 0.015000 0.065000 -0.000000
v 0.015000 0.020000 -0.000000
v 0.015000 0.020000 0.085000
v 0.015000 0.065000 0.085000
v 0.025000 0.065000 0.085000
v 0.025000 0.020000 0.085000
v 0.040000 0.020000 -0.000000
v 0.040000 0.065000 -0.000000
v 0.030000 0.065000 -0.000000
v 0.030000 0.020000 -0.000000
v 0.030000 0.020000 0.085000
v 0.030000 0.065000 0.085000
v 0.040000 0.065000 0.085000
v 0.040000 0.020000 0.085000
v 0.055000 0.020000 -0.000000
v 0.055000 0.065000 -0.000000
v 0.045000 0.065000 -0.000000
v 0.045000 0.020000 -0.000000
v 0.045000 0.020000 0.085000
v 0.045000 0.065000 0.085000
v 0.055000 0.065000 0.085000
v 0.055000 0.020000 0.085000
v -0.075000 0.020000 0.005000
v -0.065000 0.020000 0.005000
v -0.075000 0.025000 -0.000000
v -0.065000 0.025000 -0.000000
v -0.075000 0.025000 -0.025000
v -0.065000 0.025000 -0.025000
v -0.120000 0.025000 -0.035000
v -0.010000 0.025000 -0.035000
v -0.130000 0.025000 -0.025000
v -0.120000 0.025000 -0.070000
v -0.130000 0.025000 -0.080000
v -0.010000 0.025000 -0.070000
v -0.000000 0.025000 -0.070000
v 0.080000 0.025000 -0.080000
v -0.000000 0.025000 -0.035000
v 0.015000 0.025000 -0.025000
v 0.025000 0.025000 -0.025000
v 0.015000 0.025000 -0.005000
v 0.025000 0.025000 -0.005000
v 0.015000 0.020000 -0.000000
v 0.025000 0.020000 -0.000000
v 0.030000 0.025000 -0.025000
v 0.070000 0.025000 -0.035000
v 0.040000 0.025000 -0.025000
v 0.030000 0.025000 -0.005000
v 0.040000 0.025000 -0.005000
v 0.030000 0.020000 -0.000000
v 0.040000 0.020000 -0.000000
v 0.045000 0.025000 -0.025000
v 0.055000 0.025000 -0.025000
v 0.045000 0.025000 -0.005000
v 0.055000 0.025000 -0.005000
v 0.045000 0.020000 -0.000000
v 0.055000 0.020000 -0.000000
v 0.100000 0.025000 -0.035000
v 0.090000 0.025000 -0.025000
v 0.090000 0.025000 0.065000
v 0.100000 0.025000 0.065000
v 0.060000 0.020000 -0.055000
v 0.060000 0.055000 -0.055000
v 0.010000 0.055000 -0.055000
v 0.010000 0.020000 -0.055000
v 0.010000 0.020000 -0.095000
v 0.010000 0.055000 -0.095000
v 0.060000 0.055000 -0.095000
v 0.060000 0.020000 -0.095000
v 0.070000 0.025000 -0.070000
v 0.080000 0.025000 -0.035000
vt 0.125000 0.125000
vt 0.125000 0.125000
vt 0.125000 0.125000
vt 0.125000 0.125000
vt 0.125000 0.125000
vt 0.125000 0.125000
vt 0.125000 0.125000
vt 0.125000 0.125000
vt 0.375000 0.125000
vt 0.375000 0.125000
vt 0.375000 0.125000
vt 0.375000 0.125000
vt 0.375000 0.125000
vt 0.375000 0.125000
vt 0.375000 0.125000
vt 0.375000 0.125000
vt 0.375000 0.125000
vt 0.375000 0.125000
vt 0.375000 0.125000
vt 0.375000 0.125000
vt 0.375000 0.125000
vt 0.375000 0.125000
vt 0.375000 0.125000
vt 0.375000 0.125000
vt 0.375000 0.125000
vt 0.375000 0.125000
vt 0.375000 0.125000
vt 0.375000 0.125000
vt 0.375000 0.125000
vt 0.375000 0.125000
vt 0.375000 0.125000
vt 0.375000 0.125000
vt 0.375000 0.125000
vt 0.375000 0.125000
vt 0.375000 0.125000
vt 0.375000 0.125000
vt 0.375000 0.125000
vt 0.375000 0.125000
vt 0.375000 0.125000
vt 0.375000 0.125000
vt 0.375000 0.125000
vt 0.375000 0.125000
vt 0.375000 0.125000
vt 0.375000 0.125000
vt 0.375000 0.125000
vt 0.375000 0.125000
vt 0.375000 0.125000
vt 0.375000 0.125000
vt 0.625000 0.125000
vt 0.625000 0.125000
vt 0.625000 0.125000
vt 0.625000 0.125000
vt 0.625000 0.125000
vt 0.625000 0.125000
vt 0.625000 0.125000
vt 0.625000 0.125000
vt 0.625000 0.125000
vt 0.625000 0.125000
vt 0.625000 0.125000
vt 0.625000 0.125000
vt 0.625000 0.125000
vt 0.625000 0.125000
vt 0.625000 0.125000
vt 0.625000 0.125000
vt 0.625000 0.125000
vt 0.625000 0.125000
vt 0.625000 0.125000
vt 0.625000 0.125000
vt 0.625000 0.125000
vt 0.625000 0.125000
vt 0.625000 0.125000
vt 0.625000 0.125000
vt 0.875000 0.125000
vt 0.875000 0.125000
vt 0.875000 0.125000
vt 0.875000 0.125000
vt 0.875000 0.125000
vt 0.875000 0.125000
vt 0.875000 0.125000
vt 0.875000 0.125000
vt 0.125000 0.375000
vt 0.125000 0.375000
vt 0.125000 0.375000
vt 0.125000 0.375000
vt 0.125000 0.375000
vt 0.125000 0.375000
vt 0.125000 0.375000
vt 0.125000 0.375000
vt 0.125000 0.375000
vt 0.125000 0.375000
vt 0.125000 0.375000
vt 0.125000 0.375000
vt 0.125000 0.375000
vt 0.125000 0.375000
vt 0.125000 0.375000
vt 0.125000 0.375000
vt 0.125000 0.375000
vt 0.125000 0.375000
vt 0.125000 0.375000
vt 0.125000 0.375000
vt 0.125000 0.375000
vt 0.125000 0.375000
vt 0.125000 0.375000
vt 0.125000 0.375000
vt 0.375000 0.375000
vt 0.375000 0.375000
vt 0.375000 0.375000
vt 0.375000 0.375000
vt 0.375000 0.375000
vt 0.375000 0.375000
vt 0.375000 0.375000
vt 0.375000 0.375000
vt 0.375000 0.375000
vt 0.375000 0.375000
vt 0.375000 0.375000
vt 0.375000 0.375000
vt 0.375000 0.375000
vt 0.375000 0.375000
vt 0.375000 0.375000
vt 0.375000 0.375000
vt 0.375000 0.375000
vt 0.375000 0.375000
vt 0.375000 0.375000
vt 0.375000 0.375000
vt 0.375000 0.375000
vt 0.375000 0.375000
vt 0.375000 0.375000
vt 0.375000 0.375000
vn 0.0000 -1.0000 0.0000
vn 0.0000 1.0000 0.0000
vn 1.0000 0.0000 0.0000
vn -1.0000 0.0000 0.0000
vn 0.0000 0.0000 -1.0000
vn 0.0000 0.0000 1.0000
vn 0.0000 0.7071 0.7071
vn -0.7071 0.7071 0.0000
vn -0.0000 0.7071 -0.7071
vn 0.7071 0.7071 0.0000
vn 0.8660 0.0000 -0.5000
vn 0.8660 0.0000 0.5000
vn -0.8660 0.0000 0.5000
vn -0.8660 0.0000 -0.5000
s 1
f 17/1/1 19/2/1 20/3/1 18/4/1
f 21/5/2 22/6/2 24/7/2 23/8/2
f 18/4/3 20/3/3 24/7/3 22/6/3
f 19/2/4 17/1/4 21/5/4 23/8/4
f 20/3/5 19/2/5 23/8/5 24/7/5
f 17/1/6 18/4/6 22/6/6 21/5/6
f 81/9/7 82/10/7 84/11/7 83/12/7
f 83/12/2 84/11/2 86/13/2 85/14/2
f 85/14/2 86/13/2 88/15/2 87/16/2
f 85/14/2 87/16/2 89/17/2
f 89/17/2 87/16/2 90/18/2 91/19/2
f 91/19/2 90/18/2 92/20/2
f 91/19/2 92/20/2 93/21/2 94/22/2
f 93/21/2 92/20/2 88/15/2 95/23/2
f 95/23/2 88/15/2 86/13/2 96/24/2
f 95/23/2 96/24/2 97/25/2
f 97/25/2 96/24/2 98/26/2 99/27/2
f 99/27/7 98/26/7 100/28/7 101/29/7
f 95/23/2 97/25/2 102/30/2
f 95/23/2 102/30/2 104/31/2 103/32/2
f 104/31/2 102/30/2 105/33/2 106/34/2
f 106/34/7 105/33/7 107/35/7 108/36/7
f 103/32/2 104/31/2 109/37/2
f 103/32/2 109/37/2 110/38/2
f 110/38/2 109/37/2 111/39/2 112/40/2
f 112/40/7 111/39/7 113/41/7 114/42/7
f 103/32/2 110/38/2 116/43/2
f 115/44/2 116/43/2 117/45/2 118/46/2
f 103/32/2 116/43/2 128/47/2
f 94/22/2 93/21/2 127/48/2
f 115/44/2 128/47/2 116/43/2
f 127/48/2 103/32/2 128/47/2 94/22/2
f 58/49/5 57/50/5 60/51/5 59/52/5
f 62/53/4 59/52/4 60/51/4 61/54/4
f 64/55/3 57/50/3 58/49/3 63/56/3
f 63/56/2 58/49/2 59/52/2 62/53/2
f 62/53/6 61/54/6 64/55/6 63/56/6
f 66/57/5 65/58/5 68/59/5 67/60/5
f 70/61/4 67/60/4 68/59/4 69/62/4
f 72/63/3 65/58/3 66/57/3 71/64/3
f 71/64/2 66/57/2 67/60/2 70/61/2
f 70/61/6 69/62/6 72/63/6 71/64/6
f 74/65/5 73/66/5 76/67/5 75/68/5
f 78/69/4 75/68/4 76/67/4 77/70/4
f 80/71/3 73/66/3 74/65/3 79/72/3
f 79/72/2 74/65/2 75/68/2 78/69/2
f 78/69/6 77/70/6 80/71/6 79/72/6
f 50/73/2 55/74/2 54/75/2 51/76/2
f 51/76/8 54/75/8 53/77/8 52/78/8
f 55/74/9 56/79/9 53/77/9 54/75/9
f 51/76/7 52/78/7 49/80/7 50/73/7
f 49/80/10 56/79/10 55/74/10 50/73/10
f 2/81/2 7/82/2 6/83/2 3/84/2
f 10/85/5 9/86/5 12/87/5 11/88/5
f 3/84/4 6/83/4 5/89/4 4/90/4
f 14/91/4 11/88/4 12/87/4 13/92/4
f 16/93/3 9/86/3 10/85/3 15/94/3
f 7/82/5 8/95/5 5/89/5 6/83/5
f 15/94/2 10/85/2 11/88/2 14/91/2
f 14/91/6 13/92/6 16/93/6 15/94/6
f 3/84/6 4/90/6 1/96/6 2/81/6
f 1/96/3 8/95/3 7/82/3 2/81/3
f 120/97/2 125/98/2 124/99/2 121/100/2
f 121/100/4 124/99/4 123/101/4 122/102/4
f 125/98/5 126/103/5 123/101/5 124/99/5
f 121/100/6 122/102/6 119/104/6 120/97/6
f 119/104/3 126/103/3 125/98/3 120/97/3
f 25/105/5 31/106/5 36/107/11 30/108/11
f 29/109/12 35/110/12 34/111/6 28/112/6
f 27/113/13 33/114/13 32/115/14 26/116/14
f 30/108/11 36/107/11 35/110/12 29/109/12
f 28/112/6 34/111/6 33/114/13 27/113/13
f 26/116/14 32/115/14 31/106/5 25/105/5
f 34/111/2 35/110/2 36/107/2 33/114/2
f 31/106/2 32/115/2 33/114/2 36/107/2
f 37/117/5 43/118/5 48/119/11 42/120/11
f 41/121/12 47/122/12 46/123/6 40/124/6
f 39/125/13 45/126/13 44/127/14 38/128/14
f 42/120/11 48/119/11 47/122/12 41/121/12
f 40/124/6 46/123/6 45/126/13 39/125/13
f 38/128/14 44/127/14 43/118/5 37/117/5
f 46/123/2 47/122/2 48/119/2 45/126/2
f 43/118/2 44/127/2 45/126/2 48/119/2
