# Blender v3.0.0 OBJ File: 'City.blend'
# www.blender.org
o computer_computer_item
v 0.016213 0.065000 -0.051213
v 0.025000 0.065000 -0.030000
v 0.016213 0.065000 -0.008787
v -0.005000 0.065000 0.000000
v -0.026213 0.065000 -0.008787
v -0.035000 0.065000 -0.030000
v -0.026213 0.065000 -0.051213
v -0.005000 0.065000 -0.060000
v 0.069582 0.193328 0.020000
v 0.060774 0.201498 0.020000
v 0.056928 0.196367 0.025288
v 0.062965 0.191263 0.025288
v -0.066308 0.201498 0.020000
v -0.075117 0.193328 0.020000
v -0.068499 0.191263 0.025288
v -0.062462 0.196367 0.025288
v 0.073604 0.140000 0.020000
v 0.066975 0.140000 0.025288
v -0.003927 0.074603 0.020000
v 0.060774 0.078503 0.020000
v 0.056928 0.083633 0.025288
v -0.003927 0.079792 0.025288
v 0.069582 0.086672 0.020000
v 0.062965 0.088737 0.025288
v -0.075117 0.086672 0.020000
v -0.066308 0.078503 0.020000
v -0.062462 0.083633 0.025288
v -0.068499 0.088737 0.025288
v -0.003927 0.205397 0.020000
v -0.003927 0.200208 0.025288
v -0.079139 0.140000 0.020000
v -0.072509 0.140000 0.025288
v 0.085000 0.215000 -0.005000
v -0.090000 0.215000 -0.005000
v -0.090000 0.215000 0.020000
v -0.090000 0.065000 0.020000
v 0.085000 0.215000 0.020000
v 0.085000 0.065000 0.020000
v 0.085000 0.200000 -0.095000
v -0.090000 0.200000 -0.095000
v 0.085000 0.065000 -0.095000
v -0.090000 0.065000 -0.095000
v 0.026820 0.055000 -0.061820
v 0.040000 0.055000 -0.030000
v 0.026820 0.055000 0.001820
v -0.005000 0.055000 0.015000
v -0.036820 0.055000 0.001820
v -0.050000 0.055000 -0.030000
v -0.036820 0.055000 -0.061820
v -0.005000 0.055000 -0.075000
v 0.110000 0.055000 0.035000
v -0.110000 0.055000 0.035000
v 0.110000 0.055000 -0.110000
v -0.110000 0.055000 -0.110000
v 0.110000 0.030000 0.035000
v -0.110000 0.030000 0.035000
v 0.110000 -0.000000 -0.110000
v -0.110000 -0.000000 -0.110000
v 0.100000 0.018356 0.059864
v -0.100000 0.018356 0.059864
v 0.100000 0.011644 0.100136
v -0.100000 0.011644 0.100136
v 0.110000 -0.000000 0.110000
v -0.110000 -0.000000 0.110000
v 0.110000 0.020000 0.050000
v -0.110000 0.020000 0.050000
v 0.110000 0.010000 0.110000
v -0.110000 0.010000 0.110000
v 0.065000 0.018356 0.059864
v 0.065000 0.011644 0.100136
v 0.050000 0.018356 0.059864
v 0.050000 0.011644 0.100136
v 0.098000 0.022959 0.062659
v 0.067000 0.022959 0.062659
v 0.098000 0.016905 0.098985
v 0.067000 0.016905 0.098985
v -0.098000 0.022959 0.062659
v -0.098000 0.016905 0.098985
v 0.048000 0.016905 0.098985
v 0.048000 0.022959 0.062659
v -0.100000 0.050000 0.030000
v -0.100000 0.040000 0.030000
v -0.090000 0.040000 0.030000
v -0.090000 0.050000 0.030000
v -0.100000 0.050000 0.045000
v -0.100000 0.040000 0.045000
v -0.090000 0.040000 0.045000
v -0.090000 0.050000 0.045000
v 0.030000 0.050000 0.030000
v 0.030000 0.035000 0.030000
v 0.090000 0.035000 0.030000
v 0.090000 0.050000 0.030000
v 0.030000 0.050000 0.040000
v 0.030000 0.035000 0.040000
v 0.090000 0.035000 0.040000
v 0.090000 0.050000 0.040000
vt 0.125000 0.125000
vt 0.125000 0.125000
vt 0.125000 0.125000
vt 0.125000 0.125000
vt 0.125000 0.125000
vt 0.125000 0.125000
vt 0.125000 0.125000
vt 0.125000 0.125000
vt 0.125000 0.125000
vt 0.125000 0.125000
vt 0.125000 0.125000
vt 0.125000 0.125000
vt 0.125000 0.125000
vt 0.125000 0.125000
vt 0.125000 0.125000
vt 0.125000 0.125000
vt 0.125000 0.125000
vt 0.125000 0.125000
vt 0.125000 0.125000
vt 0.125000 0.125000
vt 0.125000 0.125000
vt 0.125000 0.125000
vt 0.125000 0.125000
vt 0.125000 0.125000
vt 0.125000 0.125000
vt 0.125000 0.125000
vt 0.375000 0.125000
vt 0.375000 0.125000
vt 0.375000 0.125000
vt 0.375000 0.125000
vt 0.375000 0.125000
vt 0.375000 0.125000
vt 0.375000 0.125000
vt 0.375000 0.125000
vt 0.375000 0.125000
vt 0.375000 0.125000
vt 0.375000 0.125000
vt 0.375000 0.125000
vt 0.375000 0.125000
vt 0.375000 0.125000
vt 0.375000 0.125000
vt 0.375000 0.125000
vt 0.375000 0.125000
vt 0.375000 0.125000
vt 0.375000 0.125000
vt 0.375000 0.125000
vt 0.375000 0.125000
vt 0.375000 0.125000
vt 0.625000 0.125000
vt 0.625000 0.125000
vt 0.625000 0.125000
vt 0.625000 0.125000
vt 0.625000 0.125000
vt 0.625000 0.125000
vt 0.625000 0.125000
vt 0.625000 0.125000
vt 0.625000 0.125000
vt 0.625000 0.125000
vt 0.625000 0.125000
vt 0.625000 0.125000
vt 0.625000 0.125000
vt 0.625000 0.125000
vt 0.625000 0.125000
vt 0.625000 0.125000
vt 0.875000 0.125000
vt 0.875000 0.125000
vt 0.875000 0.125000
vt 0.875000 0.125000
vt 0.875000 0.125000
vt 0.875000 0.125000
vt 0.875000 0.125000
vt 0.875000 0.125000
vt 0.125000 0.375000
vt 0.125000 0.375000
vt 0.125000 0.375000
vt 0.125000 0.375000
vt 0.125000 0.375000
vt 0.125000 0.375000
vt 0.125000 0.375000
vt 0.125000 0.375000
vt 0.375000 0.375000
vt 0.375000 0.375000
vt 0.375000 0.375000
vt 0.375000 0.375000
vt 0.375000 0.375000
vt 0.375000 0.375000
vt 0.375000 0.375000
vt 0.375000 0.375000
vt 0.375000 0.375000
vt 0.375000 0.375000
vt 0.375000 0.375000
vt 0.375000 0.375000
vt 0.375000 0.375000
vt 0.375000 0.375000
vt 0.375000 0.375000
vt 0.375000 0.375000
vt 0.375000 0.375000
vt 0.375000 0.375000
vt 0.375000 0.375000
vt 0.375000 0.375000
vt 0.375000 0.375000
vt 0.375000 0.375000
vt 0.375000 0.375000
vt 0.375000 0.375000
vn -1.0000 0.0000 0.0000
vn 0.0000 -0.0000 1.0000
vn -0.5406 0.8109 0.2239
vn 1.0000 -0.0000 0.0000
vn 0.0000 1.0000 0.0000
vn 0.0000 0.9864 -0.1644
vn 0.0000 0.0000 -1.0000
vn 0.0000 -1.0000 -0.0000
vn -0.5406 0.8109 -0.2239
vn 0.2239 0.8109 0.5406
vn 0.5406 0.8109 0.2239
vn -0.2239 0.8109 -0.5406
vn 0.5406 0.8109 -0.2239
vn -0.2239 0.8109 0.5406
vn 0.2239 0.8109 -0.5406
vn 0.0000 0.8321 0.5547
vn 0.0000 0.9864 0.1644
vn 0.9285 0.3663 0.0611
vn -0.9285 0.3663 0.0611
vn 0.0000 0.2137 0.9769
vn 0.0000 0.5190 -0.8548
vn 0.5501 0.2542 0.7955
vn 0.2723 0.5961 0.7553
vn 0.1395 0.3897 0.9103
vn 0.3429 0.1858 0.9208
vn -0.2728 0.5959 0.7553
vn -0.5501 0.2542 0.7955
vn -0.3429 0.1858 0.9208
vn -0.1400 0.3893 0.9104
vn 0.6194 -0.0000 0.7851
vn 0.3422 -0.0000 0.9396
vn -0.0008 -0.7076 0.7066
vn 0.2723 -0.5961 0.7553
vn 0.1395 -0.3898 0.9103
vn -0.0005 -0.3962 0.9182
vn 0.5501 -0.2542 0.7955
vn 0.3429 -0.1858 0.9208
vn -0.5501 -0.2542 0.7955
vn -0.2728 -0.5960 0.7553
vn -0.1400 -0.3893 0.9104
vn -0.3429 -0.1858 0.9208
vn -0.0008 0.7076 0.7066
vn -0.0005 0.3962 0.9182
vn -0.6194 -0.0000 0.7851
vn -0.3422 -0.0000 0.9396
s off
f 34/1/1 40/2/1 42/3/1 36/4/1
f 37/5/2 35/6/2 36/4/2 38/7/2
f 5/8/3 6/9/3 48/10/3 47/11/3
f 36/4/1 35/6/1 34/1/1
f 33/12/4 37/5/4 38/7/4
f 38/7/4 41/13/4 39/14/4 33/12/4
f 35/6/5 37/5/5 33/12/5 34/1/5
f 34/1/6 33/12/6 39/14/6 40/2/6
f 40/2/7 39/14/7 41/13/7 42/3/7
f 38/7/8 36/4/8 42/3/8 41/13/8
f 6/9/9 7/15/9 49/16/9 48/10/9
f 3/17/10 4/18/10 46/19/10 45/20/10
f 2/21/11 3/17/11 45/20/11 44/22/11
f 7/15/12 8/23/12 50/24/12 49/16/12
f 1/25/13 2/21/13 44/22/13 43/26/13
f 4/18/14 5/8/14 47/11/14 46/19/14
f 8/23/15 1/25/15 43/26/15 50/24/15
f 51/27/5 53/28/5 54/29/5 52/30/5
f 55/31/16 56/32/16 66/33/16 65/34/16
f 51/27/2 52/30/2 56/32/2 55/31/2
f 53/28/4 51/27/4 55/31/4 57/35/4
f 54/29/7 53/28/7 57/35/7 58/36/7
f 52/30/1 54/29/1 58/36/1 56/32/1
f 67/37/2 68/38/2 64/39/2 63/40/2
f 55/31/4 65/34/4 57/35/4
f 65/34/4 67/37/4 63/40/4 57/35/4
f 58/36/1 66/33/1 56/32/1
f 66/33/1 58/36/1 64/39/1 68/38/1
f 58/36/8 57/35/8 63/40/8 64/39/8
f 69/41/17 71/42/17 72/43/17 70/44/17
f 59/45/17 61/46/17 67/37/17 65/34/17
f 62/47/17 60/48/17 66/33/17 68/38/17
f 66/33/17 71/42/17 69/41/17 65/34/17
f 69/41/17 59/45/17 65/34/17
f 60/48/17 71/42/17 66/33/17
f 68/38/17 67/37/17 70/44/17 72/43/17
f 61/46/17 70/44/17 67/37/17
f 68/38/17 72/43/17 62/47/17
f 73/49/18 75/50/18 61/51/18 59/52/18
f 76/53/19 74/54/19 69/55/19 70/56/19
f 80/57/17 77/58/17 78/59/17 79/60/17
f 73/49/17 74/54/17 76/53/17 75/50/17
f 79/60/20 78/59/20 62/61/20 72/62/20
f 80/57/18 79/60/18 72/62/18 71/63/18
f 78/59/19 77/58/19 60/64/19 62/61/19
f 75/50/20 76/53/20 70/56/20 61/51/20
f 77/58/21 80/57/21 71/63/21 60/64/21
f 74/54/21 73/49/21 59/52/21 69/55/21
f 83/65/4 84/66/4 88/67/4 87/68/4
f 81/69/1 82/70/1 86/71/1 85/72/1
f 81/69/5 85/72/5 88/67/5 84/66/5
f 82/70/8 83/65/8 87/68/8 86/71/8
f 85/72/2 86/71/2 87/68/2 88/67/2
f 91/73/4 92/74/4 96/75/4 95/76/4
f 89/77/1 90/78/1 94/79/1 93/80/1
f 89/77/5 93/80/5 96/75/5 92/74/5
f 90/78/8 91/73/8 95/76/8 94/79/8
f 93/80/2 94/79/2 95/76/2 96/75/2
s 1
f 9/81/22 10/82/23 11/83/24 12/84/25
f 13/85/26 14/86/27 15/87/28 16/88/29
f 17/89/30 9/81/22 12/84/25 18/90/31
f 19/91/32 20/92/33 21/93/34 22/94/35
f 20/92/33 23/95/36 24/96/37 21/93/34
f 25/97/38 26/98/39 27/99/40 28/100/41
f 29/101/42 13/85/26 16/88/29 30/102/43
f 31/103/44 25/97/38 28/100/41 32/104/45
f 14/86/27 31/103/44 32/104/45 15/87/28
f 23/95/36 17/89/30 18/90/31 24/96/37
f 10/82/23 29/101/42 30/102/43 11/83/24
f 26/98/39 19/91/32 22/94/35 27/99/40
f 27/99/40 22/94/35 21/93/34 24/96/37 18/90/31 12/84/25 11/83/24 30/102/43 16/88/29 15/87/28 32/104/45 28/100/41
