# Blender v3.0.0 OBJ File: 'City.blend'
# www.blender.org
o l_water
v 0.000000 0.200000 -0.900000
v -0.344415 0.208519 -0.831492
v -0.636396 0.225183 -0.636396
v -0.831492 0.217216 -0.344415
v -0.900000 0.201196 0.000000
v -0.831492 0.200000 0.344415
v -0.636396 0.200000 0.636396
v -0.344415 0.209690 0.831492
v 0.000000 0.220238 0.900000
v 0.344415 0.209690 0.831492
v 0.636396 0.200000 0.636396
v 0.831492 0.200000 0.344415
v 0.900000 0.199803 -0.000000
v 0.831492 0.199650 -0.344415
v 0.636396 0.199920 -0.636396
v 0.344415 0.200000 -0.831492
v -0.700000 0.225959 -0.541206
v -0.700000 0.200000 0.541206
v 0.300000 0.200000 -0.840326
v 0.300000 0.211697 0.840326
v 0.794351 0.200000 0.400000
v 0.300000 0.199962 0.400000
v -0.700000 0.200000 0.400000
v -0.794351 0.200000 0.400000
v 0.880109 0.199613 -0.100000
v 0.300000 0.192751 -0.100000
v -0.700000 0.206202 -0.100000
v -0.880109 0.204445 -0.100000
v -0.660715 0.225917 -0.600000
v 0.300000 0.198796 -0.600000
v 0.660715 0.199847 -0.600000
v 0.800000 0.199603 -0.391545
v 0.800000 0.198796 -0.100000
v -0.200000 0.202425 -0.860218
v -0.200000 0.205520 -0.600000
v -0.200000 0.198827 -0.100000
v -0.200000 0.202334 0.400000
v -0.200000 0.215904 0.860217
v 0.800000 0.200000 0.391546
vt 0.375000 0.125000
vt 0.375000 0.125000
vt 0.375000 0.125000
vt 0.375000 0.125000
vt 0.625000 0.125000
vt 0.625000 0.125000
vt 0.625000 0.125000
vt 0.625000 0.125000
vt 0.625000 0.125000
vt 0.125000 0.125000
vt 0.125000 0.125000
vt 0.125000 0.125000
vt 0.125000 0.125000
vt 0.125000 0.125000
vt 0.875000 0.125000
vt 0.875000 0.125000
vt 0.875000 0.125000
vt 0.875000 0.125000
vt 0.875000 0.125000
vt 0.875000 0.125000
vt 0.375000 0.125000
vt 0.375000 0.125000
vt 0.375000 0.125000
vt 0.125000 0.125000
vt 0.125000 0.125000
vt 0.375000 0.125000
vt 0.375000 0.125000
vt 0.375000 0.125000
vt 0.375000 0.125000
vt 0.625000 0.125000
vt 0.625000 0.125000
vt 0.625000 0.125000
vt 0.625000 0.125000
vt 0.625000 0.125000
vt 0.125000 0.125000
vt 0.125000 0.125000
vt 0.125000 0.125000
vt 0.375000 0.125000
vt 0.375000 0.125000
vt 0.375000 0.125000
vt 0.375000 0.125000
vt 0.875000 0.125000
vt 0.875000 0.125000
vt 0.875000 0.125000
vt 0.875000 0.125000
vt 0.875000 0.125000
vt 0.875000 0.125000
vt 0.875000 0.125000
vt 0.875000 0.125000
vt 0.875000 0.125000
vt 0.875000 0.125000
vt 0.875000 0.125000
vt 0.875000 0.125000
vt 0.875000 0.125000
vt 0.125000 0.125000
vt 0.125000 0.125000
vt 0.125000 0.125000
vt 0.125000 0.125000
vt 0.125000 0.125000
vt 0.125000 0.125000
vt 0.125000 0.125000
vt 0.625000 0.125000
vt 0.625000 0.125000
vt 0.625000 0.125000
vt 0.625000 0.125000
vt 0.625000 0.125000
vt 0.625000 0.125000
vt 0.625000 0.125000
vt 0.625000 0.125000
vt 0.625000 0.125000
vn -0.0090 0.9996 0.0273
vn 0.0046 0.9997 0.0224
vn 0.0238 0.9992 0.0317
vn -0.0039 0.9989 0.0471
vn -0.0079 1.0000 -0.0001
vn -0.0074 1.0000 -0.0001
vn -0.0063 1.0000 -0.0072
vn -0.0072 1.0000 -0.0019
vn -0.0061 1.0000 0.0068
vn 0.0028 1.0000 0.0048
vn 0.0019 1.0000 0.0003
vn -0.0079 0.9999 0.0068
vn -0.0129 0.9998 0.0118
vn -0.0089 0.9999 0.0081
vn -0.0061 1.0000 -0.0002
vn -0.0135 0.9998 -0.0125
vn 0.0241 0.9997 0.0057
vn 0.0141 0.9999 0.0082
vn 0.0007 0.9999 -0.0141
vn 0.0049 0.9999 -0.0165
vn 0.0347 0.9993 0.0155
vn -0.0087 1.0000 0.0024
vn -0.0007 0.9999 -0.0102
vn -0.0027 1.0000 0.0046
vn 0.0039 1.0000 -0.0014
vn 0.0113 0.9998 -0.0140
vn 0.0082 0.9997 -0.0247
vn 0.0089 0.9999 -0.0061
vn 0.0245 0.9997 -0.0087
vn -0.0039 0.9997 -0.0253
vn 0.0059 0.9994 -0.0330
vn -0.0166 0.9997 -0.0154
vn 0.0445 0.9989 -0.0121
s 1
f 28/1/1 27/2/2 17/3/3 4/4/4
f 25/5/5 33/6/6 39/7/7 12/8/8 13/9/8
f 31/10/9 30/11/10 26/12/11 33/13/6 32/14/12
f 27/15/2 28/16/1 5/17/13 6/18/13 24/19/14 23/20/15
f 24/21/14 18/22/16 23/23/15
f 30/11/10 35/24/17 36/25/18 26/12/11
f 26/26/11 36/27/18 37/28/19 22/29/20
f 35/30/17 29/31/21 17/32/3 27/33/2 36/34/18
f 36/25/18 27/35/2 23/36/15 37/37/19
f 33/38/6 25/39/5 14/40/22 32/41/12
f 33/42/6 26/43/11 22/44/20 21/45/23 39/46/7
f 16/47/24 19/48/25 30/49/10 31/50/9 15/51/24
f 11/52/26 21/45/23 22/44/20 20/53/27 10/54/26
f 35/24/17 30/11/10 19/55/25 1/56/28 34/57/29
f 20/58/27 22/59/20 37/37/19 38/60/30 9/61/31
f 8/62/32 38/63/30 37/64/19 23/65/15 18/66/16 7/67/32
f 3/68/33 29/31/21 35/30/17 34/69/29 2/70/33
