# Blender v3.0.0 OBJ File: 'City.blend'
# www.blender.org
o l_water_tank_2
v 0.700000 0.100000 -1.200000
v -0.700000 0.100000 -1.200000
v -0.700000 0.100000 1.200000
v 0.700000 0.100000 1.200000
v -0.700000 0.100000 0.870000
v -0.606218 0.450000 0.870000
v -0.350000 0.706218 0.870000
v 0.000000 0.800000 0.870000
v 0.350000 0.706218 0.870000
v 0.606218 0.450000 0.870000
v 0.700000 0.100000 0.870000
v -0.700000 0.100000 0.830000
v -0.606218 0.450000 0.830000
v -0.350000 0.706218 0.830000
v 0.000000 0.800000 0.830000
v 0.350000 0.706218 0.830000
v 0.606218 0.450000 0.830000
v 0.700000 0.100000 0.830000
v -0.700000 0.100000 0.470000
v -0.606218 0.450000 0.470000
v -0.350000 0.706218 0.470000
v 0.000000 0.800000 0.470000
v 0.350000 0.706218 0.470000
v 0.606218 0.450000 0.470000
v 0.700000 0.100000 0.470000
v -0.700000 0.100000 0.430000
v -0.606218 0.450000 0.430000
v -0.350000 0.706218 0.430000
v 0.000000 0.800000 0.430000
v 0.350000 0.706218 0.430000
v 0.606218 0.450000 0.430000
v 0.700000 0.100000 0.430000
v -0.700000 0.100000 -0.430000
v -0.606218 0.450000 -0.430000
v -0.350000 0.706218 -0.430000
v 0.000000 0.800000 -0.430000
v 0.350000 0.706218 -0.430000
v 0.606218 0.450000 -0.430000
v 0.700000 0.100000 -0.430000
v -0.700000 0.100000 -0.470000
v -0.606218 0.450000 -0.470000
v -0.350000 0.706218 -0.470000
v 0.000000 0.800000 -0.470000
v 0.350000 0.706218 -0.470000
v 0.606218 0.450000 -0.470000
v 0.700000 0.100000 -0.470000
v -0.700000 0.100000 -0.830000
v -0.606218 0.450000 -0.830000
v -0.350000 0.706218 -0.830000
v 0.000000 0.800000 -0.830000
v 0.350000 0.706218 -0.830000
v 0.606218 0.450000 -0.830000
v 0.700000 0.100000 -0.830000
v -0.700000 0.100000 -0.870000
v -0.606218 0.450000 -0.870000
v -0.350000 0.706218 -0.870000
v 0.000000 0.800000 -0.870000
v 0.350000 0.706218 -0.870000
v 0.606218 0.450000 -0.870000
v 0.700000 0.100000 -0.870000
v 0.629617 0.463509 -0.470000
v 0.363510 0.729617 -0.470000
v 0.000000 0.827019 -0.470000
v 0.629617 0.463509 0.830000
v -0.363509 0.729617 -0.470000
v -0.629617 0.463510 -0.470000
v 0.363510 0.729617 0.830000
v 0.574625 0.403132 1.095281
v 0.367409 0.320636 1.175277
v 0.000000 0.827019 0.830000
v 0.303110 0.625023 1.059898
v 0.175001 0.403132 1.159135
v -0.363509 0.729617 0.830000
v 0.000001 0.706241 1.034473
v 0.000001 0.450023 1.154895
v -0.629617 0.463510 0.830000
v -0.303108 0.625023 1.059898
v -0.174999 0.403132 1.159135
v 0.000001 0.100023 1.198973
v 0.629617 0.463509 -0.430000
v 0.363510 0.729617 -0.430000
v -0.574622 0.403132 1.095281
v -0.367407 0.320636 1.175277
v 0.000000 0.827019 -0.430000
v -0.363509 0.729617 -0.430000
v -0.629617 0.463510 -0.430000
v 0.629617 0.463509 0.430000
v 0.629617 0.463509 0.870000
v 0.363510 0.729617 0.430000
v 0.000000 0.827019 0.430000
v 0.367409 0.320636 -1.175331
v 0.574625 0.403132 -1.095335
v 0.363510 0.729617 0.870000
v -0.363509 0.729617 0.430000
v -0.629617 0.463510 0.430000
v 0.175001 0.403132 -1.159189
v 0.303110 0.625023 -1.059953
v 0.000000 0.827019 0.870000
v 0.000001 0.100023 -1.199028
v 0.000001 0.450023 -1.154950
v 0.000001 0.706241 -1.034528
v -0.363509 0.729617 0.870000
v -0.174999 0.403132 -1.159189
v -0.303108 0.625023 -1.059953
v -0.629617 0.463510 0.870000
v -0.367407 0.320636 -1.175331
v -0.574622 0.403132 -1.095335
v 0.629617 0.463509 0.470000
v 0.363510 0.729617 0.470000
v 0.000000 0.827019 0.470000
v -0.363509 0.729617 0.470000
v -0.629617 0.463510 0.470000
v -0.629617 0.463510 -0.830000
v -0.363509 0.729617 -0.830000
v 0.000000 0.827019 -0.830000
v 0.363510 0.729617 -0.830000
v 0.629617 0.463509 -0.830000
v -0.629617 0.463510 -0.870000
v -0.363509 0.729617 -0.870000
v 0.000000 0.827019 -0.870000
v 0.363510 0.729617 -0.870000
v 0.629617 0.463509 -0.870000
vt 0.125000 0.125000
vt 0.125000 0.125000
vt 0.125000 0.125000
vt 0.125000 0.125000
vt 0.125000 0.125000
vt 0.125000 0.125000
vt 0.125000 0.125000
vt 0.125000 0.125000
vt 0.125000 0.125000
vt 0.125000 0.125000
vt 0.125000 0.125000
vt 0.125000 0.125000
vt 0.125000 0.125000
vt 0.125000 0.125000
vt 0.125000 0.125000
vt 0.125000 0.125000
vt 0.125000 0.125000
vt 0.125000 0.125000
vt 0.125000 0.125000
vt 0.125000 0.125000
vt 0.125000 0.125000
vt 0.125000 0.125000
vt 0.125000 0.125000
vt 0.125000 0.125000
vt 0.125000 0.125000
vt 0.125000 0.125000
vt 0.125000 0.125000
vt 0.125000 0.125000
vt 0.125000 0.125000
vt 0.125000 0.125000
vt 0.125000 0.125000
vt 0.125000 0.125000
vt 0.125000 0.125000
vt 0.125000 0.125000
vt 0.125000 0.125000
vt 0.125000 0.125000
vt 0.125000 0.125000
vt 0.125000 0.125000
vt 0.125000 0.125000
vt 0.125000 0.125000
vt 0.125000 0.125000
vt 0.125000 0.125000
vt 0.125000 0.125000
vt 0.125000 0.125000
vt 0.125000 0.125000
vt 0.125000 0.125000
vt 0.125000 0.125000
vt 0.125000 0.125000
vt 0.125000 0.125000
vt 0.125000 0.125000
vt 0.125000 0.125000
vt 0.125000 0.125000
vt 0.125000 0.125000
vt 0.125000 0.125000
vt 0.125000 0.125000
vt 0.125000 0.125000
vt 0.125000 0.125000
vt 0.375000 0.125000
vt 0.375000 0.125000
vt 0.375000 0.125000
vt 0.375000 0.125000
vt 0.375000 0.125000
vt 0.375000 0.125000
vt 0.375000 0.125000
vt 0.375000 0.125000
vt 0.125000 0.125000
vt 0.125000 0.125000
vt 0.125000 0.125000
vt 0.125000 0.125000
vt 0.125000 0.125000
vt 0.375000 0.125000
vt 0.375000 0.125000
vt 0.375000 0.125000
vt 0.375000 0.125000
vt 0.375000 0.125000
vt 0.375000 0.125000
vt 0.375000 0.125000
vt 0.375000 0.125000
vt 0.375000 0.125000
vt 0.375000 0.125000
vt 0.375000 0.125000
vt 0.375000 0.125000
vt 0.375000 0.125000
vt 0.375000 0.125000
vt 0.375000 0.125000
vt 0.375000 0.125000
vt 0.375000 0.125000
vt 0.375000 0.125000
vt 0.125000 0.125000
vt 0.125000 0.125000
vt 0.125000 0.125000
vt 0.125000 0.125000
vt 0.125000 0.125000
vt 0.125000 0.125000
vt 0.375000 0.125000
vt 0.375000 0.125000
vt 0.375000 0.125000
vt 0.375000 0.125000
vt 0.375000 0.125000
vt 0.375000 0.125000
vt 0.125000 0.125000
vt 0.375000 0.125000
vt 0.375000 0.125000
vt 0.375000 0.125000
vt 0.375000 0.125000
vt 0.125000 0.125000
vt 0.125000 0.125000
vt 0.375000 0.125000
vt 0.375000 0.125000
vt 0.125000 0.125000
vt 0.125000 0.125000
vt 0.375000 0.125000
vt 0.375000 0.125000
vt 0.375000 0.125000
vt 0.375000 0.125000
vt 0.125000 0.125000
vt 0.125000 0.125000
vt 0.125000 0.125000
vt 0.125000 0.125000
vt 0.125000 0.125000
vt 0.125000 0.125000
vt 0.375000 0.125000
vt 0.375000 0.125000
vt 0.375000 0.125000
vt 0.375000 0.125000
vt 0.125000 0.125000
vt 0.125000 0.125000
vt 0.125000 0.125000
vt 0.375000 0.125000
vt 0.375000 0.125000
vt 0.375000 0.125000
vt 0.375000 0.125000
vt 0.375000 0.125000
vt 0.375000 0.125000
vt 0.375000 0.125000
vt 0.375000 0.125000
vt 0.375000 0.125000
vt 0.375000 0.125000
vt 0.375000 0.125000
vt 0.375000 0.125000
vt 0.375000 0.125000
vt 0.375000 0.125000
vt 0.375000 0.125000
vt 0.375000 0.125000
vt 0.375000 0.125000
vt 0.375000 0.125000
vt 0.375000 0.125000
vt 0.375000 0.125000
vt 0.375000 0.125000
vt 0.375000 0.125000
vt 0.375000 0.125000
vt 0.375000 0.125000
vt 0.375000 0.125000
vt 0.375000 0.125000
vt 0.375000 0.125000
vt 0.375000 0.125000
vt 0.375000 0.125000
vt 0.375000 0.125000
vt 0.375000 0.125000
vt 0.375000 0.125000
vt 0.375000 0.125000
vt 0.375000 0.125000
vt 0.375000 0.125000
vt 0.375000 0.125000
vt 0.375000 0.125000
vt 0.375000 0.125000
vt 0.375000 0.125000
vt 0.375000 0.125000
vt 0.375000 0.125000
vt 0.375000 0.125000
vt 0.375000 0.125000
vt 0.375000 0.125000
vt 0.375000 0.125000
vt 0.375000 0.125000
vt 0.375000 0.125000
vt 0.375000 0.125000
vt 0.375000 0.125000
vt 0.375000 0.125000
vn 0.8660 0.5000 0.0000
vn 0.5000 0.8660 0.0000
vn -0.5000 0.8660 0.0000
vn -0.8660 0.5000 0.0000
vn 0.9659 0.2588 0.0000
vn 0.0000 1.0000 0.0000
vn -0.9659 0.2588 0.0000
vn -0.0000 0.1252 0.9921
vn 0.6767 0.4172 0.6066
vn 0.0818 0.2611 0.9618
vn 0.9395 0.3346 0.0726
vn 0.6247 0.5125 0.5892
vn 0.0462 0.2730 0.9609
vn 0.8079 0.5196 0.2780
vn 0.4279 0.8075 0.4059
vn 0.3033 0.6625 0.6850
vn 0.0000 0.2913 0.9566
vn -0.0000 0.8849 0.4658
vn 0.0000 0.7184 0.6956
vn -0.0462 0.2730 0.9609
vn -0.4279 0.8075 0.4059
vn -0.3033 0.6625 0.6850
vn 0.9818 0.1901 0.0000
vn 0.8831 0.4691 0.0000
vn -0.0818 0.2611 0.9618
vn -0.8079 0.5196 0.2780
vn -0.6247 0.5125 0.5892
vn -0.9395 0.3347 0.0726
vn -0.6767 0.4172 0.6066
vn -0.8831 0.4691 0.0000
vn -0.9818 0.1901 0.0000
vn 0.9395 0.3346 -0.0726
vn 0.6247 0.5125 -0.5892
vn 0.8080 0.5196 -0.2780
vn 0.6768 0.4171 -0.6066
vn 0.0000 0.1252 -0.9921
vn 0.0818 0.2610 -0.9619
vn 0.0462 0.2730 -0.9609
vn 0.3033 0.6625 -0.6849
vn 0.4279 0.8076 -0.4058
vn 0.0000 0.2913 -0.9566
vn 0.0000 0.7185 -0.6956
vn -0.0000 0.8849 -0.4657
vn -0.0462 0.2730 -0.9609
vn -0.3033 0.6625 -0.6849
vn -0.4279 0.8076 -0.4058
vn -0.0818 0.2610 -0.9619
vn -0.6247 0.5125 -0.5892
vn -0.8080 0.5196 -0.2780
vn -0.6768 0.4171 -0.6066
vn -0.9395 0.3346 -0.0726
vn 0.0000 0.0000 -1.0000
vn 0.0000 0.0000 1.0000
s 1
f 17/1/1 24/2/1 23/3/2 16/4/2
f 14/5/3 21/6/3 20/7/4 13/8/4
f 18/9/5 25/10/5 24/2/1 17/1/1
f 15/11/6 22/12/6 21/6/3 14/5/3
f 16/4/2 23/3/2 22/12/6 15/11/6
f 13/8/4 20/7/4 19/13/7 12/14/7
f 31/15/1 38/16/1 37/17/2 30/18/2
f 28/19/3 35/20/3 34/21/4 27/22/4
f 32/23/5 39/24/5 38/16/1 31/15/1
f 29/25/6 36/26/6 35/20/3 28/19/3
f 30/18/2 37/17/2 36/26/6 29/25/6
f 27/22/4 34/21/4 33/27/7 26/28/7
f 41/29/4 48/30/4 47/31/7 40/32/7
f 45/33/1 52/34/1 51/35/2 44/36/2
f 42/37/3 49/38/3 48/30/4 41/29/4
f 46/39/5 53/40/5 52/34/1 45/33/1
f 43/41/6 50/42/6 49/38/3 42/37/3
f 44/36/2 51/35/2 50/42/6 43/41/6
f 79/43/8 4/44/9 69/45/10
f 11/46/11 68/47/12 4/44/9
f 4/44/9 68/47/12 69/45/10
f 79/43/8 69/45/10 72/48/13
f 68/47/12 10/49/14 9/50/15 71/51/16
f 69/45/10 68/47/12 71/51/16 72/48/13
f 79/43/8 72/48/13 75/52/17
f 71/51/16 9/50/15 8/53/18 74/54/19
f 72/48/13 71/51/16 74/54/19 75/52/17
f 79/43/8 75/52/17 78/55/20
f 74/54/19 8/53/18 7/56/21 77/57/22
f 115/58/6 120/59/6 119/60/3 114/61/3
f 75/52/17 74/54/19 77/57/22 78/55/20
f 53/62/23 60/63/23 122/64/24 117/65/24
f 79/43/8 78/55/20 83/66/25
f 77/57/22 7/56/21 6/67/26 82/68/27
f 78/55/20 77/57/22 82/68/27 83/66/25
f 82/68/27 5/69/28 3/70/29
f 114/61/3 119/60/3 118/71/30 113/72/30
f 83/66/25 82/68/27 3/70/29
f 117/65/24 122/64/24 121/73/2 116/74/2
f 79/43/8 83/66/25 3/70/29
f 116/74/2 121/73/2 120/59/6 115/58/6
f 113/72/30 118/71/30 54/75/31 47/76/31
f 81/77/2 62/78/2 63/79/6 84/80/6
f 85/81/3 65/82/3 66/83/30 86/84/30
f 39/85/23 46/86/23 61/87/24 80/88/24
f 80/88/24 61/87/24 62/78/2 81/77/2
f 60/89/32 92/90/33 59/91/34
f 1/92/35 99/93/36 91/94/37
f 112/95/30 95/96/30 26/97/31 19/98/31
f 86/84/30 66/83/30 40/99/31 33/100/31
f 1/92/35 91/94/37 92/90/33
f 91/94/37 99/93/36 96/101/38
f 109/102/2 89/103/2 90/104/6 110/105/6
f 92/90/33 91/94/37 96/101/38 97/106/39
f 59/91/34 92/90/33 97/106/39 58/107/40
f 110/105/6 90/104/6 94/108/3 111/109/3
f 97/106/39 96/101/38 100/110/41 101/111/42
f 25/112/23 32/113/23 87/114/24 108/115/24
f 58/107/40 97/106/39 101/111/42 57/116/43
f 96/101/38 99/93/36 100/110/41
f 108/115/24 87/114/24 89/103/2 109/102/2
f 101/111/42 100/110/41 103/117/44 104/118/45
f 111/109/3 94/108/3 95/96/30 112/95/30
f 57/116/43 101/111/42 104/118/45 56/119/46
f 100/110/41 99/93/36 103/117/44
f 104/118/45 103/117/44 106/120/47 107/121/48
f 88/122/24 64/123/24 67/124/2 93/125/2
f 56/119/46 104/118/45 107/121/48 55/126/49
f 103/117/44 99/93/36 106/120/47
f 107/121/48 106/120/47 2/127/50
f 107/121/48 54/128/51 55/126/49
f 106/120/47 99/93/36 2/127/50
f 11/129/23 18/130/23 64/123/24 88/122/24
f 105/131/30 76/132/30 12/133/31 5/134/31
f 98/135/6 70/136/6 73/137/3 102/138/3
f 93/125/2 67/124/2 70/136/6 98/135/6
f 84/80/6 63/79/6 65/82/3 85/81/3
f 102/138/3 73/137/3 76/132/30 105/131/30
f 54/75/52 118/71/52 55/139/52
f 55/139/52 118/71/52 119/60/52 56/140/52
f 56/140/52 119/60/52 120/59/52 57/141/52
f 57/141/52 120/59/52 121/73/52 58/142/52
f 58/142/52 121/73/52 122/64/52 59/143/52
f 59/143/52 122/64/52 60/63/52
f 45/144/52 61/87/52 46/86/52
f 31/145/52 87/114/52 32/113/52
f 17/146/52 64/123/52 18/130/52
f 16/147/52 67/124/52 64/123/52 17/146/52
f 15/148/52 70/136/52 67/124/52 16/147/52
f 14/149/52 73/137/52 70/136/52 15/148/52
f 13/150/52 76/132/52 73/137/52 14/149/52
f 12/133/52 76/132/52 13/150/52
f 44/151/52 62/78/52 61/87/52 45/144/52
f 43/152/52 63/79/52 62/78/52 44/151/52
f 42/153/52 65/82/52 63/79/52 43/152/52
f 41/154/52 66/83/52 65/82/52 42/153/52
f 40/99/52 66/83/52 41/154/52
f 30/155/52 89/103/52 87/114/52 31/145/52
f 29/156/52 90/104/52 89/103/52 30/155/52
f 28/157/52 94/108/52 90/104/52 29/156/52
f 27/158/52 95/96/52 94/108/52 28/157/52
f 26/97/52 95/96/52 27/158/52
f 5/134/53 6/159/53 105/131/53
f 19/98/53 20/160/53 112/95/53
f 33/100/53 34/161/53 86/84/53
f 47/76/53 48/162/53 113/72/53
f 48/162/53 49/163/53 114/61/53 113/72/53
f 49/163/53 50/164/53 115/58/53 114/61/53
f 50/164/53 51/165/53 116/74/53 115/58/53
f 51/165/53 52/166/53 117/65/53 116/74/53
f 52/166/53 53/62/53 117/65/53
f 34/161/53 35/167/53 85/81/53 86/84/53
f 35/167/53 36/168/53 84/80/53 85/81/53
f 36/168/53 37/169/53 81/77/53 84/80/53
f 37/169/53 38/170/53 80/88/53 81/77/53
f 38/170/53 39/85/53 80/88/53
f 20/160/53 21/171/53 111/109/53 112/95/53
f 21/171/53 22/172/53 110/105/53 111/109/53
f 22/172/53 23/173/53 109/102/53 110/105/53
f 23/173/53 24/174/53 108/115/53 109/102/53
f 24/174/53 25/112/53 108/115/53
f 6/159/53 7/175/53 102/138/53 105/131/53
f 7/175/53 8/176/53 98/135/53 102/138/53
f 8/176/53 9/177/53 93/125/53 98/135/53
f 9/177/53 10/178/53 88/122/53 93/125/53
f 10/178/53 11/129/53 88/122/53
f 82/68/27 6/67/26 5/69/28
f 11/46/11 10/49/14 68/47/12
f 60/89/32 1/92/35 92/90/33
f 107/121/48 2/127/50 54/128/51
