# Blender v3.0.0 OBJ File: 'City.blend'
# www.blender.org
o bauxite_ore_bauxite_ore_item
v -0.039790 -0.000000 0.004580
v -0.032287 -0.000000 0.070446
v -0.120288 -0.000000 0.039826
v 0.007387 0.016061 0.005195
v -0.083057 0.000000 -0.025374
v -0.002065 0.051765 -0.006557
v -0.037227 0.057626 0.077727
v -0.084261 0.033726 0.068984
v -0.113041 0.038447 0.015303
v -0.077061 0.072411 -0.006888
v -0.042256 0.065136 0.015359
v -0.073475 0.077053 0.045099
v -0.039638 0.000000 -0.127069
v 0.038616 0.000000 -0.080418
v -0.024139 0.000000 -0.027176
v 0.010106 0.047017 -0.117398
v -0.090005 0.000000 -0.059914
v -0.060404 0.050167 -0.091562
v 0.036961 0.058313 -0.068211
v 0.009223 0.037749 -0.007745
v -0.073002 0.000000 -0.025365
v -0.063593 0.072488 -0.048262
v -0.005529 0.092558 -0.076550
v -0.042750 0.066520 -0.021141
v 0.052662 0.000000 -0.103542
v 0.121062 0.000000 -0.034083
v 0.050748 -0.000000 0.032083
v 0.091929 0.057497 -0.074119
v 0.012270 0.000000 -0.013863
v 0.043851 0.055436 -0.076916
v 0.118999 0.061163 -0.021131
v 0.091563 0.041680 0.030271
v 0.027325 0.051629 0.009081
v 0.019323 0.069762 -0.000398
v 0.076865 0.085929 -0.047575
v 0.071359 0.074562 0.010066
v -0.021955 0.059780 -0.016834
v 0.036365 0.109306 0.011886
v 0.001988 0.129471 0.005625
v 0.026777 0.073126 -0.000918
v -0.019610 0.121449 -0.029699
v -0.014178 0.071699 -0.040131
v 0.076332 0.091614 -0.023359
v 0.051791 0.133534 -0.015744
v 0.015781 0.141153 -0.052191
v -0.000430 0.096860 -0.078014
v 0.038894 0.059249 -0.063306
v 0.052466 0.101135 -0.068403
v 0.032145 0.056974 0.106590
v 0.065808 0.073628 0.066297
v 0.010361 0.086130 0.074073
v 0.084488 -0.000000 0.074112
v -0.035603 0.058369 0.086725
v 0.012114 -0.000000 0.124901
v 0.076325 0.047291 0.035063
v 0.023888 0.072674 0.004023
v -0.027536 0.035566 0.041117
v -0.026406 -0.000000 0.064699
v 0.057628 -0.000000 0.070396
v 0.011990 -0.000000 0.006414
v -0.013997 0.120311 0.054478
v 0.021186 0.126474 0.018914
v -0.041257 0.127346 0.012930
v 0.024380 0.087926 0.048335
v -0.063446 0.080129 0.055679
v -0.029938 0.058239 0.070443
v 0.030721 0.079174 0.005257
v -0.027886 0.092827 -0.011336
v -0.073309 0.078501 -0.000884
v -0.053128 0.066542 0.033750
v -0.015202 0.043270 0.032962
v -0.026754 0.060369 -0.011783
vt 0.125000 0.125000
vt 0.125000 0.125000
vt 0.125000 0.125000
vt 0.125000 0.125000
vt 0.125000 0.125000
vt 0.125000 0.125000
vt 0.125000 0.125000
vt 0.125000 0.125000
vt 0.125000 0.125000
vt 0.125000 0.125000
vt 0.125000 0.125000
vt 0.125000 0.125000
vt 0.125000 0.125000
vt 0.125000 0.125000
vt 0.125000 0.125000
vt 0.125000 0.125000
vt 0.125000 0.125000
vt 0.125000 0.125000
vt 0.125000 0.125000
vt 0.125000 0.125000
vt 0.125000 0.125000
vt 0.125000 0.125000
vt 0.125000 0.125000
vt 0.125000 0.125000
vt 0.125000 0.125000
vt 0.125000 0.125000
vt 0.125000 0.125000
vt 0.125000 0.125000
vt 0.125000 0.125000
vt 0.125000 0.125000
vt 0.125000 0.125000
vt 0.125000 0.125000
vt 0.125000 0.125000
vt 0.125000 0.125000
vt 0.125000 0.125000
vt 0.125000 0.125000
vt 0.125000 0.125000
vt 0.125000 0.125000
vt 0.125000 0.125000
vt 0.125000 0.125000
vt 0.125000 0.125000
vt 0.125000 0.125000
vt 0.125000 0.125000
vt 0.125000 0.125000
vt 0.125000 0.125000
vt 0.125000 0.125000
vt 0.125000 0.125000
vt 0.125000 0.125000
vt 0.125000 0.125000
vt 0.125000 0.125000
vt 0.125000 0.125000
vt 0.125000 0.125000
vt 0.125000 0.125000
vt 0.125000 0.125000
vt 0.125000 0.125000
vt 0.125000 0.125000
vt 0.125000 0.125000
vt 0.125000 0.125000
vt 0.125000 0.125000
vt 0.125000 0.125000
vt 0.125000 0.125000
vt 0.125000 0.125000
vt 0.125000 0.125000
vt 0.125000 0.125000
vt 0.125000 0.125000
vt 0.125000 0.125000
vt 0.125000 0.125000
vt 0.125000 0.125000
vt 0.125000 0.125000
vt 0.125000 0.125000
vt 0.125000 0.125000
vt 0.125000 0.125000
vn -0.0000 -1.0000 -0.0000
vn 0.3225 -0.9459 -0.0367
vn 0.4899 -0.5092 -0.7076
vn 0.1093 -0.2846 -0.9524
vn 0.8536 0.0074 0.5208
vn -0.2979 -0.4220 0.8562
vn -0.8585 -0.1509 -0.4902
vn 0.0707 0.2412 -0.9679
vn 0.5374 0.3886 0.7484
vn -0.1148 -0.1342 0.9843
vn -0.7765 0.4364 0.4547
vn -0.7762 0.4370 0.4545
vn -0.7737 0.4422 0.4537
vn -0.6619 0.2364 -0.7113
vn 0.2645 0.9592 -0.1001
vn 0.2648 0.9590 -0.1008
vn 0.2664 0.9583 -0.1035
vn 0.7057 0.7080 0.0283
vn -0.4030 0.5167 0.7554
vn -0.7735 0.4426 0.4536
vn -0.6918 0.7219 -0.0167
vn 0.2667 0.9582 -0.1040
vn 0.4175 0.9056 0.0754
vn 0.4810 -0.3429 -0.8069
vn -0.7965 0.0931 -0.5974
vn -0.2845 0.4726 -0.8341
vn 0.8577 0.1286 -0.4978
vn 0.4657 -0.6941 0.5489
vn -0.8946 0.3670 -0.2550
vn -0.2525 0.5966 -0.7618
vn 0.9147 -0.0578 0.4000
vn 0.0325 -0.4800 0.8767
vn -0.8692 0.2479 0.4278
vn -0.4750 0.7674 -0.4306
vn 0.6063 0.6361 -0.4771
vn 0.3453 0.8288 0.4403
vn -0.2276 0.0417 0.9729
vn -0.7266 0.2909 0.6224
vn -0.1614 0.9305 0.3288
vn 0.4255 0.6748 0.6030
vn 0.7068 -0.1265 -0.6960
vn -0.9105 0.0523 -0.4101
vn 0.0336 0.4370 -0.8988
vn 0.8798 0.1267 -0.4582
vn 0.5774 -0.5387 0.6136
vn -0.7652 -0.0617 0.6408
vn -0.9314 0.1575 -0.3281
vn 0.0129 0.6860 -0.7275
vn 0.8904 -0.0654 0.4505
vn -0.2583 0.2930 0.9206
vn -0.7965 -0.0360 0.6036
vn -0.4830 0.8196 -0.3083
vn 0.6323 0.6806 -0.3701
vn 0.5339 0.6559 0.5336
vn -0.2298 0.4031 0.8858
vn -0.2159 0.3758 0.9012
vn -0.1262 0.9755 0.1803
vn 0.3918 0.8949 0.2139
vn -0.2890 -0.2022 0.9357
vn -0.2315 -0.2695 0.9348
vn -0.8587 0.1357 0.4942
vn -0.9428 -0.0334 -0.3318
vn 0.3485 -0.8765 -0.3321
vn 0.4981 -0.4036 0.7675
vn 0.2530 0.6530 0.7139
vn -0.4495 0.8903 0.0727
vn -0.9338 -0.0271 -0.3569
vn -0.1459 -0.9713 0.1877
vn 0.7021 0.2931 0.6490
vn 0.0056 0.9799 0.1993
vn -0.6442 0.5473 -0.5343
vn -0.4221 -0.6771 -0.6029
vn 0.4431 -0.8530 0.2758
vn 0.7946 0.5216 -0.3107
vn 0.5761 0.6995 -0.4230
vn 0.1215 0.4664 -0.8762
vn 0.1899 -0.1790 -0.9654
vn 0.8068 -0.3217 -0.4955
vn 0.2564 0.7987 0.5444
vn 0.6908 0.2474 0.6794
vn -0.1989 0.6597 0.7248
vn -0.2536 0.3757 0.8914
vn 0.5734 0.0610 0.8170
vn 0.9608 0.2553 0.1083
vn 0.1977 0.9690 -0.1480
vn -0.5492 0.7045 -0.4494
vn -0.7984 -0.3186 0.5109
vn 0.5806 0.7082 -0.4017
vn -0.6820 0.6825 -0.2628
vn -0.9867 -0.1105 -0.1193
vn 0.1073 -0.6220 -0.7757
vn 0.4682 -0.1055 -0.8773
vn -0.6186 0.0756 -0.7820
vn -0.7777 -0.3644 -0.5123
vn 0.6495 -0.6029 -0.4633
vn -0.0024 0.9857 0.1685
vn 0.5530 0.5340 0.6396
vn -0.5477 0.6882 0.4759
vn -0.2172 0.2951 0.9305
vn 0.2919 0.1673 0.9417
vn 0.9800 0.1656 0.1106
vn 0.0849 0.5948 -0.7994
vn -0.8455 0.5173 0.1325
vn -0.5963 -0.7772 0.2010
vn 0.5631 -0.6671 0.4878
vn 0.3266 0.3224 -0.8885
vn -0.3331 0.4525 -0.8272
vn -0.6691 -0.7303 0.1377
vn -0.5162 -0.8458 0.1348
vn 0.6838 -0.6889 0.2406
vn 0.2773 0.0229 -0.9605
vn -0.2259 0.0055 -0.9741
vn -0.3806 -0.9197 -0.0958
vn -0.5167 -0.8357 -0.1860
vn 0.3917 -0.8212 -0.4149
s 1
f 1/1/1 2/2/1 3/3/1
f 2/2/2 1/1/2 4/4/2
f 1/1/1 3/3/1 5/5/1
f 1/1/3 5/5/3 6/6/3
f 1/1/4 6/6/4 4/4/4
f 2/2/5 4/4/5 7/7/5
f 3/3/6 2/2/6 8/8/6
f 5/5/7 3/3/7 9/9/7
f 6/6/8 5/5/8 10/10/8
f 4/4/9 6/6/9 11/11/9
f 2/2/10 7/7/10 8/8/10
f 3/3/11 8/8/12 9/9/13
f 5/5/14 9/9/14 10/10/14
f 6/6/15 10/10/16 11/11/17
f 4/4/18 11/11/18 7/7/18
f 8/8/19 7/7/19 12/12/19
f 9/9/13 8/8/12 12/12/20
f 10/10/21 9/9/21 12/12/21
f 11/11/17 10/10/16 12/12/22
f 7/7/23 11/11/23 12/12/23
f 13/13/1 14/14/1 15/15/1
f 14/14/24 13/13/24 16/16/24
f 13/13/1 15/15/1 17/17/1
f 13/13/25 17/17/25 18/18/25
f 13/13/26 18/18/26 16/16/26
f 14/14/27 16/16/27 19/19/27
f 15/15/28 14/14/28 20/20/28
f 17/17/1 15/15/1 21/21/1
f 18/18/29 17/17/29 22/22/29
f 16/16/30 18/18/30 23/23/30
f 14/14/31 19/19/31 20/20/31
f 15/15/32 20/20/32 21/21/32
f 17/17/33 21/21/33 22/22/33
f 18/18/34 22/22/34 23/23/34
f 16/16/35 23/23/35 19/19/35
f 20/20/36 19/19/36 24/24/36
f 21/21/37 20/20/37 24/24/37
f 22/22/38 21/21/38 24/24/38
f 23/23/39 22/22/39 24/24/39
f 19/19/40 23/23/40 24/24/40
f 25/25/1 26/26/1 27/27/1
f 26/26/41 25/25/41 28/28/41
f 25/25/1 27/27/1 29/29/1
f 25/25/42 29/29/42 30/30/42
f 25/25/43 30/30/43 28/28/43
f 26/26/44 28/28/44 31/31/44
f 27/27/45 26/26/45 32/32/45
f 29/29/46 27/27/46 33/33/46
f 30/30/47 29/29/47 34/34/47
f 28/28/48 30/30/48 35/35/48
f 26/26/49 31/31/49 32/32/49
f 27/27/50 32/32/50 33/33/50
f 29/29/51 33/33/51 34/34/51
f 30/30/52 34/34/52 35/35/52
f 28/28/53 35/35/53 31/31/53
f 32/32/54 31/31/54 36/36/54
f 33/33/55 32/32/55 36/36/55
f 34/34/56 33/33/56 36/36/56
f 35/35/57 34/34/57 36/36/57
f 31/31/58 35/35/58 36/36/58
f 37/37/59 38/38/59 39/39/59
f 38/38/60 37/37/60 40/40/60
f 37/37/61 39/39/61 41/41/61
f 37/37/62 41/41/62 42/42/62
f 37/37/63 42/42/63 40/40/63
f 38/38/64 40/40/64 43/43/64
f 39/39/65 38/38/65 44/44/65
f 41/41/66 39/39/66 45/45/66
f 42/42/67 41/41/67 46/46/67
f 40/40/68 42/42/68 47/47/68
f 38/38/69 43/43/69 44/44/69
f 39/39/70 44/44/70 45/45/70
f 41/41/71 45/45/71 46/46/71
f 42/42/72 46/46/72 47/47/72
f 40/40/73 47/47/73 43/43/73
f 44/44/74 43/43/74 48/48/74
f 45/45/75 44/44/75 48/48/75
f 46/46/76 45/45/76 48/48/76
f 47/47/77 46/46/77 48/48/77
f 43/43/78 47/47/78 48/48/78
f 49/49/79 50/50/79 51/51/79
f 50/50/80 49/49/80 52/52/80
f 49/49/81 51/51/81 53/53/81
f 49/49/82 53/53/82 54/54/82
f 49/49/83 54/54/83 52/52/83
f 50/50/84 52/52/84 55/55/84
f 51/51/85 50/50/85 56/56/85
f 53/53/86 51/51/86 57/57/86
f 54/54/87 53/53/87 58/58/87
f 52/52/1 54/54/1 59/59/1
f 50/50/88 55/55/88 56/56/88
f 51/51/89 56/56/89 57/57/89
f 53/53/90 57/57/90 58/58/90
f 54/54/1 58/58/1 59/59/1
f 52/52/91 59/59/91 55/55/91
f 56/56/92 55/55/92 60/60/92
f 57/57/93 56/56/93 60/60/93
f 58/58/94 57/57/94 60/60/94
f 59/59/1 58/58/1 60/60/1
f 55/55/95 59/59/95 60/60/95
f 61/61/96 62/62/96 63/63/96
f 62/62/97 61/61/97 64/64/97
f 61/61/98 63/63/98 65/65/98
f 61/61/99 65/65/99 66/66/99
f 61/61/100 66/66/100 64/64/100
f 62/62/101 64/64/101 67/67/101
f 63/63/102 62/62/102 68/68/102
f 65/65/103 63/63/103 69/69/103
f 66/66/104 65/65/104 70/70/104
f 64/64/105 66/66/105 71/71/105
f 62/62/106 67/67/106 68/68/106
f 63/63/107 68/68/107 69/69/107
f 65/65/108 69/69/108 70/70/108
f 66/66/109 70/70/109 71/71/109
f 64/64/110 71/71/110 67/67/110
f 68/68/111 67/67/111 72/72/111
f 69/69/112 68/68/112 72/72/112
f 70/70/113 69/69/113 72/72/113
f 71/71/114 70/70/114 72/72/114
f 67/67/115 71/71/115 72/72/115
