# Blender v3.0.0 OBJ File: 'City.blend'
# www.blender.org
o clay_mine
v -0.500000 0.000000 0.000000
v -1.500000 1.000000 -1.000000
v -0.037169 0.000000 -2.613907
v 0.900481 0.000000 -2.601914
v -0.500000 1.000000 -2.000000
v 0.500000 1.000000 -2.000000
v 1.500000 0.000000 -1.000000
v 1.500000 1.000000 -1.000000
v 1.500000 0.000000 -2.000000
v 0.500000 1.000000 -1.000000
v -1.500000 0.000000 0.000000
v -0.500000 1.000000 -1.000000
v 1.500000 1.000000 -0.749626
v 1.500000 0.000000 -0.231552
v 0.864188 0.437124 -0.498922
v 1.136956 0.437124 -0.378825
v 1.500000 0.437124 -0.553685
v -0.500000 1.000000 -0.816025
v 0.500000 1.000000 -0.591866
v -2.500000 0.000000 -2.000000
v -1.500000 1.000000 -0.810944
v 1.500000 1.000000 -1.829292
v 1.500000 1.000000 -1.213203
v -0.300066 1.000000 -2.000000
v 0.440280 1.000000 -2.000000
v 0.500000 1.000000 -2.336258
v 0.989522 1.000000 -2.000000
v 1.757825 1.000000 -1.505552
v -1.790325 1.000000 -0.903896
v 0.674774 1.000000 -2.147944
v 1.111134 1.000000 -0.569098
v 0.767025 1.000000 -0.776852
v 0.244064 1.000000 -0.770842
v -0.038300 1.000000 -0.844221
v -0.347078 1.000000 -0.603556
v -0.010692 1.000000 -1.836042
v 0.314610 1.000000 -1.881635
v 1.117887 0.776750 -0.459805
v 0.849933 0.776750 -0.599996
v 0.500000 0.776750 -0.393520
v 0.258896 0.776750 -0.641339
v 0.088307 0.776750 -0.577966
v -0.256861 0.776750 -0.547151
v -0.500000 0.776750 -0.367485
v -0.500000 1.000000 0.000000
v -1.500000 1.000000 0.000000
v -1.500000 0.776750 -0.463730
v -1.814083 0.776750 -0.630068
v -2.051264 0.776750 -0.999999
v -1.839126 1.000000 -0.999313
v -0.500000 0.776750 -2.556617
v -0.153512 0.776750 -2.206517
v -0.047224 0.776750 -1.997533
v 0.188085 0.776750 -2.002467
v 0.363459 0.776750 -2.221614
v 0.500000 0.776750 -2.513773
v 0.674774 0.776750 -2.294291
v 0.989522 0.776750 -2.189701
v 1.500000 0.776750 -1.999999
v 1.898433 0.776750 -1.505553
v 1.690273 0.776750 -1.213202
v 1.500000 0.776750 -0.620566
v 1.500000 0.776750 -1.000000
v -1.938850 0.138285 -0.402710
v -1.500000 0.437124 -0.380759
v -1.500000 0.138285 -0.191678
v -1.863043 0.437124 -0.525643
v -2.142820 0.437124 -0.996934
v -2.500000 0.000000 -1.000000
v -0.500000 0.437124 -2.640288
v -0.096322 0.437124 -2.252598
v 0.279379 0.437124 -2.278577
v 0.500000 0.437124 -2.604317
v 0.703837 0.437124 -2.360512
v 1.003598 0.437124 -2.236610
v 1.500000 0.437124 -2.000000
v 1.898434 0.437124 -1.505556
v 1.745222 0.437124 -1.197469
v 1.500000 0.437124 -0.999997
v 0.500000 0.437124 -0.338401
v 0.251587 0.437124 -0.578487
v 0.107257 0.437124 -0.514649
v -0.213320 0.437124 -0.486894
v -0.500000 0.437124 -0.235372
v -2.303359 0.138285 -0.987843
v -0.499997 0.138285 -2.798563
v -0.058749 0.138285 -2.366907
v 0.257798 0.138285 -2.395684
v 0.502403 0.138285 -2.760193
v 0.780582 0.138285 -2.472423
v 1.051565 0.138285 -2.357315
v 1.500000 0.138285 -2.208633
v 1.500000 0.138285 -2.000000
v 1.713430 0.138285 -2.000000
v 2.065949 0.138285 -1.549159
v 1.859713 0.138285 -1.189446
v 1.648682 0.138285 -1.000000
v 1.500000 0.138285 -1.000000
v 1.500000 0.138285 -0.417000
v 1.169064 0.138285 -0.237144
v 0.864507 0.138285 -0.412204
v 0.535969 0.138285 -0.210765
v 0.205033 0.138285 -0.455370
v -0.169069 0.138285 -0.409806
v -0.500000 0.138285 -0.090859
v -2.085133 0.000000 -0.258993
v -2.500000 1.000000 -1.000000
v -0.500000 1.000000 -2.288269
v 0.224223 0.000000 -2.633091
v 0.500000 0.000000 -2.999997
v 1.154678 0.000000 -2.503592
v 1.500000 0.000000 -2.412467
v 1.905277 0.000000 -2.000000
v 2.236213 0.000000 -1.565946
v 1.982016 0.000000 -1.153475
v 1.845325 0.000000 -1.000002
v 1.171462 0.000000 -0.068482
v 0.533571 0.000000 -0.085269
v 0.173858 0.000000 -0.301097
v -0.173865 0.000000 -0.173998
v -1.500000 1.000000 -2.000000
v -2.500000 1.000000 -2.000000
v -2.500000 1.000000 -3.000000
v -0.500000 1.000000 -3.000000
v -0.500000 0.000000 -3.000000
v -1.500000 1.000000 -3.000000
v -2.500000 0.000000 -3.000000
v -1.500000 0.000000 -3.000000
v -0.038300 0.776750 -0.844225
vt 0.625000 0.125000
vt 0.625000 0.125000
vt 0.625000 0.125000
vt 0.875000 0.375000
vt 0.875000 0.375000
vt 0.875000 0.375000
vt 0.875000 0.375000
vt 0.625000 0.125000
vt 0.625000 0.125000
vt 0.625000 0.125000
vt 0.625000 0.125000
vt 0.375000 0.375000
vt 0.375000 0.375000
vt 0.375000 0.375000
vt 0.375000 0.375000
vt 0.875000 0.375000
vt 0.875000 0.375000
vt 0.875000 0.375000
vt 0.125000 0.125000
vt 0.125000 0.125000
vt 0.125000 0.125000
vt 0.125000 0.125000
vt 0.125000 0.125000
vt 0.125000 0.125000
vt 0.375000 0.625000
vt 0.375000 0.625000
vt 0.375000 0.625000
vt 0.625000 0.375000
vt 0.625000 0.375000
vt 0.625000 0.375000
vt 0.625000 0.375000
vt 0.375000 0.125000
vt 0.375000 0.125000
vt 0.375000 0.125000
vt 0.375000 0.125000
vt 0.375000 0.875000
vt 0.375000 0.875000
vt 0.375000 0.875000
vt 0.375000 0.875000
vt 0.375000 0.375000
vt 0.375000 0.375000
vt 0.875000 0.625000
vt 0.875000 0.625000
vt 0.875000 0.625000
vt 0.875000 0.625000
vt 0.875000 0.625000
vt 0.875000 0.625000
vt 0.875000 0.625000
vt 0.875000 0.625000
vt 0.375000 0.375000
vt 0.375000 0.375000
vt 0.375000 0.375000
vt 0.375000 0.375000
vt 0.625000 0.125000
vt 0.625000 0.125000
vt 0.625000 0.125000
vt 0.625000 0.125000
vt 0.375000 0.375000
vt 0.375000 0.375000
vt 0.125000 0.125000
vt 0.125000 0.125000
vt 0.125000 0.125000
vt 0.375000 0.375000
vt 0.375000 0.375000
vt 0.375000 0.375000
vt 0.375000 0.375000
vt 0.375000 0.375000
vt 0.375000 0.375000
vt 0.625000 0.375000
vt 0.625000 0.375000
vt 0.625000 0.375000
vt 0.125000 0.375000
vt 0.125000 0.375000
vt 0.125000 0.375000
vt 0.125000 0.375000
vt 0.125000 0.375000
vt 0.125000 0.375000
vt 0.125000 0.375000
vt 0.125000 0.875000
vt 0.125000 0.875000
vt 0.125000 0.875000
vt 0.125000 0.375000
vt 0.125000 0.375000
vt 0.625000 0.625000
vt 0.625000 0.625000
vt 0.625000 0.625000
vt 0.625000 0.625000
vt 0.625000 0.625000
vt 0.625000 0.625000
vt 0.625000 0.125000
vt 0.375000 0.875000
vt 0.375000 0.875000
vt 0.375000 0.875000
vt 0.375000 0.875000
vt 0.375000 0.375000
vt 0.375000 0.375000
vt 0.875000 0.625000
vt 0.875000 0.625000
vt 0.875000 0.625000
vt 0.875000 0.625000
vt 0.875000 0.375000
vt 0.875000 0.375000
vt 0.375000 0.875000
vt 0.375000 0.875000
vt 0.375000 0.875000
vt 0.375000 0.875000
vt 0.625000 0.625000
vt 0.625000 0.625000
vt 0.625000 0.625000
vt 0.625000 0.625000
vt 0.625000 0.625000
vt 0.125000 0.375000
vt 0.125000 0.375000
vt 0.125000 0.125000
vt 0.125000 0.125000
vt 0.125000 0.125000
vt 0.125000 0.125000
vt 0.125000 0.375000
vt 0.125000 0.375000
vt 0.625000 0.375000
vt 0.625000 0.375000
vt 0.625000 0.375000
vt 0.375000 0.375000
vt 0.375000 0.375000
vt 0.375000 0.375000
vt 0.125000 0.125000
vt 0.125000 0.125000
vt 0.125000 0.125000
vt 0.125000 0.125000
vt 0.125000 0.125000
vt 0.125000 0.125000
vt 0.125000 0.125000
vt 0.125000 0.125000
vt 0.375000 0.375000
vt 0.375000 0.375000
vt 0.375000 0.375000
vt 0.375000 0.375000
vt 0.875000 0.625000
vt 0.875000 0.625000
vt 0.875000 0.625000
vt 0.875000 0.625000
vt 0.875000 0.375000
vt 0.875000 0.375000
vt 0.375000 0.625000
vt 0.375000 0.625000
vt 0.375000 0.625000
vt 0.375000 0.875000
vt 0.375000 0.875000
vt 0.375000 0.875000
vt 0.375000 0.875000
vt 0.375000 0.625000
vt 0.375000 0.625000
vt 0.375000 0.625000
vt 0.625000 0.375000
vt 0.625000 0.375000
vt 0.625000 0.375000
vt 0.625000 0.625000
vt 0.625000 0.625000
vt 0.625000 0.625000
vt 0.625000 0.625000
vt 0.125000 0.375000
vt 0.125000 0.375000
vt 0.125000 0.375000
vt 0.125000 0.375000
vt 0.625000 0.375000
vt 0.375000 0.375000
vt 0.375000 0.375000
vt 0.375000 0.375000
vt 0.125000 0.125000
vt 0.375000 0.375000
vt 0.375000 0.375000
vt 0.375000 0.375000
vt 0.375000 0.375000
vt 0.875000 0.625000
vt 0.875000 0.625000
vt 0.875000 0.625000
vt 0.875000 0.375000
vt 0.875000 0.375000
vt 0.375000 0.625000
vt 0.375000 0.625000
vt 0.375000 0.875000
vt 0.375000 0.875000
vt 0.375000 0.875000
vt 0.375000 0.875000
vt 0.375000 0.625000
vt 0.375000 0.625000
vt 0.625000 0.375000
vt 0.625000 0.375000
vt 0.625000 0.625000
vt 0.625000 0.625000
vt 0.625000 0.625000
vt 0.625000 0.625000
vt 0.125000 0.375000
vt 0.125000 0.375000
vt 0.125000 0.375000
vt 0.125000 0.375000
vt 0.375000 0.375000
vt 0.375000 0.375000
vt 0.375000 0.375000
vt 0.125000 0.125000
vt 0.125000 0.125000
vt 0.625000 0.375000
vt 0.875000 0.125000
vt 0.875000 0.125000
vt 0.875000 0.125000
vt 0.875000 0.125000
vt 0.625000 0.125000
vt 0.625000 0.125000
vt 0.625000 0.125000
vt 0.125000 0.625000
vt 0.125000 0.625000
vt 0.125000 0.625000
vt 0.125000 0.625000
vt 0.375000 0.125000
vt 0.375000 0.125000
vt 0.125000 0.625000
vt 0.125000 0.625000
vt 0.375000 0.125000
vt 0.375000 0.125000
vt 0.375000 0.125000
vt 0.375000 0.125000
vt 0.625000 0.375000
vt 0.625000 0.375000
vt 0.875000 0.375000
vt 0.125000 0.375000
vt 0.375000 0.125000
vt 0.375000 0.125000
vt 0.375000 0.125000
vt 0.375000 0.125000
vt 0.375000 0.625000
vt 0.375000 0.625000
vt 0.375000 0.625000
vt 0.375000 0.625000
vt 0.375000 0.625000
vt 0.375000 0.125000
vt 0.375000 0.125000
vt 0.375000 0.125000
vt 0.375000 0.625000
vt 0.375000 0.625000
vt 0.375000 0.625000
vt 0.375000 0.625000
vt 0.375000 0.625000
vt 0.375000 0.375000
vt 0.375000 0.375000
vn 0.0000 1.0000 -0.0000
vn -0.3426 0.8849 0.3156
vn -0.0739 0.9823 0.1722
vn 0.5927 0.2979 0.7483
vn 0.6318 0.2842 0.7212
vn 0.3767 0.2574 0.8899
vn 0.5100 0.2755 0.8149
vn 1.0000 -0.0000 0.0000
vn 0.9479 0.1166 0.2964
vn 0.9620 0.1885 0.1974
vn 0.7761 0.2692 0.5703
vn 0.7854 0.4245 0.4505
vn 0.2277 0.2280 0.9467
vn 0.2287 0.1829 0.9562
vn 0.3629 0.4431 0.8198
vn 0.3866 0.3196 0.8651
vn 0.3838 0.3368 0.8598
vn -0.4493 0.4163 0.7904
vn -0.4417 0.3383 0.8310
vn -0.4375 0.3049 0.8460
vn 0.4165 0.6290 0.6564
vn 0.4463 0.3991 0.8009
vn 0.4434 0.4433 0.7790
vn -0.4895 0.3409 0.8026
vn -0.5843 0.3106 0.7498
vn -0.6617 0.2671 0.7005
vn -0.5743 0.4720 0.6688
vn 0.6378 0.3017 0.7087
vn -0.5264 0.7612 0.3789
vn -1.0000 -0.0000 -0.0000
vn -0.5556 0.5152 0.6526
vn -0.3533 0.5092 0.7848
vn -0.6749 0.6103 0.4148
vn -0.7784 0.4064 0.4784
vn 0.0014 0.0028 1.0000
vn -0.0010 -0.0021 1.0000
vn -0.0031 0.0063 1.0000
vn 0.5479 0.6445 -0.5333
vn 0.6493 0.5405 -0.5351
vn 0.6637 0.3850 -0.6413
vn 0.5533 0.6853 -0.4736
vn -0.3097 0.6242 -0.7173
vn -0.6793 0.5756 -0.4552
vn -0.8178 0.4139 -0.4000
vn 0.5412 0.5130 -0.6662
vn 0.5464 0.2948 -0.7840
vn 0.2838 0.5961 -0.7511
vn -0.8767 0.3956 -0.2738
vn -0.8650 0.2781 -0.4177
vn 0.4652 0.5282 -0.7104
vn 0.5624 0.3558 -0.7464
vn 0.7399 0.2724 -0.6150
vn 0.6866 0.4269 -0.5885
vn 0.3403 0.3703 -0.8643
vn 0.7019 0.4363 -0.5630
vn 0.7640 0.1965 -0.6145
vn 0.7959 0.2750 0.5393
vn 0.6766 0.5014 0.5392
vn 0.3770 0.2301 0.8972
vn 0.3687 0.1759 0.9128
vn -0.6620 0.2158 0.7178
vn -0.6516 0.2370 0.7206
vn 0.4430 0.2710 0.8546
vn 0.4434 0.2651 0.8562
vn -0.4289 0.2547 0.8667
vn -0.4299 0.2636 0.8635
vn 0.4120 0.3102 0.8568
vn 0.4110 0.2969 0.8620
vn 0.6603 0.1652 0.7326
vn 0.7551 0.2049 0.6227
vn 0.8449 0.2371 0.4796
vn 0.7536 0.2620 -0.6029
vn 0.5789 0.2455 -0.7776
vn 0.3596 0.2867 -0.8880
vn 0.5584 0.2858 -0.7787
vn 0.7227 0.2914 -0.6268
vn -0.8186 0.2469 -0.5186
vn -0.8253 0.2386 -0.5118
vn -0.0587 0.2481 -0.9670
vn -0.0585 0.2461 -0.9675
vn -0.0454 0.1516 -0.9874
vn 0.6735 0.2671 -0.6893
vn 0.6699 0.2825 -0.6866
vn -0.8017 0.3415 0.4906
vn -0.6144 0.3727 0.6954
vn -0.3806 0.3797 0.8432
vn 0.5324 0.5486 0.6447
vn 0.3394 0.5265 0.7795
vn 0.1822 0.2619 0.9477
vn -0.3439 0.6210 0.7043
vn -0.4979 0.5463 0.6735
vn 0.4304 0.4934 0.7558
vn -0.0003 0.5980 0.8015
vn -0.0061 0.6439 0.7651
vn 0.3805 0.5544 0.7402
vn 0.0000 -0.0000 1.0000
vn 0.6016 0.4178 0.6808
vn 0.6659 0.5264 0.5287
vn 0.7104 0.5753 0.4055
vn 0.6073 0.6366 -0.4753
vn 0.6433 0.5739 -0.5068
vn 0.0000 0.0000 -1.0000
vn 0.2710 0.6272 -0.7302
vn 0.2850 0.6254 -0.7264
vn 0.4628 0.5930 -0.6589
vn 0.5483 0.6536 -0.5217
vn -0.6524 0.6070 -0.4539
vn -0.5274 0.6496 -0.5477
vn -0.0736 0.3584 -0.9307
vn 0.3919 0.6863 -0.6127
vn 0.5205 0.6470 -0.5573
vn 0.0164 0.0158 0.9997
vn -0.6420 0.6635 0.3843
vn -0.4862 0.6729 0.5575
vn -0.3024 0.6781 0.6699
vn 0.4385 0.6827 0.5845
vn 0.3274 0.7376 0.5905
vn -0.1302 0.7712 0.6232
vn -0.4105 0.6726 0.6157
vn 0.2111 0.8051 0.5543
vn 0.0419 0.8335 0.5509
vn 0.3042 0.7517 0.5851
vn 0.5213 0.6699 0.5286
vn 0.5835 0.6825 0.4402
vn 0.6245 0.6865 0.3724
vn 0.5395 0.7317 -0.4167
vn 0.2017 0.7882 -0.5815
vn 0.1747 0.7970 -0.5782
vn 0.3366 0.7831 -0.5230
vn 0.4460 0.7787 -0.4413
vn -0.5464 0.7418 -0.3887
vn -0.3452 0.8241 -0.4492
vn 0.2176 0.8440 -0.4903
vn 0.4181 0.7820 -0.4622
vn -0.5231 0.7949 0.3074
vn -0.3987 0.8097 0.4307
vn -0.2516 0.7977 0.5481
vn -0.0395 0.0051 0.9992
vn -0.0617 0.0000 0.9981
vn -0.3556 0.6109 -0.7073
vn 0.3275 0.6317 -0.7026
vn 0.1412 0.5404 -0.8295
vn -0.4177 0.2403 0.8762
vn 0.6954 0.2267 0.6819
s 1
f 10/1/1 34/2/1 33/3/1
f 32/4/1 8/5/1 10/6/1
f 32/4/1 31/7/1 8/5/1
f 2/8/1 50/9/1 29/10/2 21/11/3
f 44/12/4 84/13/5 83/14/6 43/15/7
f 13/16/8 62/17/8 63/18/9 8/5/10
f 26/19/1 25/20/1 6/21/1
f 24/22/1 108/23/1 5/24/1
f 23/25/1 28/26/1 22/27/1
f 27/28/1 30/29/1 26/30/1 6/31/1
f 12/32/1 10/33/1 37/34/1 36/35/1
f 8/36/10 63/37/9 61/38/11 23/39/12
f 43/15/7 83/14/6 82/40/13 42/41/14
f 31/42/15 38/43/16 62/44/17 13/45/15
f 32/46/18 39/47/19 38/43/20 31/42/18
f 19/48/21 40/49/22 39/47/23 32/46/21
f 33/50/24 41/51/25 40/52/26 19/53/27
f 42/54/1 41/55/1 129/56/1
f 43/57/1 42/54/1 129/56/1
f 43/15/7 35/58/28 44/12/4
f 35/58/29 18/59/29 44/12/29
f 46/60/30 21/61/30 47/62/30
f 29/63/2 48/64/31 47/65/32 21/66/3
f 50/67/33 49/68/34 48/64/31 29/63/2
f 49/69/35 50/70/36 107/71/37
f 24/72/38 52/73/39 51/74/40 108/75/41
f 54/76/42 25/77/43 55/78/44
f 22/79/45 59/80/46 27/81/47
f 26/82/48 56/83/49 55/78/44 25/77/43
f 30/84/50 57/85/51 56/86/52 26/87/53
f 27/88/47 58/89/54 57/85/51 30/84/50
f 33/3/1 19/90/1 10/1/1
f 28/91/55 60/92/56 59/93/46 22/94/45
f 23/39/12 61/38/11 60/92/57 28/91/58
f 42/41/14 82/40/13 81/95/59 41/51/60
f 81/95/61 80/96/62 40/52/26 41/51/25
f 40/49/22 80/97/63 15/98/64 39/47/23
f 15/98/65 16/99/66 38/43/20 39/47/19
f 38/43/16 16/99/67 17/100/68 62/44/17
f 62/17/8 17/101/8 79/102/8 63/18/9
f 63/37/9 79/103/69 78/104/70 61/38/11
f 61/38/11 78/104/70 77/105/71 60/92/57
f 60/92/56 77/105/72 76/106/73 59/93/46
f 59/107/46 76/108/73 75/109/74 58/89/54
f 58/89/54 75/109/74 74/110/75 57/85/51
f 57/85/51 74/110/75 73/111/76 56/86/52
f 56/83/49 73/112/77 72/113/78 55/78/44
f 52/114/1 53/115/1 54/116/1 55/117/1
f 72/113/79 71/118/80 52/73/81 55/78/81
f 52/73/39 71/118/82 70/119/83 51/74/40
f 20/120/30 69/121/30 107/71/30 122/122/30
f 49/68/34 68/123/84 67/124/85 48/64/31
f 48/64/31 67/124/85 65/125/86 47/65/32
f 47/62/30 65/126/30 46/60/30
f 45/127/8 44/128/8 18/129/8
f 44/128/8 45/127/8 84/130/8
f 65/126/30 66/131/30 46/60/30
f 46/60/30 66/131/30 11/132/30
f 45/127/8 105/133/8 84/130/8
f 84/13/5 105/134/87 104/135/88 83/14/6
f 83/14/6 104/135/88 103/136/89 82/40/13
f 82/40/13 103/136/89 81/95/59
f 81/95/61 103/136/90 102/137/91 80/96/62
f 80/97/63 102/138/92 101/139/93 15/98/64
f 15/98/65 101/139/93 100/140/94 16/99/66
f 16/99/67 100/140/94 99/141/95 17/100/68
f 17/101/8 99/142/8 98/143/8 79/102/8
f 98/144/96 97/145/96 79/146/96
f 79/103/69 97/147/97 96/148/98 78/104/70
f 78/104/70 96/148/98 95/149/99 77/105/71
f 77/105/72 95/149/100 94/150/101 76/106/73
f 94/151/102 93/152/102 76/153/102
f 93/154/8 92/155/8 76/156/8
f 76/108/73 92/157/103 91/158/104 75/109/74
f 75/109/74 91/158/104 90/159/105 74/110/75
f 74/110/75 90/159/105 89/160/106 73/111/76
f 73/112/77 89/161/107 88/162/108 72/113/78
f 72/113/79 88/162/109 87/163/109 71/118/80
f 71/118/82 87/163/110 86/164/111 70/119/83
f 49/69/35 107/71/37 68/165/112
f 68/123/84 85/166/113 64/167/114 67/124/85
f 66/168/115 65/125/86 67/124/85 64/167/114
f 45/127/8 1/169/8 105/133/8
f 104/135/88 105/134/87 1/170/116 120/171/117
f 104/135/88 120/171/117 119/172/118 103/136/90
f 103/136/90 119/172/118 118/173/119 102/137/91
f 102/138/92 118/174/120 101/139/93
f 118/174/120 117/175/121 101/139/93
f 101/139/93 117/175/121 100/140/94
f 100/140/94 117/175/121 14/176/122 99/141/95
f 14/177/8 7/178/8 98/143/8 99/142/8
f 98/144/96 7/179/96 116/180/96 97/145/96
f 97/147/97 116/181/123 115/182/124 96/148/98
f 115/182/124 114/183/125 95/149/99 96/148/98
f 114/183/126 113/184/126 94/150/101 95/149/100
f 93/152/102 94/151/102 113/185/102 9/186/102
f 9/187/8 112/188/8 92/155/8 93/154/8
f 111/189/127 91/158/104 92/157/103 112/190/128
f 91/158/104 111/189/127 4/191/129 90/159/105
f 90/159/105 4/191/129 110/192/130 89/160/106
f 89/161/107 110/193/131 109/194/132 88/162/108
f 109/194/132 3/195/133 87/163/110 88/162/108
f 3/195/133 125/196/134 86/164/111 87/163/110
f 85/166/113 69/197/135 106/198/136 64/167/114
f 11/199/137 66/168/115 64/167/114 106/198/136
f 1/169/96 45/127/96 46/60/96 11/132/96
f 45/127/1 18/129/1 21/61/3 46/60/1
f 18/129/1 12/200/1 2/201/1 21/61/3
f 85/202/138 107/71/37 69/121/139
f 107/71/37 85/202/138 68/165/112
f 5/203/1 121/204/1 2/205/1 12/206/1
f 10/1/1 12/207/1 34/2/1
f 12/207/1 18/208/1 34/2/1
f 18/208/1 35/209/1 34/2/1
f 23/210/1 6/211/1 10/212/1 8/213/1
f 13/16/1 8/5/1 31/7/1
f 25/214/43 54/215/42 37/34/140
f 23/210/1 22/216/1 27/217/1
f 10/33/1 6/218/1 37/34/1
f 6/218/1 25/214/1 37/34/1
f 5/219/1 12/32/1 24/220/1
f 36/35/1 24/220/1 12/32/1
f 37/34/140 54/215/42 53/221/141 36/35/142
f 122/122/1 107/71/1 50/70/1 121/222/1
f 50/70/1 2/223/1 121/222/1
f 6/211/1 23/210/1 27/217/1
f 32/4/1 10/6/1 19/224/1
f 36/35/142 53/221/141 24/220/38
f 52/73/39 24/72/38 53/225/141
f 123/226/1 122/227/1 121/228/1 126/229/1
f 5/230/1 108/231/1 124/232/1 126/233/1 121/234/1
f 123/226/102 126/229/102 128/235/102 127/236/102
f 122/227/30 123/226/30 127/236/30 20/237/30
f 126/233/102 124/232/102 125/238/102 128/239/102
f 125/238/8 124/232/8 86/240/8
f 86/240/8 124/232/8 70/241/8
f 70/241/8 124/232/8 51/242/8
f 124/232/8 108/231/8 51/242/8
f 34/243/143 129/244/143 41/51/25 33/50/24
f 34/243/144 35/58/28 43/15/7 129/244/144
f 58/89/54 27/88/47 59/107/46
