# Blender v3.0.0 OBJ File: 'City.blend'
# www.blender.org
o clay_mine_anim_1
v -0.450000 -0.480000 -1.100012
v 0.450000 -0.480000 -1.100012
v 0.450000 -0.480000 -0.850012
v -0.450000 -0.480000 -0.850012
v 0.450000 -0.380000 -0.700012
v -0.450000 -0.380000 -0.700012
v 0.450000 0.030000 -0.700012
v -0.450000 0.030000 -0.700012
v 0.450000 0.030000 -0.800012
v -0.450000 0.030000 -0.800012
v 0.450000 -0.000000 -0.830012
v -0.450000 -0.000000 -0.830012
v 0.450000 -0.370000 -1.100012
v -0.450000 -0.370000 -1.100012
v -0.410000 0.030000 -0.740012
v -0.410000 0.030000 -0.800012
v -0.410000 -0.000000 -0.830012
v -0.410000 -0.370000 -1.100012
v 0.410000 0.030000 -0.740012
v 0.410000 0.030000 -0.800012
v 0.410000 -0.000000 -0.830012
v 0.410000 -0.370000 -1.100012
v -0.410000 -0.280000 -0.740012
v 0.410000 -0.280000 -0.740012
v -0.410000 -0.380000 -0.800012
v 0.410000 -0.380000 -0.800012
v -0.410000 -0.460000 -0.890012
v 0.410000 -0.460000 -0.890012
v -0.410000 -0.460000 -1.100012
v 0.410000 -0.460000 -1.100012
v 0.200000 -0.150000 -0.560012
v 0.200000 -0.150000 -0.710012
v 0.200000 -0.190000 -0.710012
v 0.200000 -0.190000 -0.560012
v 0.160000 -0.150000 -0.560012
v 0.160000 -0.150000 -0.710012
v 0.160000 -0.190000 -0.710012
v 0.160000 -0.190000 -0.560012
v -0.160000 -0.150000 -0.560012
v -0.160000 -0.150000 -0.710012
v -0.160000 -0.190000 -0.710012
v -0.160000 -0.190000 -0.560012
v -0.200000 -0.150000 -0.560012
v -0.200000 -0.150000 -0.710012
v -0.200000 -0.190000 -0.710012
v -0.200000 -0.190000 -0.560012
vt 0.125000 0.125000
vt 0.125000 0.125000
vt 0.125000 0.125000
vt 0.125000 0.125000
vt 0.125000 0.125000
vt 0.125000 0.125000
vt 0.125000 0.125000
vt 0.125000 0.125000
vt 0.125000 0.125000
vt 0.125000 0.125000
vt 0.125000 0.125000
vt 0.125000 0.125000
vt 0.125000 0.125000
vt 0.125000 0.125000
vt 0.125000 0.125000
vt 0.125000 0.125000
vt 0.125000 0.125000
vt 0.125000 0.125000
vt 0.125000 0.125000
vt 0.125000 0.125000
vt 0.125000 0.125000
vt 0.125000 0.125000
vt 0.125000 0.125000
vt 0.625000 0.125000
vt 0.625000 0.125000
vt 0.625000 0.125000
vt 0.625000 0.125000
vt 0.625000 0.125000
vt 0.625000 0.125000
vt 0.625000 0.125000
vt 0.625000 0.125000
vt 0.625000 0.125000
vt 0.625000 0.125000
vt 0.125000 0.125000
vt 0.625000 0.125000
vt 0.625000 0.125000
vt 0.625000 0.125000
vt 0.625000 0.125000
vt 0.625000 0.125000
vt 0.625000 0.125000
vt 0.375000 0.125000
vt 0.375000 0.125000
vt 0.375000 0.125000
vt 0.375000 0.125000
vt 0.375000 0.125000
vt 0.375000 0.125000
vt 0.375000 0.125000
vt 0.375000 0.125000
vt 0.375000 0.125000
vt 0.375000 0.125000
vt 0.375000 0.125000
vt 0.375000 0.125000
vt 0.375000 0.125000
vt 0.375000 0.125000
vt 0.375000 0.125000
vt 0.375000 0.125000
vn 0.0000 -0.8321 0.5547
vn 0.0000 0.0000 -1.0000
vn 0.0000 0.3100 -0.9507
vn 0.0000 0.6502 -0.7597
vn 0.0000 0.9239 -0.3827
vn 0.0000 1.0000 0.0000
vn 1.0000 -0.0000 0.0000
vn 0.0000 0.0000 1.0000
vn 0.0000 0.2669 -0.9637
vn 0.0000 0.6383 -0.7698
vn 0.0000 0.9347 -0.3554
vn -1.0000 0.0000 0.0000
vn 0.0000 -1.0000 0.0000
s 1
f 3/1/1 5/2/1 6/3/1 4/4/1
f 29/5/2 1/6/2 14/7/3 18/8/3
f 12/9/4 17/10/4 18/8/3 14/7/3
f 10/11/5 16/12/5 17/10/4 12/9/4
f 8/13/6 15/14/6 16/12/5 10/11/5
f 2/15/7 13/16/7 5/2/7 3/1/7
f 13/16/3 22/17/3 21/18/4 11/19/4
f 11/19/4 21/18/4 20/20/5 9/21/5
f 9/21/5 20/20/5 19/22/6 7/23/6
f 15/14/6 8/13/6 7/23/6 19/22/6
f 5/2/8 7/23/8 8/13/8 6/3/8
f 19/24/2 24/25/9 23/26/9 15/27/2
f 24/25/9 26/28/10 25/29/10 23/26/9
f 26/28/10 28/30/11 27/31/11 25/29/10
f 28/30/11 30/32/6 29/33/6 27/31/11
f 29/5/2 30/34/2 2/15/2 1/6/2
f 22/17/3 13/16/3 2/15/2 30/34/2
f 28/30/12 26/28/12 22/35/12 30/32/12
f 29/33/7 18/36/7 25/29/7 27/31/7
f 19/24/12 22/35/12 26/28/12 24/25/12
f 20/37/12 21/38/12 22/35/12 19/24/12
f 15/27/7 18/36/7 17/39/7 16/40/7
f 23/26/7 25/29/7 18/36/7 15/27/7
f 1/6/13 2/15/13 3/1/13 4/4/13
f 9/21/7 7/23/7 13/16/7 11/19/7
f 5/2/7 13/16/7 7/23/7
f 1/6/12 4/4/12 6/3/12 14/7/12
f 8/13/12 10/11/12 12/9/12 14/7/12
f 8/13/12 14/7/12 6/3/12
f 33/41/13 34/42/13 38/43/13 37/44/13
f 31/45/6 32/46/6 36/47/6 35/48/6
f 31/45/2 34/42/2 38/43/2 35/48/2
f 32/46/2 33/41/2 37/44/2 36/47/2
f 41/49/13 42/50/13 46/51/13 45/52/13
f 39/53/6 40/54/6 44/55/6 43/56/6
f 39/53/2 42/50/2 46/51/2 43/56/2
f 40/54/2 41/49/2 45/52/2 44/55/2
f 31/45/7 34/42/7 33/41/7 32/46/7
f 35/48/12 36/47/12 37/44/12 38/43/12
f 40/54/7 39/53/7 42/50/7 41/49/7
f 43/56/12 44/55/12 45/52/12 46/51/12
