# Blender v3.0.0 OBJ File: 'City.blend'
# www.blender.org
o clay_mine_heap
v -0.557148 0.000000 1.142082
v 0.000622 0.000000 1.380534
v 0.490535 0.000000 1.197452
v 0.937784 0.000000 0.809283
v 0.973159 0.000000 0.058597
v 0.896266 0.000000 -0.603833
v 0.510692 0.000000 -1.140645
v -0.045236 0.000000 -1.424977
v -0.407888 0.000000 -1.184737
v -0.847946 0.000000 -0.602454
v -1.000000 0.000000 0.000001
v -0.922447 0.000000 0.719933
v -0.634499 0.163693 -0.537021
v -0.666045 0.183808 -0.019474
v -0.586815 0.204548 0.451679
v -0.261575 0.130264 0.917568
v -0.026841 0.175174 0.991925
v 0.363574 0.202730 0.904446
v 0.588042 0.123013 0.538449
v 0.669463 0.216518 -0.438976
v 0.351412 0.120910 -0.710750
v -0.000000 0.176232 -0.933338
v -0.389755 0.153662 -0.788357
v 0.621430 0.203943 -0.024979
v 0.288675 0.342898 0.233326
v 0.276912 0.320329 0.019932
v 0.231527 0.330360 -0.303684
v 0.167289 0.350474 -0.423618
v -0.009465 0.371215 -0.481655
v -0.406342 0.341841 -0.157920
v -0.372053 0.369397 0.081020
v -0.350308 0.289679 0.286610
v -0.211903 0.370610 0.379162
v -0.017215 0.383184 0.527998
v 0.203247 0.287577 0.483181
v -0.210963 0.296930 -0.284773
v 0.086171 0.457680 0.048642
v 0.012051 0.472869 0.027725
v 0.079957 0.457680 -0.082060
v 0.008150 0.457680 -0.104961
v -0.173351 0.457680 -0.007370
v -0.062499 0.457680 0.143081
v 0.056509 0.457680 0.140426
vt 0.125000 0.125000
vt 0.125000 0.125000
vt 0.125000 0.125000
vt 0.125000 0.125000
vt 0.125000 0.125000
vt 0.125000 0.125000
vt 0.125000 0.125000
vt 0.125000 0.125000
vt 0.125000 0.125000
vt 0.125000 0.125000
vt 0.125000 0.125000
vt 0.125000 0.125000
vt 0.125000 0.125000
vt 0.125000 0.125000
vt 0.125000 0.125000
vt 0.125000 0.125000
vt 0.125000 0.125000
vt 0.125000 0.125000
vt 0.125000 0.125000
vt 0.125000 0.125000
vt 0.125000 0.125000
vt 0.125000 0.125000
vt 0.125000 0.125000
vt 0.125000 0.125000
vt 0.125000 0.125000
vt 0.125000 0.125000
vt 0.125000 0.125000
vt 0.125000 0.125000
vt 0.125000 0.125000
vt 0.125000 0.125000
vt 0.125000 0.125000
vt 0.125000 0.125000
vt 0.125000 0.125000
vt 0.125000 0.125000
vt 0.125000 0.125000
vt 0.125000 0.125000
vt 0.125000 0.125000
vt 0.125000 0.125000
vt 0.125000 0.125000
vt 0.125000 0.125000
vt 0.125000 0.125000
vt 0.125000 0.125000
vt 0.125000 0.125000
vn 0.3714 0.9142 0.1621
vn 0.3835 0.9140 0.1326
vn 0.2497 0.9220 0.2958
vn 0.2300 0.9056 0.3562
vn 0.4762 0.8783 0.0420
vn 0.4281 0.9027 0.0421
vn 0.4149 0.8870 -0.2025
vn 0.3885 0.9066 -0.1644
vn 0.2322 0.9253 -0.2998
vn 0.2628 0.8983 -0.3522
vn 0.0014 0.9507 -0.3101
vn 0.0159 0.9460 -0.3237
vn -0.2597 0.9041 -0.3392
vn -0.2966 0.8998 -0.3199
vn -0.4847 0.8462 -0.2213
vn -0.3884 0.8909 -0.2355
vn -0.5061 0.8622 -0.0205
vn -0.5054 0.8628 -0.0030
vn -0.3608 0.9130 0.1903
vn -0.3923 0.9018 0.1814
vn -0.2388 0.9175 0.3178
vn -0.2635 0.9039 0.3370
vn -0.0307 0.9055 0.4233
vn -0.0606 0.9207 0.3854
vn -0.0551 0.9506 -0.3053
vn 0.2849 0.9019 -0.3247
vn 0.3909 0.9073 -0.1549
vn 0.4725 0.8812 -0.0103
vn 0.4182 0.8999 0.1232
vn 0.3219 0.9201 0.2228
vn 0.0022 0.9520 0.3061
vn -0.3325 0.9211 0.2024
vn -0.3987 0.8956 0.1971
vn -0.4200 0.8988 0.1251
vn -0.3661 0.9094 -0.1973
vn -0.2608 0.9120 -0.3166
vn 0.1660 0.9647 0.2046
vn -0.1810 0.9672 0.1781
vn 0.3726 0.9272 0.0362
vn -0.2468 0.9657 -0.0804
vn -0.0556 0.9695 -0.2387
vn 0.3341 0.9354 -0.1155
vn 0.0420 0.9991 0.0051
s 1
f 4/1/1 19/2/2 18/3/3 3/4/4
f 5/5/5 24/6/6 19/2/2 4/1/1
f 6/7/7 20/8/8 24/6/6 5/5/5
f 7/9/9 21/10/10 20/8/8 6/7/7
f 8/11/11 22/12/12 21/10/10 7/9/9
f 9/13/13 23/14/14 22/12/12 8/11/11
f 10/15/15 13/16/16 23/14/14 9/13/13
f 11/17/17 14/18/18 13/16/16 10/15/15
f 12/19/19 15/20/20 14/18/18 11/17/17
f 1/21/21 16/22/22 15/20/20 12/19/19
f 2/23/23 17/24/24 16/22/22 1/21/21
f 3/4/4 18/3/3 17/24/24 2/23/23
f 21/10/10 22/12/12 29/25/25 28/26/26
f 20/8/8 21/10/10 28/26/26 27/27/27
f 24/6/6 20/8/8 27/27/27 26/28/28
f 19/2/2 24/6/6 26/28/28 25/29/29
f 18/3/3 19/2/2 25/29/29 35/30/30
f 17/24/24 18/3/3 35/30/30 34/31/31
f 16/22/22 17/24/24 34/31/31 33/32/32
f 15/20/20 16/22/22 33/32/32 32/33/33
f 14/18/18 15/20/20 32/33/33 31/34/34
f 13/16/16 14/18/18 31/34/34 30/35/35
f 23/14/14 13/16/16 30/35/35 36/36/36
f 22/12/12 23/14/14 36/36/36 29/25/25
f 33/32/32 34/31/31 43/37/37 42/38/38
f 25/29/29 26/28/28 37/39/39
f 36/36/36 30/35/35 41/40/40 40/41/41
f 28/26/26 29/25/25 40/41/41 39/42/42
f 32/33/33 33/32/32 42/38/38
f 35/30/30 25/29/29 37/39/39 43/37/37
f 27/27/27 28/26/26 39/42/42
f 31/34/34 32/33/33 42/38/38 41/40/40
f 34/31/31 35/30/30 43/37/37
f 26/28/28 27/27/27 39/42/42 37/39/39
f 30/35/35 31/34/34 41/40/40
f 29/25/25 36/36/36 40/41/41
f 40/41/41 41/40/40 38/43/43
f 41/40/40 42/38/38 38/43/43
f 43/37/37 37/39/39 38/43/43
f 37/39/39 39/42/42 38/43/43
f 39/42/42 40/41/41 38/43/43
f 42/38/38 43/37/37 38/43/43
