# Blender v3.0.0 OBJ File: 'City.blend'
# www.blender.org
o m_oil_well_1_Plane.002
v 0.035356 0.050000 -0.035358
v 0.050000 0.050000 -0.000003
v 0.035356 0.050000 0.035352
v 0.000000 0.050000 0.049997
v -0.035355 0.050000 0.035352
v -0.050000 0.050000 -0.000003
v -0.035355 0.050000 -0.035358
v 0.000000 0.050000 -0.050003
v 0.035356 5.260000 -0.035358
v 0.050000 5.260000 -0.000003
v 0.035356 5.260000 0.035352
v 0.000000 5.260000 0.049997
v -0.035355 5.260000 0.035352
v -0.050000 5.260000 -0.000003
v -0.035355 5.260000 -0.035358
v 0.000000 5.260000 -0.050003
vt 0.125000 0.125000
vt 0.125000 0.125000
vt 0.125000 0.125000
vt 0.125000 0.125000
vt 0.125000 0.125000
vt 0.125000 0.125000
vt 0.125000 0.125000
vt 0.125000 0.125000
vt 0.125000 0.125000
vt 0.125000 0.125000
vt 0.125000 0.125000
vt 0.125000 0.125000
vt 0.125000 0.125000
vt 0.125000 0.125000
vt 0.125000 0.125000
vt 0.125000 0.125000
vn 0.0000 0.0000 1.0000
vn -0.7071 0.0000 0.7071
vn -1.0000 0.0000 0.0000
vn 0.7071 0.0000 -0.7071
vn 1.0000 0.0000 0.0000
vn -0.7071 0.0000 -0.7071
vn 0.0000 0.0000 -1.0000
vn 0.7071 0.0000 0.7071
s 1
f 4/1/1 12/2/1 13/3/2 5/4/2
f 5/4/2 13/3/2 14/5/3 6/6/3
f 1/7/4 9/8/4 10/9/5 2/10/5
f 7/11/6 15/12/6 16/13/7 8/14/7
f 6/6/3 14/5/3 15/12/6 7/11/6
f 2/10/5 10/9/5 11/15/8 3/16/8
f 8/14/7 16/13/7 9/8/4 1/7/4
f 3/16/8 11/15/8 12/2/1 4/1/1
