# Blender v3.0.0 OBJ File: 'City.blend'
# www.blender.org
o copper_big_heap
v -1.200000 0.720680 -0.650000
v 1.055691 0.200000 -0.509873
v -1.200000 0.749280 0.650000
v 1.139348 0.200000 0.216667
v -1.200000 0.853444 0.216667
v 0.969942 0.200000 0.650000
v 0.800000 0.200000 -0.650000
v 0.400000 0.354991 -0.650000
v 0.000000 0.591098 -0.650000
v -0.400000 0.669093 -0.650000
v -0.800000 0.744218 -0.650000
v -1.200000 0.903523 -0.216667
v 1.200000 0.200000 -0.216667
v 0.800000 0.354991 -0.216667
v 0.400000 0.545773 -0.216667
v 0.000000 0.683654 -0.216667
v -0.400000 0.704157 -0.216667
v -0.800000 0.866856 -0.216667
v 0.800000 0.354991 0.216667
v 0.400000 0.657643 0.216667
v 0.000000 0.791290 0.216667
v -0.400000 0.862334 0.216667
v -0.800000 0.928741 0.216667
v 0.800000 0.354991 0.650000
v 0.400000 0.526601 0.650000
v 0.000000 0.667949 0.650000
v -0.400000 0.811970 0.650000
v -0.800000 0.828063 0.650000
vt 0.125000 0.125000
vt 0.125000 0.125000
vt 0.125000 0.125000
vt 0.125000 0.125000
vt 0.125000 0.125000
vt 0.125000 0.125000
vt 0.125000 0.125000
vt 0.125000 0.125000
vt 0.125000 0.125000
vt 0.125000 0.125000
vt 0.125000 0.125000
vt 0.125000 0.125000
vt 0.125000 0.125000
vt 0.125000 0.125000
vt 0.125000 0.125000
vt 0.125000 0.125000
vt 0.125000 0.125000
vt 0.125000 0.125000
vt 0.125000 0.125000
vt 0.125000 0.125000
vt 0.125000 0.125000
vt 0.125000 0.125000
vt 0.125000 0.125000
vt 0.125000 0.125000
vt 0.125000 0.125000
vt 0.125000 0.125000
vt 0.125000 0.125000
vt 0.125000 0.125000
vn 0.2739 0.9361 -0.2206
vn 0.2007 0.9667 -0.1586
vn 0.1941 0.9578 -0.2119
vn 0.2387 0.9409 -0.2400
vn 0.2733 0.9282 -0.2523
vn 0.3306 0.8930 -0.3052
vn 0.3962 0.9014 -0.1746
vn 0.3402 0.9352 -0.0978
vn 0.3876 0.8654 -0.3175
vn 0.4103 0.8798 -0.2402
vn 0.1513 0.9552 -0.2543
vn 0.1298 0.9724 -0.1939
vn 0.0155 0.9430 -0.3324
vn -0.0168 0.9846 -0.1741
vn 0.4161 0.9092 0.0142
vn 0.4859 0.8732 0.0372
vn 0.1894 0.9810 -0.0426
vn 0.2536 0.9671 -0.0190
vn 0.0357 0.9987 0.0368
vn 0.4430 0.8946 0.0584
vn -0.1187 0.9868 0.1097
vn 0.1796 0.9669 0.1811
vn 0.2861 0.9298 0.2313
vn 0.4190 0.8868 0.1950
vn 0.5115 0.8515 0.1151
vn -0.0436 0.9786 0.2009
vn 0.5172 0.8498 0.1011
vn -0.1842 0.9565 0.2261
s 1
f 9/1/1 10/2/2 17/3/3 16/4/4
f 2/5/5 7/6/6 14/7/7 13/8/8
f 8/9/9 9/1/1 16/4/4 15/10/10
f 10/2/2 11/11/11 18/12/12 17/3/3
f 7/6/6 8/9/9 15/10/10 14/7/7
f 11/11/11 1/13/13 12/14/14 18/12/12
f 14/7/7 15/10/10 20/15/15 19/16/16
f 16/4/4 17/3/3 22/17/17 21/18/18
f 17/3/3 18/12/12 23/19/19 22/17/17
f 13/8/8 14/7/7 19/16/16 4/20/20
f 15/10/10 16/4/4 21/18/18 20/15/15
f 18/12/12 12/14/14 5/21/21 23/19/19
f 21/18/18 22/17/17 27/22/22 26/23/23
f 19/16/16 20/15/15 25/24/24 24/25/25
f 22/17/17 23/19/19 28/26/26 27/22/22
f 20/15/15 21/18/18 26/23/23 25/24/24
f 4/20/20 19/16/16 24/25/25 6/27/27
f 23/19/19 5/21/21 3/28/28 28/26/26
