# Blender v3.0.0 OBJ File: 'City.blend'
# www.blender.org
o cast_iron_cast_iron_item
v 0.094277 0.061711 0.031745
v 0.080167 0.070827 0.028754
v 0.083514 0.061536 0.042453
v 0.094277 0.061711 -0.031745
v 0.083514 0.061536 -0.042453
v 0.080167 0.070827 -0.028754
v -0.094277 0.061711 -0.031745
v -0.080167 0.070827 -0.028754
v -0.083514 0.061536 -0.042453
v -0.094277 0.061711 0.031745
v -0.083514 0.061536 0.042453
v -0.080167 0.070827 0.028754
v -0.104550 0.015000 0.061031
v -0.115392 0.015000 0.050393
v -0.115392 0.015000 -0.050393
v -0.104550 0.015000 -0.061031
v 0.104550 0.015000 -0.061031
v 0.115392 0.015000 -0.050393
v 0.115392 0.015000 0.050393
v 0.104550 0.015000 0.061031
v -0.104550 0.000000 0.061031
v -0.115392 0.000000 0.050393
v -0.115392 -0.000000 -0.050393
v -0.104550 -0.000000 -0.061031
v 0.104550 -0.000000 -0.061031
v 0.115392 -0.000000 -0.050393
v 0.115392 0.000000 0.050393
v 0.104550 0.000000 0.061031
vt 0.125000 0.125000
vt 0.125000 0.125000
vt 0.125000 0.125000
vt 0.125000 0.125000
vt 0.125000 0.125000
vt 0.125000 0.125000
vt 0.125000 0.125000
vt 0.125000 0.125000
vt 0.125000 0.125000
vt 0.125000 0.125000
vt 0.125000 0.125000
vt 0.125000 0.125000
vt 0.125000 0.125000
vt 0.125000 0.125000
vt 0.125000 0.125000
vt 0.125000 0.125000
vt 0.125000 0.125000
vt 0.125000 0.125000
vt 0.125000 0.125000
vt 0.125000 0.125000
vt 0.125000 0.125000
vt 0.125000 0.125000
vt 0.125000 0.125000
vt 0.125000 0.125000
vt 0.125000 0.125000
vt 0.125000 0.125000
vt 0.125000 0.125000
vt 0.125000 0.125000
vn 0.2521 0.6396 0.7262
vn -0.2521 0.6396 0.7262
vn -0.3864 0.2364 0.8915
vn 0.3864 0.2364 0.8915
vn -0.7063 0.6579 0.2616
vn -0.7063 0.6579 -0.2616
vn -0.8883 0.2443 -0.3888
vn -0.8883 0.2443 0.3888
vn -0.2521 0.6396 -0.7262
vn 0.2521 0.6396 -0.7262
vn 0.3864 0.2364 -0.8915
vn -0.3864 0.2364 -0.8915
vn 0.2396 0.9381 0.2503
vn 0.2396 0.9381 -0.2503
vn -0.2396 0.9381 -0.2503
vn -0.2396 0.9381 0.2503
vn 0.7063 0.6579 0.2616
vn 0.7063 0.6579 -0.2616
vn 0.8883 0.2443 -0.3888
vn 0.8883 0.2443 0.3888
vn -0.3783 -0.0000 0.9257
vn 0.3783 -0.0000 0.9257
vn -0.9221 -0.0000 0.3871
vn 0.3783 0.0000 -0.9257
vn -0.3783 0.0000 -0.9257
vn 0.9221 -0.0000 0.3871
vn 0.9221 0.0000 -0.3871
vn -0.9221 0.0000 -0.3871
vn 0.0000 -1.0000 0.0000
s 1
f 3/1/1 11/2/2 13/3/3 20/4/4
f 10/5/5 7/6/6 15/7/7 14/8/8
f 9/9/9 5/10/10 17/11/11 16/12/12
f 2/13/13 6/14/14 8/15/15 12/16/16
f 1/17/17 2/13/13 3/1/1
f 4/18/18 5/10/10 6/14/14
f 7/6/6 8/15/15 9/9/9
f 10/5/5 11/2/2 12/16/16
f 7/6/6 10/5/5 12/16/16 8/15/15
f 1/17/17 4/18/18 6/14/14 2/13/13
f 5/10/10 9/9/9 8/15/15 6/14/14
f 2/13/13 12/16/16 11/2/2 3/1/1
f 13/3/3 11/2/2 10/5/5 14/8/8
f 9/9/9 16/12/12 15/7/7 7/6/6
f 17/11/11 5/10/10 4/18/18 18/19/19
f 3/1/1 20/4/4 19/20/20 1/17/17
f 4/18/18 1/17/17 19/20/20 18/19/19
f 20/4/4 13/3/3 21/21/21 28/22/22
f 13/3/3 14/8/8 22/23/23 21/21/21
f 16/12/12 17/11/11 25/24/24 24/25/25
f 18/19/19 19/20/20 27/26/26 26/27/27
f 19/20/20 20/4/4 28/22/22 27/26/26
f 17/11/11 18/19/19 26/27/27 25/24/24
f 14/8/8 15/7/7 23/28/28 22/23/23
f 15/7/7 16/12/12 24/25/25 23/28/28
f 22/23/29 27/26/29 28/22/29 21/21/29
f 27/26/29 22/23/29 23/28/29 26/27/29
f 24/25/29 25/24/29 26/27/29 23/28/29
