# Blender v3.0.0 OBJ File: 'City.blend'
# www.blender.org
o dural_plate_dural_plate_item
v -0.130305 0.030773 0.091681
v -0.110305 0.030773 0.111681
v -0.110305 0.030773 -0.111680
v -0.130305 0.030773 -0.091680
v -0.130305 0.000000 -0.091680
v -0.110305 0.000000 -0.111680
v -0.110305 -0.000000 0.111681
v -0.130305 -0.000000 0.091681
v 0.130305 0.030773 -0.091680
v 0.110305 0.030773 -0.111680
v 0.110305 0.000000 -0.111680
v 0.130305 0.000000 -0.091680
v 0.110305 0.030773 0.111681
v 0.130305 0.030773 0.091681
v 0.130305 -0.000000 0.091681
v 0.110305 -0.000000 0.111681
vt 0.125000 0.125000
vt 0.125000 0.125000
vt 0.125000 0.125000
vt 0.125000 0.125000
vt 0.125000 0.125000
vt 0.125000 0.125000
vt 0.125000 0.125000
vt 0.125000 0.125000
vt 0.125000 0.125000
vt 0.125000 0.125000
vt 0.125000 0.125000
vt 0.125000 0.125000
vt 0.125000 0.125000
vt 0.125000 0.125000
vt 0.125000 0.125000
vt 0.125000 0.125000
vn 0.0000 -0.0000 1.0000
vn 0.0000 -1.0000 -0.0000
vn 0.0000 0.0000 -1.0000
vn 1.0000 0.0000 0.0000
vn -1.0000 0.0000 0.0000
vn -0.7071 0.0000 -0.7071
vn -0.7071 -0.0000 0.7071
vn 0.7071 0.0000 -0.7071
vn 0.7071 -0.0000 0.7071
vn 0.0000 1.0000 0.0000
s 1
f 13/1/1 2/2/1 7/3/1 16/4/1
f 7/3/2 8/5/2 5/6/2 6/7/2 11/8/2 12/9/2 15/10/2 16/4/2
f 3/11/3 10/12/3 11/8/3 6/7/3
f 9/13/4 14/14/4 15/10/4 12/9/4
f 1/15/5 4/16/5 5/6/5 8/5/5
f 3/11/6 6/7/6 5/6/6 4/16/6
f 1/15/7 8/5/7 7/3/7 2/2/7
f 9/13/8 12/9/8 11/8/8 10/12/8
f 13/1/9 16/4/9 15/10/9 14/14/9
f 13/1/10 14/14/10 9/13/10 10/12/10 3/11/10 4/16/10 1/15/10 2/2/10
