# Blender v3.0.0 OBJ File: 'City.blend'
# www.blender.org
o steel_parts_steel_parts_item
v -0.126891 0.000000 0.000000
v -0.126891 0.071929 0.000000
v -0.063446 0.071929 -0.109891
v -0.063446 0.000000 -0.109891
v 0.021558 0.000000 -0.037340
v 0.037340 0.000000 -0.021559
v 0.037340 0.065452 -0.021559
v 0.021558 0.065452 -0.037340
v 0.021559 -0.000000 0.037340
v 0.000000 -0.000000 0.043117
v 0.000000 0.065452 0.043117
v 0.021559 0.065452 0.037340
v 0.000000 0.000000 -0.043117
v 0.000000 0.065452 -0.043117
v 0.037340 -0.000000 0.021559
v 0.037340 0.065452 0.021559
v 0.043117 0.065452 0.000000
v 0.037340 0.065452 0.021559
v 0.043966 0.078139 0.025384
v 0.050768 0.078139 0.000000
v 0.063446 0.000000 -0.109891
v 0.126891 0.000000 0.000000
v 0.043117 0.000000 0.000000
v 0.037340 0.000000 -0.021559
v 0.021558 0.000000 -0.037340
v 0.021558 0.065452 -0.037340
v 0.037340 0.065452 -0.021559
v 0.043966 0.078139 -0.025384
v 0.025384 0.078139 -0.043966
v -0.021559 0.065452 -0.037340
v 0.000000 0.065452 -0.043117
v 0.000000 0.078139 -0.050768
v -0.025384 0.078139 -0.043966
v 0.021559 0.065452 0.037340
v 0.025384 0.078139 0.043966
v 0.063446 -0.000000 0.109891
v 0.021559 -0.000000 0.037340
v 0.037340 -0.000000 0.021559
v -0.063446 -0.000000 0.109891
v -0.021559 -0.000000 0.037340
v 0.000000 -0.000000 0.043117
v -0.021559 -0.000000 0.037340
v -0.037340 -0.000000 0.021559
v -0.037340 0.065452 0.021559
v -0.021559 0.065452 0.037340
v -0.063446 -0.000000 0.109891
v -0.063446 0.071929 0.109891
v -0.126891 0.071929 0.000000
v -0.126891 0.000000 0.000000
v 0.000000 0.065452 0.043117
v 0.000000 0.078139 0.050768
v -0.021559 0.000000 -0.037340
v -0.021559 0.065452 -0.037340
v 0.043117 0.000000 0.000000
v 0.043117 0.065452 0.000000
v 0.063446 -0.000000 0.109891
v 0.126891 0.000000 0.000000
v 0.126891 0.071929 0.000000
v 0.063446 0.071929 0.109891
v -0.063446 -0.000000 0.109891
v 0.063446 -0.000000 0.109891
v 0.063446 0.071929 0.109891
v -0.063446 0.071929 0.109891
v -0.126891 0.000000 0.000000
v -0.043117 0.000000 0.000000
v -0.037340 -0.000000 0.021559
v -0.063446 0.000000 -0.109891
v -0.021559 0.000000 -0.037340
v -0.037340 0.000000 -0.021559
v 0.000000 0.000000 -0.043117
v 0.063446 0.000000 -0.109891
v -0.063446 0.000000 -0.109891
v -0.063446 0.071929 -0.109891
v 0.063446 0.071929 -0.109891
v -0.043117 0.000000 0.000000
v -0.043117 0.065452 0.000000
v -0.037340 0.000000 -0.021559
v -0.037340 0.065452 -0.021559
v 0.126891 0.000000 0.000000
v 0.063446 0.000000 -0.109891
v 0.063446 0.071929 -0.109891
v 0.126891 0.071929 0.000000
v 0.000000 0.078139 -0.050768
v 0.025384 0.078139 -0.043966
v 0.058562 0.078139 -0.101433
v -0.058562 0.078139 -0.101433
v -0.025384 0.078139 -0.043966
v -0.043966 0.078139 -0.025384
v -0.117125 0.078139 0.000000
v -0.050768 0.078139 0.000000
v -0.043966 0.078139 0.025384
v -0.058562 0.078139 0.101433
v -0.025384 0.078139 0.043966
v 0.000000 0.078139 0.050768
v 0.058562 0.078139 0.101433
v 0.025384 0.078139 0.043966
v 0.043966 0.078139 0.025384
v 0.117125 0.078139 0.000000
v 0.050768 0.078139 0.000000
v 0.043966 0.078139 -0.025384
v -0.037340 0.065452 -0.021559
v -0.043966 0.078139 -0.025384
v 0.063446 0.071929 -0.109891
v -0.063446 0.071929 -0.109891
v -0.058562 0.078139 -0.101433
v 0.058562 0.078139 -0.101433
v -0.043117 0.065452 0.000000
v -0.050768 0.078139 0.000000
v -0.126891 0.071929 0.000000
v -0.117125 0.078139 0.000000
v 0.126891 0.071929 0.000000
v 0.117125 0.078139 0.000000
v -0.037340 0.065452 0.021559
v -0.043966 0.078139 0.025384
v -0.063446 0.071929 0.109891
v -0.058562 0.078139 0.101433
v -0.021559 0.065452 0.037340
v -0.025384 0.078139 0.043966
v 0.063446 0.071929 0.109891
v 0.058562 0.078139 0.101433
vt 0.125000 0.125000
vt 0.125000 0.125000
vt 0.125000 0.125000
vt 0.125000 0.125000
vt 0.375000 0.125000
vt 0.375000 0.125000
vt 0.375000 0.125000
vt 0.375000 0.125000
vt 0.375000 0.125000
vt 0.375000 0.125000
vt 0.375000 0.125000
vt 0.375000 0.125000
vt 0.375000 0.125000
vt 0.375000 0.125000
vt 0.375000 0.125000
vt 0.375000 0.125000
vt 0.125000 0.125000
vt 0.125000 0.125000
vt 0.125000 0.125000
vt 0.125000 0.125000
vt 0.125000 0.125000
vt 0.125000 0.125000
vt 0.125000 0.125000
vt 0.125000 0.125000
vt 0.125000 0.125000
vt 0.125000 0.125000
vt 0.125000 0.125000
vt 0.125000 0.125000
vt 0.125000 0.125000
vt 0.125000 0.125000
vt 0.125000 0.125000
vt 0.125000 0.125000
vt 0.125000 0.125000
vt 0.125000 0.125000
vt 0.125000 0.125000
vt 0.125000 0.125000
vt 0.125000 0.125000
vt 0.125000 0.125000
vt 0.125000 0.125000
vt 0.125000 0.125000
vt 0.125000 0.125000
vt 0.375000 0.125000
vt 0.375000 0.125000
vt 0.375000 0.125000
vt 0.375000 0.125000
vt 0.125000 0.125000
vt 0.125000 0.125000
vt 0.125000 0.125000
vt 0.125000 0.125000
vt 0.125000 0.125000
vt 0.125000 0.125000
vt 0.375000 0.125000
vt 0.375000 0.125000
vt 0.375000 0.125000
vt 0.375000 0.125000
vt 0.125000 0.125000
vt 0.125000 0.125000
vt 0.125000 0.125000
vt 0.125000 0.125000
vt 0.125000 0.125000
vt 0.125000 0.125000
vt 0.125000 0.125000
vt 0.125000 0.125000
vt 0.125000 0.125000
vt 0.125000 0.125000
vt 0.125000 0.125000
vt 0.125000 0.125000
vt 0.125000 0.125000
vt 0.125000 0.125000
vt 0.125000 0.125000
vt 0.125000 0.125000
vt 0.125000 0.125000
vt 0.125000 0.125000
vt 0.125000 0.125000
vt 0.375000 0.125000
vt 0.375000 0.125000
vt 0.375000 0.125000
vt 0.375000 0.125000
vt 0.125000 0.125000
vt 0.125000 0.125000
vt 0.125000 0.125000
vt 0.125000 0.125000
vt 0.125000 0.125000
vt 0.125000 0.125000
vt 0.125000 0.125000
vt 0.125000 0.125000
vt 0.125000 0.125000
vt 0.125000 0.125000
vt 0.125000 0.125000
vt 0.125000 0.125000
vt 0.125000 0.125000
vt 0.125000 0.125000
vt 0.125000 0.125000
vt 0.125000 0.125000
vt 0.125000 0.125000
vt 0.125000 0.125000
vt 0.125000 0.125000
vt 0.125000 0.125000
vt 0.125000 0.125000
vt 0.125000 0.125000
vt 0.125000 0.125000
vt 0.125000 0.125000
vt 0.125000 0.125000
vt 0.125000 0.125000
vt 0.125000 0.125000
vt 0.125000 0.125000
vt 0.125000 0.125000
vt 0.125000 0.125000
vt 0.125000 0.125000
vt 0.125000 0.125000
vt 0.125000 0.125000
vt 0.125000 0.125000
vt 0.125000 0.125000
vt 0.125000 0.125000
vt 0.125000 0.125000
vt 0.125000 0.125000
vt 0.125000 0.125000
vt 0.125000 0.125000
vt 0.125000 0.125000
vt 0.125000 0.125000
vn -0.8660 0.0000 -0.5000
vn -0.5000 -0.0000 0.8660
vn -0.8660 -0.0000 0.5000
vn -0.5000 0.0000 -0.8660
vn 0.0000 0.0000 -1.0000
vn -0.0000 -0.0000 1.0000
vn -0.8563 0.5164 0.0000
vn -0.7416 0.5164 -0.4282
vn -0.0000 -1.0000 -0.0000
vn -0.4282 0.5164 0.7416
vn -0.7416 0.5164 0.4282
vn 0.4282 0.5164 0.7416
vn -0.0000 0.5164 0.8563
vn -0.4282 0.5164 -0.7416
vn 0.5000 0.0000 -0.8660
vn 0.8660 0.0000 -0.5000
vn 0.0000 0.5164 -0.8563
vn 0.5000 -0.0000 0.8660
vn -1.0000 -0.0000 0.0000
vn 0.8660 -0.0000 0.5000
vn 1.0000 -0.0000 0.0000
vn 0.0000 1.0000 0.0000
vn 0.7416 0.5164 0.4282
vn 0.2683 0.8439 -0.4647
vn -0.2683 0.8439 -0.4647
vn 0.8563 0.5164 0.0000
vn -0.5366 0.8439 0.0000
vn 0.5366 0.8439 0.0000
vn 0.7416 0.5164 -0.4282
vn -0.2683 0.8439 0.4647
vn 0.4282 0.5164 -0.7416
vn 0.2683 0.8439 0.4647
s 1
f 1/1/1 2/2/1 3/3/1 4/4/1
f 5/5/2 6/6/3 7/7/3 8/8/2
f 9/9/4 10/10/5 11/11/5 12/12/4
f 13/13/6 5/5/2 8/8/2 14/14/6
f 15/15/1 9/9/4 12/12/4 16/16/1
f 17/17/7 18/18/8 19/19/8 20/20/7
f 21/21/9 22/22/9 23/23/9 24/24/9 25/25/9
f 26/26/10 27/27/11 28/28/11 29/29/10
f 30/30/12 31/31/13 32/32/13 33/33/12
f 18/18/8 34/34/14 35/35/14 19/19/8
f 22/22/9 36/36/9 37/37/9 38/38/9 23/23/9
f 36/36/9 39/39/9 40/40/9 41/41/9 37/37/9
f 31/31/13 26/26/10 29/29/10 32/32/13
f 42/42/15 43/43/16 44/44/16 45/45/15
f 10/10/5 42/42/15 45/45/15 11/11/5
f 46/46/3 47/47/3 48/48/3 49/49/3
f 34/34/14 50/50/17 51/51/17 35/35/14
f 52/52/18 13/13/6 14/14/6 53/53/18
f 54/54/19 15/15/1 16/16/1 55/55/19
f 56/56/20 57/57/20 58/58/20 59/59/20
f 60/60/6 61/61/6 62/62/6 63/63/6
f 39/39/9 64/64/9 65/65/9 66/66/9 40/40/9
f 64/64/9 67/67/9 68/68/9 69/69/9 65/65/9
f 67/67/9 21/21/9 25/25/9 70/70/9 68/68/9
f 71/71/5 72/72/5 73/73/5 74/74/5
f 43/43/16 75/75/21 76/76/21 44/44/16
f 75/75/21 77/77/20 78/78/20 76/76/21
f 6/6/3 54/54/19 55/55/19 7/7/3
f 77/77/20 52/52/18 53/53/18 78/78/20
f 79/79/16 80/80/16 81/81/16 82/82/16
f 83/83/22 84/84/22 85/85/22 86/86/22 87/87/22
f 88/88/22 87/87/22 86/86/22 89/89/22 90/90/22
f 91/91/22 90/90/22 89/89/22 92/92/22 93/93/22
f 94/94/22 93/93/22 92/92/22 95/95/22 96/96/22
f 97/97/22 96/96/22 95/95/22 98/98/22 99/99/22
f 100/100/22 99/99/22 98/98/22 85/85/22 84/84/22
f 101/101/23 30/30/12 33/33/12 102/102/23
f 103/103/24 104/104/25 105/105/25 106/106/24
f 27/27/11 17/17/7 20/20/7 28/28/11
f 107/107/26 101/101/23 102/102/23 108/108/26
f 104/104/25 109/109/27 110/110/27 105/105/25
f 111/111/28 103/103/24 106/106/24 112/112/28
f 113/113/29 107/107/26 108/108/26 114/114/29
f 109/109/27 115/115/30 116/116/30 110/110/27
f 117/117/31 113/113/29 114/114/29 118/118/31
f 115/115/30 119/119/32 120/120/32 116/116/30
f 50/50/17 117/117/31 118/118/31 51/51/17
f 119/119/32 111/111/28 112/112/28 120/120/32
