# Blender v3.0.0 OBJ File: 'City.blend'
# www.blender.org
o mono_bogie
v -0.168799 -0.035200 -0.200000
v -0.226399 -0.019766 -0.200000
v -0.268565 0.022400 -0.200000
v -0.283999 0.080000 0.200000
v -0.283999 0.140000 -0.200000
v -0.083019 0.103581 0.150000
v -0.092490 0.107504 0.174749
v -0.115355 0.116975 0.185000
v -0.090019 0.069420 0.150000
v -0.099490 0.065497 0.174749
v -0.122355 0.056026 0.185000
v -0.074712 0.032465 0.150000
v -0.084183 0.028542 0.174749
v -0.107048 0.019071 0.185000
v -0.100047 0.153930 0.185000
v -0.077183 0.144459 0.174749
v -0.067712 0.140536 0.150000
v -0.115355 0.116975 -0.185000
v -0.092490 0.107504 -0.174749
v -0.083019 0.103581 -0.150000
v -0.122355 0.056026 -0.185000
v -0.099490 0.065497 -0.174749
v -0.090019 0.069420 -0.150000
v -0.107048 0.019071 -0.185000
v -0.084183 0.028542 -0.174749
v -0.074712 0.032465 -0.150000
v -0.067712 0.140536 -0.150000
v -0.077183 0.144459 -0.174749
v -0.100047 0.153930 -0.185000
v -0.098799 0.004800 -0.200000
v -0.370001 0.200000 0.200000
v -0.370001 0.200000 -0.200000
v -0.370001 0.140000 -0.200000
v -0.284001 0.080000 -0.200000
v -0.264798 0.140000 -0.270710
v -0.340713 0.140000 -0.270710
v -0.270003 0.200000 -0.300000
v -0.340713 0.200000 -0.270710
v -0.270003 0.140000 -0.300000
v -0.218441 0.140000 -0.300000
v -0.188134 0.072622 -0.300000
v -0.107576 0.025286 -0.270710
v -0.215194 0.007294 -0.270710
v -0.248967 0.041999 -0.270710
v -0.201652 0.089314 -0.300000
v -0.262401 0.088947 -0.270710
v -0.128801 0.074800 -0.300000
v -0.210256 0.110546 -0.300000
v -0.168800 0.064799 -0.300000
v -0.168800 -0.005911 -0.270710
v -0.088799 0.174800 -0.300000
v -0.268567 0.022400 0.200000
v -0.226401 -0.019766 0.200000
v -0.284001 0.140000 0.200000
v -0.370003 0.140000 0.200000
v -0.098799 0.004800 0.200000
v -0.264798 0.140000 0.270711
v -0.340713 0.140000 0.270711
v -0.270003 0.200000 0.300000
v -0.340713 0.200000 0.270711
v -0.270003 0.140000 0.300000
v -0.218441 0.140000 0.300000
v -0.188134 0.072622 0.300000
v -0.107576 0.025286 0.270711
v -0.215194 0.007294 0.270711
v -0.248967 0.041999 0.270711
v -0.201652 0.089314 0.300000
v -0.262401 0.088947 0.270711
v -0.128801 0.074800 0.300000
v -0.210256 0.110546 0.300000
v -0.168800 0.064799 0.300000
v -0.168800 -0.035201 0.200000
v -0.168800 -0.005911 0.270711
v -0.088799 0.174800 0.300000
v 0.168799 -0.035200 -0.200000
v 0.226399 -0.019766 -0.200000
v 0.268565 0.022400 -0.200000
v 0.283999 0.080000 0.200000
v 0.283999 0.140000 -0.200000
v 0.098799 0.004800 -0.200000
v 0.370001 0.200000 0.200000
v 0.370001 0.200000 -0.200000
v 0.370001 0.140000 -0.200000
v 0.284001 0.080000 -0.200000
v 0.264798 0.140000 -0.270710
v 0.340713 0.140000 -0.270710
v 0.270003 0.200000 -0.300000
v 0.340713 0.200000 -0.270710
v 0.270003 0.140000 -0.300000
v 0.218441 0.140000 -0.300000
v 0.188134 0.072622 -0.300000
v 0.107576 0.025286 -0.270710
v 0.215194 0.007294 -0.270710
v 0.248967 0.041999 -0.270710
v 0.201652 0.089314 -0.300000
v 0.262401 0.088947 -0.270710
v 0.128801 0.074800 -0.300000
v 0.210256 0.110546 -0.300000
v 0.168800 0.064799 -0.300000
v 0.168800 -0.005911 -0.270710
v 0.088799 0.174800 -0.300000
v 0.268567 0.022400 0.200000
v 0.226401 -0.019766 0.200000
v 0.284001 0.140000 0.200000
v 0.370003 0.140000 0.200000
v 0.098799 0.004800 0.200000
v 0.264798 0.140000 0.270711
v 0.340713 0.140000 0.270711
v 0.270003 0.200000 0.300000
v 0.340713 0.200000 0.270711
v 0.270003 0.140000 0.300000
v 0.218441 0.140000 0.300000
v 0.188134 0.072622 0.300000
v 0.107576 0.025286 0.270711
v 0.215194 0.007294 0.270711
v 0.248967 0.041999 0.270711
v 0.201652 0.089314 0.300000
v 0.262401 0.088947 0.270711
v 0.128801 0.074800 0.300000
v 0.210256 0.110546 0.300000
v 0.168800 0.064799 0.300000
v 0.168800 -0.035201 0.200000
v 0.168800 -0.005911 0.270711
v 0.088799 0.174800 0.300000
v 0.083019 0.103581 0.150000
v 0.092490 0.107504 0.174749
v 0.115355 0.116975 0.185000
v 0.090019 0.069420 0.150000
v 0.099490 0.065497 0.174749
v 0.122355 0.056026 0.185000
v 0.074712 0.032465 0.150000
v 0.084183 0.028542 0.174749
v 0.107048 0.019071 0.185000
v 0.100047 0.153930 0.185000
v 0.077183 0.144459 0.174749
v 0.067712 0.140536 0.150000
v 0.115355 0.116975 -0.185000
v 0.092490 0.107504 -0.174749
v 0.083019 0.103581 -0.150000
v 0.122355 0.056026 -0.185000
v 0.099490 0.065497 -0.174749
v 0.090019 0.069420 -0.150000
v 0.107048 0.019071 -0.185000
v 0.084183 0.028542 -0.174749
v 0.074712 0.032465 -0.150000
v 0.067712 0.140536 -0.150000
v 0.077183 0.144459 -0.174749
v 0.100047 0.153930 -0.185000
v -0.088799 0.200000 -0.300000
v -0.088799 0.200000 0.300000
v 0.088799 0.200000 -0.300000
v 0.088799 0.200000 0.300000
vt 0.375000 0.125000
vt 0.375000 0.125000
vt 0.375000 0.125000
vt 0.375000 0.125000
vt 0.375000 0.125000
vt 0.375000 0.125000
vt 0.375000 0.125000
vt 0.375000 0.125000
vt 0.375000 0.125000
vt 0.375000 0.125000
vt 0.125000 0.125000
vt 0.125000 0.125000
vt 0.125000 0.125000
vt 0.125000 0.125000
vt 0.125000 0.125000
vt 0.125000 0.125000
vt 0.125000 0.125000
vt 0.125000 0.125000
vt 0.125000 0.125000
vt 0.125000 0.125000
vt 0.125000 0.125000
vt 0.125000 0.125000
vt 0.125000 0.125000
vt 0.125000 0.125000
vt 0.125000 0.125000
vt 0.125000 0.125000
vt 0.125000 0.125000
vt 0.125000 0.125000
vt 0.125000 0.125000
vt 0.125000 0.125000
vt 0.125000 0.125000
vt 0.125000 0.125000
vt 0.125000 0.125000
vt 0.125000 0.125000
vt 0.125000 0.125000
vt 0.125000 0.125000
vt 0.125000 0.125000
vt 0.125000 0.125000
vt 0.375000 0.125000
vt 0.375000 0.125000
vt 0.125000 0.125000
vt 0.125000 0.125000
vt 0.375000 0.125000
vt 0.375000 0.125000
vt 0.375000 0.125000
vt 0.375000 0.125000
vt 0.375000 0.125000
vt 0.375000 0.125000
vt 0.125000 0.125000
vt 0.125000 0.125000
vt 0.125000 0.125000
vt 0.125000 0.125000
vt 0.125000 0.125000
vt 0.125000 0.125000
vt 0.375000 0.125000
vt 0.375000 0.125000
vt 0.375000 0.125000
vt 0.375000 0.125000
vt 0.375000 0.125000
vt 0.375000 0.125000
vt 0.375000 0.125000
vt 0.375000 0.125000
vt 0.375000 0.125000
vt 0.375000 0.125000
vt 0.125000 0.125000
vt 0.125000 0.125000
vt 0.125000 0.125000
vt 0.125000 0.125000
vt 0.125000 0.125000
vt 0.125000 0.125000
vt 0.125000 0.125000
vt 0.375000 0.125000
vt 0.375000 0.125000
vt 0.375000 0.125000
vt 0.375000 0.125000
vt 0.375000 0.125000
vt 0.375000 0.125000
vt 0.375000 0.125000
vt 0.375000 0.125000
vt 0.375000 0.125000
vt 0.375000 0.125000
vt 0.125000 0.125000
vt 0.375000 0.125000
vt 0.375000 0.125000
vt 0.375000 0.125000
vt 0.375000 0.125000
vt 0.375000 0.125000
vt 0.375000 0.125000
vt 0.375000 0.125000
vt 0.375000 0.125000
vt 0.375000 0.125000
vt 0.375000 0.125000
vt 0.125000 0.125000
vt 0.125000 0.125000
vt 0.125000 0.125000
vt 0.125000 0.125000
vt 0.375000 0.125000
vt 0.375000 0.125000
vt 0.125000 0.125000
vt 0.125000 0.125000
vt 0.375000 0.125000
vt 0.375000 0.125000
vt 0.375000 0.125000
vt 0.375000 0.125000
vt 0.375000 0.125000
vt 0.375000 0.125000
vt 0.125000 0.125000
vt 0.125000 0.125000
vt 0.125000 0.125000
vt 0.125000 0.125000
vt 0.125000 0.125000
vt 0.125000 0.125000
vt 0.375000 0.125000
vt 0.375000 0.125000
vt 0.375000 0.125000
vt 0.375000 0.125000
vt 0.375000 0.125000
vt 0.375000 0.125000
vt 0.375000 0.125000
vt 0.375000 0.125000
vt 0.375000 0.125000
vt 0.375000 0.125000
vt 0.125000 0.125000
vt 0.125000 0.125000
vt 0.125000 0.125000
vt 0.125000 0.125000
vt 0.125000 0.125000
vt 0.125000 0.125000
vt 0.125000 0.125000
vt 0.375000 0.125000
vt 0.375000 0.125000
vt 0.375000 0.125000
vt 0.375000 0.125000
vt 0.375000 0.125000
vt 0.375000 0.125000
vt 0.375000 0.125000
vt 0.375000 0.125000
vt 0.375000 0.125000
vt 0.375000 0.125000
vt 0.125000 0.125000
vt 0.125000 0.125000
vt 0.125000 0.125000
vt 0.125000 0.125000
vt 0.125000 0.125000
vt 0.125000 0.125000
vt 0.125000 0.125000
vt 0.125000 0.125000
vt 0.125000 0.125000
vt 0.125000 0.125000
vt 0.125000 0.125000
vt 0.125000 0.125000
vt 0.125000 0.125000
vt 0.125000 0.125000
vt 0.125000 0.125000
vt 0.125000 0.125000
vt 0.125000 0.125000
vt 0.125000 0.125000
vt 0.125000 0.125000
vt 0.125000 0.125000
vt 0.125000 0.125000
vt 0.125000 0.125000
vt 0.125000 0.125000
vt 0.125000 0.125000
vt 0.125000 0.125000
vt 0.125000 0.125000
vt 0.125000 0.125000
vt 0.125000 0.125000
vt 0.125000 0.125000
vn -0.4626 -0.8038 -0.3741
vn -0.1090 -0.9673 -0.2292
vn 0.3060 -0.9352 0.1781
vn -0.4625 -0.8038 0.3741
vn -0.9433 -0.1436 -0.2992
vn -0.9433 -0.1436 0.2992
vn -0.9696 0.1034 0.2217
vn -0.9672 -0.1238 -0.2218
vn -0.8058 -0.4808 -0.3459
vn -0.8056 -0.4810 0.3459
vn -0.0000 -1.0000 -0.0000
vn -0.3827 -0.9239 0.0000
vn 0.9061 0.3753 0.1951
vn 0.6533 0.2706 0.7071
vn 0.3536 0.1464 0.9239
vn 0.3827 0.9239 0.0000
vn 0.9061 -0.3753 0.1951
vn 0.6533 -0.2706 0.7071
vn 0.3536 -0.1464 0.9239
vn -0.3827 0.9239 0.0000
vn 0.3827 -0.9239 -0.0000
vn 0.3536 0.1464 -0.9239
vn 0.6533 0.2706 -0.7071
vn 0.9061 0.3753 -0.1951
vn 0.3536 -0.1464 -0.9239
vn 0.6533 -0.2706 -0.7071
vn 0.9061 -0.3753 -0.1951
vn 0.4960 -0.8683 -0.0018
vn 0.4960 -0.8683 0.0018
vn -0.9742 -0.1452 0.1726
vn -0.9447 -0.0671 -0.3209
vn -0.9312 -0.1148 -0.3460
vn -0.9464 -0.1780 0.2696
vn 0.9820 -0.1891 -0.0000
vn 0.9978 -0.0656 0.0000
vn 0.9191 0.3940 0.0000
vn -0.7071 0.0000 -0.7071
vn -0.1825 0.0017 -0.9832
vn -0.1951 0.0000 -0.9808
vn -0.7908 -0.0461 -0.6103
vn -0.7701 -0.1301 -0.6245
vn -0.4994 -0.0656 -0.8639
vn -0.4663 -0.1011 -0.8789
vn -0.6579 -0.3774 -0.6517
vn -0.3753 -0.1992 -0.9053
vn -0.3810 -0.6333 -0.6736
vn -0.2222 -0.3202 -0.9209
vn 0.0784 -0.7498 -0.6570
vn 0.0187 -0.3938 -0.9190
vn 0.3309 -0.6665 -0.6680
vn 0.1661 -0.4081 -0.8977
vn 0.0000 -0.0000 -1.0000
vn -0.7071 0.0000 0.7071
vn -0.1951 -0.0000 0.9808
vn -0.1825 0.0017 0.9832
vn -0.7701 -0.1301 0.6245
vn -0.7908 -0.0462 0.6103
vn -0.4994 -0.0656 0.8639
vn -0.4663 -0.1011 0.8789
vn -0.6579 -0.3774 0.6517
vn -0.3753 -0.1992 0.9053
vn -0.3810 -0.6333 0.6737
vn -0.2222 -0.3202 0.9209
vn 0.0784 -0.7498 0.6570
vn 0.0187 -0.3938 0.9190
vn 0.3309 -0.6665 0.6680
vn 0.1661 -0.4081 0.8977
vn 0.8944 0.4217 0.1494
vn 0.8944 0.4217 -0.1494
vn 0.0000 0.0000 1.0000
vn 0.4989 -0.8656 -0.0430
vn 0.4994 -0.8653 0.0430
vn 0.0182 -0.9834 0.1805
vn -0.2678 -0.9527 -0.1435
vn 0.9910 -0.1320 -0.0235
vn 0.9937 0.0915 -0.0652
vn 0.9915 -0.1125 0.0653
vn 0.9910 -0.1320 0.0235
vn 0.8645 -0.5011 -0.0388
vn 0.8647 -0.5009 0.0388
vn -0.4553 -0.8367 0.3045
vn -0.4553 -0.8367 -0.3045
vn 0.9698 0.1230 0.2108
vn 0.9805 0.1509 0.1260
vn 0.9934 0.0974 -0.0613
vn 0.9947 0.0569 -0.0852
vn -0.9820 -0.1891 -0.0000
vn -0.9978 -0.0656 0.0000
vn -0.9191 0.3940 0.0000
vn 0.7071 0.0000 -0.7071
vn 0.1951 0.0000 -0.9808
vn 0.1940 0.0051 -0.9810
vn 0.7701 -0.1301 -0.6245
vn 0.7908 -0.0461 -0.6103
vn 0.4994 -0.0656 -0.8639
vn 0.4663 -0.1011 -0.8789
vn 0.6579 -0.3774 -0.6517
vn 0.3753 -0.1992 -0.9053
vn 0.3810 -0.6333 -0.6736
vn 0.2222 -0.3202 -0.9209
vn -0.0784 -0.7498 -0.6570
vn -0.0187 -0.3938 -0.9190
vn -0.3309 -0.6665 -0.6680
vn -0.1661 -0.4081 -0.8977
vn 0.7071 0.0000 0.7071
vn 0.1940 0.0051 0.9810
vn 0.1951 -0.0000 0.9808
vn 0.7908 -0.0462 0.6103
vn 0.7701 -0.1301 0.6245
vn 0.4994 -0.0656 0.8639
vn 0.4663 -0.1011 0.8789
vn 0.6579 -0.3774 0.6517
vn 0.3753 -0.1992 0.9053
vn 0.3810 -0.6333 0.6737
vn 0.2222 -0.3202 0.9209
vn -0.0784 -0.7498 0.6570
vn -0.0187 -0.3938 0.9190
vn -0.3309 -0.6665 0.6680
vn -0.1661 -0.4081 0.8977
vn -0.9222 0.3567 0.1494
vn -0.9222 0.3567 -0.1494
vn 0.1147 0.9934 0.0042
vn 0.0162 0.9934 -0.1136
vn -0.0000 1.0000 0.0000
vn 0.0020 1.0000 -0.0043
vn 0.0020 1.0000 0.0043
vn -0.0115 0.9999 -0.0028
vn -0.0115 0.9999 0.0028
vn 0.1351 0.9908 -0.0098
vn 0.0547 0.9908 0.1239
vn -0.9061 0.3753 0.1951
vn -0.6533 0.2706 0.7071
vn -0.3536 0.1464 0.9239
vn -0.9061 -0.3753 0.1951
vn -0.6533 -0.2706 0.7071
vn -0.3536 -0.1464 0.9239
vn -0.3536 0.1464 -0.9239
vn -0.6533 0.2706 -0.7071
vn -0.9061 0.3753 -0.1951
vn -0.3536 -0.1464 -0.9239
vn -0.6533 -0.2706 -0.7071
vn -0.9061 -0.3753 -0.1951
vn -1.0000 0.0000 0.0000
vn 1.0000 0.0000 0.0000
s 1
f 2/1/1 1/2/2 72/3/3 53/4/4
f 34/5/5 4/6/6 54/7/7 5/8/8
f 3/9/9 2/1/1 53/4/4 52/10/10
f 5/11/11 54/12/11 55/13/11 33/14/11
f 3/9/9 52/10/10 4/6/6 34/5/5
f 8/15/12 18/16/12 19/17/12 7/18/12
f 7/18/12 19/17/12 20/19/12 6/20/12
f 9/21/13 10/22/14 13/23/14 12/24/13
f 10/22/14 11/25/15 14/26/15 13/23/14
f 15/27/16 16/28/16 28/29/16 29/30/16
f 16/28/16 17/31/16 27/32/16 28/29/16
f 6/20/17 17/31/17 16/28/18 7/18/18
f 7/18/18 16/28/18 15/27/19 8/15/19
f 11/25/20 10/22/20 22/33/20 21/34/20
f 13/23/21 25/35/21 26/36/21 12/24/21
f 21/34/22 22/33/23 25/35/23 24/37/22
f 22/33/23 23/38/24 26/36/24 25/35/23
f 18/16/25 29/30/25 28/29/26 19/17/26
f 19/17/26 28/29/26 27/32/27 20/19/27
f 14/26/21 24/37/21 25/35/21 13/23/21
f 10/22/20 9/21/20 23/38/20 22/33/20
f 72/3/3 1/2/2 30/39/28 56/40/29
f 31/41/30 32/42/31 33/14/32 55/13/33
f 17/31/17 6/20/17 20/19/27 27/32/27
f 12/24/13 26/36/24 23/38/24 9/21/13
f 74/43/34 69/44/35 47/45/35 51/46/34
f 47/45/35 69/44/35 64/47/36 42/48/36
f 32/42/31 38/49/37 36/50/37 33/14/32
f 38/49/37 37/51/38 39/52/39 36/50/37
f 33/14/11 36/50/11 35/53/11 5/11/11
f 39/52/11 40/54/11 35/53/11 36/50/11
f 34/5/5 5/8/8 35/55/40 46/56/41
f 40/57/42 48/58/43 46/56/41 35/55/40
f 34/5/5 46/56/41 44/59/44 3/9/9
f 48/58/43 45/60/45 44/59/44 46/56/41
f 3/9/9 44/59/44 43/61/46 2/1/1
f 45/60/45 41/62/47 43/61/46 44/59/44
f 50/63/48 1/2/2 2/1/1 43/61/46
f 41/62/47 49/64/49 50/63/48 43/61/46
f 42/48/50 30/39/28 1/2/2 50/63/48
f 47/45/51 42/48/50 50/63/48 49/64/49
f 49/64/52 41/62/52 45/60/52 47/45/52
f 48/58/52 51/46/52 47/45/52 45/60/52
f 48/58/52 40/57/52 51/46/52
f 37/51/38 51/65/52 40/54/52 39/52/39
f 31/41/30 55/13/33 58/66/53 60/67/53
f 60/67/53 58/66/53 61/68/54 59/69/55
f 55/13/11 54/12/11 57/70/11 58/66/11
f 61/68/11 58/66/11 57/70/11 62/71/11
f 4/6/6 68/72/56 57/73/57 54/7/7
f 62/74/58 57/73/57 68/72/56 70/75/59
f 4/6/6 52/10/10 66/76/60 68/72/56
f 70/75/59 68/72/56 66/76/60 67/77/61
f 52/10/10 53/4/4 65/78/62 66/76/60
f 67/77/61 66/76/60 65/78/62 63/79/63
f 73/80/64 65/78/62 53/4/4 72/3/3
f 63/79/63 65/78/62 73/80/64 71/81/65
f 64/47/66 73/80/64 72/3/3 56/40/29
f 69/44/67 71/81/65 73/80/64 64/47/66
f 64/47/36 56/40/68 30/39/69 42/48/36
f 71/81/70 69/44/70 67/77/70 63/79/70
f 70/75/70 67/77/70 69/44/70 74/43/70
f 70/75/70 74/43/70 62/74/70
f 59/69/55 61/68/54 62/71/70 74/82/70
f 76/83/71 103/84/72 122/85/73 75/86/74
f 84/87/75 79/88/76 104/89/77 78/90/78
f 77/91/79 102/92/80 103/84/72 76/83/71
f 79/93/11 83/94/11 105/95/11 104/96/11
f 77/91/79 84/87/75 78/90/78 102/92/80
f 122/85/73 106/97/81 80/98/82 75/86/74
f 81/99/83 105/95/84 83/94/85 82/100/86
f 124/101/87 101/102/87 97/103/88 119/104/88
f 97/103/88 92/105/89 114/106/89 119/104/88
f 82/100/86 83/94/85 86/107/90 88/108/90
f 88/108/90 86/107/90 89/109/91 87/110/92
f 83/94/11 79/93/11 85/111/11 86/107/11
f 89/109/11 86/107/11 85/111/11 90/112/11
f 84/87/75 96/113/93 85/114/94 79/88/76
f 90/115/95 85/114/94 96/113/93 98/116/96
f 84/87/75 77/91/79 94/117/97 96/113/93
f 98/116/96 96/113/93 94/117/97 95/118/98
f 77/91/79 76/83/71 93/119/99 94/117/97
f 95/118/98 94/117/97 93/119/99 91/120/100
f 100/121/101 93/119/99 76/83/71 75/86/74
f 91/120/100 93/119/99 100/121/101 99/122/102
f 92/105/103 100/121/101 75/86/74 80/98/82
f 97/103/104 99/122/102 100/121/101 92/105/103
f 99/122/52 97/103/52 95/118/52 91/120/52
f 98/116/52 95/118/52 97/103/52 101/102/52
f 98/116/52 101/102/52 90/115/52
f 87/110/92 89/109/91 90/112/52 101/123/52
f 81/99/83 110/124/105 108/125/105 105/95/84
f 110/124/105 109/126/106 111/127/107 108/125/105
f 105/95/11 108/125/11 107/128/11 104/96/11
f 111/127/11 112/129/11 107/128/11 108/125/11
f 78/90/78 104/89/77 107/130/108 118/131/109
f 112/132/110 120/133/111 118/131/109 107/130/108
f 78/90/78 118/131/109 116/134/112 102/92/80
f 120/133/111 117/135/113 116/134/112 118/131/109
f 102/92/80 116/134/112 115/136/114 103/84/72
f 117/135/113 113/137/115 115/136/114 116/134/112
f 123/138/116 122/85/73 103/84/72 115/136/114
f 113/137/115 121/139/117 123/138/116 115/136/114
f 114/106/118 106/97/81 122/85/73 123/138/116
f 119/104/119 114/106/118 123/138/116 121/139/117
f 114/106/89 92/105/89 80/98/120 106/97/121
f 121/139/70 113/137/70 117/135/70 119/104/70
f 120/133/70 124/101/70 119/104/70 117/135/70
f 120/133/70 112/132/70 124/101/70
f 109/126/106 124/140/70 112/129/70 111/127/107
f 81/99/122 82/100/123 88/108/124 110/124/124
f 87/110/125 109/126/126 110/124/124 88/108/124
f 38/49/124 60/67/124 59/69/127 37/51/128
f 31/41/129 60/67/124 38/49/124 32/42/130
f 127/141/21 126/142/21 138/143/21 137/144/21
f 126/142/21 125/145/21 139/146/21 138/143/21
f 128/147/131 131/148/131 132/149/132 129/150/132
f 129/150/132 132/149/132 133/151/133 130/152/133
f 134/153/20 148/154/20 147/155/20 135/156/20
f 135/156/20 147/155/20 146/157/20 136/158/20
f 125/145/134 126/142/135 135/156/135 136/158/134
f 126/142/135 127/141/136 134/153/136 135/156/135
f 130/152/16 140/159/16 141/160/16 129/150/16
f 132/149/12 131/148/12 145/161/12 144/162/12
f 140/159/137 143/163/137 144/162/138 141/160/138
f 141/160/138 144/162/138 145/161/139 142/164/139
f 137/144/140 138/143/141 147/155/141 148/154/140
f 138/143/141 139/146/142 146/157/142 147/155/141
f 133/151/12 132/149/12 144/162/12 143/163/12
f 129/150/16 141/160/16 142/164/16 128/147/16
f 136/158/134 146/157/142 139/146/142 125/145/134
f 131/148/131 128/147/131 142/164/139 145/161/139
f 101/123/87 124/140/87 152/165/143 151/166/143
f 74/82/34 51/65/34 149/167/144 150/168/144
f 59/69/127 150/168/124 149/167/124 37/51/128
f 87/110/125 151/166/124 152/165/124 109/126/126
f 124/140/70 109/126/106 152/165/70
f 101/123/52 151/166/52 87/110/92
f 51/65/52 37/51/38 149/167/52
f 74/82/70 150/168/70 59/69/55
