# Blender v3.0.0 OBJ File: 'City.blend'
# www.blender.org
o crops_crops_item
v 0.112634 0.050000 -0.075000
v 0.112634 0.000000 -0.075000
v 0.119711 0.050000 0.075000
v 0.119711 0.000000 0.075000
v -0.109660 0.050657 -0.075239
v -0.109711 0.000000 -0.075000
v -0.114280 0.050713 0.074758
v -0.114316 0.000000 0.075000
v 0.131333 0.025000 0.080000
v -0.124563 0.025000 -0.080000
v -0.124239 0.025000 0.080000
v 0.122693 0.025000 -0.080000
v -0.103303 0.026285 0.079563
v -0.098245 0.026184 -0.080430
v 0.101370 0.025000 -0.080000
v 0.109171 0.000000 0.080000
v -0.113408 0.025000 0.070000
v -0.108440 0.025000 -0.070000
v 0.111707 0.025000 -0.070000
v 0.119315 0.025000 0.070000
v 0.040124 0.050713 0.074758
v -0.039535 0.055046 0.073286
v 0.038196 0.000000 -0.075000
v -0.037637 0.000000 -0.076146
v -0.038905 0.000000 0.073846
v 0.040182 0.000000 0.075000
v -0.038425 0.054651 -0.076689
v 0.038859 0.052910 -0.075651
v -0.034371 0.029271 -0.081551
v 0.034736 0.026584 -0.080402
v 0.036663 0.025647 0.079780
v -0.035634 0.029633 0.078426
v 0.121328 0.050475 -0.025089
v 0.123355 0.050000 0.025000
v -0.121501 0.050000 0.025000
v -0.120229 0.050000 -0.025000
v 0.123351 0.000000 0.025000
v 0.121144 0.000000 -0.025000
v -0.120526 0.000000 -0.025000
v -0.121821 0.000000 0.025000
v -0.131558 0.025000 0.026667
v -0.132383 0.025000 -0.026667
v 0.131271 0.025000 -0.026667
v 0.134102 0.025000 0.026667
v 0.042634 0.053359 -0.025632
v 0.042335 0.052321 0.024564
v -0.042175 0.053693 -0.026258
v -0.042138 0.053486 0.023816
v -0.041667 0.000000 -0.025000
v -0.041667 0.000000 0.025000
v 0.041667 0.000000 -0.025000
v 0.041667 0.000000 0.025000
v 0.112634 0.099677 -0.075000
v 0.112634 0.049936 -0.075000
v 0.119711 0.101848 0.075000
v 0.119711 0.050257 0.075000
v -0.109660 0.101287 -0.075239
v -0.109711 0.050613 -0.075000
v -0.114280 0.103532 0.074758
v -0.114316 0.052954 0.075000
v 0.131333 0.076181 0.080000
v -0.124563 0.074975 -0.080000
v -0.124239 0.078302 0.080000
v 0.122693 0.075677 -0.080000
v -0.103303 0.079038 0.079563
v -0.098245 0.076960 -0.080430
v 0.101370 0.073117 -0.080000
v 0.109171 0.049567 0.080000
v -0.113408 0.078068 0.070000
v -0.108440 0.075237 -0.070000
v 0.111707 0.074265 -0.070000
v 0.119315 0.075645 0.070000
v 0.040124 0.103428 0.074758
v -0.039535 0.107472 0.073286
v 0.038196 0.055422 -0.075000
v -0.037637 0.054443 -0.076146
v -0.038905 0.052970 0.073846
v 0.040182 0.050933 0.075000
v -0.038425 0.109223 -0.076689
v 0.038859 0.108253 -0.075651
v -0.034371 0.082924 -0.081551
v 0.034736 0.082852 -0.080402
v 0.036663 0.077099 0.079780
v -0.035634 0.081991 0.078426
v 0.121328 0.103845 -0.025089
v 0.123355 0.103654 0.025000
v -0.121501 0.104250 0.025000
v -0.120229 0.102634 -0.025000
v 0.123351 0.050991 0.025000
v 0.121144 0.053377 -0.025000
v -0.120526 0.052661 -0.025000
v -0.121821 0.054445 0.025000
v -0.131558 0.079402 0.026667
v -0.132383 0.077092 -0.026667
v 0.131271 0.078123 -0.026667
v 0.134102 0.076558 0.026667
v 0.042634 0.107803 -0.025632
v 0.042335 0.107415 0.024564
v -0.042175 0.108901 -0.026258
v -0.042138 0.105985 0.023816
v -0.041667 0.055867 -0.025000
v -0.041667 0.055867 0.025000
v 0.041667 0.054467 -0.025000
v 0.041667 0.054749 0.025000
vt 0.125000 0.125000
vt 0.125000 0.125000
vt 0.125000 0.125000
vt 0.125000 0.125000
vt 0.125000 0.125000
vt 0.125000 0.125000
vt 0.125000 0.125000
vt 0.125000 0.125000
vt 0.125000 0.125000
vt 0.125000 0.125000
vt 0.125000 0.125000
vt 0.125000 0.125000
vt 0.125000 0.125000
vt 0.125000 0.125000
vt 0.125000 0.125000
vt 0.125000 0.125000
vt 0.125000 0.125000
vt 0.125000 0.125000
vt 0.125000 0.125000
vt 0.125000 0.125000
vt 0.125000 0.125000
vt 0.125000 0.125000
vt 0.125000 0.125000
vt 0.125000 0.125000
vt 0.125000 0.125000
vt 0.125000 0.125000
vt 0.125000 0.125000
vt 0.125000 0.125000
vt 0.125000 0.125000
vt 0.125000 0.125000
vt 0.125000 0.125000
vt 0.125000 0.125000
vt 0.125000 0.125000
vt 0.125000 0.125000
vt 0.125000 0.125000
vt 0.125000 0.125000
vt 0.125000 0.125000
vt 0.125000 0.125000
vt 0.125000 0.125000
vt 0.125000 0.125000
vt 0.125000 0.125000
vt 0.125000 0.125000
vt 0.125000 0.125000
vt 0.125000 0.125000
vt 0.125000 0.125000
vt 0.125000 0.125000
vt 0.125000 0.125000
vt 0.125000 0.125000
vt 0.125000 0.125000
vt 0.125000 0.125000
vt 0.125000 0.125000
vt 0.125000 0.125000
vt 0.125000 0.125000
vt 0.125000 0.125000
vt 0.125000 0.125000
vt 0.125000 0.125000
vt 0.125000 0.125000
vt 0.125000 0.125000
vt 0.125000 0.125000
vt 0.125000 0.125000
vt 0.125000 0.125000
vt 0.125000 0.125000
vt 0.125000 0.125000
vt 0.125000 0.125000
vt 0.125000 0.125000
vt 0.125000 0.125000
vt 0.125000 0.125000
vt 0.125000 0.125000
vt 0.125000 0.125000
vt 0.125000 0.125000
vt 0.125000 0.125000
vt 0.125000 0.125000
vt 0.125000 0.125000
vt 0.125000 0.125000
vt 0.125000 0.125000
vt 0.125000 0.125000
vt 0.125000 0.125000
vt 0.125000 0.125000
vt 0.125000 0.125000
vt 0.125000 0.125000
vt 0.125000 0.125000
vt 0.125000 0.125000
vt 0.125000 0.125000
vt 0.125000 0.125000
vt 0.125000 0.125000
vt 0.125000 0.125000
vt 0.125000 0.125000
vt 0.125000 0.125000
vt 0.125000 0.125000
vt 0.125000 0.125000
vt 0.125000 0.125000
vt 0.125000 0.125000
vt 0.125000 0.125000
vt 0.125000 0.125000
vt 0.125000 0.125000
vt 0.125000 0.125000
vt 0.125000 0.125000
vt 0.125000 0.125000
vt 0.125000 0.125000
vt 0.125000 0.125000
vt 0.125000 0.125000
vt 0.125000 0.125000
vt 0.125000 0.125000
vt 0.125000 0.125000
vt 0.375000 0.125000
vt 0.375000 0.125000
vt 0.375000 0.125000
vt 0.375000 0.125000
vt 0.375000 0.125000
vt 0.375000 0.125000
vt 0.375000 0.125000
vt 0.375000 0.125000
vt 0.375000 0.125000
vt 0.375000 0.125000
vt 0.375000 0.125000
vt 0.375000 0.125000
vt 0.375000 0.125000
vt 0.375000 0.125000
vt 0.375000 0.125000
vt 0.375000 0.125000
vt 0.375000 0.125000
vt 0.375000 0.125000
vt 0.375000 0.125000
vt 0.375000 0.125000
vt 0.375000 0.125000
vt 0.375000 0.125000
vt 0.375000 0.125000
vt 0.375000 0.125000
vt 0.375000 0.125000
vt 0.375000 0.125000
vt 0.375000 0.125000
vt 0.375000 0.125000
vt 0.375000 0.125000
vt 0.375000 0.125000
vt 0.375000 0.125000
vt 0.375000 0.125000
vt 0.375000 0.125000
vt 0.375000 0.125000
vt 0.375000 0.125000
vt 0.375000 0.125000
vt 0.375000 0.125000
vt 0.375000 0.125000
vt 0.375000 0.125000
vt 0.375000 0.125000
vn -0.0000 -1.0000 0.0000
vn 0.5618 -0.8272 0.0024
vn 0.5999 -0.6001 0.5291
vn -0.0286 -0.8029 0.5954
vn -0.0143 0.9999 -0.0010
vn -0.5892 0.8073 0.0324
vn -0.5447 0.6850 0.4839
vn -0.0045 0.7888 0.6146
vn 1.0000 -0.0016 0.0093
vn 0.5738 0.8189 0.0125
vn 0.5376 0.6991 0.4715
vn 0.9981 -0.0000 0.0619
vn -0.0157 0.7752 -0.6315
vn -0.0006 0.0033 -1.0000
vn -0.2939 -0.0072 -0.9558
vn -0.5066 0.7196 -0.4749
vn -0.0144 -0.0274 0.9995
vn 0.1137 -0.1306 0.9849
vn -0.9960 0.0022 -0.0897
vn -0.5659 0.8233 -0.0440
vn -0.9847 0.0013 -0.1745
vn -0.5483 -0.8348 -0.0489
vn -0.4860 -0.7341 -0.4742
vn 0.0215 0.7534 0.6572
vn -0.0006 -0.7681 -0.6404
vn 0.7921 -0.0793 0.6052
vn -0.6396 -0.0000 0.7687
vn -0.6331 -0.1421 0.7609
vn -0.6331 0.1421 0.7609
vn -0.2643 0.0061 0.9644
vn -0.6883 0.0142 0.7253
vn -0.5293 -0.6919 0.4911
vn 0.6741 -0.1122 0.7301
vn 0.6784 0.0045 0.7347
vn 0.6784 0.0041 0.7347
vn 0.6733 0.1214 0.7293
vn -0.7156 0.0081 -0.6985
vn 0.5271 -0.0036 -0.8498
vn 0.5214 -0.1468 -0.8406
vn 0.5271 -0.0026 -0.8498
vn 0.5218 0.1417 -0.8412
vn 0.2773 -0.0066 -0.9608
vn 0.6953 0.0000 -0.7187
vn 0.5254 -0.6976 -0.4871
vn 0.5388 0.6809 -0.4960
vn -0.6732 0.0000 -0.7395
vn -0.6681 -0.1220 -0.7340
vn -0.6681 0.1220 -0.7340
vn 0.0038 -0.7742 -0.6330
vn 0.0121 -0.0063 -0.9999
vn -0.0013 0.0218 0.9998
vn 0.0006 -0.7668 0.6419
vn 0.0267 0.7693 -0.6383
vn 0.0233 0.9997 0.0112
vn -0.5723 -0.8191 0.0387
vn 0.0233 0.9997 0.0043
vn 0.5813 0.8116 -0.0587
vn 0.9863 -0.0032 -0.1650
vn 0.9943 -0.0032 -0.1069
vn 0.5655 -0.8226 -0.0599
vn -0.9902 -0.0001 0.1394
vn -0.9976 0.0028 0.0696
vn -0.0196 0.9998 0.0070
vn -0.0229 -0.9992 -0.0329
vn 0.5504 -0.8346 -0.0226
vn 0.5963 -0.6016 0.5315
vn -0.0476 -0.8216 0.5680
vn -0.0190 0.9997 0.0164
vn -0.5822 0.8122 0.0370
vn -0.5396 0.6845 0.4903
vn -0.0055 0.7813 0.6241
vn 0.9999 -0.0093 0.0077
vn 0.5835 0.8117 0.0257
vn 0.5432 0.6809 0.4913
vn 0.9979 -0.0061 0.0641
vn -0.0334 0.7729 -0.6336
vn -0.0007 0.0015 -1.0000
vn -0.2930 -0.0148 -0.9560
vn -0.5203 0.6942 -0.4974
vn -0.0159 -0.0304 0.9994
vn 0.1065 -0.1366 0.9849
vn -0.9960 -0.0038 -0.0893
vn -0.5762 0.8152 -0.0582
vn -0.9846 -0.0200 -0.1736
vn -0.5316 -0.8467 -0.0229
vn -0.4709 -0.7603 -0.4474
vn 0.0204 0.7418 0.6703
vn 0.0176 -0.7722 -0.6351
vn 0.7929 -0.0766 0.6045
vn -0.6395 -0.0024 0.7687
vn -0.6300 -0.1363 0.7645
vn -0.6397 0.0046 0.7686
vn -0.6370 0.1394 0.7581
vn -0.2640 0.0063 0.9645
vn -0.6879 0.0111 0.7257
vn -0.5304 -0.7028 0.4741
vn 0.6726 -0.1136 0.7312
vn 0.6784 0.0023 0.7347
vn 0.6784 0.0044 0.7347
vn 0.6748 0.1206 0.7281
vn -0.7162 0.0142 -0.6977
vn 0.5271 -0.0007 -0.8498
vn 0.5233 -0.1444 -0.8399
vn 0.5271 -0.0018 -0.8498
vn 0.5199 0.1441 -0.8420
vn 0.2740 -0.0167 -0.9616
vn 0.6955 -0.0043 -0.7185
vn 0.5163 -0.7190 -0.4652
vn 0.5484 0.6562 -0.5183
vn -0.6726 -0.0079 -0.7400
vn -0.6738 0.0087 -0.7389
vn -0.6595 -0.1219 -0.7417
vn -0.6766 0.1234 -0.7259
vn -0.0160 -0.7738 -0.6333
vn 0.0126 -0.0004 -0.9999
vn -0.0019 0.0201 0.9998
vn -0.0044 -0.7831 0.6218
vn 0.0449 0.7697 -0.6368
vn 0.0238 0.9992 0.0308
vn -0.5699 -0.8210 0.0345
vn 0.0012 -0.9997 -0.0228
vn 0.0152 -0.9997 0.0172
vn 0.0362 0.9993 -0.0012
vn 0.5881 0.8054 -0.0738
vn 0.9863 -0.0105 -0.1649
vn 0.9939 0.0057 -0.1100
vn 0.5626 -0.8247 -0.0581
vn -0.9902 -0.0021 0.1393
vn -0.9975 0.0112 0.0696
vn -0.0352 0.9994 0.0068
vn -0.0231 -0.9997 0.0045
s 1
f 52/1/1 37/2/2 4/3/3 26/4/4
f 48/5/5 35/6/6 7/7/7 22/8/8
f 44/9/9 34/10/10 3/11/11 9/12/12
f 27/13/13 29/14/14 14/15/15 5/16/16
f 31/17/17 26/4/4 4/3/3 16/18/18
f 42/19/19 36/20/20 5/16/16 10/21/21
f 39/22/22 42/19/19 10/21/21 6/23/23
f 21/24/24 31/17/17 16/18/18 3/11/11
f 24/25/25 6/23/23 14/15/15 29/14/14
f 37/2/2 44/9/9 9/12/12 4/3/3
f 16/18/18 20/26/26 3/11/11
f 9/12/27 3/11/28 20/26/27
f 16/18/18 4/3/3 20/26/26
f 4/3/29 9/12/27 20/26/27
f 13/27/30 17/28/31 8/29/32
f 13/27/30 7/7/7 17/28/31
f 7/7/33 11/30/34 17/28/35
f 11/30/34 8/29/36 17/28/35
f 14/15/15 18/31/37 5/16/16
f 10/21/38 5/16/39 18/31/40
f 14/15/15 6/23/23 18/31/37
f 6/23/41 10/21/38 18/31/40
f 15/32/42 19/33/43 2/34/44
f 15/32/42 1/35/45 19/33/43
f 12/36/46 19/33/46 1/35/47
f 2/34/48 19/33/46 12/36/46
f 2/34/44 23/37/49 30/38/50 15/32/42
f 7/7/7 13/27/30 32/39/51 22/8/8
f 13/27/30 8/29/32 25/40/52 32/39/51
f 1/35/45 15/32/42 30/38/50 28/41/53
f 34/10/10 46/42/54 21/24/24 3/11/11
f 40/43/55 50/44/1 25/40/52 8/29/32
f 6/23/23 24/25/25 49/45/1 39/22/22
f 39/22/22 49/45/1 50/44/1 40/43/55
f 1/35/45 28/41/53 45/46/56 33/47/57
f 33/47/57 45/46/56 46/42/54 34/10/10
f 2/34/44 12/36/58 43/48/59 38/49/60
f 38/49/60 43/48/59 44/9/9 37/2/2
f 8/29/32 11/30/61 41/50/62 40/43/55
f 40/43/55 41/50/62 42/19/19 39/22/22
f 11/30/61 7/7/7 35/6/6 41/50/62
f 41/50/62 35/6/6 36/20/20 42/19/19
f 12/36/58 1/35/45 33/47/57 43/48/59
f 43/48/59 33/47/57 34/10/10 44/9/9
f 27/13/13 5/16/16 36/20/20 47/51/63
f 47/51/63 36/20/20 35/6/6 48/5/5
f 23/37/49 2/34/44 38/49/60 51/52/1
f 51/52/1 38/49/60 37/2/2 52/1/1
f 104/53/64 89/54/65 56/55/66 78/56/67
f 100/57/68 87/58/69 59/59/70 74/60/71
f 96/61/72 86/62/73 55/63/74 61/64/75
f 79/65/76 81/66/77 66/67/78 57/68/79
f 83/69/80 78/56/67 56/55/66 68/70/81
f 94/71/82 88/72/83 57/68/79 62/73/84
f 91/74/85 94/71/82 62/73/84 58/75/86
f 73/76/87 83/69/80 68/70/81 55/63/74
f 76/77/88 58/75/86 66/67/78 81/66/77
f 89/54/65 96/61/72 61/64/75 56/55/66
f 68/70/81 72/78/89 55/63/74
f 61/64/90 55/63/91 72/78/92
f 68/70/81 56/55/66 72/78/89
f 56/55/93 61/64/90 72/78/92
f 65/79/94 69/80/95 60/81/96
f 65/79/94 59/59/70 69/80/95
f 59/59/97 63/82/98 69/80/99
f 63/82/98 60/81/100 69/80/99
f 66/67/78 70/83/101 57/68/79
f 62/73/102 57/68/103 70/83/104
f 66/67/78 58/75/86 70/83/101
f 58/75/105 62/73/102 70/83/104
f 67/84/106 71/85/107 54/86/108
f 67/84/106 53/87/109 71/85/107
f 64/88/110 71/85/111 53/87/112
f 54/86/113 71/85/111 64/88/110
f 54/86/108 75/89/114 82/90/115 67/84/106
f 59/59/70 65/79/94 84/91/116 74/60/71
f 65/79/94 60/81/96 77/92/117 84/91/116
f 53/87/109 67/84/106 82/90/115 80/93/118
f 86/62/73 98/94/119 73/76/87 55/63/74
f 92/95/120 102/96/121 77/92/117 60/81/96
f 58/75/86 76/77/88 101/97/122 91/74/85
f 91/74/85 101/97/122 102/96/121 92/95/120
f 53/87/109 80/93/118 97/98/123 85/99/124
f 85/99/124 97/98/123 98/94/119 86/62/73
f 54/86/108 64/88/125 95/100/126 90/101/127
f 90/101/127 95/100/126 96/61/72 89/54/65
f 60/81/96 63/82/128 93/102/129 92/95/120
f 92/95/120 93/102/129 94/71/82 91/74/85
f 63/82/128 59/59/70 87/58/69 93/102/129
f 93/102/129 87/58/69 88/72/83 94/71/82
f 64/88/125 53/87/109 85/99/124 95/100/126
f 95/100/126 85/99/124 86/62/73 96/61/72
f 79/65/76 57/68/79 88/72/83 99/103/130
f 99/103/130 88/72/83 87/58/69 100/57/68
f 75/89/114 54/86/108 90/101/127 103/104/131
f 103/104/131 90/101/127 89/54/65 104/53/64
f 23/105/49 24/106/25 29/107/14 30/108/50
f 22/109/8 32/110/51 31/111/17 21/112/24
f 32/110/51 25/113/52 26/114/4 31/111/17
f 28/115/53 30/108/50 29/107/14 27/116/13
f 46/117/54 48/118/5 22/109/8 21/112/24
f 50/119/1 52/120/1 26/114/4 25/113/52
f 24/106/25 23/105/49 51/121/1 49/122/1
f 49/122/1 51/121/1 52/120/1 50/119/1
f 28/115/53 27/116/13 47/123/63 45/124/56
f 45/124/56 47/123/63 48/118/5 46/117/54
f 75/125/114 76/126/88 81/127/77 82/128/115
f 74/129/71 84/130/116 83/131/80 73/132/87
f 84/130/116 77/133/117 78/134/67 83/131/80
f 80/135/118 82/128/115 81/127/77 79/136/76
f 98/137/119 100/138/68 74/129/71 73/132/87
f 102/139/121 104/140/64 78/134/67 77/133/117
f 76/126/88 75/125/114 103/141/131 101/142/122
f 101/142/122 103/141/131 104/140/64 102/139/121
f 80/135/118 79/136/76 99/143/130 97/144/123
f 97/144/123 99/143/130 100/138/68 98/137/119
