# Blender v3.0.0 OBJ File: 'City.blend'
# www.blender.org
o flour_flour_item
v 0.075000 0.000000 0.070000
v 0.075000 0.120000 0.070000
v 0.095000 0.000000 0.050000
v 0.095000 0.120000 0.050000
v 0.095000 0.000000 -0.050000
v 0.095000 0.120000 -0.050000
v -0.075000 0.000000 -0.070000
v -0.095000 0.000000 -0.050000
v -0.095000 0.120000 -0.050000
v -0.095000 0.000000 0.050000
v -0.095000 0.120000 0.050000
v -0.075000 0.000000 0.070000
v -0.075000 0.120000 0.070000
v -0.035000 0.000000 0.070000
v 0.035000 0.000000 0.070000
v 0.015000 0.085000 0.070000
v -0.015000 0.085000 0.070000
v -0.035000 0.000000 0.060000
v 0.035000 0.000000 0.060000
v -0.075001 0.120000 -0.069999
v 0.074999 0.000000 -0.069999
v 0.074999 0.120000 -0.069999
v 0.034999 0.000000 -0.069999
v -0.035001 0.000000 -0.069999
v -0.015001 0.085000 -0.069999
v 0.014999 0.085000 -0.069999
v 0.034999 0.000000 -0.059999
v -0.035001 0.000000 -0.059999
v -0.010000 0.120000 0.070000
v -0.010000 0.135000 0.070000
v -0.005000 0.140000 0.070000
v 0.005000 0.140000 0.070000
v 0.010000 0.135000 0.070000
v 0.010000 0.120000 0.070000
v -0.010000 0.120000 -0.070000
v -0.010000 0.135000 -0.070000
v -0.005000 0.140000 -0.070000
v 0.005000 0.140000 -0.070000
v 0.010000 0.135000 -0.070000
v 0.010000 0.120000 -0.070000
v -0.010000 0.120000 -0.075000
v -0.080000 0.120000 -0.075000
v -0.100000 0.120000 -0.055000
v -0.100000 0.120000 0.055000
v -0.080000 0.120000 0.075000
v -0.010000 0.120000 0.075000
v -0.010000 0.130000 -0.075000
v -0.080000 0.130000 -0.075000
v -0.100000 0.130000 -0.055000
v -0.100000 0.130000 0.055000
v -0.080000 0.130000 0.075000
v -0.010000 0.130000 0.075000
v 0.010000 0.120000 0.075001
v 0.080000 0.120000 0.075001
v 0.100000 0.120000 0.055001
v 0.100000 0.120000 -0.054999
v 0.080000 0.120000 -0.074999
v 0.010000 0.120000 -0.074999
v 0.010000 0.130000 0.075001
v 0.080000 0.130000 0.075001
v 0.100000 0.130000 0.055001
v 0.100000 0.130000 -0.054999
v 0.080000 0.130000 -0.074999
v 0.010000 0.130000 -0.074999
vt 0.125000 0.125000
vt 0.125000 0.125000
vt 0.125000 0.125000
vt 0.125000 0.125000
vt 0.125000 0.125000
vt 0.125000 0.125000
vt 0.125000 0.125000
vt 0.125000 0.125000
vt 0.125000 0.125000
vt 0.125000 0.125000
vt 0.125000 0.125000
vt 0.125000 0.125000
vt 0.125000 0.125000
vt 0.125000 0.125000
vt 0.125000 0.125000
vt 0.125000 0.125000
vt 0.125000 0.125000
vt 0.125000 0.125000
vt 0.125000 0.125000
vt 0.125000 0.125000
vt 0.125000 0.125000
vt 0.125000 0.125000
vt 0.125000 0.125000
vt 0.125000 0.125000
vt 0.125000 0.125000
vt 0.125000 0.125000
vt 0.125000 0.125000
vt 0.125000 0.125000
vt 0.125000 0.125000
vt 0.125000 0.125000
vt 0.125000 0.125000
vt 0.125000 0.125000
vt 0.125000 0.125000
vt 0.125000 0.125000
vt 0.125000 0.125000
vt 0.125000 0.125000
vt 0.125000 0.125000
vt 0.125000 0.125000
vt 0.125000 0.125000
vt 0.125000 0.125000
vt 0.375000 0.125000
vt 0.375000 0.125000
vt 0.375000 0.125000
vt 0.375000 0.125000
vt 0.375000 0.125000
vt 0.375000 0.125000
vt 0.375000 0.125000
vt 0.375000 0.125000
vt 0.375000 0.125000
vt 0.375000 0.125000
vt 0.375000 0.125000
vt 0.375000 0.125000
vt 0.625000 0.125000
vt 0.625000 0.125000
vt 0.625000 0.125000
vt 0.625000 0.125000
vt 0.625000 0.125000
vt 0.625000 0.125000
vt 0.625000 0.125000
vt 0.625000 0.125000
vt 0.625000 0.125000
vt 0.625000 0.125000
vt 0.625000 0.125000
vt 0.625000 0.125000
vt 0.625000 0.125000
vt 0.625000 0.125000
vt 0.625000 0.125000
vt 0.625000 0.125000
vt 0.625000 0.125000
vt 0.625000 0.125000
vt 0.625000 0.125000
vt 0.625000 0.125000
vt 0.625000 0.125000
vt 0.625000 0.125000
vt 0.625000 0.125000
vt 0.625000 0.125000
vn 0.3827 -0.0000 0.9239
vn 0.9239 -0.0000 0.3827
vn 0.9239 0.0000 -0.3827
vn 0.3827 -0.0000 -0.9239
vn -0.3827 -0.0000 -0.9239
vn -0.9239 0.0000 -0.3827
vn -0.9239 -0.0000 0.3827
vn -0.3827 -0.0000 0.9239
vn 0.0000 -0.0000 1.0000
vn -0.3827 0.9239 0.0000
vn -0.9239 0.3827 0.0000
vn -0.0000 -0.0000 -1.0000
vn 0.9239 0.3827 0.0000
vn 0.3827 0.9239 0.0000
vn 1.0000 0.0000 0.0000
vn -1.0000 0.0000 0.0000
vn -0.0000 -1.0000 -0.0000
vn 0.9734 -0.2290 0.0000
vn -0.9734 -0.2290 0.0000
vn 0.0000 -0.1168 0.9932
vn -0.0000 -0.1168 -0.9932
vn 0.0000 1.0000 0.0000
s 1
f 2/1/1 1/2/1 3/3/2 4/4/2
f 4/4/2 3/3/2 5/5/3 6/6/3
f 6/6/3 5/5/3 21/7/4 22/8/4
f 20/9/5 7/10/5 8/11/6 9/12/6
f 9/12/6 8/11/6 10/13/7 11/14/7
f 11/14/7 10/13/7 12/15/8 13/16/8
f 14/17/9 17/18/9 13/16/8 12/15/8
f 15/19/9 1/2/1 2/1/1 16/20/9
f 31/21/10 37/22/10 36/23/11 30/24/11
f 23/25/12 26/26/12 22/8/4 21/7/4
f 24/27/12 7/10/5 20/9/5 25/28/12
f 33/29/13 39/30/13 38/31/14 32/32/14
f 34/33/15 40/34/15 39/30/13 33/29/13
f 32/32/14 38/31/14 37/22/10 31/21/10
f 30/24/11 36/23/11 35/35/16 29/36/16
f 30/24/9 33/29/9 32/32/9 31/21/9
f 29/36/9 34/33/9 33/29/9 30/24/9
f 36/23/12 37/22/12 38/31/12 39/30/12
f 35/35/12 36/23/12 39/30/12 40/34/12
f 16/20/9 34/33/9 29/36/9 17/18/9
f 17/18/9 29/36/9 13/16/8
f 16/20/9 2/1/1 34/33/9
f 26/26/12 25/28/12 35/35/12 40/34/12
f 25/28/12 20/9/5 35/35/12
f 26/26/12 40/34/12 22/8/4
f 8/11/17 7/10/17 24/27/17 28/37/17
f 10/13/17 18/38/17 14/17/17 12/15/17
f 8/11/17 28/37/17 18/38/17 10/13/17
f 3/3/17 1/2/17 15/19/17 19/39/17
f 5/5/17 3/3/17 19/39/17 27/40/17
f 23/25/17 21/7/17 5/5/17 27/40/17
f 17/41/18 14/42/18 18/43/18
f 16/44/19 19/45/19 15/46/19
f 16/44/20 17/41/20 18/43/20 19/45/20
f 26/47/19 23/48/19 27/49/19
f 25/50/18 28/51/18 24/52/18
f 25/50/21 26/47/21 27/49/21 28/51/21
f 19/45/17 18/43/17 28/51/17 27/49/17
f 41/53/15 47/54/15 52/55/15 46/56/15
f 44/57/7 45/58/8 51/59/8 50/60/7
f 42/61/5 43/62/6 49/63/6 48/64/5
f 45/58/8 46/56/9 52/55/9 51/59/8
f 43/62/6 44/57/7 50/60/7 49/63/6
f 41/53/12 42/61/5 48/64/5 47/54/12
f 48/64/22 49/63/22 50/60/22 51/59/22
f 47/54/22 48/64/22 51/59/22 52/55/22
f 42/61/17 45/58/17 44/57/17 43/62/17
f 41/53/17 46/56/17 45/58/17 42/61/17
f 53/65/16 59/66/16 64/67/16 58/68/16
f 56/69/3 57/70/4 63/71/4 62/72/3
f 54/73/1 55/74/2 61/75/2 60/76/1
f 57/70/4 58/68/12 64/67/12 63/71/4
f 55/74/2 56/69/3 62/72/3 61/75/2
f 53/65/9 54/73/1 60/76/1 59/66/9
f 60/76/22 61/75/22 62/72/22 63/71/22
f 59/66/22 60/76/22 63/71/22 64/67/22
f 54/73/17 57/70/17 56/69/17 55/74/17
f 53/65/17 58/68/17 57/70/17 54/73/17
