# Blender v3.0.0 OBJ File: 'City.blend'
# www.blender.org
o water_water_item
v -0.000002 0.260000 -0.066000
v -0.033002 0.260000 -0.057158
v -0.057159 0.260000 -0.033000
v -0.066002 0.260000 0.000000
v -0.057159 0.260000 0.033000
v -0.033002 0.260000 0.057158
v -0.000002 0.260000 0.066000
v 0.032998 0.260000 0.057158
v 0.057156 0.260000 0.033000
v 0.065998 0.260000 0.000000
v 0.057156 0.260000 -0.033000
v 0.032998 0.260000 -0.057158
v -0.000002 0.215000 -0.110000
v -0.000002 0.231357 -0.102008
v -0.051006 0.231357 -0.088342
v -0.055002 0.215000 -0.095263
v -0.095265 0.215000 -0.055000
v -0.088344 0.231357 -0.051004
v -0.110002 0.215000 0.000000
v -0.102010 0.231357 0.000000
v -0.088344 0.231357 0.051004
v -0.095265 0.215000 0.055000
v -0.055002 0.215000 0.095263
v -0.051006 0.231357 0.088342
v -0.000002 0.231357 0.102008
v -0.000002 0.215000 0.110000
v 0.054998 0.215000 0.095263
v 0.051002 0.231357 0.088342
v 0.095261 0.215000 0.055000
v 0.088340 0.231357 0.051004
v 0.109998 0.215000 0.000000
v 0.102006 0.231357 0.000000
v 0.095261 0.215000 -0.055000
v 0.088340 0.231357 -0.051004
v 0.054998 0.215000 -0.095263
v 0.051002 0.231357 -0.088342
v -0.000001 0.260000 -0.030000
v -0.021215 0.260000 -0.021213
v -0.030001 0.260000 0.000000
v -0.021215 0.260000 0.021213
v -0.000001 0.260000 0.030000
v 0.021212 0.260000 0.021213
v 0.029999 0.260000 0.000000
v 0.021212 0.260000 -0.021213
v -0.000001 0.270000 -0.030000
v -0.021215 0.270000 -0.021213
v -0.030001 0.270000 0.000000
v -0.021215 0.270000 0.021213
v -0.000001 0.270000 0.030000
v 0.021212 0.270000 0.021213
v 0.029999 0.270000 0.000000
v 0.021212 0.270000 -0.021213
v -0.015002 0.240000 0.060000
v -0.015002 0.230000 0.095000
v 0.014998 0.230000 0.095000
v 0.014998 0.240000 0.060000
v -0.015002 0.250000 0.060000
v -0.010002 0.255000 0.060000
v -0.010002 0.255000 0.095000
v -0.015002 0.250000 0.095000
v 0.014998 0.250000 0.095000
v 0.009998 0.255000 0.095000
v 0.009998 0.255000 0.060000
v 0.014998 0.250000 0.060000
v 0.059998 0.240000 0.015001
v 0.094998 0.230000 0.015001
v 0.094998 0.230000 -0.014999
v 0.059998 0.240000 -0.014999
v 0.059998 0.250000 0.015001
v 0.059998 0.255000 0.010001
v 0.094998 0.255000 0.010001
v 0.094998 0.250000 0.015001
v 0.094998 0.250000 -0.014999
v 0.094998 0.255000 -0.009999
v 0.059998 0.255000 -0.009999
v 0.059998 0.250000 -0.014999
v 0.014998 0.240000 -0.059999
v 0.014998 0.230000 -0.094999
v -0.015002 0.230000 -0.094999
v -0.015002 0.240000 -0.059999
v 0.014998 0.250000 -0.059999
v 0.009998 0.255000 -0.059999
v 0.009998 0.255000 -0.094999
v 0.014998 0.250000 -0.094999
v -0.015002 0.250000 -0.094999
v -0.010002 0.255000 -0.094999
v -0.010002 0.255000 -0.059999
v -0.015002 0.250000 -0.059999
v -0.060002 0.240000 -0.014998
v -0.095002 0.230000 -0.014998
v -0.095002 0.230000 0.015002
v -0.060002 0.240000 0.015002
v -0.060002 0.250000 -0.014998
v -0.060002 0.255000 -0.009998
v -0.095002 0.255000 -0.009998
v -0.095002 0.250000 -0.014998
v -0.095002 0.250000 0.015002
v -0.095002 0.255000 0.010002
v -0.060002 0.255000 0.010002
v -0.060002 0.250000 0.015002
v 0.054998 0.010000 -0.095263
v 0.049822 0.000000 -0.086297
v 0.095261 0.010000 -0.055000
v 0.086295 0.000000 -0.049824
v 0.109998 0.010000 0.000000
v 0.099645 -0.000000 -0.000000
v 0.095261 0.010000 0.055000
v 0.086295 -0.000000 0.049824
v 0.054998 0.010000 0.095263
v 0.049822 0.000000 0.086297
v -0.000002 0.010000 0.110000
v -0.000002 -0.000000 0.099647
v -0.055002 0.010000 0.095263
v -0.049826 0.000000 0.086297
v -0.095265 0.010000 0.055000
v -0.086299 -0.000000 0.049824
v -0.110002 0.010000 0.000000
v -0.099649 -0.000000 -0.000000
v -0.095265 0.010000 -0.055000
v -0.086299 0.000000 -0.049824
v -0.049826 0.000000 -0.086297
v -0.055002 0.010000 -0.095263
v -0.000002 0.000000 -0.099647
v -0.000002 0.010000 -0.110000
vt 0.125000 0.125000
vt 0.125000 0.125000
vt 0.125000 0.125000
vt 0.125000 0.125000
vt 0.125000 0.125000
vt 0.125000 0.125000
vt 0.125000 0.125000
vt 0.125000 0.125000
vt 0.125000 0.125000
vt 0.125000 0.125000
vt 0.125000 0.125000
vt 0.125000 0.125000
vt 0.125000 0.125000
vt 0.125000 0.125000
vt 0.125000 0.125000
vt 0.125000 0.125000
vt 0.125000 0.125000
vt 0.125000 0.125000
vt 0.125000 0.125000
vt 0.125000 0.125000
vt 0.125000 0.125000
vt 0.125000 0.125000
vt 0.125000 0.125000
vt 0.125000 0.125000
vt 0.125000 0.125000
vt 0.125000 0.125000
vt 0.125000 0.125000
vt 0.125000 0.125000
vt 0.125000 0.125000
vt 0.125000 0.125000
vt 0.125000 0.125000
vt 0.125000 0.125000
vt 0.125000 0.125000
vt 0.125000 0.125000
vt 0.125000 0.125000
vt 0.125000 0.125000
vt 0.125000 0.125000
vt 0.125000 0.125000
vt 0.125000 0.125000
vt 0.125000 0.125000
vt 0.125000 0.125000
vt 0.125000 0.125000
vt 0.125000 0.125000
vt 0.125000 0.125000
vt 0.125000 0.125000
vt 0.125000 0.125000
vt 0.125000 0.125000
vt 0.125000 0.125000
vt 0.125000 0.125000
vt 0.125000 0.125000
vt 0.125000 0.125000
vt 0.125000 0.125000
vt 0.125000 0.125000
vt 0.125000 0.125000
vt 0.125000 0.125000
vt 0.125000 0.125000
vt 0.125000 0.125000
vt 0.125000 0.125000
vt 0.125000 0.125000
vt 0.125000 0.125000
vt 0.125000 0.125000
vt 0.125000 0.125000
vt 0.125000 0.125000
vt 0.125000 0.125000
vt 0.125000 0.125000
vt 0.125000 0.125000
vt 0.125000 0.125000
vt 0.125000 0.125000
vt 0.125000 0.125000
vt 0.125000 0.125000
vt 0.125000 0.125000
vt 0.125000 0.125000
vt 0.125000 0.125000
vt 0.125000 0.125000
vt 0.125000 0.125000
vt 0.125000 0.125000
vt 0.125000 0.125000
vt 0.125000 0.125000
vt 0.125000 0.125000
vt 0.125000 0.125000
vt 0.125000 0.125000
vt 0.125000 0.125000
vt 0.125000 0.125000
vt 0.125000 0.125000
vt 0.125000 0.125000
vt 0.125000 0.125000
vt 0.125000 0.125000
vt 0.125000 0.125000
vt 0.125000 0.125000
vt 0.125000 0.125000
vt 0.125000 0.125000
vt 0.125000 0.125000
vt 0.125000 0.125000
vt 0.125000 0.125000
vt 0.125000 0.125000
vt 0.125000 0.125000
vt 0.125000 0.125000
vt 0.125000 0.125000
vt 0.125000 0.125000
vt 0.125000 0.125000
vt 0.125000 0.125000
vt 0.125000 0.125000
vt 0.125000 0.125000
vt 0.125000 0.125000
vt 0.125000 0.125000
vt 0.125000 0.125000
vt 0.125000 0.125000
vt 0.125000 0.125000
vt 0.375000 0.125000
vt 0.375000 0.125000
vt 0.375000 0.125000
vt 0.375000 0.125000
vt 0.375000 0.125000
vt 0.375000 0.125000
vt 0.375000 0.125000
vt 0.375000 0.125000
vt 0.375000 0.125000
vt 0.375000 0.125000
vt 0.375000 0.125000
vt 0.375000 0.125000
vt 0.375000 0.125000
vt 0.375000 0.125000
vt 0.375000 0.125000
vt 0.375000 0.125000
vn -0.6225 0.7826 0.0000
vn -0.7932 0.6090 0.0000
vn -0.6869 0.6090 0.3966
vn -0.5391 0.7826 0.3113
vn -0.3113 0.7826 0.5391
vn -0.3966 0.6090 0.6869
vn 0.3113 0.7826 -0.5391
vn 0.3966 0.6090 -0.6869
vn 0.0000 0.6090 -0.7932
vn 0.0000 0.7826 -0.6225
vn -0.3113 0.7826 -0.5391
vn -0.3966 0.6090 -0.6869
vn -0.6869 0.6090 -0.3966
vn -0.5391 0.7826 -0.3113
vn 0.5391 0.7826 0.3113
vn 0.3113 0.7826 0.5391
vn 0.3966 0.6090 0.6869
vn 0.6869 0.6090 0.3966
vn 0.5391 0.7826 -0.3113
vn 0.6869 0.6090 -0.3966
vn 0.9761 0.2175 0.0000
vn 0.8453 0.2175 0.4880
vn 0.8048 -0.3692 0.4647
vn 0.9293 -0.3692 -0.0000
vn 0.6225 0.7826 0.0000
vn 0.7932 0.6090 0.0000
vn 0.0000 0.7826 0.6225
vn 0.0000 0.6090 0.7932
vn -0.9761 0.2175 0.0000
vn -0.8453 0.2175 -0.4880
vn -0.8048 -0.3692 -0.4647
vn -0.9293 -0.3692 0.0000
vn -0.4880 0.2175 0.8453
vn -0.4647 -0.3692 0.8048
vn 0.0000 -0.3692 0.9293
vn -0.0000 0.2175 0.9761
vn 0.4880 0.2175 0.8453
vn 0.4647 -0.3692 0.8048
vn -0.8453 0.2175 0.4880
vn -0.8048 -0.3692 0.4647
vn -0.4880 0.2175 -0.8453
vn -0.4647 -0.3692 -0.8048
vn -0.0000 0.2175 -0.9761
vn -0.0000 -0.3692 -0.9293
vn 0.4880 0.2175 -0.8453
vn 0.4647 -0.3692 -0.8048
vn 0.8453 0.2175 -0.4880
vn 0.8048 -0.3692 -0.4647
vn 0.0000 1.0000 0.0000
vn 0.9239 0.3827 0.0000
vn 1.0000 0.0000 0.0000
vn -0.0000 -0.0000 1.0000
vn -0.9239 0.3827 -0.0000
vn -1.0000 0.0000 0.0000
vn -0.3827 0.9239 0.0000
vn 0.3827 0.9239 0.0000
vn -0.0000 0.3827 -0.9239
vn -0.0000 0.0000 -1.0000
vn -0.0000 0.3827 0.9239
vn -0.0000 0.9239 0.3827
vn -0.0000 0.9239 -0.3827
vn 0.3474 -0.7193 -0.6017
vn -0.0000 -0.7193 -0.6947
vn 0.6017 -0.7193 -0.3474
vn 0.6947 -0.7193 -0.0000
vn 0.6017 -0.7193 0.3474
vn 0.3474 -0.7193 0.6017
vn 0.0000 -0.7193 0.6947
vn -0.3474 -0.7193 0.6017
vn -0.6017 -0.7193 0.3474
vn -0.6947 -0.7193 0.0000
vn -0.6017 -0.7193 -0.3474
vn -0.3474 -0.7193 -0.6017
vn 0.0000 -1.0000 -0.0000
vn 0.9239 -0.0000 -0.3827
vn 0.3827 0.0000 0.9239
vn -0.9239 0.0000 0.3827
vn -0.3827 0.0000 -0.9239
vn 0.3827 0.0000 -0.9239
vn 0.9239 0.0000 0.3827
vn -0.3827 0.0000 0.9239
vn -0.9239 0.0000 -0.3827
s 1
f 4/1/1 20/2/2 21/3/3 5/4/4
f 6/5/5 5/4/4 21/3/3 24/6/6
f 12/7/7 36/8/8 14/9/9 1/10/10
f 2/11/11 15/12/12 18/13/13 3/14/14
f 9/15/15 8/16/16 28/17/17 30/18/18
f 12/7/7 11/19/19 34/20/20 36/8/8
f 31/21/21 29/22/22 107/23/23 105/24/24
f 10/25/25 32/26/26 34/20/20 11/19/19
f 7/27/27 25/28/28 28/17/17 8/16/16
f 2/11/11 1/10/10 14/9/9 15/12/12
f 19/29/29 17/30/30 119/31/31 117/32/32
f 23/33/33 113/34/34 111/35/35 26/36/36
f 27/37/37 26/36/36 111/35/35 109/38/38
f 22/39/39 115/40/40 113/34/34 23/33/33
f 6/5/5 24/6/6 25/28/28 7/27/27
f 19/29/29 117/32/32 115/40/40 22/39/39
f 16/41/41 122/42/42 119/31/31 17/30/30
f 3/14/14 18/13/13 20/2/2 4/1/1
f 16/41/41 13/43/43 124/44/44 122/42/42
f 35/45/45 101/46/46 124/44/44 13/43/43
f 27/37/37 109/38/38 107/23/23 29/22/22
f 9/15/15 30/18/18 32/26/26 10/25/25
f 16/41/41 17/30/30 18/13/13 15/12/12
f 17/30/30 19/29/29 20/2/2 18/13/13
f 22/39/39 23/33/33 24/6/6 21/3/3
f 26/36/36 27/37/37 28/17/17 25/28/28
f 27/37/37 29/22/22 30/18/18 28/17/17
f 29/22/22 31/21/21 32/26/26 30/18/18
f 31/21/21 33/47/47 34/20/20 32/26/26
f 33/47/47 35/45/45 36/8/8 34/20/20
f 35/45/45 13/43/43 14/9/9 36/8/8
f 23/33/33 26/36/36 25/28/28 24/6/6
f 19/29/29 22/39/39 21/3/3 20/2/2
f 13/43/43 16/41/41 15/12/12 14/9/9
f 31/21/21 105/24/24 103/48/48 33/47/47
f 10/25/49 11/19/49 12/7/49 1/10/49
f 9/15/49 10/25/49 1/10/49 2/11/49
f 2/11/49 3/14/49 8/16/49 9/15/49
f 3/14/49 4/1/49 7/27/49 8/16/49
f 6/5/49 7/27/49 4/1/49 5/4/49
f 61/49/50 55/50/51 56/51/51 64/52/50
f 55/50/52 61/49/52 62/53/52
f 57/54/53 53/55/54 54/56/54 60/57/53
f 57/54/53 60/57/53 59/58/55 58/59/55
f 61/49/50 64/52/50 63/60/56 62/53/56
f 58/59/55 59/58/55 62/53/56 63/60/56
f 59/58/52 60/57/52 54/56/52
f 62/53/52 59/58/52 54/56/52 55/50/52
f 73/61/57 67/62/58 68/63/58 76/64/57
f 67/62/51 73/61/51 74/65/51
f 69/66/59 65/67/52 66/68/52 72/69/59
f 69/66/59 72/69/59 71/70/60 70/71/60
f 73/61/57 76/64/57 75/72/61 74/65/61
f 70/71/60 71/70/60 74/65/61 75/72/61
f 71/70/51 72/69/51 66/68/51
f 74/65/51 71/70/51 66/68/51 67/62/51
f 85/73/53 79/74/54 80/75/54 88/76/53
f 79/74/58 85/73/58 86/77/58
f 81/78/50 77/79/51 78/80/51 84/81/50
f 81/78/50 84/81/50 83/82/56 82/83/56
f 85/73/53 88/76/53 87/84/55 86/77/55
f 82/83/56 83/82/56 86/77/55 87/84/55
f 83/82/58 84/81/58 78/80/58
f 86/77/58 83/82/58 78/80/58 79/74/58
f 97/85/59 91/86/52 92/87/52 100/88/59
f 91/86/54 97/85/54 98/89/54
f 93/90/57 89/91/58 90/92/58 96/93/57
f 93/90/57 96/93/57 95/94/61 94/95/61
f 97/85/59 100/88/59 99/96/60 98/89/60
f 94/95/61 95/94/61 98/89/60 99/96/60
f 95/94/54 96/93/54 90/92/54
f 98/89/54 95/94/54 90/92/54 91/86/54
f 33/47/47 103/48/48 101/46/46 35/45/45
f 124/44/44 101/46/46 102/97/62 123/98/63
f 101/46/46 103/48/48 104/99/64 102/97/62
f 103/48/48 105/24/24 106/100/65 104/99/64
f 105/24/24 107/23/23 108/101/66 106/100/65
f 107/23/23 109/38/38 110/102/67 108/101/66
f 109/38/38 111/35/35 112/103/68 110/102/67
f 111/35/35 113/34/34 114/104/69 112/103/68
f 113/34/34 115/40/40 116/105/70 114/104/69
f 115/40/40 117/32/32 118/106/71 116/105/70
f 117/32/32 119/31/31 120/107/72 118/106/71
f 122/42/42 124/44/44 123/98/63 121/108/73
f 119/31/31 122/42/42 121/108/73 120/107/72
f 102/97/74 120/107/74 121/108/74 123/98/74
f 104/99/74 118/106/74 120/107/74 102/97/74
f 106/100/74 116/105/74 118/106/74 104/99/74
f 108/101/74 114/104/74 116/105/74 106/100/74
f 110/102/74 112/103/74 114/104/74 108/101/74
f 44/109/75 52/110/75 51/111/75 43/112/75
f 42/113/76 50/114/76 49/115/76 41/116/76
f 40/117/77 48/118/77 47/119/77 39/120/77
f 38/121/78 46/122/78 45/123/78 37/124/78
f 37/124/79 45/123/79 52/110/79 44/109/79
f 43/112/80 51/111/80 50/114/80 42/113/80
f 41/116/81 49/115/81 48/118/81 40/117/81
f 39/120/82 47/119/82 46/122/82 38/121/82
f 48/118/49 49/115/49 50/114/49 47/119/49
f 47/119/49 50/114/49 51/111/49 46/122/49
f 46/122/49 51/111/49 52/110/49 45/123/49
