# Blender v3.0.0 OBJ File: 'City.blend'
# www.blender.org
o raw_heap
v -2.486142 0.040000 0.571106
v -2.545537 0.040000 0.277100
v -2.572265 0.040000 -0.091133
v -2.524747 0.040000 -0.367325
v -2.477231 0.040000 -0.596000
v -2.438624 0.040000 -0.747459
v -2.435655 0.040000 -0.979103
v -2.334682 0.040000 -1.308746
v -1.471009 0.582961 1.571236
v -1.625083 0.561219 1.634262
v -1.769088 0.603098 1.553803
v -1.964744 0.498901 1.500481
v -1.986035 0.530155 1.304375
v -1.936307 0.581117 0.856385
v -2.023822 0.535133 0.701393
v -2.055224 0.522813 0.372360
v -2.163129 0.464249 0.188217
v -2.114566 0.454291 -0.030197
v -1.950513 0.462625 -0.182861
v -1.875714 0.449714 -0.567070
v -2.045932 0.439719 -0.723633
v -2.053205 0.492922 -0.949325
v -1.994065 0.499609 -1.145080
v -1.800197 0.516071 -1.487518
v -1.659831 0.522258 -1.619430
v -1.475406 0.469115 -1.721992
v -1.285051 0.510398 -1.629707
v -1.165734 0.533530 -1.478790
v -1.133838 0.549540 -1.300003
v -1.014753 0.566589 -0.820785
v -0.978963 0.574278 -0.658531
v -1.014592 0.581218 -0.142067
v -0.981830 0.589974 0.012879
v -0.961896 0.520370 0.198250
v -1.052196 0.522586 0.798668
v -0.977702 0.497465 0.982926
v -1.049855 0.519884 1.168541
v -1.308240 0.525251 1.487305
v -1.684359 0.749702 -1.244045
v -1.341161 0.738174 -1.300001
v -1.391935 0.739370 -1.403887
v -1.886247 0.040000 -1.956154
v -1.496697 0.734608 -1.456500
v -1.605121 0.729596 -1.410060
v -2.100070 0.040000 -1.748268
v -1.511305 0.804898 -1.283611
v -1.339694 0.771165 -0.901819
v -1.707255 0.756312 -0.949328
v -1.526263 0.816497 -0.935413
v -1.301730 0.775059 -0.658529
v -1.644714 0.747551 -0.479967
v -1.479462 0.815071 -0.606229
v -1.304699 0.770013 0.047051
v -1.633607 0.735630 -0.070935
v -1.476459 0.810102 -0.001661
v -1.350215 0.769533 0.191505
v -1.718743 0.762738 0.158339
v -1.536637 0.817901 0.180428
v -1.352933 0.753715 0.737658
v -1.709378 0.762587 0.701392
v -1.531382 0.813224 0.712014
v -1.320152 0.757000 0.982926
v -1.680285 0.761818 0.930149
v -1.498928 0.813961 0.967468
v -1.348630 0.752474 1.253648
v -1.705917 0.750283 1.304375
v -1.664539 0.750275 1.400669
v -1.491265 0.040000 -2.054161
v -1.572450 0.737729 1.457753
v -1.459488 0.720646 1.419992
v -1.069556 0.040000 -1.923485
v -1.527042 0.809256 1.289517
v -2.432685 0.040000 0.790871
v -2.388139 0.040000 0.977967
v -2.361411 0.040000 1.358094
v -2.293107 0.040000 1.756043
v -2.002069 0.040000 1.904534
v -1.610057 0.040000 1.981751
v -1.313081 0.040000 1.975807
v -0.968585 0.040000 1.800591
v -0.751792 0.040000 1.280884
v -0.567666 0.040000 0.957176
v -0.609243 0.040000 0.734444
v -0.496390 0.040000 0.193939
v -0.428086 0.040000 -0.031761
v -0.603303 0.040000 -0.218857
v -0.591424 0.040000 -0.587112
v -0.624091 0.040000 -0.895965
v -0.638940 0.040000 -1.371132
v -0.805247 0.040000 -1.733444
v 2.471545 0.040000 -0.552078
v 2.530940 0.040000 -0.258072
v 2.557667 0.040000 0.110160
v 2.510150 0.040000 0.386352
v 2.462634 0.040000 0.615028
v 2.424027 0.040000 0.766487
v 2.421057 0.040000 0.998131
v 2.320084 0.040000 1.327774
v 1.456412 0.582961 -1.552208
v 1.610485 0.561219 -1.615235
v 1.754490 0.603098 -1.534775
v 1.950146 0.498901 -1.481453
v 1.971438 0.530155 -1.285347
v 1.921710 0.581117 -0.837357
v 2.009224 0.535133 -0.682366
v 2.040627 0.522813 -0.353333
v 2.148531 0.464249 -0.169190
v 2.099968 0.454291 0.049225
v 1.935915 0.462625 0.201889
v 1.861117 0.449714 0.586097
v 2.031334 0.439719 0.742660
v 2.038607 0.492922 0.968353
v 1.979468 0.499609 1.164108
v 1.785599 0.516071 1.506546
v 1.645234 0.522258 1.638458
v 1.460809 0.469115 1.741020
v 1.270453 0.510398 1.648735
v 1.151137 0.533530 1.497818
v 1.119240 0.549540 1.319031
v 1.000155 0.566589 0.839813
v 0.964365 0.574278 0.677559
v 0.999995 0.581218 0.161094
v 0.967232 0.589974 0.006149
v 0.947299 0.520370 -0.179222
v 1.037598 0.522586 -0.779640
v 0.963105 0.497465 -0.963898
v 1.035258 0.519884 -1.149513
v 1.293642 0.525251 -1.468277
v 1.669761 0.749702 1.263072
v 1.326564 0.738174 1.319029
v 1.377338 0.739370 1.422915
v 1.871650 0.040000 1.975181
v 1.482100 0.734608 1.475527
v 1.590523 0.729596 1.429087
v 2.085473 0.040000 1.767296
v 1.496707 0.804898 1.302639
v 1.325097 0.771165 0.920847
v 1.692658 0.756312 0.968355
v 1.511666 0.816497 0.954441
v 1.287133 0.775059 0.677557
v 1.630117 0.747551 0.498995
v 1.464865 0.815071 0.625257
v 1.290102 0.770013 -0.028023
v 1.619010 0.735630 0.089963
v 1.461861 0.810102 0.020689
v 1.335618 0.769533 -0.172478
v 1.704146 0.762738 -0.139311
v 1.522039 0.817901 -0.161400
v 1.338335 0.753715 -0.718631
v 1.694780 0.762587 -0.682364
v 1.516785 0.813224 -0.692986
v 1.305554 0.757000 -0.963898
v 1.665687 0.761818 -0.911121
v 1.484331 0.813961 -0.948440
v 1.334033 0.752474 -1.234620
v 1.691320 0.750283 -1.285347
v 1.649942 0.750275 -1.381641
v 1.476668 0.040000 2.073189
v 1.557852 0.737729 -1.438725
v 1.444890 0.720646 -1.400964
v 1.054959 0.040000 1.942512
v 1.512444 0.809256 -1.270490
v 2.418087 0.040000 -0.771843
v 2.373541 0.040000 -0.958939
v 2.346814 0.040000 -1.339066
v 2.278509 0.040000 -1.737015
v 1.987471 0.040000 -1.885506
v 1.595459 0.040000 -1.962723
v 1.298483 0.040000 -1.956780
v 0.953987 0.040000 -1.781563
v 0.737195 0.040000 -1.261856
v 0.553069 0.040000 -0.938149
v 0.594645 0.040000 -0.715416
v 0.481793 0.040000 -0.174912
v 0.413489 0.040000 0.050789
v 0.588706 0.040000 0.237884
v 0.576827 0.040000 0.606140
v 0.609494 0.040000 0.914993
v 0.624342 0.040000 1.390159
v 0.790650 0.040000 1.752472
vt 0.125000 0.125000
vt 0.125000 0.125000
vt 0.125000 0.125000
vt 0.125000 0.125000
vt 0.125000 0.125000
vt 0.125000 0.125000
vt 0.125000 0.125000
vt 0.125000 0.125000
vt 0.125000 0.125000
vt 0.125000 0.125000
vt 0.125000 0.125000
vt 0.125000 0.125000
vt 0.125000 0.125000
vt 0.125000 0.125000
vt 0.125000 0.125000
vt 0.125000 0.125000
vt 0.125000 0.125000
vt 0.125000 0.125000
vt 0.125000 0.125000
vt 0.125000 0.125000
vt 0.125000 0.125000
vt 0.125000 0.125000
vt 0.125000 0.125000
vt 0.125000 0.125000
vt 0.125000 0.125000
vt 0.125000 0.125000
vt 0.125000 0.125000
vt 0.125000 0.125000
vt 0.125000 0.125000
vt 0.125000 0.125000
vt 0.125000 0.125000
vt 0.125000 0.125000
vt 0.125000 0.125000
vt 0.125000 0.125000
vt 0.125000 0.125000
vt 0.125000 0.125000
vt 0.125000 0.125000
vt 0.125000 0.125000
vt 0.125000 0.125000
vt 0.125000 0.125000
vt 0.125000 0.125000
vt 0.125000 0.125000
vt 0.125000 0.125000
vt 0.125000 0.125000
vt 0.125000 0.125000
vt 0.125000 0.125000
vt 0.125000 0.125000
vt 0.125000 0.125000
vt 0.125000 0.125000
vt 0.125000 0.125000
vt 0.125000 0.125000
vt 0.125000 0.125000
vt 0.125000 0.125000
vt 0.125000 0.125000
vt 0.125000 0.125000
vt 0.125000 0.125000
vt 0.125000 0.125000
vt 0.125000 0.125000
vt 0.125000 0.125000
vt 0.125000 0.125000
vt 0.125000 0.125000
vt 0.125000 0.125000
vt 0.125000 0.125000
vt 0.125000 0.125000
vt 0.125000 0.125000
vt 0.125000 0.125000
vt 0.125000 0.125000
vt 0.125000 0.125000
vt 0.125000 0.125000
vt 0.125000 0.125000
vt 0.125000 0.125000
vt 0.125000 0.125000
vt 0.125000 0.125000
vt 0.125000 0.125000
vt 0.125000 0.125000
vt 0.125000 0.125000
vt 0.125000 0.125000
vt 0.125000 0.125000
vt 0.125000 0.125000
vt 0.125000 0.125000
vt 0.125000 0.125000
vt 0.125000 0.125000
vt 0.125000 0.125000
vt 0.125000 0.125000
vt 0.125000 0.125000
vt 0.125000 0.125000
vt 0.125000 0.125000
vt 0.125000 0.125000
vt 0.125000 0.125000
vt 0.125000 0.125000
vt 0.125000 0.125000
vt 0.125000 0.125000
vt 0.125000 0.125000
vt 0.125000 0.125000
vt 0.125000 0.125000
vt 0.125000 0.125000
vt 0.125000 0.125000
vt 0.125000 0.125000
vt 0.125000 0.125000
vt 0.125000 0.125000
vt 0.125000 0.125000
vt 0.125000 0.125000
vt 0.125000 0.125000
vt 0.125000 0.125000
vt 0.125000 0.125000
vt 0.125000 0.125000
vt 0.125000 0.125000
vt 0.125000 0.125000
vt 0.125000 0.125000
vt 0.125000 0.125000
vt 0.125000 0.125000
vt 0.125000 0.125000
vt 0.125000 0.125000
vt 0.125000 0.125000
vt 0.125000 0.125000
vt 0.125000 0.125000
vt 0.125000 0.125000
vt 0.125000 0.125000
vt 0.125000 0.125000
vt 0.125000 0.125000
vt 0.125000 0.125000
vt 0.125000 0.125000
vt 0.125000 0.125000
vt 0.125000 0.125000
vt 0.125000 0.125000
vt 0.125000 0.125000
vt 0.125000 0.125000
vt 0.125000 0.125000
vt 0.125000 0.125000
vt 0.125000 0.125000
vt 0.125000 0.125000
vt 0.125000 0.125000
vt 0.125000 0.125000
vt 0.125000 0.125000
vt 0.125000 0.125000
vt 0.125000 0.125000
vt 0.125000 0.125000
vt 0.125000 0.125000
vt 0.125000 0.125000
vt 0.125000 0.125000
vt 0.125000 0.125000
vt 0.125000 0.125000
vt 0.125000 0.125000
vt 0.125000 0.125000
vt 0.125000 0.125000
vt 0.125000 0.125000
vt 0.125000 0.125000
vt 0.125000 0.125000
vt 0.125000 0.125000
vt 0.125000 0.125000
vt 0.125000 0.125000
vt 0.125000 0.125000
vt 0.125000 0.125000
vt 0.125000 0.125000
vt 0.125000 0.125000
vt 0.125000 0.125000
vt 0.125000 0.125000
vt 0.125000 0.125000
vt 0.125000 0.125000
vt 0.125000 0.125000
vt 0.125000 0.125000
vt 0.125000 0.125000
vt 0.125000 0.125000
vt 0.125000 0.125000
vt 0.125000 0.125000
vt 0.125000 0.125000
vt 0.125000 0.125000
vt 0.125000 0.125000
vt 0.125000 0.125000
vt 0.125000 0.125000
vt 0.125000 0.125000
vt 0.125000 0.125000
vt 0.125000 0.125000
vt 0.125000 0.125000
vt 0.125000 0.125000
vt 0.125000 0.125000
vt 0.125000 0.125000
vt 0.125000 0.125000
vt 0.125000 0.125000
vt 0.125000 0.125000
vn -0.6619 0.7459 0.0744
vn -0.6971 0.7106 0.0948
vn -0.4764 0.8742 0.0934
vn -0.4378 0.8986 0.0290
vn 0.5559 0.6347 0.5368
vn 0.4099 0.7379 0.5361
vn 0.3145 0.6428 0.6985
vn 0.6716 0.6785 0.2977
vn 0.5006 0.8209 0.2747
vn -0.6017 0.6950 0.3935
vn -0.3490 0.7093 0.6124
vn -0.3362 0.8698 0.3611
vn -0.0365 0.6361 0.7707
vn 0.0483 0.8100 0.5845
vn 0.0451 0.9797 0.1954
vn 0.7035 0.7083 0.0580
vn 0.4790 0.8777 -0.0021
vn -0.6529 0.7574 0.0013
vn -0.6389 0.7654 0.0771
vn -0.4407 0.8918 -0.1021
vn 0.6074 0.7931 -0.0446
vn 0.6341 0.7633 -0.1232
vn 0.3912 0.9171 0.0755
vn -0.5866 0.7716 -0.2459
vn -0.5865 0.7775 -0.2269
vn -0.4831 0.8667 -0.1240
vn -0.6733 0.7083 0.2122
vn -0.7073 0.6516 0.2739
vn -0.5452 0.8362 0.0593
vn 0.6690 0.7201 -0.1840
vn 0.5934 0.7003 -0.3967
vn 0.3682 0.8430 -0.3922
vn 0.4997 0.8534 -0.1483
vn 0.3588 0.6708 -0.6490
vn 0.0146 0.6567 -0.7540
vn -0.0165 0.8158 -0.5781
vn -0.3712 0.6686 -0.6443
vn -0.3968 0.7960 -0.4571
vn -0.6066 0.6595 -0.4439
vn -0.6793 0.6936 -0.2398
vn -0.5065 0.8384 -0.2011
vn -0.4909 0.8712 0.0094
vn -0.6953 0.7181 -0.0278
vn 0.4157 0.9056 -0.0837
vn 0.6762 0.7262 -0.1239
vn 0.3950 0.9178 -0.0383
vn 0.6908 0.7212 -0.0513
vn -0.6764 0.7289 0.1056
vn -0.4434 0.8955 0.0367
vn 0.3915 0.9167 0.0802
vn 0.6437 0.7501 0.1516
vn 0.4451 0.8953 -0.0183
vn 0.6551 0.7548 -0.0308
vn -0.3154 0.5982 0.7367
vn -0.0429 0.5783 0.8147
vn 0.2620 0.6274 0.7333
vn 0.0320 0.9995 0.0044
vn -0.0026 1.0000 0.0067
vn -0.0482 0.9982 -0.0364
vn -0.0334 0.9989 -0.0313
vn -0.0539 0.9984 0.0161
vn -0.0446 0.9988 -0.0171
vn -0.0166 0.9834 -0.1804
vn 0.5544 0.6460 0.5247
vn 0.7100 0.6033 0.3630
vn -0.6195 0.6541 0.4340
vn -0.7762 0.6249 0.0837
vn -0.7607 0.6409 0.1030
vn -0.7382 0.6583 0.1476
vn -0.7262 0.6753 0.1286
vn -0.7110 0.6999 0.0671
vn -0.6407 0.7513 -0.1580
vn -0.5640 0.8029 -0.1930
vn -0.5968 0.8014 0.0393
vn -0.6822 0.7120 0.1660
vn -0.7496 0.6589 -0.0623
vn -0.7147 0.6353 -0.2924
vn -0.6137 0.6402 -0.4619
vn -0.3868 0.6392 -0.6646
vn 0.0098 0.6181 -0.7860
vn 0.3800 0.6207 -0.6858
vn 0.6040 0.6667 -0.4366
vn 0.7207 0.6663 -0.1914
vn 0.7728 0.6230 -0.1210
vn 0.8038 0.5937 -0.0369
vn 0.7475 0.6309 -0.2076
vn 0.7162 0.6922 -0.0882
vn 0.7128 0.6811 0.1672
vn 0.7322 0.6810 -0.0095
vn 0.7527 0.6553 0.0638
vn 0.6619 0.7459 -0.0744
vn 0.6971 0.7106 -0.0948
vn 0.4764 0.8742 -0.0934
vn 0.4378 0.8986 -0.0290
vn -0.5559 0.6347 -0.5368
vn -0.4099 0.7379 -0.5361
vn -0.3145 0.6428 -0.6985
vn -0.6716 0.6785 -0.2977
vn -0.5006 0.8209 -0.2747
vn 0.6017 0.6950 -0.3935
vn 0.3490 0.7093 -0.6124
vn 0.3362 0.8698 -0.3611
vn 0.0365 0.6361 -0.7707
vn -0.0483 0.8100 -0.5845
vn -0.0451 0.9797 -0.1954
vn -0.7035 0.7083 -0.0580
vn -0.4790 0.8777 0.0021
vn 0.6529 0.7574 -0.0013
vn 0.6389 0.7654 -0.0771
vn 0.4407 0.8918 0.1021
vn -0.6074 0.7931 0.0446
vn -0.6341 0.7633 0.1232
vn -0.3912 0.9171 -0.0755
vn 0.5866 0.7716 0.2459
vn 0.5865 0.7775 0.2269
vn 0.4831 0.8667 0.1240
vn 0.6733 0.7083 -0.2122
vn 0.7073 0.6516 -0.2739
vn 0.5452 0.8362 -0.0593
vn -0.6690 0.7201 0.1840
vn -0.5934 0.7003 0.3967
vn -0.3682 0.8430 0.3922
vn -0.4997 0.8534 0.1483
vn -0.3588 0.6708 0.6490
vn -0.0146 0.6567 0.7540
vn 0.0165 0.8158 0.5781
vn 0.3712 0.6686 0.6443
vn 0.3968 0.7960 0.4571
vn 0.6066 0.6595 0.4439
vn 0.6793 0.6936 0.2398
vn 0.5065 0.8384 0.2011
vn 0.4909 0.8712 -0.0094
vn 0.6953 0.7181 0.0278
vn -0.4157 0.9056 0.0837
vn -0.6762 0.7262 0.1239
vn -0.3950 0.9178 0.0383
vn -0.6908 0.7212 0.0513
vn 0.6764 0.7289 -0.1056
vn 0.4434 0.8955 -0.0367
vn -0.3915 0.9167 -0.0802
vn -0.6437 0.7501 -0.1516
vn -0.4451 0.8953 0.0183
vn -0.6551 0.7548 0.0308
vn 0.3154 0.5982 -0.7367
vn 0.0429 0.5783 -0.8147
vn -0.2620 0.6274 -0.7333
vn -0.0320 0.9995 -0.0044
vn 0.0026 1.0000 -0.0067
vn 0.0482 0.9982 0.0364
vn 0.0334 0.9989 0.0313
vn 0.0539 0.9984 -0.0161
vn 0.0446 0.9988 0.0171
vn 0.0166 0.9834 0.1804
vn -0.5544 0.6460 -0.5247
vn -0.7100 0.6033 -0.3630
vn 0.6195 0.6541 -0.4340
vn 0.7762 0.6249 -0.0837
vn 0.7607 0.6409 -0.1030
vn 0.7382 0.6583 -0.1476
vn 0.7262 0.6753 -0.1286
vn 0.7110 0.6999 -0.0671
vn 0.6407 0.7513 0.1580
vn 0.5640 0.8029 0.1930
vn 0.5968 0.8014 -0.0393
vn 0.6822 0.7120 -0.1660
vn 0.7496 0.6589 0.0623
vn 0.7147 0.6353 0.2924
vn 0.6137 0.6402 0.4619
vn 0.3868 0.6392 0.6646
vn -0.0098 0.6181 0.7860
vn -0.3800 0.6207 0.6858
vn -0.6040 0.6667 0.4366
vn -0.7207 0.6663 0.1914
vn -0.7728 0.6230 0.1210
vn -0.8038 0.5937 0.0369
vn -0.7475 0.6309 0.2076
vn -0.7162 0.6922 0.0882
vn -0.7128 0.6811 -0.1672
vn -0.7322 0.6810 0.0095
vn -0.7527 0.6553 -0.0638
s 1
f 14/1/1 13/2/2 66/3/3 63/4/4
f 38/5/5 70/6/6 9/7/7
f 37/8/8 65/9/9 70/6/6 38/5/5
f 12/10/10 11/11/11 67/12/12
f 11/11/11 10/13/13 69/14/14 67/12/12
f 10/13/13 9/7/7 70/6/6 69/14/14
f 70/6/6 65/9/9 72/15/15
f 13/2/2 12/10/10 67/12/12 66/3/3
f 36/16/16 62/17/17 65/9/9 37/8/8
f 17/18/18 16/19/19 57/20/20
f 33/21/21 32/22/22 53/23/23
f 19/24/24 18/25/25 54/26/26
f 21/27/27 20/28/28 51/29/29
f 51/29/29 20/28/28 19/24/24 54/26/26
f 29/30/30 28/31/31 41/32/32 40/33/33
f 28/31/31 27/34/34 41/32/32
f 27/34/34 26/35/35 43/36/36 41/32/32
f 26/35/35 25/37/37 44/38/38 43/36/36
f 25/37/37 24/39/39 44/38/38
f 24/39/39 23/40/40 39/41/41 44/38/38
f 48/42/42 22/43/43 21/27/27 51/29/29
f 47/44/44 30/45/45 29/30/30 40/33/33
f 50/46/46 31/47/47 30/45/45 47/44/44
f 54/26/26 18/25/25 17/18/18 57/20/20
f 53/23/23 32/22/22 31/47/47 50/46/46
f 57/20/20 16/19/19 15/48/48 60/49/49
f 56/50/50 34/51/51 33/21/21 53/23/23
f 14/1/1 63/4/4 60/49/49 15/48/48
f 59/52/52 35/53/53 34/51/51 56/50/50
f 36/16/16 35/53/53 59/52/52 62/17/17
f 11/11/11 77/54/54 78/55/55 10/13/13
f 10/13/13 78/55/55 79/56/56 9/7/7
f 63/4/4 66/3/3 72/15/15 64/57/57
f 64/57/57 72/15/15 65/9/9 62/17/17
f 60/49/49 63/4/4 64/57/57 61/58/58
f 61/58/58 64/57/57 62/17/17 59/52/52
f 57/20/20 60/49/49 61/58/58 58/59/59
f 58/59/59 61/58/58 59/52/52 56/50/50
f 54/26/26 57/20/20 58/59/59 55/60/60
f 55/60/60 58/59/59 56/50/50 53/23/23
f 51/29/29 54/26/26 55/60/60 52/61/61
f 52/61/61 55/60/60 53/23/23 50/46/46
f 48/42/42 51/29/29 52/61/61 49/62/62
f 49/62/62 52/61/61 50/46/46 47/44/44
f 39/41/41 48/42/42 49/62/62 46/63/63
f 46/63/63 49/62/62 47/44/44 40/33/33
f 39/41/41 23/40/40 22/43/43 48/42/42
f 72/15/15 66/3/3 67/12/12
f 38/5/5 9/7/7 79/56/56 80/64/64
f 67/12/12 69/14/14 72/15/15
f 69/14/14 70/6/6 72/15/15
f 44/38/38 39/41/41 46/63/63
f 46/63/63 40/33/33 41/32/32
f 80/64/64 81/65/65 37/8/8 38/5/5
f 41/32/32 43/36/36 46/63/63
f 43/36/36 44/38/38 46/63/63
f 77/54/54 11/11/11 12/10/10 76/66/66
f 13/2/2 75/67/67 76/66/66 12/10/10
f 75/67/67 13/2/2 14/1/1 74/68/68
f 15/48/48 73/69/69 74/68/68 14/1/1
f 16/19/19 1/70/70 73/69/69 15/48/48
f 17/18/18 2/71/71 1/70/70 16/19/19
f 18/25/25 3/72/72 2/71/71 17/18/18
f 3/72/72 18/25/25 19/24/24 4/73/73
f 20/28/28 5/74/74 4/73/73 19/24/24
f 5/74/74 20/28/28 21/27/27 6/75/75
f 22/43/43 7/76/76 6/75/75 21/27/27
f 7/76/76 22/43/43 23/40/40 8/77/77
f 24/39/39 45/78/78 8/77/77 23/40/40
f 45/78/78 24/39/39 25/37/37 42/79/79
f 26/35/35 68/80/80 42/79/79 25/37/37
f 27/34/34 71/81/81 68/80/80 26/35/35
f 90/82/82 71/81/81 27/34/34 28/31/31
f 29/30/30 89/83/83 90/82/82 28/31/31
f 30/45/45 88/84/84 89/83/83 29/30/30
f 31/47/47 87/85/85 88/84/84 30/45/45
f 87/85/85 31/47/47 32/22/22 86/86/86
f 33/21/21 85/87/87 86/86/86 32/22/22
f 34/51/51 84/88/88 85/87/87 33/21/21
f 84/88/88 34/51/51 35/53/53 83/89/89
f 36/16/16 82/90/90 83/89/89 35/53/53
f 37/8/8 81/65/65 82/90/90 36/16/16
f 104/91/91 103/92/92 156/93/93 153/94/94
f 128/95/95 160/96/96 99/97/97
f 127/98/98 155/99/99 160/96/96 128/95/95
f 102/100/100 101/101/101 157/102/102
f 101/101/101 100/103/103 159/104/104 157/102/102
f 100/103/103 99/97/97 160/96/96 159/104/104
f 160/96/96 155/99/99 162/105/105
f 103/92/92 102/100/100 157/102/102 156/93/93
f 126/106/106 152/107/107 155/99/99 127/98/98
f 107/108/108 106/109/109 147/110/110
f 123/111/111 122/112/112 143/113/113
f 109/114/114 108/115/115 144/116/116
f 111/117/117 110/118/118 141/119/119
f 141/119/119 110/118/118 109/114/114 144/116/116
f 119/120/120 118/121/121 131/122/122 130/123/123
f 118/121/121 117/124/124 131/122/122
f 117/124/124 116/125/125 133/126/126 131/122/122
f 116/125/125 115/127/127 134/128/128 133/126/126
f 115/127/127 114/129/129 134/128/128
f 114/129/129 113/130/130 129/131/131 134/128/128
f 138/132/132 112/133/133 111/117/117 141/119/119
f 137/134/134 120/135/135 119/120/120 130/123/123
f 140/136/136 121/137/137 120/135/135 137/134/134
f 144/116/116 108/115/115 107/108/108 147/110/110
f 143/113/113 122/112/112 121/137/137 140/136/136
f 147/110/110 106/109/109 105/138/138 150/139/139
f 146/140/140 124/141/141 123/111/111 143/113/113
f 104/91/91 153/94/94 150/139/139 105/138/138
f 149/142/142 125/143/143 124/141/141 146/140/140
f 126/106/106 125/143/143 149/142/142 152/107/107
f 101/101/101 167/144/144 168/145/145 100/103/103
f 100/103/103 168/145/145 169/146/146 99/97/97
f 153/94/94 156/93/93 162/105/105 154/147/147
f 154/147/147 162/105/105 155/99/99 152/107/107
f 150/139/139 153/94/94 154/147/147 151/148/148
f 151/148/148 154/147/147 152/107/107 149/142/142
f 147/110/110 150/139/139 151/148/148 148/149/149
f 148/149/149 151/148/148 149/142/142 146/140/140
f 144/116/116 147/110/110 148/149/149 145/150/150
f 145/150/150 148/149/149 146/140/140 143/113/113
f 141/119/119 144/116/116 145/150/150 142/151/151
f 142/151/151 145/150/150 143/113/113 140/136/136
f 138/132/132 141/119/119 142/151/151 139/152/152
f 139/152/152 142/151/151 140/136/136 137/134/134
f 129/131/131 138/132/132 139/152/152 136/153/153
f 136/153/153 139/152/152 137/134/134 130/123/123
f 129/131/131 113/130/130 112/133/133 138/132/132
f 162/105/105 156/93/93 157/102/102
f 128/95/95 99/97/97 169/146/146 170/154/154
f 157/102/102 159/104/104 162/105/105
f 159/104/104 160/96/96 162/105/105
f 134/128/128 129/131/131 136/153/153
f 136/153/153 130/123/123 131/122/122
f 170/154/154 171/155/155 127/98/98 128/95/95
f 131/122/122 133/126/126 136/153/153
f 133/126/126 134/128/128 136/153/153
f 167/144/144 101/101/101 102/100/100 166/156/156
f 103/92/92 165/157/157 166/156/156 102/100/100
f 165/157/157 103/92/92 104/91/91 164/158/158
f 105/138/138 163/159/159 164/158/158 104/91/91
f 106/109/109 91/160/160 163/159/159 105/138/138
f 107/108/108 92/161/161 91/160/160 106/109/109
f 108/115/115 93/162/162 92/161/161 107/108/108
f 93/162/162 108/115/115 109/114/114 94/163/163
f 110/118/118 95/164/164 94/163/163 109/114/114
f 95/164/164 110/118/118 111/117/117 96/165/165
f 112/133/133 97/166/166 96/165/165 111/117/117
f 97/166/166 112/133/133 113/130/130 98/167/167
f 114/129/129 135/168/168 98/167/167 113/130/130
f 135/168/168 114/129/129 115/127/127 132/169/169
f 116/125/125 158/170/170 132/169/169 115/127/127
f 117/124/124 161/171/171 158/170/170 116/125/125
f 180/172/172 161/171/171 117/124/124 118/121/121
f 119/120/120 179/173/173 180/172/172 118/121/121
f 120/135/135 178/174/174 179/173/173 119/120/120
f 121/137/137 177/175/175 178/174/174 120/135/135
f 177/175/175 121/137/137 122/112/112 176/176/176
f 123/111/111 175/177/177 176/176/176 122/112/112
f 124/141/141 174/178/178 175/177/177 123/111/111
f 174/178/178 124/141/141 125/143/143 173/179/179
f 126/106/106 172/180/180 173/179/179 125/143/143
f 127/98/98 171/155/155 172/180/180 126/106/106
