# Blender v3.0.0 OBJ File: 'City.blend'
# www.blender.org
o sulfur_mine_heap
v -1.200000 0.450000 0.600000
v 1.200000 0.450000 0.600000
v -1.200000 0.450000 -0.600000
v 1.200000 0.450000 -0.600000
v -0.600000 0.450000 0.600000
v 0.000000 0.465334 0.600000
v 0.600000 0.469744 0.600000
v 0.600000 0.470300 -0.600000
v 0.000000 0.450000 -0.600000
v -0.600000 0.465363 -0.600000
v -1.200000 0.450177 -0.200000
v -1.200000 0.450000 0.200000
v 1.200000 0.450220 0.200000
v 1.200000 0.450233 -0.200000
v -0.600000 0.465539 0.200000
v -0.600000 0.503031 -0.200000
v 0.000000 0.503142 0.200000
v 0.000000 0.465736 -0.200000
v 0.600000 0.538907 0.200000
v 0.600000 0.539435 -0.200000
vt 0.125000 0.125000
vt 0.125000 0.125000
vt 0.125000 0.125000
vt 0.125000 0.125000
vt 0.125000 0.125000
vt 0.125000 0.125000
vt 0.125000 0.125000
vt 0.125000 0.125000
vt 0.125000 0.125000
vt 0.125000 0.125000
vt 0.125000 0.125000
vt 0.125000 0.125000
vt 0.125000 0.125000
vt 0.125000 0.125000
vt 0.125000 0.125000
vt 0.125000 0.125000
vt 0.125000 0.125000
vt 0.125000 0.125000
vt 0.125000 0.125000
vt 0.125000 0.125000
vn 0.0173 0.9981 -0.0592
vn 0.1187 0.9920 -0.0427
vn 0.0905 0.9922 -0.0860
vn 0.0064 0.9954 -0.0959
vn -0.0568 0.9984 -0.0001
vn -0.0175 0.9997 -0.0167
vn -0.0065 0.9984 -0.0569
vn -0.0567 0.9973 -0.0472
vn -0.0312 0.9980 -0.0546
vn -0.0170 0.9961 -0.0860
vn -0.0386 0.9943 0.0995
vn 0.0284 0.9936 0.1094
vn 0.0281 0.9987 0.0433
vn -0.0422 0.9984 0.0384
vn -0.0284 0.9987 0.0429
vn -0.0286 0.9990 0.0333
vn -0.0129 0.9997 0.0194
vn -0.0349 0.9988 0.0332
vn 0.0896 0.9922 0.0860
vn 0.1183 0.9920 0.0434
s 1
f 20/1/1 14/2/2 4/3/3 8/4/4
f 11/5/5 16/6/6 10/7/7 3/8/8
f 16/6/6 18/9/9 9/10/10 10/7/7
f 18/9/9 20/1/1 8/4/4 9/10/10
f 6/11/11 7/12/12 19/13/13 17/14/14
f 17/14/14 19/13/13 20/1/1 18/9/9
f 5/15/15 6/11/11 17/14/14 15/16/16
f 15/16/16 17/14/14 18/9/9 16/6/6
f 1/17/17 5/15/15 15/16/16 12/18/18
f 12/18/18 15/16/16 16/6/6 11/5/5
f 7/12/12 2/19/19 13/20/20 19/13/13
f 19/13/13 13/20/20 14/2/2 20/1/1
