# Blender v3.0.0 OBJ File: 'City.blend'
# www.blender.org
o mono_tank
v 0.351388 0.200000 0.561422
v 0.409967 0.200000 0.420001
v 0.332442 0.129289 0.561422
v 0.383172 0.100000 0.420001
v 0.280678 0.077526 0.561422
v 0.309967 0.026795 0.420001
v 0.209967 0.058579 0.561422
v 0.209967 0.000000 0.420001
v 0.266541 0.200000 0.599999
v 0.258962 0.171716 0.599999
v 0.238257 0.151010 0.599999
v 0.209973 0.143432 0.599999
v -0.210033 0.058579 0.561422
v -0.210033 0.000000 0.420001
v -0.280744 0.077526 0.561422
v -0.310033 0.026795 0.420001
v -0.332507 0.129289 0.561422
v -0.383238 0.100000 0.420001
v -0.351454 0.200000 0.561422
v -0.410033 0.200000 0.420001
v -0.210027 0.143432 0.599999
v -0.238312 0.151010 0.599999
v -0.259017 0.171716 0.599999
v -0.266596 0.200000 0.599999
v 0.351388 0.200000 -0.561424
v 0.409967 0.200000 -0.420002
v 0.332442 0.129289 -0.561424
v 0.383172 0.100000 -0.420002
v 0.280678 0.077526 -0.561424
v 0.309967 0.026795 -0.420002
v 0.209967 0.058579 -0.561424
v -0.210033 0.000000 -0.420002
v 0.266541 0.200000 -0.600001
v 0.258962 0.171716 -0.600001
v 0.238257 0.151010 -0.600001
v 0.209973 0.143432 -0.600001
v -0.210033 0.058579 -0.561424
v 0.209967 0.000000 -0.420002
v -0.280744 0.077526 -0.561424
v -0.310033 0.026795 -0.420002
v -0.332507 0.129290 -0.561424
v -0.383238 0.100000 -0.420002
v -0.351454 0.200000 -0.561424
v -0.410033 0.200000 -0.420002
v -0.210027 0.143432 -0.600001
v -0.238312 0.151010 -0.600001
v -0.259017 0.171716 -0.600001
v -0.266596 0.200000 -0.600001
v 0.109981 0.820000 0.421229
v 0.409981 0.520000 0.421229
v 0.387145 0.634805 0.421229
v 0.322113 0.732132 0.421229
v 0.224786 0.797164 0.421229
v -0.110019 0.820000 0.421229
v -0.224824 0.797164 0.421229
v -0.322151 0.732132 0.421229
v -0.387183 0.634805 0.421229
v -0.410019 0.520000 0.421229
v 0.387145 0.634805 -0.418771
v 0.322113 0.732132 -0.418771
v 0.109982 0.761500 0.561422
v 0.351482 0.520000 0.561422
v 0.333099 0.612418 0.561422
v 0.280748 0.690766 0.561422
v 0.202400 0.743117 0.561422
v -0.110019 0.761500 0.561422
v -0.202437 0.743117 0.561422
v -0.280785 0.690766 0.561422
v -0.333135 0.612418 0.561422
v -0.351519 0.520000 0.561422
v 0.266958 0.520000 0.599999
v 0.109983 0.676975 0.599999
v 0.255009 0.580072 0.599999
v 0.220981 0.630998 0.599999
v 0.170055 0.665026 0.599999
v -0.110018 0.676975 0.599999
v -0.170089 0.665026 0.599999
v -0.221016 0.630998 0.599999
v -0.255044 0.580072 0.599999
v -0.266993 0.520000 0.599999
v 0.109981 0.820000 -0.418771
v 0.409981 0.520000 -0.418772
v 0.224786 0.797164 -0.418771
v -0.110019 0.820000 -0.418771
v -0.224824 0.797164 -0.418771
v -0.322151 0.732132 -0.418772
v -0.387183 0.634805 -0.418772
v -0.410019 0.520000 -0.418772
v 0.109982 0.761500 -0.558965
v 0.351482 0.520000 -0.558965
v 0.333099 0.612418 -0.558965
v 0.280748 0.690766 -0.558965
v 0.202400 0.743117 -0.558965
v -0.110019 0.761500 -0.558965
v -0.202437 0.743117 -0.558965
v -0.280785 0.690766 -0.558965
v -0.333135 0.612418 -0.558965
v -0.351519 0.520000 -0.558965
v 0.266958 0.520000 -0.597542
v 0.109983 0.676975 -0.597542
v 0.255009 0.580072 -0.597542
v 0.220981 0.630998 -0.597542
v 0.170055 0.665026 -0.597542
v -0.110018 0.676975 -0.597542
v -0.170089 0.665026 -0.597542
v -0.221016 0.630998 -0.597542
v -0.255044 0.580072 -0.597542
v -0.266993 0.520000 -0.597542
vt 0.375000 0.375000
vt 0.375000 0.375000
vt 0.375000 0.375000
vt 0.375000 0.375000
vt 0.875000 0.125000
vt 0.875000 0.125000
vt 0.875000 0.125000
vt 0.875000 0.125000
vt 0.375000 0.375000
vt 0.375000 0.375000
vt 0.875000 0.125000
vt 0.875000 0.125000
vt 0.875000 0.125000
vt 0.875000 0.125000
vt 0.375000 0.375000
vt 0.375000 0.375000
vt 0.875000 0.125000
vt 0.875000 0.125000
vt 0.875000 0.125000
vt 0.875000 0.125000
vt 0.375000 0.375000
vt 0.375000 0.375000
vt 0.375000 0.375000
vt 0.375000 0.375000
vt 0.875000 0.125000
vt 0.875000 0.125000
vt 0.375000 0.375000
vt 0.375000 0.375000
vt 0.375000 0.375000
vt 0.375000 0.375000
vt 0.875000 0.125000
vt 0.875000 0.125000
vt 0.875000 0.125000
vt 0.875000 0.125000
vt 0.875000 0.125000
vt 0.875000 0.125000
vt 0.375000 0.375000
vt 0.375000 0.375000
vt 0.375000 0.375000
vt 0.375000 0.375000
vt 0.875000 0.125000
vt 0.875000 0.125000
vt 0.875000 0.125000
vt 0.875000 0.125000
vt 0.375000 0.375000
vt 0.375000 0.375000
vt 0.875000 0.125000
vt 0.875000 0.125000
vt 0.875000 0.125000
vt 0.875000 0.125000
vt 0.875000 0.125000
vt 0.875000 0.125000
vt 0.875000 0.125000
vt 0.875000 0.125000
vt 0.875000 0.125000
vt 0.875000 0.125000
vt 0.375000 0.375000
vt 0.375000 0.375000
vt 0.375000 0.375000
vt 0.375000 0.375000
vt 0.375000 0.375000
vt 0.375000 0.375000
vt 0.875000 0.125000
vt 0.875000 0.125000
vt 0.875000 0.125000
vt 0.875000 0.125000
vt 0.875000 0.125000
vt 0.875000 0.125000
vt 0.875000 0.125000
vt 0.875000 0.125000
vt 0.875000 0.125000
vt 0.875000 0.125000
vt 0.875000 0.125000
vt 0.875000 0.125000
vt 0.875000 0.125000
vt 0.875000 0.125000
vt 0.375000 0.375000
vt 0.375000 0.375000
vt 0.875000 0.125000
vt 0.875000 0.125000
vt 0.375000 0.375000
vt 0.375000 0.375000
vt 0.875000 0.125000
vt 0.875000 0.125000
vt 0.875000 0.125000
vt 0.875000 0.125000
vt 0.875000 0.125000
vt 0.875000 0.125000
vt 0.875000 0.125000
vt 0.875000 0.125000
vt 0.875000 0.125000
vt 0.875000 0.125000
vt 0.875000 0.125000
vt 0.875000 0.125000
vt 0.875000 0.125000
vt 0.875000 0.125000
vt 0.875000 0.125000
vt 0.875000 0.125000
vt 0.875000 0.125000
vt 0.875000 0.125000
vt 0.375000 0.375000
vt 0.375000 0.375000
vt 0.375000 0.375000
vt 0.375000 0.375000
vt 0.375000 0.375000
vt 0.375000 0.375000
vt 0.375000 0.375000
vt 0.375000 0.375000
vt 0.375000 0.375000
vt 0.375000 0.375000
vt 0.375000 0.375000
vt 0.375000 0.375000
vt 0.375000 0.375000
vt 0.375000 0.375000
vt 0.375000 0.375000
vt 0.375000 0.375000
vt 0.375000 0.375000
vt 0.375000 0.375000
vt 0.375000 0.375000
vt 0.375000 0.375000
vt 0.875000 0.125000
vt 0.875000 0.125000
vt 0.875000 0.125000
vt 0.875000 0.125000
vt 0.875000 0.125000
vt 0.875000 0.125000
vt 0.875000 0.125000
vt 0.875000 0.125000
vt 0.875000 0.125000
vt 0.875000 0.125000
vt 0.875000 0.125000
vt 0.875000 0.125000
vt 0.875000 0.125000
vt 0.875000 0.125000
vt 0.875000 0.125000
vt 0.875000 0.125000
vt 0.875000 0.125000
vt 0.875000 0.125000
vt 0.875000 0.125000
vt 0.875000 0.125000
vt 0.375000 0.375000
vt 0.375000 0.375000
vt 0.375000 0.375000
vt 0.375000 0.375000
vt 0.375000 0.375000
vt 0.375000 0.375000
vt 0.375000 0.375000
vt 0.375000 0.375000
vt 0.375000 0.375000
vt 0.375000 0.375000
vt 0.375000 0.375000
vt 0.375000 0.375000
vt 0.375000 0.375000
vt 0.375000 0.375000
vt 0.375000 0.375000
vt 0.375000 0.375000
vt 0.375000 0.375000
vt 0.375000 0.375000
vt 0.375000 0.375000
vt 0.375000 0.375000
vt 0.875000 0.125000
vt 0.875000 0.125000
vt 0.875000 0.125000
vt 0.875000 0.125000
vt 0.875000 0.125000
vt 0.875000 0.125000
vt 0.875000 0.125000
vt 0.875000 0.125000
vt 0.875000 0.125000
vt 0.875000 0.125000
vt 0.875000 0.125000
vt 0.875000 0.125000
vt 0.875000 0.125000
vt 0.875000 0.125000
vt 0.875000 0.125000
vt 0.875000 0.125000
vt 0.875000 0.125000
vt 0.875000 0.125000
vt 0.875000 0.125000
vt 0.875000 0.125000
vn 0.9734 -0.1265 0.1908
vn 0.7287 -0.0967 0.6780
vn 0.6461 -0.3730 0.6659
vn 0.8504 -0.4910 0.1892
vn 0.4135 -0.0593 0.9086
vn 0.3584 -0.2069 0.9103
vn 0.3730 -0.6461 0.6659
vn 0.4910 -0.8504 0.1892
vn 0.1960 -0.7315 0.6530
vn 0.2069 -0.3584 0.9103
vn 0.1102 -0.4114 0.9048
vn 0.2544 -0.9496 0.1830
vn -0.6461 -0.3730 0.6659
vn -0.3730 -0.6461 0.6659
vn -0.2069 -0.3584 0.9103
vn -0.3584 -0.2069 0.9103
vn -0.2544 -0.9496 0.1830
vn -0.1960 -0.7315 0.6530
vn -0.4910 -0.8504 0.1892
vn -0.1102 -0.4113 0.9048
vn -0.8504 -0.4910 0.1892
vn -0.7287 -0.0966 0.6780
vn -0.9734 -0.1265 0.1908
vn -0.4134 -0.0592 0.9086
vn 0.9766 0.0949 0.1932
vn 0.9734 -0.1258 -0.1913
vn 0.9766 0.0956 -0.1927
vn 0.8504 -0.4910 -0.1892
vn 0.6461 -0.3730 -0.6659
vn 0.7284 -0.0940 -0.6786
vn 0.3584 -0.2069 -0.9103
vn 0.4135 -0.0561 -0.9088
vn 0.4910 -0.8504 -0.1892
vn 0.3730 -0.6461 -0.6659
vn 0.1960 -0.7315 -0.6530
vn 0.1102 -0.4114 -0.9048
vn 0.2069 -0.3584 -0.9103
vn -0.6461 -0.3730 -0.6659
vn -0.3584 -0.2069 -0.9103
vn -0.2069 -0.3584 -0.9103
vn -0.3730 -0.6461 -0.6659
vn -0.1102 -0.4113 -0.9048
vn -0.1960 -0.7315 -0.6530
vn -0.4910 -0.8504 -0.1892
vn -0.8504 -0.4910 -0.1892
vn -0.9734 -0.1258 -0.1913
vn -0.7284 -0.0940 -0.6786
vn -0.4135 -0.0560 -0.9088
vn -0.2544 -0.9496 -0.1830
vn 0.2544 -0.9496 -0.1830
vn 0.9067 0.3756 0.1918
vn 0.9067 0.3756 -0.1918
vn -0.9766 0.0949 0.1932
vn -0.9067 0.3756 0.1918
vn -0.9067 0.3756 -0.1918
vn -0.9766 0.0957 -0.1927
vn -0.3756 0.9067 0.1918
vn -0.0951 0.9765 0.1933
vn -0.0951 0.9765 -0.1933
vn -0.3756 0.9067 -0.1918
vn 0.6940 0.6940 0.1918
vn 0.6940 0.6940 -0.1918
vn 0.0951 0.9765 0.1933
vn 0.0951 0.9765 -0.1933
vn -0.6940 0.6940 0.1918
vn -0.6940 0.6940 -0.1918
vn 0.3756 0.9067 0.1918
vn 0.3756 0.9067 -0.1918
vn 0.6830 0.2829 0.6734
vn 0.7271 0.0714 0.6828
vn -0.7270 0.0715 0.6829
vn -0.6830 0.2829 0.6734
vn -0.2829 0.6830 0.6734
vn -0.0717 0.7269 0.6830
vn 0.5227 0.5227 0.6734
vn 0.0717 0.7269 0.6830
vn -0.5227 0.5227 0.6734
vn 0.2829 0.6830 0.6734
vn -0.3836 0.1589 0.9097
vn -0.2936 0.2936 0.9097
vn 0.0434 0.4148 0.9089
vn 0.1589 0.3836 0.9097
vn 0.3836 0.1589 0.9097
vn 0.4145 0.0432 0.9090
vn -0.4145 0.0432 0.9090
vn -0.1589 0.3836 0.9097
vn -0.0434 0.4148 0.9089
vn 0.2936 0.2936 0.9097
vn 0.7274 0.0741 -0.6822
vn 0.6830 0.2829 -0.6734
vn -0.6830 0.2829 -0.6734
vn -0.7274 0.0741 -0.6823
vn -0.0717 0.7269 -0.6830
vn -0.2829 0.6830 -0.6734
vn 0.5227 0.5227 -0.6734
vn 0.0717 0.7269 -0.6830
vn -0.5227 0.5227 -0.6734
vn 0.2829 0.6830 -0.6734
vn -0.2936 0.2936 -0.9097
vn -0.3836 0.1589 -0.9097
vn 0.1589 0.3836 -0.9097
vn 0.0434 0.4148 -0.9089
vn 0.4144 0.0465 -0.9089
vn 0.3836 0.1589 -0.9097
vn -0.4144 0.0465 -0.9089
vn -0.0434 0.4148 -0.9089
vn -0.1589 0.3836 -0.9097
vn 0.2936 0.2936 -0.9097
s 1
f 2/1/1 1/2/2 3/3/3 4/4/4
f 3/5/3 1/6/2 9/7/5 10/8/6
f 4/4/4 3/3/3 5/9/7 6/10/8
f 7/11/9 5/12/7 11/13/10 12/14/11
f 6/10/8 5/9/7 7/15/9 8/16/12
f 5/12/7 3/5/3 10/8/6 11/13/10
f 17/17/13 15/18/14 22/19/15 23/20/16
f 14/21/17 13/22/18 15/23/14 16/24/19
f 15/18/14 13/25/18 21/26/20 22/19/15
f 16/24/19 15/23/14 17/27/13 18/28/21
f 18/28/21 17/27/13 19/29/22 20/30/23
f 19/31/22 17/17/13 23/20/16 24/32/24
f 50/33/25 2/34/1 26/35/26 82/36/27
f 26/37/26 28/38/28 27/39/29 25/40/30
f 27/41/29 34/42/31 33/43/32 25/44/30
f 28/38/28 30/45/33 29/46/34 27/39/29
f 31/47/35 36/48/36 35/49/37 29/50/34
f 29/50/34 35/49/37 34/42/31 27/41/29
f 41/51/38 47/52/39 46/53/40 39/54/41
f 39/54/41 46/53/40 45/55/42 37/56/43
f 40/57/44 42/58/45 41/59/38 39/60/41
f 42/58/45 44/61/46 43/62/47 41/59/38
f 43/63/47 48/64/48 47/52/39 41/51/38
f 2/34/1 4/65/4 28/66/28 26/35/26
f 4/65/4 6/67/8 30/68/33 28/66/28
f 16/69/19 18/70/21 42/71/45 40/72/44
f 18/70/21 20/73/23 44/74/46 42/71/45
f 40/72/44 32/75/49 14/76/17 16/69/19
f 40/57/44 39/60/41 37/77/43 32/78/49
f 8/79/12 38/80/50 30/68/33 6/67/8
f 30/45/33 38/81/50 31/82/35 29/46/34
f 51/83/51 50/33/25 82/36/27 59/84/52
f 58/85/53 57/86/54 87/87/55 88/88/56
f 55/89/57 54/90/58 84/91/59 85/92/60
f 52/93/61 51/83/51 59/84/52 60/94/62
f 49/95/63 81/96/64 84/91/59 54/90/58
f 56/97/65 55/89/57 85/92/60 86/98/66
f 53/99/67 52/93/61 60/94/62 83/100/68
f 57/86/54 56/97/65 86/98/66 87/87/55
f 49/95/63 53/99/67 83/100/68 81/96/64
f 50/101/25 51/102/51 63/103/69 62/104/70
f 57/105/54 58/106/53 70/107/71 69/108/72
f 54/109/58 55/110/57 67/111/73 66/112/74
f 51/102/51 52/113/61 64/114/75 63/103/69
f 54/109/58 66/112/74 61/115/76 49/116/63
f 55/110/57 56/117/65 68/118/77 67/111/73
f 52/113/61 53/119/67 65/120/78 64/114/75
f 56/117/65 57/105/54 69/108/72 68/118/77
f 53/119/67 49/116/63 61/115/76 65/120/78
f 68/121/77 69/122/72 79/123/79 78/124/80
f 65/125/78 61/126/76 72/127/81 75/128/82
f 62/129/70 63/130/69 73/131/83 71/132/84
f 69/122/72 70/133/71 80/134/85 79/123/79
f 66/135/74 67/136/73 77/137/86 76/138/87
f 63/130/69 64/139/75 74/140/88 73/131/83
f 66/135/74 76/138/87 72/127/81 61/126/76
f 67/136/73 68/121/77 78/124/80 77/137/86
f 64/139/75 65/125/78 75/128/82 74/140/88
f 82/141/27 90/142/89 91/143/90 59/144/52
f 87/145/55 97/146/91 98/147/92 88/148/56
f 84/149/59 94/150/93 95/151/94 85/152/60
f 59/144/52 91/143/90 92/153/95 60/154/62
f 84/149/59 81/155/64 89/156/96 94/150/93
f 85/152/60 95/151/94 96/157/97 86/158/66
f 60/154/62 92/153/95 93/159/98 83/160/68
f 86/158/66 96/157/97 97/146/91 87/145/55
f 83/160/68 93/159/98 89/156/96 81/155/64
f 96/161/97 106/162/99 107/163/100 97/164/91
f 93/165/98 103/166/101 100/167/102 89/168/96
f 90/169/89 99/170/103 101/171/104 91/172/90
f 97/164/91 107/163/100 108/173/105 98/174/92
f 94/175/93 104/176/106 105/177/107 95/178/94
f 91/172/90 101/171/104 102/179/108 92/180/95
f 94/175/93 89/168/96 100/167/102 104/176/106
f 95/178/94 105/177/107 106/162/99 96/161/97
f 92/180/95 102/179/108 103/166/101 93/165/98
f 25/40/30 90/142/89 82/141/27 26/37/26
f 33/43/32 99/170/103 90/169/89 25/44/30
f 2/1/1 50/101/25 62/104/70 1/2/2
f 1/6/2 62/129/70 71/132/84 9/7/5
f 20/73/23 58/85/53 88/88/56 44/74/46
f 19/29/22 70/107/71 58/106/53 20/30/23
f 24/32/24 80/134/85 70/133/71 19/31/22
f 44/61/46 88/148/56 98/147/92 43/62/47
f 43/63/47 98/174/92 108/173/105 48/64/48
