# Blender v3.0.0 OBJ File: 'City.blend'
# www.blender.org
o mono_rail_3
v 0.370000 0.070000 -0.500000
v 0.370000 0.070000 0.500000
v -0.370000 0.070000 0.500000
v -0.370000 0.070000 -0.500000
v 0.470000 0.000000 0.500000
v 0.470000 -0.000000 -0.500000
v -0.400000 0.100000 0.500000
v -0.400000 0.100000 -0.500000
v 0.400000 0.100000 0.500000
v 0.400000 0.100000 -0.500000
v -0.470000 0.000000 0.500000
v -0.470000 0.000000 -0.500000
v -0.370000 0.100000 -0.500000
v -0.370000 0.100000 0.500000
v 0.370000 0.100000 -0.500000
v 0.370000 0.100000 0.500000
vt 0.125000 0.125000
vt 0.125000 0.125000
vt 0.125000 0.125000
vt 0.125000 0.125000
vt 0.375000 0.125000
vt 0.375000 0.125000
vt 0.375000 0.125000
vt 0.375000 0.125000
vt 0.375000 0.125000
vt 0.375000 0.125000
vt 0.375000 0.125000
vt 0.375000 0.125000
vt 0.375000 0.125000
vt 0.375000 0.125000
vt 0.375000 0.125000
vt 0.375000 0.125000
vt 0.375000 0.125000
vt 0.375000 0.125000
vt 0.375000 0.125000
vt 0.375000 0.125000
vt 0.125000 0.125000
vt 0.125000 0.125000
vt 0.125000 0.125000
vt 0.125000 0.125000
vn 0.0000 1.0000 0.0000
vn -0.8192 0.5735 0.0000
vn 0.0000 0.0000 1.0000
vn 0.0000 0.0000 -1.0000
vn 0.8192 0.5735 0.0000
vn -1.0000 0.0000 0.0000
vn 1.0000 0.0000 0.0000
s 1
f 4/1/1 3/2/1 2/3/1 1/4/1
f 12/5/2 11/6/2 7/7/2 8/8/2
f 7/7/3 3/9/3 14/10/3
f 4/11/4 8/8/4 13/12/4
f 10/13/5 9/14/5 5/15/5 6/16/5
f 7/7/3 11/6/3 3/9/3
f 9/14/3 2/17/3 5/15/3
f 2/17/3 3/9/3 11/6/3 5/15/3
f 4/11/4 12/5/4 8/8/4
f 1/18/4 10/13/4 6/16/4
f 1/18/4 6/16/4 12/5/4 4/11/4
f 8/8/1 7/7/1 14/10/1 13/12/1
f 15/19/1 16/20/1 9/14/1 10/13/1
f 1/4/6 2/3/6 16/21/6 15/22/6
f 10/13/4 1/18/4 15/19/4
f 2/17/3 9/14/3 16/20/3
f 3/2/7 4/1/7 13/23/7 14/24/7
