# Blender v3.0.0 OBJ File: 'City.blend'
# www.blender.org
o mono_rail_straight_cap.004_mono_rail_straight_cap
v -0.250000 0.030000 -0.150000
v 0.250000 0.030000 -0.150000
v 0.400000 0.030000 -0.500000
v -0.400000 0.030000 -0.500000
v 0.500000 -0.000000 -0.500000
v -0.430000 0.030000 -0.500000
v 0.430000 0.030000 -0.500000
v -0.500000 -0.000000 -0.500000
v -0.500000 -0.000000 0.130000
v -0.430000 0.030000 0.130000
v -0.400000 0.030000 0.130000
v 0.500000 -0.000000 0.130000
v 0.430000 0.030000 0.130000
v 0.400000 0.030000 0.130000
v -0.390000 0.710000 -0.400000
v -0.390000 0.590000 -0.400000
v 0.390000 0.710000 -0.400000
v 0.390000 0.590000 -0.400000
v 0.440000 0.710000 -0.370000
v 0.440000 0.590000 -0.370000
v -0.440000 0.710000 -0.370000
v -0.440000 0.590000 -0.370000
v -0.300000 0.710000 -0.080000
v -0.300000 0.590000 -0.080000
v 0.300000 0.710000 -0.080000
v 0.300000 0.590000 -0.080000
v -0.280000 0.710000 -0.130000
v -0.280000 0.590000 -0.130000
v -0.390000 0.710000 -0.320000
v -0.390000 0.590000 -0.320000
v -0.340000 0.710000 -0.350000
v -0.340000 0.590000 -0.350000
v 0.340000 0.710000 -0.350000
v 0.340000 0.590000 -0.350000
v 0.390000 0.710000 -0.320000
v 0.390000 0.590000 -0.320000
v 0.280000 0.710000 -0.130000
v 0.280000 0.590000 -0.130000
v -0.250000 0.710000 -0.130000
v -0.250000 0.590000 -0.130000
v -0.250000 0.710000 -0.080000
v -0.250000 0.590000 -0.080000
v 0.250000 0.710000 -0.130000
v 0.250000 0.590000 -0.130000
v 0.250000 0.710000 -0.080000
v 0.250000 0.590000 -0.080000
v 0.440000 0.710000 -0.220000
v 0.440000 0.590000 -0.220000
v -0.440000 0.710000 -0.220000
v -0.440000 0.590000 -0.220000
v -0.390000 0.710000 -0.240000
v -0.390000 0.590000 -0.240000
v 0.390000 0.710000 -0.240000
v 0.390000 0.590000 -0.240000
v -0.250000 0.800000 -0.150000
v 0.250000 0.800000 -0.150000
v -0.250000 0.800000 -0.060000
v 0.250000 0.800000 -0.060000
v -0.250000 0.500000 0.240000
v 0.250000 0.500000 0.240000
v -0.250000 0.030000 0.240000
v 0.250000 0.030000 0.240000
v 0.340000 0.570000 -0.350000
v 0.340000 0.570000 -0.400000
v 0.300000 0.590000 -0.350000
v 0.340000 0.710000 -0.400000
v 0.340000 0.730000 -0.400000
v 0.340000 0.730000 -0.350000
v -0.340000 0.590000 -0.400000
v -0.340000 0.710000 -0.400000
v 0.340000 0.590000 -0.400000
v -0.300000 0.590000 -0.350000
v -0.120000 0.590000 -0.350000
v -0.060000 0.590000 -0.350000
v 0.000000 0.590000 -0.350000
v 0.060000 0.590000 -0.350000
v 0.120000 0.590000 -0.350000
v 0.180000 0.590000 -0.350000
v 0.240000 0.590000 -0.350000
v -0.180000 0.590000 -0.350000
v -0.240000 0.590000 -0.350000
v 0.300000 0.650000 -0.350000
v 0.300000 0.590000 -0.400000
v -0.300000 0.650000 -0.350000
v -0.300000 0.710000 -0.350000
v 0.300000 0.710000 -0.350000
v 0.240000 0.710000 -0.350000
v -0.240000 0.710000 -0.350000
v -0.180000 0.710000 -0.350000
v 0.180000 0.710000 -0.350000
v 0.120000 0.710000 -0.350000
v -0.120000 0.710000 -0.350000
v 0.000000 0.650000 -0.350000
v -0.060000 0.710000 -0.350000
v 0.060000 0.710000 -0.350000
v -0.300000 0.590000 -0.400000
v -0.120000 0.590000 -0.400000
v -0.060000 0.590000 -0.400000
v 0.000000 0.590000 -0.400000
v 0.060000 0.590000 -0.400000
v 0.120000 0.590000 -0.400000
v 0.180000 0.590000 -0.400000
v 0.240000 0.590000 -0.400000
v -0.180000 0.590000 -0.400000
v -0.240000 0.590000 -0.400000
v 0.300000 0.650000 -0.400000
v -0.300000 0.650000 -0.400000
v -0.300000 0.710000 -0.400000
v 0.300000 0.710000 -0.400000
v 0.240000 0.710000 -0.400000
v -0.240000 0.710000 -0.400000
v -0.180000 0.710000 -0.400000
v 0.180000 0.710000 -0.400000
v 0.120000 0.710000 -0.400000
v -0.120000 0.710000 -0.400000
v 0.000000 0.650000 -0.400000
v -0.060000 0.710000 -0.400000
v 0.060000 0.710000 -0.400000
v 0.340000 0.710000 -0.420000
v 0.340000 0.590000 -0.420000
v 0.340000 0.590000 -0.330000
v 0.340000 0.710000 -0.330000
v 0.300000 0.730000 -0.350000
v 0.300000 0.730000 -0.400000
v 0.300000 0.710000 -0.420000
v 0.300000 0.590000 -0.420000
v 0.300000 0.570000 -0.400000
v 0.300000 0.570000 -0.350000
v 0.300000 0.590000 -0.330000
v 0.300000 0.710000 -0.330000
v -0.300000 0.570000 -0.350000
v -0.300000 0.570000 -0.400000
v -0.300000 0.730000 -0.400000
v -0.300000 0.730000 -0.350000
v -0.300000 0.710000 -0.420000
v -0.300000 0.590000 -0.420000
v -0.300000 0.590000 -0.330000
v -0.300000 0.710000 -0.330000
v -0.340000 0.730000 -0.350000
v -0.340000 0.730000 -0.400000
v -0.340000 0.710000 -0.420000
v -0.340000 0.590000 -0.420000
v -0.340000 0.570000 -0.400000
v -0.340000 0.570000 -0.350000
v -0.340000 0.590000 -0.330000
v -0.340000 0.710000 -0.330000
v 0.393094 0.000000 0.388094
v 0.343596 0.030000 0.338597
v 0.322383 0.030000 0.317383
v 0.135000 0.000000 0.495000
v 0.135000 0.030000 0.425000
v 0.135000 0.030000 0.395000
v -0.135000 0.000000 0.495000
v -0.135000 0.030000 0.425000
v -0.135000 0.030000 0.395000
v -0.393094 0.000000 0.388094
v -0.343597 0.030000 0.338596
v -0.322383 0.030000 0.317383
v -0.050000 0.220000 -0.350000
v -0.090000 0.100000 -0.350000
v -0.090000 0.030000 -0.350000
v 0.089998 0.030000 -0.350000
v 0.089998 0.100000 -0.350000
v 0.049998 0.220000 -0.350000
v 0.049998 0.220000 -0.150000
v 0.089998 0.100000 -0.150000
v 0.089998 0.030000 -0.150000
v -0.090000 0.030000 -0.150000
v -0.090000 0.100000 -0.150000
v -0.050000 0.220000 -0.150000
v 0.200003 0.030000 -0.433000
v 0.171424 0.030000 -0.416500
v 0.171424 0.030000 -0.383500
v 0.200003 0.030000 -0.367000
v 0.228582 0.030000 -0.383500
v 0.228582 0.030000 -0.416500
v 0.050003 0.220000 -0.433000
v 0.021424 0.220000 -0.416500
v 0.021424 0.220000 -0.383500
v 0.050003 0.220000 -0.367000
v 0.078582 0.220000 -0.383500
v 0.078582 0.220000 -0.416500
v -0.199980 0.030000 -0.433000
v -0.171401 0.030000 -0.416500
v -0.171401 0.030000 -0.383500
v -0.199980 0.030000 -0.367000
v -0.228559 0.030000 -0.383500
v -0.228559 0.030000 -0.416500
v -0.049980 0.220000 -0.433000
v -0.021401 0.220000 -0.416500
v -0.021401 0.220000 -0.383500
v -0.049980 0.220000 -0.367000
v -0.078559 0.220000 -0.383500
v -0.078559 0.220000 -0.416500
v -0.000006 0.425000 -0.150000
v -0.088394 0.388388 -0.150000
v -0.125006 0.300000 -0.150000
v -0.088394 0.211612 -0.150000
v 0.088382 0.211612 -0.150000
v 0.124994 0.300000 -0.150000
v 0.088383 0.388388 -0.150000
v -0.000006 0.425000 -0.500000
v -0.088394 0.388388 -0.500000
v -0.125006 0.300000 -0.500000
v -0.088394 0.211612 -0.500000
v 0.088382 0.211612 -0.500000
v 0.124994 0.300000 -0.500000
v 0.088383 0.388388 -0.500000
vt 0.125000 0.125000
vt 0.125000 0.125000
vt 0.125000 0.125000
vt 0.125000 0.125000
vt 0.125000 0.125000
vt 0.125000 0.125000
vt 0.125000 0.125000
vt 0.125000 0.125000
vt 0.125000 0.125000
vt 0.125000 0.125000
vt 0.125000 0.125000
vt 0.125000 0.125000
vt 0.125000 0.125000
vt 0.125000 0.125000
vt 0.125000 0.125000
vt 0.125000 0.125000
vt 0.125000 0.125000
vt 0.125000 0.125000
vt 0.125000 0.125000
vt 0.125000 0.125000
vt 0.125000 0.125000
vt 0.125000 0.125000
vt 0.125000 0.125000
vt 0.125000 0.125000
vt 0.375000 0.125000
vt 0.375000 0.125000
vt 0.375000 0.125000
vt 0.375000 0.125000
vt 0.375000 0.125000
vt 0.375000 0.125000
vt 0.375000 0.125000
vt 0.375000 0.125000
vt 0.625000 0.125000
vt 0.625000 0.125000
vt 0.625000 0.125000
vt 0.625000 0.125000
vt 0.625000 0.125000
vt 0.625000 0.125000
vt 0.625000 0.125000
vt 0.625000 0.125000
vt 0.625000 0.125000
vt 0.625000 0.125000
vt 0.625000 0.125000
vt 0.625000 0.125000
vt 0.875000 0.125000
vt 0.875000 0.125000
vt 0.875000 0.125000
vt 0.875000 0.125000
vt 0.875000 0.125000
vt 0.875000 0.125000
vt 0.875000 0.125000
vt 0.875000 0.125000
vt 0.875000 0.125000
vt 0.875000 0.125000
vt 0.875000 0.125000
vt 0.875000 0.125000
vt 0.875000 0.125000
vt 0.875000 0.125000
vt 0.875000 0.125000
vt 0.875000 0.125000
vt 0.875000 0.125000
vt 0.875000 0.125000
vt 0.875000 0.125000
vt 0.875000 0.125000
vt 0.875000 0.125000
vt 0.875000 0.125000
vt 0.875000 0.125000
vt 0.875000 0.125000
vt 0.875000 0.125000
vt 0.875000 0.125000
vt 0.875000 0.125000
vt 0.875000 0.125000
vt 0.875000 0.125000
vt 0.875000 0.125000
vt 0.875000 0.125000
vt 0.875000 0.125000
vt 0.875000 0.125000
vt 0.875000 0.125000
vt 0.125000 0.375000
vt 0.125000 0.375000
vt 0.125000 0.375000
vt 0.125000 0.375000
vt 0.125000 0.375000
vt 0.125000 0.375000
vt 0.125000 0.375000
vt 0.125000 0.375000
vt 0.125000 0.375000
vt 0.125000 0.375000
vt 0.125000 0.375000
vt 0.125000 0.375000
vt 0.125000 0.375000
vt 0.125000 0.375000
vt 0.375000 0.375000
vt 0.375000 0.375000
vt 0.375000 0.375000
vt 0.375000 0.375000
vt 0.375000 0.375000
vt 0.375000 0.375000
vt 0.375000 0.375000
vt 0.375000 0.375000
vt 0.375000 0.375000
vt 0.375000 0.375000
vt 0.375000 0.375000
vt 0.375000 0.375000
vt 0.375000 0.375000
vt 0.375000 0.375000
vt 0.375000 0.375000
vt 0.375000 0.375000
vt 0.375000 0.375000
vt 0.375000 0.375000
vt 0.375000 0.375000
vt 0.375000 0.375000
vt 0.375000 0.375000
vt 0.375000 0.375000
vt 0.375000 0.375000
vt 0.375000 0.375000
vt 0.375000 0.375000
vt 0.375000 0.375000
vt 0.375000 0.375000
vt 0.375000 0.375000
vt 0.375000 0.375000
vt 0.375000 0.375000
vt 0.375000 0.375000
vt 0.375000 0.375000
vt 0.375000 0.375000
vt 0.375000 0.375000
vt 0.375000 0.375000
vt 0.375000 0.375000
vt 0.375000 0.375000
vt 0.375000 0.375000
vt 0.375000 0.375000
vt 0.375000 0.375000
vt 0.375000 0.375000
vt 0.375000 0.375000
vt 0.375000 0.375000
vt 0.375000 0.375000
vt 0.375000 0.375000
vt 0.375000 0.375000
vt 0.375000 0.375000
vt 0.375000 0.375000
vt 0.375000 0.375000
vt 0.375000 0.375000
vt 0.375000 0.375000
vt 0.375000 0.375000
vt 0.375000 0.375000
vt 0.375000 0.375000
vt 0.375000 0.375000
vt 0.375000 0.375000
vt 0.375000 0.375000
vt 0.375000 0.375000
vt 0.375000 0.375000
vt 0.375000 0.375000
vt 0.375000 0.375000
vt 0.375000 0.375000
vt 0.375000 0.375000
vt 0.375000 0.375000
vt 0.375000 0.375000
vt 0.375000 0.375000
vt 0.375000 0.375000
vt 0.375000 0.375000
vt 0.375000 0.375000
vt 0.375000 0.375000
vt 0.375000 0.375000
vt 0.375000 0.375000
vt 0.375000 0.375000
vt 0.375000 0.375000
vt 0.375000 0.375000
vt 0.375000 0.375000
vt 0.625000 0.375000
vt 0.625000 0.375000
vt 0.625000 0.375000
vt 0.625000 0.375000
vt 0.625000 0.375000
vt 0.625000 0.375000
vt 0.625000 0.375000
vt 0.625000 0.375000
vt 0.625000 0.375000
vt 0.625000 0.375000
vt 0.625000 0.375000
vt 0.625000 0.375000
vt 0.625000 0.375000
vt 0.625000 0.375000
vt 0.625000 0.375000
vt 0.625000 0.375000
vt 0.625000 0.375000
vt 0.625000 0.375000
vt 0.625000 0.375000
vt 0.625000 0.375000
vt 0.625000 0.375000
vt 0.625000 0.375000
vt 0.625000 0.375000
vt 0.625000 0.375000
vt 0.625000 0.375000
vt 0.625000 0.375000
vt 0.625000 0.375000
vt 0.625000 0.375000
vt 0.625000 0.375000
vt 0.625000 0.375000
vt 0.625000 0.375000
vt 0.625000 0.375000
vt 0.625000 0.375000
vt 0.625000 0.375000
vt 0.625000 0.375000
vt 0.625000 0.375000
vt 0.625000 0.375000
vt 0.625000 0.375000
vt 0.625000 0.375000
vt 0.625000 0.375000
vt 0.625000 0.375000
vt 0.625000 0.375000
vt 0.625000 0.375000
vt 0.625000 0.375000
vt 0.875000 0.375000
vt 0.875000 0.375000
vt 0.875000 0.375000
vt 0.875000 0.375000
vt 0.875000 0.375000
vt 0.875000 0.375000
vt 0.875000 0.375000
vt 0.875000 0.375000
vt 0.875000 0.375000
vt 0.875000 0.375000
vt 0.875000 0.375000
vt 0.875000 0.375000
vt 0.875000 0.375000
vt 0.875000 0.375000
vt 0.875000 0.375000
vt 0.875000 0.375000
vt 0.875000 0.375000
vt 0.875000 0.375000
vt 0.875000 0.375000
vt 0.875000 0.375000
vt 0.875000 0.375000
vt 0.875000 0.375000
vt 0.875000 0.375000
vt 0.875000 0.375000
vt 0.875000 0.375000
vt 0.875000 0.375000
vt 0.875000 0.375000
vt 0.875000 0.375000
vt 0.875000 0.375000
vt 0.875000 0.375000
vt 0.875000 0.375000
vt 0.875000 0.375000
vt 0.875000 0.375000
vt 0.875000 0.375000
vt 0.875000 0.375000
vt 0.875000 0.375000
vt 0.875000 0.375000
vt 0.875000 0.375000
vt 0.875000 0.375000
vt 0.875000 0.375000
vt 0.875000 0.375000
vt 0.875000 0.375000
vt 0.875000 0.375000
vt 0.875000 0.375000
vt 0.875000 0.375000
vt 0.875000 0.375000
vt 0.875000 0.375000
vt 0.875000 0.375000
vn 0.0000 0.0000 -1.0000
vn 0.3939 0.9191 0.0000
vn 0.0000 1.0000 0.0000
vn -0.3939 0.9191 0.0000
vn 0.3888 0.9071 0.1610
vn 0.2785 0.9191 0.2785
vn 0.0891 0.9155 0.3924
vn 0.0703 0.9169 0.3929
vn -0.0891 0.9155 0.3924
vn -0.0703 0.9169 0.3929
vn -0.2785 0.9191 0.2785
vn -0.3888 0.9071 0.1610
vn -0.9487 0.3162 -0.0000
vn 1.0000 0.0000 0.0000
vn 0.9487 0.3162 -0.0000
vn -1.0000 0.0000 0.0000
vn 0.0000 0.7071 0.7071
vn 0.0000 0.0000 1.0000
vn -0.6710 -0.5297 -0.5188
vn -0.7353 -0.5805 -0.3499
vn -0.2012 -0.1589 -0.9666
vn 0.2012 0.1589 -0.9666
vn -0.6710 -0.5297 0.5188
vn -0.7353 -0.5805 0.3499
vn 0.2012 0.1589 0.9666
vn -0.2012 -0.1589 0.9666
vn 0.7353 0.5805 0.3499
vn 0.6710 0.5297 0.5188
vn 0.7353 0.5805 -0.3499
vn 0.6710 0.5297 -0.5188
vn 0.6710 -0.5297 -0.5188
vn -0.2012 0.1589 -0.9666
vn 0.2012 -0.1589 -0.9666
vn 0.7353 -0.5805 -0.3499
vn 0.6710 -0.5297 0.5188
vn 0.7353 -0.5805 0.3499
vn -0.2012 0.1589 0.9666
vn 0.2012 -0.1589 0.9666
vn -0.7353 0.5805 0.3499
vn -0.6710 0.5297 0.5188
vn -0.7353 0.5805 -0.3499
vn -0.6710 0.5297 -0.5188
vn -0.7071 0.7071 0.0000
vn 0.7071 0.7071 0.0000
vn 0.9239 -0.3827 0.0000
vn -0.9239 -0.3827 -0.0000
vn 0.0000 -1.0000 0.0000
vn 0.2669 0.0000 -0.9637
vn 0.5145 0.0000 -0.8575
vn -0.2669 0.0000 -0.9637
vn -0.5145 0.0000 -0.8575
vn -0.7071 -0.0000 0.7071
vn 0.5145 -0.0000 0.8575
vn -0.5145 -0.0000 0.8575
vn 0.7071 -0.0000 0.7071
vn 0.7071 0.0000 -0.7071
vn -0.7071 0.0000 -0.7071
vn 0.0000 0.7071 -0.7071
vn 0.0000 -0.7071 -0.7071
vn 0.0000 -0.7071 0.7071
s 1
f 4/1/1 8/2/1 6/3/1
f 3/4/1 7/5/1 5/6/1
f 3/4/1 5/6/1 8/2/1 4/1/1
f 7/5/2 13/7/2 12/8/2 5/6/2
f 3/4/3 14/9/3 13/7/3 7/5/3
f 4/1/3 6/3/3 10/10/3 11/11/3
f 6/3/4 8/2/4 9/12/4 10/10/4
f 13/7/3 14/9/3 149/13/3 148/14/3
f 12/8/5 13/7/5 148/14/6 147/15/6
f 148/14/3 149/13/3 152/16/3 151/17/3
f 147/15/6 148/14/6 151/17/7 150/18/8
f 151/17/3 152/16/3 155/19/3 154/20/3
f 150/18/8 151/17/7 154/20/9 153/21/10
f 154/20/3 155/19/3 158/22/3 157/23/3
f 153/21/10 154/20/9 157/23/11 156/24/11
f 11/11/3 10/10/3 157/23/3 158/22/3
f 10/10/12 9/12/12 156/24/11 157/23/11
f 4/25/3 11/26/3 14/27/3 3/28/3
f 14/27/3 11/26/3 158/29/3 149/30/3
f 149/30/3 158/29/3 155/31/3 152/32/3
f 169/33/13 170/34/13 159/35/13 160/36/13
f 166/37/14 167/38/14 162/39/14 163/40/14
f 163/40/15 164/41/15 165/42/15 166/37/15
f 169/33/16 160/36/16 161/43/16 168/44/16
f 159/35/1 164/41/1 163/40/1 160/36/1
f 161/43/1 160/36/1 163/40/1 162/39/1
f 56/45/3 55/46/3 57/47/3 58/48/3
f 2/49/1 1/50/1 55/46/1 56/45/1
f 58/48/17 57/47/17 59/51/17 60/52/17
f 60/52/18 59/51/18 61/53/18 62/54/18
f 56/45/14 58/48/14 60/52/14 2/49/14
f 1/50/16 59/51/16 57/47/16 55/46/16
f 2/49/14 60/52/14 62/54/14
f 1/50/16 61/53/16 59/51/16
f 172/55/19 178/56/20 177/57/21 171/58/22
f 173/59/23 179/60/24 178/56/20 172/55/19
f 174/61/25 180/62/26 179/60/24 173/59/23
f 175/63/27 181/64/28 180/62/26 174/61/25
f 176/65/29 182/66/30 181/64/28 175/63/27
f 171/58/22 177/57/21 182/66/30 176/65/29
f 184/67/31 183/68/32 189/69/33 190/70/34
f 185/71/35 184/67/31 190/70/34 191/72/36
f 186/73/37 185/71/35 191/72/36 192/74/38
f 187/75/39 186/73/37 192/74/38 193/76/40
f 188/77/41 187/75/39 193/76/40 194/78/42
f 183/68/32 188/77/41 194/78/42 189/69/33
f 197/79/16 196/80/43 203/81/43 204/82/16
f 195/83/3 201/84/44 208/85/44 202/86/3
f 200/87/14 199/88/45 206/89/45 207/90/14
f 198/91/46 197/79/16 204/82/16 205/92/46
f 196/80/43 195/83/3 202/86/3 203/81/43
f 201/84/44 200/87/14 207/90/14 208/85/44
f 198/91/47 205/92/47 206/89/47 199/88/47
f 17/93/48 19/94/49 20/95/49 18/96/48
f 16/97/50 22/98/51 21/99/51 15/100/50
f 24/101/52 23/102/52 49/103/52 50/104/52
f 30/105/53 32/106/53 31/107/53 29/108/53
f 15/100/50 70/109/1 69/110/1 16/97/50
f 34/111/54 36/112/54 35/113/54 33/114/54
f 25/115/55 26/116/55 48/117/55 47/118/55
f 27/119/1 39/120/1 40/121/1 28/122/1
f 24/101/18 42/123/18 41/124/18 23/102/18
f 38/125/1 44/126/1 43/127/1 37/128/1
f 25/115/18 45/129/18 46/130/18 26/116/18
f 15/100/3 21/99/3 29/108/3 31/107/3
f 22/98/47 16/97/47 32/106/47 30/105/47
f 18/96/47 20/95/47 36/112/47 34/111/47
f 44/126/47 38/125/47 26/116/47 46/130/47
f 19/94/3 17/93/3 33/114/3 35/113/3
f 37/128/3 43/127/3 45/129/3 25/115/3
f 39/120/3 27/119/3 23/102/3 41/124/3
f 20/95/14 19/94/14 47/118/14 48/117/14
f 28/122/47 40/121/47 42/123/47 24/101/47
f 22/98/16 50/104/16 49/103/16 21/99/16
f 27/119/56 28/122/56 52/131/56 51/132/56
f 29/108/14 51/132/14 52/131/14 30/105/14
f 38/125/57 37/128/57 53/133/57 54/134/57
f 35/113/16 36/112/16 54/134/16 53/133/16
f 48/117/47 54/134/47 36/112/47 20/95/47
f 26/116/47 38/125/47 54/134/47 48/117/47
f 35/113/3 53/133/3 47/118/3 19/94/3
f 47/118/3 53/133/3 37/128/3 25/115/3
f 29/108/3 21/99/3 49/103/3 51/132/3
f 23/102/3 27/119/3 51/132/3 49/103/3
f 30/105/47 52/131/47 50/104/47 22/98/47
f 50/104/47 52/131/47 28/122/47 24/101/47
f 68/135/14 122/136/14 121/137/14 63/138/14
f 17/93/48 18/96/48 71/139/1 66/140/1
f 32/106/47 16/97/47 69/110/47
f 34/111/47 71/139/47 18/96/47
f 15/100/3 31/107/3 70/109/3
f 68/135/14 63/138/14 64/141/14 67/142/14
f 17/93/3 66/140/3 33/114/3
f 119/143/14 67/142/14 64/141/14 120/144/14
f 123/145/16 128/146/16 129/147/16 130/148/16
f 123/145/16 124/149/16 127/150/16 128/146/16
f 125/151/16 126/152/16 127/150/16 124/149/16
f 67/142/58 119/143/58 125/151/58 124/149/58
f 121/137/18 122/136/18 130/148/18 129/147/18
f 120/144/59 64/141/59 127/150/59 126/152/59
f 68/135/3 67/142/3 124/149/3 123/145/3
f 122/136/17 68/135/17 123/145/17 130/148/17
f 119/143/1 120/144/1 126/152/1 125/151/1
f 63/138/60 121/137/60 129/147/60 128/146/60
f 64/141/47 63/138/47 128/146/47 127/150/47
f 134/153/14 138/154/14 137/155/14 131/156/14
f 134/153/14 131/156/14 132/157/14 133/158/14
f 135/159/14 133/158/14 132/157/14 136/160/14
f 139/161/16 144/162/16 145/163/16 146/164/16
f 139/161/16 140/165/16 143/166/16 144/162/16
f 141/167/16 142/168/16 143/166/16 140/165/16
f 133/158/58 135/159/58 141/167/58 140/165/58
f 137/155/18 138/154/18 146/164/18 145/163/18
f 136/160/59 132/157/59 143/166/59 142/168/59
f 134/153/3 133/158/3 140/165/3 139/161/3
f 138/154/17 134/153/17 139/161/17 146/164/17
f 135/159/1 136/160/1 142/168/1 141/167/1
f 131/156/60 137/155/60 145/163/60 144/162/60
f 132/157/47 131/156/47 144/162/47 143/166/47
f 107/169/1 108/170/1 104/171/1 105/172/1
f 111/173/1 112/174/1 98/175/1 97/176/1
f 115/177/1 117/178/1 116/179/1 99/180/1
f 114/181/1 99/180/1 116/179/1 118/182/1
f 113/183/1 110/184/1 101/185/1 100/186/1
f 109/187/1 106/188/1 103/189/1 102/190/1
f 78/191/18 79/192/18 82/193/18 86/194/18
f 76/195/18 77/196/18 87/197/18 90/198/18
f 91/199/18 95/200/18 93/201/18 75/202/18
f 92/203/18 75/202/18 93/201/18 94/204/18
f 88/205/18 73/206/18 74/207/18 89/208/18
f 84/209/18 81/210/18 80/211/18 85/212/18
f 112/174/3 111/173/3 88/205/3 89/208/3
f 117/178/3 115/177/3 92/203/3 94/204/3
f 118/182/3 95/200/3 91/199/3 114/181/3
f 113/183/3 90/198/3 87/197/3 110/184/3
f 78/191/47 102/190/47 103/189/47 79/192/47
f 76/195/47 100/186/47 101/185/47 77/196/47
f 73/206/47 97/176/47 98/175/47 74/207/47
f 81/210/47 105/172/47 104/171/47 80/211/47
f 107/213/1 105/214/1 96/215/1
f 108/216/1 111/217/1 97/218/1 104/219/1
f 112/220/1 115/221/1 99/222/1 98/223/1
f 117/224/1 118/225/1 116/226/1
f 114/227/1 113/228/1 100/229/1 99/222/1
f 110/230/1 109/231/1 102/232/1 101/233/1
f 103/234/1 106/235/1 83/236/1
f 79/237/18 65/238/18 82/239/18
f 77/240/18 78/241/18 86/242/18 87/243/18
f 75/244/18 76/245/18 90/246/18 91/247/18
f 94/248/18 93/249/18 95/250/18
f 89/251/18 74/252/18 75/244/18 92/253/18
f 85/254/18 80/255/18 73/256/18 88/257/18
f 81/258/18 84/259/18 72/260/18
f 111/217/3 108/216/3 85/254/3 88/257/3
f 115/221/3 112/220/3 89/251/3 92/253/3
f 118/225/3 117/224/3 94/248/3 95/250/3
f 114/227/3 91/247/3 90/246/3 113/228/3
f 110/230/3 87/243/3 86/242/3 109/231/3
f 79/237/47 103/234/47 83/236/47 65/238/47
f 77/240/47 101/233/47 102/232/47 78/241/47
f 75/244/47 99/222/47 100/229/47 76/245/47
f 74/252/47 98/223/47 99/222/47 75/244/47
f 80/255/47 104/219/47 97/218/47 73/256/47
f 81/258/47 72/260/47 96/215/47 105/214/47
l 170 165
