# Blender v3.0.0 OBJ File: 'City.blend'
# www.blender.org
o stone_big_cargo
v -0.500000 -0.000000 -2.800000
v 0.500000 -0.000000 -2.800000
v 0.500000 0.000000 -1.800000
v -0.500000 0.000000 -1.800000
v -0.500000 0.050000 -2.800000
v 0.500000 0.050000 -2.800000
v 0.500000 0.050000 -1.800000
v -0.500000 0.050000 -1.800000
v 0.490000 0.350000 -2.710000
v 0.410000 0.350000 -2.710000
v 0.410000 0.350000 -2.790000
v 0.490000 0.350000 -2.790000
v -0.410000 0.350000 -2.790000
v -0.490000 0.350000 -2.790000
v -0.490000 0.350000 -2.710000
v -0.410000 0.350000 -2.710000
v -0.410000 0.050000 -2.710000
v -0.490000 0.050000 -2.710000
v -0.490000 0.050000 -2.790000
v -0.410000 0.050000 -2.790000
v 0.490000 0.050000 -2.710000
v 0.410000 0.050000 -2.710000
v 0.410000 0.050000 -2.790000
v 0.490000 0.050000 -2.790000
v 0.490000 0.350000 -1.810000
v 0.410000 0.350000 -1.810000
v 0.410000 0.350000 -1.890000
v 0.490000 0.350000 -1.890000
v 0.490000 0.050000 -1.810000
v 0.410000 0.050000 -1.810000
v 0.410000 0.050000 -1.890000
v 0.490000 0.050000 -1.890000
v -0.410000 0.350000 -1.810000
v -0.490000 0.350000 -1.810000
v -0.490000 0.350000 -1.890000
v -0.410000 0.350000 -1.890000
v -0.410000 0.050000 -1.810000
v -0.490000 0.050000 -1.810000
v -0.490000 0.050000 -1.890000
v -0.410000 0.050000 -1.890000
v -0.450000 0.400000 -1.880000
v -0.480000 0.400000 -1.850000
v -0.450000 0.400000 -1.820000
v -0.420000 0.400000 -1.850000
v 0.450000 0.400000 -1.880000
v 0.420000 0.400000 -1.850000
v 0.450000 0.400000 -1.820000
v 0.480000 0.400000 -1.850000
v 0.450000 0.400000 -2.780000
v 0.420000 0.400000 -2.750000
v 0.450000 0.400000 -2.720000
v 0.480000 0.400000 -2.750000
v -0.450000 0.400000 -2.780000
v -0.480000 0.400000 -2.750000
v -0.450000 0.400000 -2.720000
v -0.420000 0.400000 -2.750000
v -0.000000 0.782222 -2.330000
v 0.030000 0.782222 -2.300000
v -0.030000 0.782222 -2.300000
v -0.000000 0.782222 -2.270000
v -0.000000 0.800000 -2.330000
v -0.030000 0.800000 -2.300000
v -0.000000 0.800000 -2.270000
v 0.030000 0.800000 -2.300000
v -0.000000 0.820000 -2.350000
v 0.050000 0.820000 -2.300000
v -0.000000 0.820000 -2.250000
v -0.050000 0.820000 -2.300000
v -0.000000 0.760000 -2.350000
v 0.050000 0.760000 -2.300000
v -0.000000 0.760000 -2.250000
v -0.050000 0.760000 -2.300000
v 0.450000 0.400000 -2.790000
v 0.490000 0.400000 -2.750000
v 0.450000 0.400000 -2.710000
v 0.410000 0.400000 -2.750000
v 0.450000 0.350000 -2.790000
v 0.490000 0.350000 -2.750000
v 0.450000 0.350000 -2.710000
v 0.410000 0.350000 -2.750000
v -0.450000 0.400000 -2.790000
v -0.410000 0.400000 -2.750000
v -0.450000 0.400000 -2.710000
v -0.490000 0.400000 -2.750000
v -0.450000 0.350000 -2.790000
v -0.410000 0.350000 -2.750000
v -0.450000 0.350000 -2.710000
v -0.490000 0.350000 -2.750000
v -0.450000 0.400000 -1.890000
v -0.410000 0.400000 -1.850000
v -0.450000 0.400000 -1.810000
v -0.490000 0.400000 -1.850000
v -0.450000 0.350000 -1.890000
v -0.410000 0.350000 -1.850000
v -0.450000 0.350000 -1.810000
v -0.490000 0.350000 -1.850000
v 0.450000 0.400000 -1.890000
v 0.490000 0.400000 -1.850000
v 0.450000 0.400000 -1.810000
v 0.410000 0.400000 -1.850000
v 0.450000 0.350000 -1.890000
v 0.490000 0.350000 -1.850000
v 0.450000 0.350000 -1.810000
v 0.410000 0.350000 -1.850000
vt 0.125000 0.125000
vt 0.125000 0.125000
vt 0.125000 0.125000
vt 0.125000 0.125000
vt 0.125000 0.125000
vt 0.125000 0.125000
vt 0.125000 0.125000
vt 0.125000 0.125000
vt 0.125000 0.125000
vt 0.125000 0.125000
vt 0.125000 0.125000
vt 0.125000 0.125000
vt 0.125000 0.125000
vt 0.125000 0.125000
vt 0.125000 0.125000
vt 0.125000 0.125000
vt 0.125000 0.125000
vt 0.125000 0.125000
vt 0.125000 0.125000
vt 0.125000 0.125000
vt 0.125000 0.125000
vt 0.125000 0.125000
vt 0.125000 0.125000
vt 0.125000 0.125000
vt 0.125000 0.125000
vt 0.125000 0.125000
vt 0.125000 0.125000
vt 0.125000 0.125000
vt 0.125000 0.125000
vt 0.125000 0.125000
vt 0.125000 0.125000
vt 0.125000 0.125000
vt 0.125000 0.125000
vt 0.125000 0.125000
vt 0.125000 0.125000
vt 0.125000 0.125000
vt 0.125000 0.125000
vt 0.125000 0.125000
vt 0.125000 0.125000
vt 0.125000 0.125000
vt 0.375000 0.125000
vt 0.375000 0.125000
vt 0.375000 0.125000
vt 0.375000 0.125000
vt 0.375000 0.125000
vt 0.375000 0.125000
vt 0.375000 0.125000
vt 0.375000 0.125000
vt 0.375000 0.125000
vt 0.375000 0.125000
vt 0.375000 0.125000
vt 0.375000 0.125000
vt 0.375000 0.125000
vt 0.375000 0.125000
vt 0.375000 0.125000
vt 0.375000 0.125000
vt 0.375000 0.125000
vt 0.375000 0.125000
vt 0.375000 0.125000
vt 0.375000 0.125000
vt 0.375000 0.125000
vt 0.375000 0.125000
vt 0.375000 0.125000
vt 0.375000 0.125000
vt 0.625000 0.125000
vt 0.625000 0.125000
vt 0.625000 0.125000
vt 0.625000 0.125000
vt 0.625000 0.125000
vt 0.625000 0.125000
vt 0.625000 0.125000
vt 0.625000 0.125000
vt 0.625000 0.125000
vt 0.625000 0.125000
vt 0.625000 0.125000
vt 0.625000 0.125000
vt 0.625000 0.125000
vt 0.625000 0.125000
vt 0.625000 0.125000
vt 0.625000 0.125000
vt 0.625000 0.125000
vt 0.625000 0.125000
vt 0.625000 0.125000
vt 0.625000 0.125000
vt 0.625000 0.125000
vt 0.625000 0.125000
vt 0.625000 0.125000
vt 0.625000 0.125000
vt 0.625000 0.125000
vt 0.625000 0.125000
vt 0.625000 0.125000
vt 0.625000 0.125000
vt 0.625000 0.125000
vt 0.625000 0.125000
vt 0.625000 0.125000
vt 0.625000 0.125000
vt 0.625000 0.125000
vt 0.625000 0.125000
vt 0.625000 0.125000
vt 0.625000 0.125000
vt 0.625000 0.125000
vt 0.625000 0.125000
vt 0.625000 0.125000
vt 0.625000 0.125000
vn 0.0000 0.0000 1.0000
vn 0.0000 0.0000 -1.0000
vn -1.0000 0.0000 -0.0000
vn 1.0000 0.0000 0.0000
vn 0.0000 1.0000 0.0000
vn 0.0000 -1.0000 0.0000
vn 0.7071 0.0000 -0.7071
vn -0.7071 0.0000 -0.7071
vn 0.3763 0.8466 0.3763
vn 0.7071 0.0000 0.7071
vn -0.7071 0.0000 0.7071
vn -0.3763 0.8466 0.3763
vn -0.3826 -0.8409 0.3826
vn 0.3763 0.8466 -0.3763
vn -0.3763 0.8466 -0.3763
vn 0.3826 -0.8409 0.3826
vn 0.3826 -0.8409 -0.3826
vn -0.3826 -0.8409 -0.3826
s 1
f 3/1/1 7/2/1 8/3/1 4/4/1
f 1/5/2 5/6/2 6/7/2 2/8/2
f 1/5/3 4/4/3 8/3/3 5/6/3
f 2/8/4 6/7/4 7/2/4 3/1/4
f 5/6/5 8/3/5 7/2/5 6/7/5
f 1/5/6 2/8/6 3/1/6 4/4/6
f 19/9/2 14/10/2 13/11/2 20/12/2
f 17/13/1 16/14/1 15/15/1 18/16/1
f 17/13/4 20/12/4 13/11/4 16/14/4
f 18/16/3 15/15/3 14/10/3 19/9/3
f 13/11/5 14/10/5 15/15/5 16/14/5
f 23/17/2 11/18/2 12/19/2 24/20/2
f 21/21/1 9/22/1 10/23/1 22/24/1
f 21/21/4 24/20/4 12/19/4 9/22/4
f 22/24/3 10/23/3 11/18/3 23/17/3
f 12/19/5 11/18/5 10/23/5 9/22/5
f 31/25/2 27/26/2 28/27/2 32/28/2
f 29/29/1 25/30/1 26/31/1 30/32/1
f 29/29/4 32/28/4 28/27/4 25/30/4
f 30/32/3 26/31/3 27/26/3 31/25/3
f 28/27/5 27/26/5 26/31/5 25/30/5
f 39/33/2 35/34/2 36/35/2 40/36/2
f 37/37/1 33/38/1 34/39/1 38/40/1
f 37/37/4 40/36/4 36/35/4 33/38/4
f 38/40/3 34/39/3 35/34/3 39/33/3
f 36/35/5 35/34/5 34/39/5 33/38/5
f 53/41/7 61/42/7 57/43/7 56/44/7
f 49/45/8 50/46/8 57/43/8 61/42/8
f 47/47/9 48/48/9 64/49/9 63/50/9
f 52/51/10 64/49/10 58/52/10 51/53/10
f 42/54/8 62/55/8 59/56/8 41/57/8
f 47/47/11 63/50/11 60/58/11 46/59/11
f 44/60/10 60/58/10 63/50/10 43/61/10
f 42/54/12 43/61/12 63/50/12 62/55/12
f 58/52/13 57/43/13 50/46/13 51/53/13
f 49/45/14 61/42/14 64/49/14 52/51/14
f 53/41/15 54/62/15 62/55/15 61/42/15
f 48/48/7 45/63/7 58/52/7 64/49/7
f 54/62/11 55/64/11 59/56/11 62/55/11
f 57/43/16 59/56/16 55/64/16 56/44/16
f 74/65/10 75/66/10 79/67/10 78/68/10
f 59/56/17 60/58/17 44/60/17 41/57/17
f 45/63/18 46/59/18 60/58/18 58/52/18
f 73/69/8 77/70/8 80/71/8 76/72/8
f 65/73/8 69/74/8 72/75/8 68/76/8
f 66/77/10 67/78/10 71/79/10 70/80/10
f 67/78/11 68/76/11 72/75/11 71/79/11
f 65/73/7 66/77/7 70/80/7 69/74/7
f 65/73/5 68/76/5 67/78/5 66/77/5
f 69/74/6 70/80/6 71/79/6 72/75/6
f 75/66/11 76/72/11 80/71/11 79/67/11
f 73/69/7 74/65/7 78/68/7 77/70/7
f 73/69/5 76/72/5 75/66/5 74/65/5
f 82/81/10 83/82/10 87/83/10 86/84/10
f 81/85/8 85/86/8 88/87/8 84/88/8
f 83/82/11 84/88/11 88/87/11 87/83/11
f 81/85/7 82/81/7 86/84/7 85/86/7
f 81/85/5 84/88/5 83/82/5 82/81/5
f 90/89/10 91/90/10 95/91/10 94/92/10
f 89/93/8 93/94/8 96/95/8 92/96/8
f 91/90/11 92/96/11 96/95/11 95/91/11
f 89/93/7 90/89/7 94/92/7 93/94/7
f 89/93/5 92/96/5 91/90/5 90/89/5
f 98/97/10 99/98/10 103/99/10 102/100/10
f 97/101/8 101/102/8 104/103/8 100/104/8
f 99/98/11 100/104/11 104/103/11 103/99/11
f 97/101/7 98/97/7 102/100/7 101/102/7
f 97/101/5 100/104/5 99/98/5 98/97/5
