# Blender v3.0.0 OBJ File: 'City.blend'
# www.blender.org
o stone_big_rope
v -0.000000 -0.000000 -2.330000
v -0.030000 -0.000000 -2.300000
v -0.000000 -0.000000 -2.270000
v 0.030000 -0.000000 -2.300000
v -0.000000 3.380000 -2.330000
v -0.030000 3.380000 -2.300000
v -0.000000 3.380000 -2.270000
v 0.030000 3.380000 -2.300000
vt 0.125000 0.125000
vt 0.125000 0.125000
vt 0.125000 0.125000
vt 0.125000 0.125000
vt 0.125000 0.125000
vt 0.125000 0.125000
vt 0.125000 0.125000
vt 0.125000 0.125000
vn 0.7071 0.0000 0.7071
vn -0.7071 0.0000 -0.7071
vn 0.7071 0.0000 -0.7071
vn -0.7071 0.0000 0.7071
s 1
f 3/1/1 4/2/1 8/3/1 7/4/1
f 1/5/2 2/6/2 6/7/2 5/8/2
f 4/2/3 1/5/3 5/8/3 8/3/3
f 2/6/4 3/1/4 7/4/4 6/7/4
