# Blender v3.0.0 OBJ File: 'City.blend'
# www.blender.org
o stone_big_crane
v 0.000000 -0.000000 -0.600000
v -0.424264 -0.000000 -0.424264
v -0.600000 -0.000000 0.000000
v -0.424264 -0.000000 0.424264
v 0.000000 -0.000000 0.600000
v 0.424264 -0.000000 0.424264
v 0.600000 -0.000000 0.000000
v 0.424264 -0.000000 -0.424264
v 0.000000 0.100000 -0.600000
v -0.424264 0.100000 -0.424264
v -0.600000 0.100000 0.000000
v -0.424264 0.100000 0.424264
v 0.000000 0.100000 0.600000
v 0.424264 0.100000 0.424264
v 0.600000 0.100000 0.000000
v 0.424264 0.100000 -0.424264
v 0.150000 0.100000 0.150000
v -0.150000 0.100000 0.150000
v -0.150000 0.100000 -0.150000
v 0.150000 0.100000 -0.150000
v 0.150000 1.400000 0.150000
v -0.150000 1.400000 0.150000
v -0.150000 1.400000 -0.150000
v 0.150000 1.400000 -0.150000
v -0.150000 1.400000 -2.850000
v 0.150000 1.400000 -2.850000
v -0.150000 1.600000 -2.650000
v 0.150000 1.600000 -2.650000
v -0.150000 1.600000 0.850000
v 0.150000 1.600000 0.850000
v -0.150000 1.400000 0.850000
v 0.150000 1.400000 0.850000
v 0.100000 0.150000 -0.150000
v -0.100000 0.150000 -0.150000
v -0.100000 1.350000 -0.150000
v 0.100000 1.350000 -0.150000
v 0.150000 0.350000 0.100000
v 0.150000 0.350000 -0.100000
v 0.150000 1.350000 -0.100000
v 0.150000 1.350000 0.100000
v -0.100000 0.150000 0.150000
v 0.100000 0.150000 0.150000
v 0.100000 1.350000 0.150000
v -0.100000 1.350000 0.150000
v -0.150000 0.350000 -0.100000
v -0.150000 0.350000 0.100000
v -0.150000 1.350000 0.100000
v -0.150000 1.350000 -0.100000
v 0.150000 0.100000 -0.350000
v 0.350000 0.100000 -0.350000
v 0.450000 0.100000 -0.250000
v 0.450000 0.100000 0.250000
v 0.350000 0.100000 0.350000
v 0.150000 0.100000 0.350000
v 0.150000 0.300000 -0.350000
v 0.350000 0.300000 -0.350000
v 0.450000 0.300000 -0.250000
v 0.450000 0.300000 0.250000
v 0.350000 0.300000 0.350000
v 0.150000 0.300000 0.350000
v -0.150003 0.100000 -0.350000
v -0.350003 0.100000 -0.350000
v -0.450003 0.100000 -0.250000
v -0.450003 0.100000 0.250000
v -0.350003 0.100000 0.350000
v -0.150003 0.100000 0.350000
v -0.150003 0.300000 -0.350000
v -0.350003 0.300000 -0.350000
v -0.450003 0.300000 -0.250000
v -0.450003 0.300000 0.250000
v -0.350003 0.300000 0.350000
v -0.150003 0.300000 0.350000
v -0.250000 1.400000 0.750000
v 0.250000 1.400000 0.750000
v -0.250000 1.400000 0.250000
v 0.250000 1.400000 0.250000
v -0.250000 1.200000 0.750000
v 0.250000 1.200000 0.750000
v -0.250000 1.200000 0.250000
v 0.250000 1.200000 0.250000
v -0.050000 1.400000 -2.400000
v 0.050000 1.400000 -2.400000
v -0.050000 1.350000 -2.350000
v 0.050000 1.350000 -2.350000
v -0.050000 1.350000 -2.250000
v 0.050000 1.350000 -2.250000
v -0.050000 1.400000 -2.200000
v 0.050000 1.400000 -2.200000
vt 0.125000 0.125000
vt 0.125000 0.125000
vt 0.125000 0.125000
vt 0.125000 0.125000
vt 0.125000 0.125000
vt 0.125000 0.125000
vt 0.125000 0.125000
vt 0.125000 0.125000
vt 0.125000 0.125000
vt 0.125000 0.125000
vt 0.125000 0.125000
vt 0.125000 0.125000
vt 0.125000 0.125000
vt 0.125000 0.125000
vt 0.125000 0.125000
vt 0.125000 0.125000
vt 0.875000 0.125000
vt 0.875000 0.125000
vt 0.875000 0.125000
vt 0.875000 0.125000
vt 0.875000 0.125000
vt 0.875000 0.125000
vt 0.875000 0.125000
vt 0.875000 0.125000
vt 0.875000 0.125000
vt 0.875000 0.125000
vt 0.875000 0.125000
vt 0.875000 0.125000
vt 0.875000 0.125000
vt 0.875000 0.125000
vt 0.875000 0.125000
vt 0.875000 0.125000
vt 0.625000 0.125000
vt 0.625000 0.125000
vt 0.625000 0.125000
vt 0.625000 0.125000
vt 0.625000 0.125000
vt 0.625000 0.125000
vt 0.625000 0.125000
vt 0.625000 0.125000
vt 0.625000 0.125000
vt 0.625000 0.125000
vt 0.625000 0.125000
vt 0.625000 0.125000
vt 0.625000 0.125000
vt 0.625000 0.125000
vt 0.625000 0.125000
vt 0.625000 0.125000
vt 0.625000 0.125000
vt 0.625000 0.125000
vt 0.625000 0.125000
vt 0.625000 0.125000
vt 0.625000 0.125000
vt 0.625000 0.125000
vt 0.625000 0.125000
vt 0.625000 0.125000
vt 0.625000 0.125000
vt 0.625000 0.125000
vt 0.625000 0.125000
vt 0.625000 0.125000
vt 0.625000 0.125000
vt 0.625000 0.125000
vt 0.625000 0.125000
vt 0.625000 0.125000
vt 0.375000 0.125000
vt 0.375000 0.125000
vt 0.375000 0.125000
vt 0.375000 0.125000
vt 0.375000 0.125000
vt 0.375000 0.125000
vt 0.375000 0.125000
vt 0.375000 0.125000
vt 0.375000 0.125000
vt 0.375000 0.125000
vt 0.375000 0.125000
vt 0.375000 0.125000
vt 0.375000 0.125000
vt 0.375000 0.125000
vt 0.375000 0.125000
vt 0.375000 0.125000
vt 0.375000 0.125000
vt 0.375000 0.125000
vt 0.375000 0.125000
vt 0.375000 0.125000
vt 0.375000 0.125000
vt 0.375000 0.125000
vt 0.375000 0.125000
vt 0.375000 0.125000
vt 0.375000 0.125000
vt 0.375000 0.125000
vt 0.375000 0.125000
vt 0.375000 0.125000
vt 0.375000 0.125000
vt 0.375000 0.125000
vt 0.375000 0.125000
vt 0.375000 0.125000
vt 0.875000 0.125000
vt 0.875000 0.125000
vt 0.875000 0.125000
vt 0.875000 0.125000
vt 0.875000 0.125000
vt 0.875000 0.125000
vt 0.875000 0.125000
vt 0.875000 0.125000
vn -1.0000 0.0000 0.0000
vn -0.7071 0.0000 -0.7071
vn 0.7071 0.0000 -0.7071
vn 1.0000 0.0000 -0.0000
vn 0.7071 0.0000 0.7071
vn 0.0000 0.0000 1.0000
vn -0.7071 0.0000 0.7071
vn 0.0000 0.0000 -1.0000
vn 0.0000 1.0000 0.0000
vn 0.0000 -1.0000 0.0000
vn 0.0000 0.7071 -0.7071
vn 0.0000 -0.7071 -0.7071
vn 0.0000 -0.7071 0.7071
s 1
f 3/1/1 11/2/1 10/3/2 2/4/2
f 8/5/3 16/6/3 15/7/4 7/8/4
f 6/9/5 14/10/5 13/11/6 5/12/6
f 4/13/7 12/14/7 11/2/1 3/1/1
f 2/4/2 10/3/2 9/15/8 1/16/8
f 1/16/8 9/15/8 16/6/3 8/5/3
f 7/8/4 15/7/4 14/10/5 6/9/5
f 5/12/6 13/11/6 12/14/7 4/13/7
f 12/14/9 13/11/9 14/10/9 11/2/9
f 11/2/9 14/10/9 15/7/9 10/3/9
f 10/3/9 15/7/9 16/6/9 9/15/9
f 33/17/8 34/18/8 35/19/8 36/20/8
f 37/21/4 38/22/4 39/23/4 40/24/4
f 41/25/6 42/26/6 43/27/6 44/28/6
f 45/29/1 46/30/1 47/31/1 48/32/1
f 31/33/1 29/34/1 22/35/1
f 23/36/10 25/37/10 26/38/10 24/39/10
f 25/37/11 27/40/11 28/41/11 26/38/11
f 27/40/9 29/34/9 30/42/9 28/41/9
f 29/34/6 31/33/6 32/43/6 30/42/6
f 31/33/10 22/35/10 21/44/10 32/43/10
f 23/36/1 22/35/1 29/34/1 27/40/1
f 25/37/1 23/36/1 27/40/1
f 26/38/4 28/41/4 24/39/4
f 21/44/4 24/39/4 28/41/4 30/42/4
f 30/42/4 32/43/4 21/44/4
f 20/45/8 19/46/8 34/47/8 33/48/8
f 19/46/8 23/36/8 35/49/8 34/47/8
f 23/36/8 24/39/8 36/50/8 35/49/8
f 24/39/8 20/45/8 33/48/8 36/50/8
f 17/51/4 20/45/4 38/52/4 37/53/4
f 20/45/4 24/39/4 39/54/4 38/52/4
f 24/39/4 21/44/4 40/55/4 39/54/4
f 21/44/4 17/51/4 37/53/4 40/55/4
f 18/56/6 17/51/6 42/57/6 41/58/6
f 17/51/6 21/44/6 43/59/6 42/57/6
f 21/44/6 22/35/6 44/60/6 43/59/6
f 22/35/6 18/56/6 41/58/6 44/60/6
f 19/46/1 18/56/1 46/61/1 45/62/1
f 18/56/1 22/35/1 47/63/1 46/61/1
f 22/35/1 23/36/1 48/64/1 47/63/1
f 23/36/1 19/46/1 45/62/1 48/64/1
f 49/65/1 54/66/1 60/67/1 55/68/1
f 52/69/5 58/70/5 59/71/5 53/72/5
f 50/73/3 56/74/3 57/75/3 51/76/3
f 53/72/6 59/71/6 60/67/6 54/66/6
f 51/76/4 57/75/4 58/70/4 52/69/4
f 49/65/8 55/68/8 56/74/8 50/73/8
f 61/77/4 67/78/4 72/79/4 66/80/4
f 64/81/7 65/82/7 71/83/7 70/84/7
f 62/85/2 63/86/2 69/87/2 68/88/2
f 65/82/6 66/80/6 72/79/6 71/83/6
f 63/86/1 64/81/1 70/84/1 69/87/1
f 61/77/8 62/85/8 68/88/8 67/78/8
f 56/74/9 59/71/9 58/70/9 57/75/9
f 55/68/9 60/67/9 59/71/9 56/74/9
f 68/88/9 69/87/9 70/84/9 71/83/9
f 67/78/9 68/88/9 71/83/9 72/79/9
f 74/89/9 76/90/9 75/91/9 73/92/9
f 78/93/10 77/94/10 79/95/10 80/96/10
f 73/92/1 75/91/1 79/95/1 77/94/1
f 74/89/6 73/92/6 77/94/6 78/93/6
f 76/90/4 74/89/4 78/93/4 80/96/4
f 75/91/8 76/90/8 80/96/8 79/95/8
f 82/97/12 84/98/12 83/99/12 81/100/12
f 84/98/10 86/101/10 85/102/10 83/99/10
f 86/101/13 88/103/13 87/104/13 85/102/13
f 84/98/4 82/97/4 88/103/4 86/101/4
f 81/100/1 83/99/1 85/102/1 87/104/1
