# Blender v3.0.0 OBJ File: 'City.blend'
# www.blender.org
o oil_oil_item
v 0.049998 0.260000 -0.086603
v 0.086601 0.260000 -0.050000
v 0.099998 0.260000 -0.000000
v 0.086601 0.260000 0.050000
v 0.049998 0.260000 0.086603
v -0.000002 0.260000 0.100000
v -0.050002 0.260000 0.086603
v -0.086604 0.260000 0.050000
v -0.100002 0.260000 0.000000
v -0.086604 0.260000 -0.050000
v -0.050002 0.260000 -0.086603
v -0.000002 0.260000 -0.100000
v 0.054998 0.000000 -0.095263
v 0.095261 -0.000000 -0.055000
v 0.109998 0.000000 -0.000000
v 0.095261 -0.000000 0.055000
v 0.054998 -0.000000 0.095263
v -0.000002 0.000000 0.110000
v -0.055002 -0.000000 0.095263
v -0.095265 -0.000000 0.055000
v -0.110002 0.000000 0.000000
v -0.095265 -0.000000 -0.055000
v -0.055002 0.000000 -0.095263
v -0.000002 0.000000 -0.110000
v -0.000002 0.020000 -0.100000
v -0.050002 0.020000 -0.086603
v -0.086604 0.020000 -0.050000
v -0.100002 0.020000 0.000000
v -0.086604 0.020000 0.050000
v -0.050002 0.020000 0.086603
v -0.000002 0.020000 0.100000
v 0.049998 0.020000 0.086603
v 0.086601 0.020000 0.050000
v 0.099998 0.020000 -0.000000
v 0.086601 0.020000 -0.050000
v 0.049998 0.020000 -0.086603
v -0.000002 0.010000 -0.110000
v -0.055002 0.010000 -0.095263
v -0.095265 0.010000 -0.055000
v -0.110002 0.010000 0.000000
v -0.095265 0.010000 0.055000
v -0.055002 0.010000 0.095263
v -0.000002 0.010000 0.110000
v 0.054998 0.010000 0.095263
v 0.095261 0.010000 0.055000
v 0.109998 0.010000 -0.000000
v 0.095261 0.010000 -0.055000
v 0.054998 0.010000 -0.095263
v 0.049998 0.240000 -0.086603
v 0.086601 0.240000 -0.050000
v 0.099998 0.240000 -0.000000
v 0.086601 0.240000 0.050000
v 0.049998 0.240000 0.086603
v -0.000002 0.240000 0.100000
v -0.050002 0.240000 0.086603
v -0.086604 0.240000 0.050000
v -0.100002 0.240000 0.000000
v -0.086604 0.240000 -0.050000
v -0.050002 0.240000 -0.086603
v -0.000002 0.240000 -0.100000
v -0.000002 0.250000 -0.110000
v -0.055002 0.250000 -0.095263
v -0.095265 0.250000 -0.055000
v -0.110002 0.250000 0.000000
v -0.095265 0.250000 0.055000
v -0.055002 0.250000 0.095263
v -0.000002 0.250000 0.110000
v 0.054998 0.250000 0.095263
v 0.095261 0.250000 0.055000
v 0.109998 0.250000 -0.000000
v 0.095261 0.250000 -0.055000
v 0.054998 0.250000 -0.095263
v 0.049998 0.200000 -0.086603
v 0.086601 0.200000 -0.050000
v 0.099998 0.200000 -0.000000
v 0.086601 0.200000 0.050000
v 0.049998 0.200000 0.086603
v -0.000002 0.200000 0.100000
v -0.050002 0.200000 0.086603
v -0.086604 0.200000 0.050000
v -0.100002 0.200000 0.000000
v -0.086604 0.200000 -0.050000
v -0.050002 0.200000 -0.086603
v -0.000002 0.200000 -0.100000
v 0.049998 0.180000 -0.086603
v 0.086601 0.180000 -0.050000
v 0.099998 0.180000 -0.000000
v 0.086601 0.180000 0.050000
v 0.049998 0.180000 0.086603
v -0.000002 0.180000 0.100000
v -0.050002 0.180000 0.086603
v -0.086604 0.180000 0.050000
v -0.100002 0.180000 0.000000
v -0.086604 0.180000 -0.050000
v -0.050002 0.180000 -0.086603
v -0.000002 0.180000 -0.100000
v -0.000002 0.190000 -0.110000
v -0.055002 0.190000 -0.095263
v -0.095265 0.190000 -0.055000
v -0.110002 0.190000 0.000000
v -0.095265 0.190000 0.055000
v -0.055002 0.190000 0.095263
v -0.000002 0.190000 0.110000
v 0.054998 0.190000 0.095263
v 0.095261 0.190000 0.055000
v 0.109998 0.190000 -0.000000
v 0.095261 0.190000 -0.055000
v 0.054998 0.190000 -0.095263
v 0.049998 0.080000 -0.086603
v 0.086601 0.080000 -0.050000
v 0.099998 0.080000 -0.000000
v 0.086601 0.080000 0.050000
v 0.049998 0.080000 0.086603
v -0.000002 0.080000 0.100000
v -0.050002 0.080000 0.086603
v -0.086604 0.080000 0.050000
v -0.100002 0.080000 0.000000
v -0.086604 0.080000 -0.050000
v -0.050002 0.080000 -0.086603
v -0.000002 0.080000 -0.100000
v 0.049998 0.060000 -0.086603
v 0.086601 0.060000 -0.050000
v 0.099998 0.060000 -0.000000
v 0.086601 0.060000 0.050000
v 0.049998 0.060000 0.086603
v -0.000002 0.060000 0.100000
v -0.050002 0.060000 0.086603
v -0.086604 0.060000 0.050000
v -0.100002 0.060000 0.000000
v -0.086604 0.060000 -0.050000
v -0.050002 0.060000 -0.086603
v -0.000002 0.060000 -0.100000
v -0.000002 0.070000 -0.110000
v -0.055002 0.070000 -0.095263
v -0.095265 0.070000 -0.055000
v -0.110002 0.070000 0.000000
v -0.095265 0.070000 0.055000
v -0.055002 0.070000 0.095263
v -0.000002 0.070000 0.110000
v 0.054998 0.070000 0.095263
v 0.095261 0.070000 0.055000
v 0.109998 0.070000 -0.000000
v 0.095261 0.070000 -0.055000
v 0.054998 0.070000 -0.095263
v -0.017679 0.142678 0.096598
v -0.025002 0.115000 0.094635
v -0.017679 0.097322 0.096598
v 0.017674 0.097322 0.096598
v 0.024998 0.115000 0.094636
v 0.017674 0.142678 0.096598
v -0.000002 0.090000 0.101334
v -0.000002 0.170000 0.101334
v 0.017679 0.142678 -0.096598
v 0.025002 0.115000 -0.094635
v 0.017679 0.097322 -0.096598
v -0.017674 0.097322 -0.096598
v -0.024998 0.115000 -0.094636
v -0.017674 0.142678 -0.096598
v 0.000002 0.090000 -0.101334
v 0.000002 0.170000 -0.101334
v 0.044998 0.250000 -0.077942
v 0.077941 0.250000 -0.045000
v 0.089998 0.250000 -0.000000
v 0.077941 0.250000 0.045000
v 0.044998 0.250000 0.077942
v -0.000002 0.250000 0.090000
v -0.045002 0.250000 0.077942
v -0.077944 0.250000 0.045000
v -0.090002 0.250000 -0.000000
v -0.077944 0.250000 -0.045000
v -0.045002 0.250000 -0.077942
v -0.000002 0.250000 -0.090000
v -0.000002 0.260000 -0.090000
v -0.045002 0.260000 -0.077942
v -0.077944 0.260000 -0.045000
v -0.090002 0.260000 -0.000000
v -0.077944 0.260000 0.045000
v -0.045002 0.260000 0.077942
v -0.000002 0.260000 0.090000
v 0.044998 0.260000 0.077942
v 0.077941 0.260000 0.045000
v 0.089998 0.260000 -0.000000
v 0.077941 0.260000 -0.045000
v 0.044998 0.260000 -0.077942
v 0.045000 0.250000 -0.025000
v 0.023349 0.250000 -0.012500
v 0.023349 0.250000 0.012500
v 0.045000 0.250000 0.025000
v 0.066651 0.250000 0.012500
v 0.066651 0.250000 -0.012500
v 0.045000 0.260000 -0.025000
v 0.023349 0.260000 -0.012500
v 0.023349 0.260000 0.012500
v 0.045000 0.260000 0.025000
v 0.066651 0.260000 0.012500
v 0.066651 0.260000 -0.012500
vt 0.125000 0.125000
vt 0.125000 0.125000
vt 0.125000 0.125000
vt 0.125000 0.125000
vt 0.125000 0.125000
vt 0.125000 0.125000
vt 0.125000 0.125000
vt 0.125000 0.125000
vt 0.125000 0.125000
vt 0.125000 0.125000
vt 0.125000 0.125000
vt 0.125000 0.125000
vt 0.125000 0.125000
vt 0.125000 0.125000
vt 0.125000 0.125000
vt 0.125000 0.125000
vt 0.125000 0.125000
vt 0.125000 0.125000
vt 0.125000 0.125000
vt 0.125000 0.125000
vt 0.125000 0.125000
vt 0.125000 0.125000
vt 0.125000 0.125000
vt 0.125000 0.125000
vt 0.125000 0.125000
vt 0.125000 0.125000
vt 0.125000 0.125000
vt 0.125000 0.125000
vt 0.125000 0.125000
vt 0.125000 0.125000
vt 0.125000 0.125000
vt 0.125000 0.125000
vt 0.125000 0.125000
vt 0.125000 0.125000
vt 0.125000 0.125000
vt 0.125000 0.125000
vt 0.125000 0.125000
vt 0.125000 0.125000
vt 0.125000 0.125000
vt 0.125000 0.125000
vt 0.125000 0.125000
vt 0.125000 0.125000
vt 0.125000 0.125000
vt 0.125000 0.125000
vt 0.125000 0.125000
vt 0.125000 0.125000
vt 0.125000 0.125000
vt 0.125000 0.125000
vt 0.125000 0.125000
vt 0.125000 0.125000
vt 0.125000 0.125000
vt 0.125000 0.125000
vt 0.125000 0.125000
vt 0.125000 0.125000
vt 0.125000 0.125000
vt 0.125000 0.125000
vt 0.125000 0.125000
vt 0.125000 0.125000
vt 0.125000 0.125000
vt 0.125000 0.125000
vt 0.125000 0.125000
vt 0.125000 0.125000
vt 0.125000 0.125000
vt 0.125000 0.125000
vt 0.125000 0.125000
vt 0.125000 0.125000
vt 0.125000 0.125000
vt 0.125000 0.125000
vt 0.125000 0.125000
vt 0.125000 0.125000
vt 0.125000 0.125000
vt 0.125000 0.125000
vt 0.125000 0.125000
vt 0.125000 0.125000
vt 0.125000 0.125000
vt 0.125000 0.125000
vt 0.125000 0.125000
vt 0.125000 0.125000
vt 0.125000 0.125000
vt 0.125000 0.125000
vt 0.125000 0.125000
vt 0.125000 0.125000
vt 0.125000 0.125000
vt 0.125000 0.125000
vt 0.125000 0.125000
vt 0.125000 0.125000
vt 0.125000 0.125000
vt 0.125000 0.125000
vt 0.125000 0.125000
vt 0.125000 0.125000
vt 0.125000 0.125000
vt 0.125000 0.125000
vt 0.125000 0.125000
vt 0.125000 0.125000
vt 0.125000 0.125000
vt 0.125000 0.125000
vt 0.375000 0.125000
vt 0.375000 0.125000
vt 0.375000 0.125000
vt 0.375000 0.125000
vt 0.375000 0.125000
vt 0.375000 0.125000
vt 0.375000 0.125000
vt 0.375000 0.125000
vt 0.375000 0.125000
vt 0.375000 0.125000
vt 0.375000 0.125000
vt 0.375000 0.125000
vt 0.375000 0.125000
vt 0.375000 0.125000
vt 0.375000 0.125000
vt 0.375000 0.125000
vt 0.375000 0.125000
vt 0.375000 0.125000
vt 0.375000 0.125000
vt 0.375000 0.125000
vt 0.375000 0.125000
vt 0.375000 0.125000
vt 0.375000 0.125000
vt 0.375000 0.125000
vt 0.375000 0.125000
vt 0.375000 0.125000
vt 0.375000 0.125000
vt 0.375000 0.125000
vt 0.375000 0.125000
vt 0.375000 0.125000
vt 0.375000 0.125000
vt 0.375000 0.125000
vt 0.375000 0.125000
vt 0.375000 0.125000
vt 0.375000 0.125000
vt 0.375000 0.125000
vt 0.375000 0.125000
vt 0.375000 0.125000
vt 0.375000 0.125000
vt 0.375000 0.125000
vt 0.375000 0.125000
vt 0.375000 0.125000
vt 0.375000 0.125000
vt 0.375000 0.125000
vt 0.375000 0.125000
vt 0.375000 0.125000
vt 0.375000 0.125000
vt 0.375000 0.125000
vt 0.375000 0.125000
vt 0.375000 0.125000
vt 0.375000 0.125000
vt 0.375000 0.125000
vt 0.375000 0.125000
vt 0.375000 0.125000
vt 0.375000 0.125000
vt 0.375000 0.125000
vt 0.375000 0.125000
vt 0.375000 0.125000
vt 0.375000 0.125000
vt 0.375000 0.125000
vt 0.375000 0.125000
vt 0.375000 0.125000
vt 0.375000 0.125000
vt 0.375000 0.125000
vt 0.375000 0.125000
vt 0.375000 0.125000
vt 0.375000 0.125000
vt 0.375000 0.125000
vt 0.375000 0.125000
vt 0.375000 0.125000
vt 0.375000 0.125000
vt 0.375000 0.125000
vt 0.375000 0.125000
vt 0.375000 0.125000
vt 0.375000 0.125000
vt 0.375000 0.125000
vt 0.375000 0.125000
vt 0.375000 0.125000
vt 0.375000 0.125000
vt 0.375000 0.125000
vt 0.375000 0.125000
vt 0.375000 0.125000
vt 0.375000 0.125000
vt 0.375000 0.125000
vt 0.375000 0.125000
vt 0.375000 0.125000
vt 0.375000 0.125000
vt 0.375000 0.125000
vt 0.375000 0.125000
vt 0.375000 0.125000
vt 0.375000 0.125000
vt 0.375000 0.125000
vt 0.375000 0.125000
vt 0.375000 0.125000
vt 0.375000 0.125000
vt 0.375000 0.125000
vt 0.375000 0.125000
vt 0.375000 0.125000
vt 0.375000 0.125000
vt 0.375000 0.125000
vt 0.375000 0.125000
vt 0.375000 0.125000
vt 0.375000 0.125000
vt 0.375000 0.125000
vt 0.375000 0.125000
vt 0.375000 0.125000
vt 0.375000 0.125000
vt 0.375000 0.125000
vt 0.375000 0.125000
vt 0.375000 0.125000
vt 0.375000 0.125000
vt 0.375000 0.125000
vt 0.375000 0.125000
vt 0.375000 0.125000
vt 0.375000 0.125000
vt 0.375000 0.125000
vt 0.375000 0.125000
vt 0.375000 0.125000
vt 0.375000 0.125000
vt 0.375000 0.125000
vt 0.375000 0.125000
vt 0.375000 0.125000
vt 0.375000 0.125000
vt 0.375000 0.125000
vt 0.375000 0.125000
vt 0.375000 0.125000
vt 0.375000 0.125000
vt 0.375000 0.125000
vt 0.375000 0.125000
vt 0.375000 0.125000
vt 0.375000 0.125000
vt 0.375000 0.125000
vt 0.375000 0.125000
vt 0.375000 0.125000
vt 0.375000 0.125000
vt 0.375000 0.125000
vt 0.375000 0.125000
vt 0.375000 0.125000
vt 0.375000 0.125000
vt 0.375000 0.125000
vt 0.375000 0.125000
vt 0.375000 0.125000
vt 0.375000 0.125000
vt 0.375000 0.125000
vt 0.375000 0.125000
vt 0.375000 0.125000
vt 0.375000 0.125000
vt 0.375000 0.125000
vt 0.375000 0.125000
vt 0.375000 0.125000
vt 0.375000 0.125000
vt 0.375000 0.125000
vt 0.375000 0.125000
vt 0.375000 0.125000
vt 0.375000 0.125000
vt 0.375000 0.125000
vt 0.375000 0.125000
vt 0.375000 0.125000
vt 0.375000 0.125000
vt 0.375000 0.125000
vt 0.375000 0.125000
vt 0.375000 0.125000
vt 0.375000 0.125000
vt 0.375000 0.125000
vt 0.375000 0.125000
vt 0.375000 0.125000
vt 0.375000 0.125000
vt 0.375000 0.125000
vt 0.375000 0.125000
vt 0.375000 0.125000
vt 0.375000 0.125000
vt 0.375000 0.125000
vt 0.375000 0.125000
vt 0.375000 0.125000
vt 0.375000 0.125000
vt 0.375000 0.125000
vt 0.375000 0.125000
vt 0.375000 0.125000
vt 0.375000 0.125000
vt 0.375000 0.125000
vt 0.375000 0.125000
vt 0.375000 0.125000
vt 0.375000 0.125000
vt 0.375000 0.125000
vt 0.375000 0.125000
vt 0.375000 0.125000
vt 0.375000 0.125000
vt 0.375000 0.125000
vt 0.625000 0.125000
vt 0.625000 0.125000
vt 0.625000 0.125000
vt 0.625000 0.125000
vt 0.625000 0.125000
vt 0.625000 0.125000
vt 0.625000 0.125000
vt 0.625000 0.125000
vn 1.0000 0.0000 -0.0000
vn 0.8660 0.0000 -0.5000
vn 0.5000 -0.0000 -0.8660
vn 0.0000 0.0000 1.0000
vn 0.5000 0.0000 0.8660
vn -0.5000 0.0000 0.8660
vn -0.8660 0.0000 0.5000
vn -1.0000 0.0000 0.0000
vn -0.8660 0.0000 -0.5000
vn -0.5000 -0.0000 -0.8660
vn 0.8660 0.0000 0.5000
vn 0.0000 -0.0000 -1.0000
vn -0.0000 1.0000 0.0000
vn -0.0000 -1.0000 -0.0000
vn 0.2172 0.9007 -0.3762
vn 0.3762 0.9007 -0.2172
vn 0.4344 0.9007 -0.0000
vn -0.4661 0.3620 -0.8073
vn -0.3536 0.7071 -0.6124
vn 0.0000 0.7071 -0.7071
vn 0.0000 0.3620 -0.9322
vn 0.8073 0.3620 -0.4661
vn 0.6124 0.7071 -0.3536
vn 0.7071 0.7071 0.0000
vn 0.9322 0.3620 -0.0000
vn -0.8073 0.3620 0.4661
vn -0.4661 0.3620 0.8073
vn -0.3536 0.7071 0.6124
vn -0.6124 0.7071 0.3536
vn -0.8073 0.3620 -0.4661
vn -0.6124 0.7071 -0.3536
vn 0.4661 0.3620 -0.8073
vn 0.3536 0.7071 -0.6124
vn 0.0000 0.3620 0.9322
vn 0.0000 0.7071 0.7071
vn -0.9322 0.3620 0.0000
vn -0.7071 0.7071 0.0000
vn 0.8073 0.3620 0.4661
vn 0.6124 0.7071 0.3536
vn -0.3762 0.9007 -0.2172
vn -0.2172 0.9007 -0.3762
vn -0.4344 0.9007 0.0000
vn -0.3762 0.9007 0.2172
vn -0.2172 0.9007 0.3762
vn 0.0000 0.9007 0.4344
vn 0.2172 0.9007 0.3762
vn 0.3536 0.7071 0.6124
vn 0.4661 0.3620 0.8073
vn -0.0000 0.9007 -0.4344
vn 0.3762 0.9007 0.2172
vn -0.3536 -0.7071 0.6124
vn -0.6124 -0.7071 0.3536
vn 0.7071 -0.7071 -0.0000
vn 0.6124 -0.7071 -0.3536
vn -0.0000 -0.7071 -0.7071
vn -0.3536 -0.7071 -0.6124
vn -0.7071 -0.7071 0.0000
vn 0.6124 -0.7071 0.3536
vn 0.3536 -0.7071 -0.6124
vn -0.6124 -0.7071 -0.3536
vn 0.3536 -0.7071 0.6124
vn 0.0000 -0.7071 0.7071
vn 0.2588 -0.0000 -0.9659
vn -0.2588 -0.0000 -0.9659
vn -0.2588 -0.0000 0.9659
vn 0.2588 -0.0000 0.9659
s 1
f 34/1/1 35/2/2 122/3/2 123/4/1
f 35/2/2 36/5/3 121/6/3 122/3/2
f 31/7/4 32/8/5 125/9/5 126/10/4
f 30/11/6 31/7/4 126/10/4 127/12/6
f 29/13/7 30/11/6 127/12/6 128/14/7
f 28/15/8 29/13/7 128/14/7 129/16/8
f 27/17/9 28/15/8 129/16/8 130/18/9
f 26/19/10 27/17/9 130/18/9 131/20/10
f 33/21/11 34/1/1 123/4/1 124/22/11
f 32/8/5 33/21/11 124/22/11 125/9/5
f 25/23/12 26/19/10 131/20/10 132/24/12
f 36/5/3 25/23/12 132/24/12 121/6/3
f 57/25/8 58/26/9 82/27/9 81/28/8
f 50/29/2 51/30/1 75/31/1 74/32/2
f 53/33/5 54/34/4 78/35/4 77/36/5
f 56/37/7 57/25/8 81/28/8 80/38/7
f 49/39/3 50/29/2 74/32/2 73/40/3
f 51/30/1 52/41/11 76/42/11 75/31/1
f 55/43/6 56/37/7 80/38/7 79/44/6
f 60/45/12 49/39/3 73/40/3 84/46/12
f 59/47/10 60/45/12 84/46/12 83/48/10
f 52/41/11 53/33/5 77/36/5 76/42/11
f 54/34/4 55/43/6 79/44/6 78/35/4
f 58/26/9 59/47/10 83/48/10 82/27/9
f 91/49/6 92/50/7 116/51/7 115/52/6
f 92/50/7 93/53/8 117/54/8 116/51/7
f 93/53/8 94/55/9 118/56/9 117/54/8
f 94/55/9 95/57/10 119/58/10 118/56/9
f 95/57/10 96/59/12 120/60/12 119/58/10
f 96/59/12 85/61/3 109/62/3 120/60/12
f 85/61/3 86/63/2 110/64/2 109/62/3
f 86/63/2 87/65/1 111/66/1 110/64/2
f 87/65/1 88/67/11 112/68/11 111/66/1
f 88/67/11 89/69/5 113/70/5 112/68/11
f 89/69/5 90/71/4 114/72/4 113/70/5
f 90/71/4 91/49/6 115/52/6 114/72/4
f 165/73/13 172/74/13 171/75/13 166/76/13
f 161/77/13 172/74/13 165/73/13 164/78/13
f 170/79/13 167/80/13 166/76/13 171/75/13
f 170/79/13 169/81/13 168/82/13 167/80/13
f 164/78/13 163/83/13 162/84/13 161/77/13
f 24/85/14 13/86/14 14/87/14 23/88/14
f 15/89/14 22/90/14 23/88/14 14/87/14
f 16/91/14 21/92/14 22/90/14 15/89/14
f 17/93/14 20/94/14 21/92/14 16/91/14
f 18/95/14 19/96/14 20/94/14 17/93/14
f 72/97/3 1/98/15 2/99/16 71/100/2
f 70/101/1 71/100/2 2/99/16 3/102/17
f 38/103/18 26/104/19 25/105/20 37/106/21
f 47/107/22 35/108/23 34/109/24 46/110/25
f 41/111/26 42/112/27 30/113/28 29/114/29
f 38/103/18 39/115/30 27/116/31 26/104/19
f 47/107/22 48/117/32 36/118/33 35/108/23
f 43/119/34 31/120/35 30/113/28 42/112/27
f 39/115/30 40/121/36 28/122/37 27/116/31
f 48/117/32 37/106/21 25/105/20 36/118/33
f 45/123/38 46/110/25 34/109/24 33/124/39
f 41/111/26 29/114/29 28/122/37 40/121/36
f 62/125/10 63/126/9 10/127/40 11/128/41
f 64/129/8 9/130/42 10/127/40 63/126/9
f 64/129/8 65/131/7 8/132/43 9/130/42
f 66/133/6 7/134/44 8/132/43 65/131/7
f 66/133/6 67/135/4 6/136/45 7/134/44
f 5/137/46 6/136/45 67/135/4 68/138/5
f 45/123/38 33/124/39 32/139/47 44/140/48
f 43/119/34 44/140/48 32/139/47 31/120/35
f 72/97/3 61/141/12 12/142/49 1/98/15
f 62/125/10 11/128/41 12/142/49 61/141/12
f 15/143/1 14/144/2 47/107/22 46/110/25
f 17/145/5 16/146/11 45/123/38 44/140/48
f 13/147/3 24/148/12 37/106/21 48/117/32
f 16/146/11 15/143/1 46/110/25 45/123/38
f 19/149/6 18/150/4 43/119/34 42/112/27
f 22/151/9 21/152/8 40/121/36 39/115/30
f 4/153/50 5/137/46 68/138/5 69/154/11
f 70/101/1 3/102/17 4/153/50 69/154/11
f 23/155/10 22/151/9 39/115/30 38/103/18
f 18/150/4 17/145/5 44/140/48 43/119/34
f 21/152/8 20/156/7 41/111/26 40/121/36
f 14/144/2 13/147/3 48/117/32 47/107/22
f 24/148/12 23/155/10 38/103/18 37/106/21
f 20/156/7 19/149/6 42/112/27 41/111/26
f 55/157/51 66/133/6 65/131/7 56/158/52
f 70/101/1 51/159/53 50/160/54 71/100/2
f 62/125/10 61/141/12 60/161/55 59/162/56
f 64/129/8 57/163/57 56/158/52 65/131/7
f 70/101/1 69/154/11 52/164/58 51/159/53
f 72/97/3 49/165/59 60/161/55 61/141/12
f 64/129/8 63/126/9 58/166/60 57/163/57
f 69/154/11 68/138/5 53/167/61 52/164/58
f 67/135/4 54/168/62 53/167/61 68/138/5
f 72/97/3 71/100/2 50/160/54 49/165/59
f 62/125/10 59/162/56 58/166/60 63/126/9
f 67/135/4 66/133/6 55/157/51 54/168/62
f 108/169/3 73/170/33 74/171/23 107/172/2
f 106/173/1 107/172/2 74/171/23 75/174/24
f 98/175/10 99/176/9 82/177/31 83/178/19
f 100/179/8 81/180/37 82/177/31 99/176/9
f 100/179/8 101/181/7 80/182/29 81/180/37
f 102/183/6 79/184/28 80/182/29 101/181/7
f 102/183/6 103/185/4 78/186/35 79/184/28
f 77/187/47 78/186/35 103/185/4 104/188/5
f 108/169/3 97/189/12 84/190/20 73/170/33
f 98/175/10 83/178/19 84/190/20 97/189/12
f 76/191/39 77/187/47 104/188/5 105/192/11
f 106/173/1 75/174/24 76/191/39 105/192/11
f 91/193/51 102/183/6 101/181/7 92/194/52
f 106/173/1 87/195/53 86/196/54 107/172/2
f 98/175/10 97/189/12 96/197/55 95/198/56
f 100/179/8 93/199/57 92/194/52 101/181/7
f 106/173/1 105/192/11 88/200/58 87/195/53
f 108/169/3 85/201/59 96/197/55 97/189/12
f 100/179/8 99/176/9 94/202/60 93/199/57
f 105/192/11 104/188/5 89/203/61 88/200/58
f 103/185/4 90/204/62 89/203/61 104/188/5
f 108/169/3 107/172/2 86/196/54 85/201/59
f 98/175/10 95/198/56 94/202/60 99/176/9
f 103/185/4 102/183/6 91/193/51 90/204/62
f 144/205/3 109/206/33 110/207/23 143/208/2
f 142/209/1 143/208/2 110/207/23 111/210/24
f 134/211/10 135/212/9 118/213/31 119/214/19
f 136/215/8 117/216/37 118/213/31 135/212/9
f 136/215/8 137/217/7 116/218/29 117/216/37
f 138/219/6 115/220/28 116/218/29 137/217/7
f 138/219/6 139/221/4 114/222/35 115/220/28
f 113/223/47 114/222/35 139/221/4 140/224/5
f 144/205/3 133/225/12 120/226/20 109/206/33
f 134/211/10 119/214/19 120/226/20 133/225/12
f 112/227/39 113/223/47 140/224/5 141/228/11
f 142/209/1 111/210/24 112/227/39 141/228/11
f 127/229/51 138/219/6 137/217/7 128/230/52
f 142/209/1 123/231/53 122/232/54 143/208/2
f 134/211/10 133/225/12 132/233/55 131/234/56
f 136/215/8 129/235/57 128/230/52 137/217/7
f 142/209/1 141/228/11 124/236/58 123/231/53
f 144/205/3 121/237/59 132/233/55 133/225/12
f 136/215/8 135/212/9 130/238/60 129/235/57
f 141/228/11 140/224/5 125/239/61 124/236/58
f 139/221/4 126/240/62 125/239/61 140/224/5
f 144/205/3 143/208/2 122/232/54 121/237/59
f 134/211/10 131/234/56 130/238/60 135/212/9
f 139/221/4 138/219/6 127/229/51 126/240/62
f 153/241/63 154/242/63 155/243/63
f 153/241/63 155/243/63 159/244/12 160/245/12
f 157/246/64 158/247/64 156/248/64
f 160/245/12 159/244/12 156/248/64 158/247/64
f 6/136/45 5/137/46 180/249/13 179/250/13
f 177/251/2 178/252/3 167/253/3 168/254/2
f 5/137/46 4/153/50 181/255/13 180/249/13
f 4/153/50 3/102/17 182/256/13 181/255/13
f 3/102/17 2/99/16 183/257/13 182/256/13
f 2/99/16 1/98/15 184/258/13 183/257/13
f 1/98/15 12/142/49 173/259/13 184/258/13
f 12/142/49 11/128/41 174/260/13 173/259/13
f 11/128/41 10/127/40 175/261/13 174/260/13
f 10/127/40 9/130/42 176/262/13 175/261/13
f 9/130/42 8/132/43 177/251/13 176/262/13
f 8/132/43 7/134/44 178/252/13 177/251/13
f 7/134/44 6/136/45 179/250/13 178/252/13
f 180/249/10 181/255/9 164/263/9 165/264/10
f 173/259/4 174/260/5 171/265/5 172/266/4
f 183/257/7 184/258/6 161/267/6 162/268/7
f 176/262/1 177/251/2 168/254/2 169/269/1
f 179/250/12 180/249/10 165/264/10 166/270/12
f 175/261/11 176/262/1 169/269/1 170/271/11
f 181/255/9 182/256/8 163/272/8 164/263/9
f 184/258/6 173/259/4 172/266/4 161/267/6
f 174/260/5 175/261/11 170/271/11 171/265/5
f 178/252/3 179/250/12 166/270/12 167/253/3
f 182/256/8 183/257/7 162/268/7 163/272/8
f 190/273/2 196/274/2 195/275/11 189/276/11
f 188/277/4 194/278/4 193/279/7 187/280/7
f 186/281/9 192/282/9 191/283/12 185/284/12
f 185/284/12 191/283/12 196/274/2 190/273/2
f 189/276/11 195/275/11 194/278/4 188/277/4
f 187/280/7 193/279/7 192/282/9 186/281/9
f 194/278/13 195/275/13 196/274/13 193/279/13
f 191/283/13 192/282/13 193/279/13 196/274/13
f 145/285/65 146/286/65 147/287/65
f 145/285/65 147/287/65 151/288/4 152/289/4
f 149/290/66 150/291/66 148/292/66
f 152/289/4 151/288/4 148/292/66 150/291/66
