# Blender v3.0.0 OBJ File: 'City.blend'
# www.blender.org
o paint_paint_item
v -0.000002 0.010000 -0.100000
v -0.050002 0.010000 -0.086603
v -0.086604 0.010000 -0.050000
v -0.100002 0.010000 0.000000
v -0.086604 0.010000 0.050000
v -0.050002 0.010000 0.086603
v -0.000002 0.010000 0.100000
v 0.049998 0.010000 0.086603
v 0.086601 0.010000 0.050000
v 0.099998 0.010000 0.000000
v 0.086601 0.010000 -0.050000
v 0.049998 0.010000 -0.086603
v -0.000002 0.000000 -0.105000
v -0.105002 0.000000 0.000000
v -0.052502 -0.000000 0.090933
v 0.052498 -0.000000 0.090933
v 0.104998 0.000000 0.000000
v 0.052498 0.000000 -0.090933
v 0.090931 -0.000000 0.052500
v -0.000002 0.000000 0.105000
v -0.090935 -0.000000 0.052500
v -0.090935 -0.000000 -0.052500
v -0.052502 0.000000 -0.090933
v 0.090931 -0.000000 -0.052500
v 0.049998 0.180000 -0.086603
v 0.086601 0.180000 -0.050000
v 0.099998 0.180000 0.000000
v 0.086601 0.180000 0.050000
v 0.049998 0.180000 0.086603
v -0.000002 0.180000 0.100000
v -0.050002 0.180000 0.086603
v -0.086604 0.180000 0.050000
v -0.100002 0.180000 0.000000
v -0.086604 0.180000 -0.050000
v -0.050002 0.180000 -0.086603
v -0.000002 0.180000 -0.100000
v 0.044998 0.180000 -0.077942
v 0.077941 0.180000 -0.045000
v 0.089998 0.180000 -0.000000
v 0.077941 0.180000 0.045000
v 0.044998 0.180000 0.077942
v -0.000002 0.180000 0.090000
v -0.045002 0.180000 0.077942
v -0.077944 0.180000 0.045000
v -0.090002 0.180000 -0.000000
v -0.077944 0.180000 -0.045000
v -0.045002 0.180000 -0.077942
v -0.000002 0.180000 -0.090000
v -0.000002 0.190000 -0.090000
v -0.045002 0.190000 -0.077942
v -0.077944 0.190000 -0.045000
v -0.090002 0.190000 -0.000000
v -0.077944 0.190000 0.045000
v -0.045002 0.190000 0.077942
v -0.000002 0.190000 0.090000
v 0.044998 0.190000 0.077942
v 0.077941 0.190000 0.045000
v 0.089998 0.190000 -0.000000
v 0.077941 0.190000 -0.045000
v 0.044998 0.190000 -0.077942
v -0.000002 0.180000 -0.085000
v -0.042502 0.180000 -0.073612
v -0.073614 0.180000 -0.042500
v -0.085002 0.180000 -0.000000
v -0.073614 0.180000 0.042500
v -0.042502 0.180000 0.073612
v -0.000002 0.180000 0.085000
v 0.042498 0.180000 0.073612
v 0.073610 0.180000 0.042500
v 0.084998 0.180000 -0.000000
v 0.073610 0.180000 -0.042500
v 0.042498 0.180000 -0.073612
v -0.000002 0.195000 -0.074647
v -0.037326 0.195000 -0.064646
v -0.064648 0.195000 -0.037324
v -0.074649 0.195000 -0.000000
v -0.064648 0.195000 0.037324
v -0.037326 0.195000 0.064646
v -0.000002 0.195000 0.074647
v 0.037322 0.195000 0.064646
v 0.064645 0.195000 0.037324
v 0.074645 0.195000 -0.000000
v 0.064645 0.195000 -0.037324
v 0.037322 0.195000 -0.064646
v -0.042502 0.195000 -0.073612
v -0.000002 0.195000 -0.085000
v -0.073614 0.195000 -0.042500
v -0.085002 0.195000 -0.000000
v -0.073614 0.195000 0.042500
v -0.042502 0.195000 0.073612
v -0.000002 0.195000 0.085000
v 0.042498 0.195000 0.073612
v 0.073610 0.195000 0.042500
v 0.084998 0.195000 -0.000000
v 0.073610 0.195000 -0.042500
v 0.042498 0.195000 -0.073612
v -0.037326 0.180000 -0.064646
v -0.000002 0.180000 -0.074647
v -0.064648 0.180000 -0.037324
v -0.074649 0.180000 -0.000000
v -0.064648 0.180000 0.037324
v -0.037326 0.180000 0.064646
v -0.000002 0.180000 0.074647
v 0.037322 0.180000 0.064646
v 0.064645 0.180000 0.037324
v 0.074645 0.180000 -0.000000
v 0.064645 0.180000 -0.037324
v 0.037322 0.180000 -0.064646
v 0.090931 0.010000 -0.052500
v -0.052502 0.010000 -0.090933
v -0.090935 0.010000 -0.052500
v -0.090935 0.010000 0.052500
v -0.000002 0.010000 0.105000
v 0.090931 0.010000 0.052500
v 0.052498 0.010000 -0.090933
v 0.104998 0.010000 0.000000
v 0.052498 0.010000 0.090933
v -0.052502 0.010000 0.090933
v -0.105002 0.010000 0.000000
v -0.000002 0.010000 -0.105000
v -0.000002 0.180000 0.105000
v -0.105002 0.180000 0.000000
v -0.052502 0.180000 -0.090933
v 0.052498 0.180000 -0.090933
v 0.104998 0.180000 0.000000
v 0.090931 0.180000 0.052500
v -0.052502 0.180000 0.090933
v -0.090935 0.180000 -0.052500
v -0.000002 0.180000 -0.105000
v 0.090931 0.180000 -0.052500
v 0.052498 0.180000 0.090933
v -0.090935 0.180000 0.052500
v -0.090934 0.190000 -0.052500
v -0.000002 0.190000 -0.105000
v 0.052498 0.190000 0.090933
v 0.052498 0.190000 -0.090933
v -0.000002 0.190000 0.105000
v 0.090931 0.190000 0.052500
v -0.052502 0.190000 0.090933
v 0.104998 0.190000 -0.000000
v -0.105002 0.190000 0.000000
v -0.090934 0.190000 0.052500
v -0.052502 0.190000 -0.090933
v 0.090931 0.190000 -0.052500
v 0.119998 0.150000 -0.000000
v 0.114998 0.154551 -0.002071
v 0.109998 0.150000 -0.000000
v 0.114998 0.145449 0.002071
v 0.103922 0.125150 -0.054613
v 0.099591 0.130737 -0.054408
v 0.095261 0.127221 -0.050062
v 0.099591 0.121634 -0.050267
v 0.059998 0.106960 -0.094591
v 0.057498 0.113304 -0.092720
v 0.054998 0.110546 -0.086708
v 0.057498 0.104202 -0.088579
v -0.000002 0.100301 -0.109225
v -0.000002 0.106923 -0.106744
v -0.000002 0.104443 -0.100123
v -0.000002 0.097821 -0.102603
v -0.060002 0.106960 -0.094591
v -0.057502 0.113304 -0.092720
v -0.055002 0.110546 -0.086708
v -0.057502 0.104202 -0.088579
v -0.103925 0.125150 -0.054613
v -0.099595 0.130737 -0.054408
v -0.095265 0.127221 -0.050062
v -0.099595 0.121635 -0.050267
v -0.120002 0.150000 0.000000
v -0.115002 0.154551 -0.002071
v -0.110002 0.150000 0.000000
v -0.115002 0.145449 0.002071
v -0.125001 0.140001 0.000000
v -0.125001 0.145001 -0.008660
v -0.125001 0.155001 -0.008660
v -0.125001 0.160001 0.000000
v -0.125001 0.155001 0.008660
v -0.125001 0.145001 0.008660
v -0.095001 0.140001 0.000000
v -0.095001 0.145001 -0.008660
v -0.095001 0.155001 -0.008660
v -0.095001 0.160001 0.000000
v -0.095001 0.155001 0.008660
v -0.095001 0.145001 0.008660
v 0.094999 0.140001 0.000000
v 0.094999 0.145001 -0.008660
v 0.094999 0.155001 -0.008660
v 0.094999 0.160001 0.000000
v 0.094999 0.155001 0.008660
v 0.094999 0.145001 0.008660
v 0.124999 0.140001 0.000000
v 0.124999 0.145001 -0.008660
v 0.124999 0.155001 -0.008660
v 0.124999 0.160001 0.000000
v 0.124999 0.155001 0.008660
v 0.124999 0.145001 0.008660
vt 0.125000 0.125000
vt 0.125000 0.125000
vt 0.125000 0.125000
vt 0.125000 0.125000
vt 0.125000 0.125000
vt 0.125000 0.125000
vt 0.125000 0.125000
vt 0.125000 0.125000
vt 0.125000 0.125000
vt 0.125000 0.125000
vt 0.125000 0.125000
vt 0.125000 0.125000
vt 0.125000 0.125000
vt 0.125000 0.125000
vt 0.125000 0.125000
vt 0.125000 0.125000
vt 0.125000 0.125000
vt 0.125000 0.125000
vt 0.125000 0.125000
vt 0.125000 0.125000
vt 0.125000 0.125000
vt 0.125000 0.125000
vt 0.125000 0.125000
vt 0.125000 0.125000
vt 0.125000 0.125000
vt 0.125000 0.125000
vt 0.125000 0.125000
vt 0.125000 0.125000
vt 0.125000 0.125000
vt 0.125000 0.125000
vt 0.125000 0.125000
vt 0.125000 0.125000
vt 0.125000 0.125000
vt 0.125000 0.125000
vt 0.125000 0.125000
vt 0.125000 0.125000
vt 0.375000 0.125000
vt 0.375000 0.125000
vt 0.375000 0.125000
vt 0.375000 0.125000
vt 0.375000 0.125000
vt 0.375000 0.125000
vt 0.375000 0.125000
vt 0.375000 0.125000
vt 0.375000 0.125000
vt 0.375000 0.125000
vt 0.375000 0.125000
vt 0.375000 0.125000
vt 0.375000 0.125000
vt 0.375000 0.125000
vt 0.375000 0.125000
vt 0.375000 0.125000
vt 0.375000 0.125000
vt 0.375000 0.125000
vt 0.375000 0.125000
vt 0.375000 0.125000
vt 0.375000 0.125000
vt 0.375000 0.125000
vt 0.375000 0.125000
vt 0.375000 0.125000
vt 0.375000 0.125000
vt 0.375000 0.125000
vt 0.375000 0.125000
vt 0.375000 0.125000
vt 0.375000 0.125000
vt 0.375000 0.125000
vt 0.375000 0.125000
vt 0.375000 0.125000
vt 0.375000 0.125000
vt 0.375000 0.125000
vt 0.375000 0.125000
vt 0.375000 0.125000
vt 0.375000 0.125000
vt 0.375000 0.125000
vt 0.375000 0.125000
vt 0.375000 0.125000
vt 0.375000 0.125000
vt 0.375000 0.125000
vt 0.375000 0.125000
vt 0.375000 0.125000
vt 0.375000 0.125000
vt 0.375000 0.125000
vt 0.375000 0.125000
vt 0.375000 0.125000
vt 0.375000 0.125000
vt 0.375000 0.125000
vt 0.375000 0.125000
vt 0.375000 0.125000
vt 0.375000 0.125000
vt 0.375000 0.125000
vt 0.375000 0.125000
vt 0.375000 0.125000
vt 0.375000 0.125000
vt 0.375000 0.125000
vt 0.375000 0.125000
vt 0.375000 0.125000
vt 0.375000 0.125000
vt 0.375000 0.125000
vt 0.375000 0.125000
vt 0.375000 0.125000
vt 0.375000 0.125000
vt 0.375000 0.125000
vt 0.375000 0.125000
vt 0.375000 0.125000
vt 0.375000 0.125000
vt 0.375000 0.125000
vt 0.375000 0.125000
vt 0.375000 0.125000
vt 0.375000 0.125000
vt 0.375000 0.125000
vt 0.375000 0.125000
vt 0.375000 0.125000
vt 0.375000 0.125000
vt 0.375000 0.125000
vt 0.375000 0.125000
vt 0.375000 0.125000
vt 0.375000 0.125000
vt 0.375000 0.125000
vt 0.375000 0.125000
vt 0.375000 0.125000
vt 0.375000 0.125000
vt 0.375000 0.125000
vt 0.375000 0.125000
vt 0.375000 0.125000
vt 0.375000 0.125000
vt 0.375000 0.125000
vt 0.375000 0.125000
vt 0.375000 0.125000
vt 0.375000 0.125000
vt 0.375000 0.125000
vt 0.375000 0.125000
vt 0.375000 0.125000
vt 0.375000 0.125000
vt 0.375000 0.125000
vt 0.375000 0.125000
vt 0.375000 0.125000
vt 0.375000 0.125000
vt 0.375000 0.125000
vt 0.375000 0.125000
vt 0.375000 0.125000
vt 0.375000 0.125000
vt 0.375000 0.125000
vt 0.375000 0.125000
vt 0.375000 0.125000
vt 0.375000 0.125000
vt 0.375000 0.125000
vt 0.375000 0.125000
vt 0.375000 0.125000
vt 0.375000 0.125000
vt 0.375000 0.125000
vt 0.375000 0.125000
vt 0.375000 0.125000
vt 0.375000 0.125000
vt 0.375000 0.125000
vt 0.375000 0.125000
vt 0.375000 0.125000
vt 0.375000 0.125000
vt 0.375000 0.125000
vt 0.375000 0.125000
vt 0.375000 0.125000
vt 0.375000 0.125000
vt 0.375000 0.125000
vt 0.375000 0.125000
vt 0.375000 0.125000
vt 0.375000 0.125000
vt 0.375000 0.125000
vt 0.375000 0.125000
vt 0.375000 0.125000
vt 0.375000 0.125000
vt 0.375000 0.125000
vt 0.375000 0.125000
vt 0.375000 0.125000
vt 0.375000 0.125000
vt 0.375000 0.125000
vt 0.375000 0.125000
vt 0.375000 0.125000
vt 0.375000 0.125000
vt 0.375000 0.125000
vt 0.375000 0.125000
vt 0.375000 0.125000
vt 0.375000 0.125000
vt 0.375000 0.125000
vt 0.375000 0.125000
vt 0.375000 0.125000
vt 0.375000 0.125000
vt 0.375000 0.125000
vt 0.375000 0.125000
vt 0.375000 0.125000
vt 0.375000 0.125000
vt 0.375000 0.125000
vt 0.375000 0.125000
vt 0.375000 0.125000
vt 0.375000 0.125000
vt 0.375000 0.125000
vt 0.375000 0.125000
vt 0.375000 0.125000
vt 0.375000 0.125000
vt 0.375000 0.125000
vt 0.375000 0.125000
vt 0.375000 0.125000
vt 0.375000 0.125000
vt 0.375000 0.125000
vt 0.375000 0.125000
vt 0.375000 0.125000
vt 0.375000 0.125000
vt 0.375000 0.125000
vt 0.375000 0.125000
vt 0.375000 0.125000
vt 0.625000 0.125000
vt 0.625000 0.125000
vt 0.625000 0.125000
vt 0.625000 0.125000
vt 0.625000 0.125000
vt 0.625000 0.125000
vt 0.625000 0.125000
vt 0.625000 0.125000
vt 0.625000 0.125000
vt 0.625000 0.125000
vt 0.625000 0.125000
vt 0.625000 0.125000
vt 0.625000 0.125000
vt 0.625000 0.125000
vt 0.625000 0.125000
vt 0.625000 0.125000
vt 0.625000 0.125000
vt 0.625000 0.125000
vt 0.625000 0.125000
vt 0.625000 0.125000
vt 0.625000 0.125000
vt 0.625000 0.125000
vt 0.625000 0.125000
vt 0.625000 0.125000
vn 0.5000 0.0000 0.8660
vn 0.8660 0.0000 0.5000
vn -0.8660 0.0000 -0.5000
vn -1.0000 0.0000 0.0000
vn 1.0000 0.0000 0.0000
vn 0.8660 0.0000 -0.5000
vn 0.5000 0.0000 -0.8660
vn -0.0000 0.0000 -1.0000
vn -0.5000 0.0000 -0.8660
vn -0.8660 0.0000 0.5000
vn -0.5000 0.0000 0.8660
vn 0.0000 0.0000 1.0000
vn -0.0000 1.0000 0.0000
vn -0.0000 -1.0000 -0.0000
vn -0.9659 0.1072 0.2356
vn -0.8660 0.2071 0.4551
vn 0.1008 -0.9281 0.3584
vn 0.1163 -0.9165 0.3828
vn 0.9659 -0.1072 -0.2356
vn 0.8660 -0.2071 -0.4551
vn 0.1008 0.8799 -0.4643
vn 0.1163 0.8907 -0.4395
vn -0.5000 0.3587 0.7883
vn 0.0582 -0.9458 0.3196
vn 0.5000 -0.3587 -0.7883
vn 0.0582 0.8623 -0.5031
vn -0.0000 -0.9522 0.3054
vn -0.0000 -0.4142 -0.9102
vn -0.0000 0.8558 -0.5173
vn 0.0000 0.4142 0.9102
vn -0.0582 0.8623 -0.5031
vn 0.5000 0.3587 0.7883
vn -0.0582 -0.9458 0.3196
vn -0.5000 -0.3587 -0.7883
vn -0.1008 -0.9281 0.3584
vn -0.8660 -0.2071 -0.4551
vn -0.1008 0.8799 -0.4643
vn 0.8660 0.2071 0.4551
vn 0.9659 0.1072 0.2356
vn -0.1163 -0.9165 0.3828
vn -0.9659 -0.1072 -0.2356
vn -0.1163 0.8907 -0.4395
vn 0.0000 -0.5000 -0.8660
vn 0.0000 -0.5000 0.8660
vn 0.0000 0.5000 0.8660
vn 0.0000 0.5000 -0.8660
s 1
f 8/1/1 9/2/2 28/3/2 29/4/1
f 3/5/3 4/6/4 33/7/4 34/8/3
f 10/9/5 11/10/6 26/11/6 27/12/5
f 11/10/6 12/13/7 25/14/7 26/11/6
f 1/15/8 2/16/9 35/17/9 36/18/8
f 5/19/10 6/20/11 31/21/11 32/22/10
f 6/20/11 7/23/12 30/24/12 31/21/11
f 7/23/12 8/1/1 29/4/1 30/24/12
f 9/2/2 10/9/5 27/12/5 28/3/2
f 12/13/7 1/15/8 36/18/8 25/14/7
f 2/16/9 3/5/3 34/8/3 35/17/9
f 4/6/4 5/19/10 32/22/10 33/7/4
f 41/25/13 48/26/13 47/27/13 42/28/13
f 37/29/13 48/26/13 41/25/13 40/30/13
f 46/31/13 43/32/13 42/28/13 47/27/13
f 46/31/13 45/33/13 44/34/13 43/32/13
f 40/30/13 39/35/13 38/36/13 37/29/13
f 56/37/13 135/38/13 138/39/13 57/40/13
f 110/41/13 2/42/13 1/43/13 120/44/13
f 109/45/13 11/46/13 10/47/13 116/48/13
f 112/49/13 118/50/13 6/51/13 5/52/13
f 110/41/13 111/53/13 3/54/13 2/42/13
f 109/45/13 115/55/13 12/56/13 11/46/13
f 113/57/13 7/58/13 6/51/13 118/50/13
f 111/53/13 119/59/13 4/60/13 3/54/13
f 115/55/13 120/44/13 1/43/13 12/56/13
f 114/61/13 116/48/13 10/47/13 9/62/13
f 112/49/13 5/52/13 4/60/13 119/59/13
f 114/61/13 9/62/13 8/63/13 117/64/13
f 113/57/13 117/64/13 8/63/13 7/58/13
f 142/65/10 141/66/4 122/67/4 132/68/10
f 133/69/3 143/70/9 123/71/9 128/72/3
f 137/73/12 139/74/11 127/75/11 121/76/12
f 133/69/3 128/72/3 122/67/4 141/66/4
f 134/77/8 136/78/7 124/79/7 129/80/8
f 138/39/2 126/81/2 125/82/5 140/83/5
f 56/37/13 55/84/13 137/73/13 135/38/13
f 138/39/2 135/38/1 131/85/1 126/81/2
f 143/70/9 134/77/8 129/80/8 123/71/9
f 144/86/6 140/83/5 125/82/5 130/87/6
f 142/65/10 132/68/10 127/75/11 139/74/11
f 135/38/1 137/73/12 121/76/12 131/85/1
f 144/86/6 130/87/6 124/79/7 136/78/7
f 125/82/14 27/88/14 26/89/14 130/87/14
f 123/71/14 129/80/14 36/90/14 35/91/14
f 122/67/14 33/92/14 32/93/14 132/68/14
f 125/82/14 126/81/14 28/94/14 27/88/14
f 124/79/14 25/95/14 36/90/14 129/80/14
f 122/67/14 128/72/14 34/96/14 33/92/14
f 126/81/14 131/85/14 29/97/14 28/94/14
f 121/76/14 30/98/14 29/97/14 131/85/14
f 124/79/14 130/87/14 26/89/14 25/95/14
f 123/71/14 35/91/14 34/96/14 128/72/14
f 121/76/14 127/75/14 31/99/14 30/98/14
f 49/100/13 134/77/13 143/70/13 50/101/13
f 41/102/9 42/103/8 55/84/8 56/37/9
f 51/104/13 50/101/13 143/70/13 133/69/13
f 39/105/4 40/106/3 57/40/3 58/107/4
f 46/108/2 47/109/1 50/101/1 51/104/2
f 45/110/5 46/108/2 51/104/2 52/111/5
f 44/112/6 45/110/5 52/111/5 53/113/6
f 48/114/12 37/115/11 60/116/11 49/100/12
f 40/106/3 41/102/9 56/37/9 57/40/3
f 47/109/1 48/114/12 49/100/12 50/101/1
f 37/115/11 38/117/10 59/118/10 60/116/11
f 43/119/7 44/112/6 53/113/6 54/120/7
f 42/103/8 43/119/7 54/120/7 55/84/8
f 38/117/10 39/105/4 58/107/4 59/118/10
f 61/121/8 86/122/8 96/123/7 72/124/7
f 63/125/3 87/126/3 85/127/9 62/128/9
f 70/129/5 94/130/5 93/131/2 69/132/2
f 67/133/12 91/134/12 90/135/11 66/136/11
f 64/137/4 88/138/4 87/126/3 63/125/3
f 71/139/6 95/140/6 94/130/5 70/129/5
f 68/141/1 92/142/1 91/134/12 67/133/12
f 65/143/10 89/144/10 88/138/4 64/137/4
f 72/124/7 96/123/7 95/140/6 71/139/6
f 62/128/9 85/127/9 86/122/8 61/121/8
f 69/132/2 93/131/2 92/142/1 68/141/1
f 66/136/11 90/135/11 89/144/10 65/143/10
f 78/145/7 79/146/8 103/147/8 102/148/7
f 74/149/13 73/150/13 86/122/13 85/127/13
f 75/151/13 74/149/13 85/127/13 87/126/13
f 76/152/13 75/151/13 87/126/13 88/138/13
f 77/153/13 76/152/13 88/138/13 89/144/13
f 78/145/13 77/153/13 89/144/13 90/135/13
f 79/146/13 78/145/13 90/135/13 91/134/13
f 80/154/13 79/146/13 91/134/13 92/142/13
f 81/155/13 80/154/13 92/142/13 93/131/13
f 82/156/13 81/155/13 93/131/13 94/130/13
f 83/157/13 82/156/13 94/130/13 95/140/13
f 84/158/13 83/157/13 95/140/13 96/123/13
f 73/150/13 84/158/13 96/123/13 86/122/13
f 75/151/2 76/152/5 100/159/5 99/160/2
f 82/156/4 83/157/10 107/161/10 106/162/4
f 79/146/8 80/154/9 104/163/9 103/147/8
f 76/152/5 77/153/6 101/164/6 100/159/5
f 83/157/10 84/158/11 108/165/11 107/161/10
f 73/150/12 74/149/1 97/166/1 98/167/12
f 80/154/9 81/155/3 105/168/3 104/163/9
f 77/153/6 78/145/7 102/148/7 101/164/6
f 84/158/11 73/150/12 98/167/12 108/165/11
f 74/149/1 75/151/2 99/160/2 97/166/1
f 81/155/3 82/156/4 106/162/4 105/168/3
f 118/50/11 112/49/10 21/169/10 15/170/11
f 112/49/10 119/59/4 14/171/4 21/169/10
f 109/45/6 116/48/5 17/172/5 24/173/6
f 119/59/4 111/53/3 22/174/3 14/171/4
f 120/44/8 115/55/7 18/175/7 13/176/8
f 117/64/1 113/57/12 20/177/12 16/178/1
f 113/57/12 118/50/11 15/170/11 20/177/12
f 114/61/2 117/64/1 16/178/1 19/179/2
f 115/55/7 109/45/6 24/173/6 18/175/7
f 116/48/5 114/61/2 19/179/2 17/172/5
f 111/53/3 110/41/9 23/180/9 22/174/3
f 110/41/9 120/44/8 13/176/8 23/180/9
f 31/99/14 127/75/14 132/68/14 32/93/14
f 58/107/13 140/83/13 144/86/13 59/118/13
f 144/86/13 136/78/13 60/116/13 59/118/13
f 51/104/13 133/69/13 141/66/13 52/111/13
f 142/65/13 139/74/13 54/120/13 53/113/13
f 141/66/13 142/65/13 53/113/13 52/111/13
f 55/84/13 54/120/13 139/74/13 137/73/13
f 136/78/13 134/77/13 49/100/13 60/116/13
f 57/40/13 138/39/13 140/83/13 58/107/13
f 147/181/15 151/182/16 152/183/17 148/184/18
f 145/185/19 149/186/20 150/187/21 146/188/22
f 145/185/19 148/184/18 152/183/17 149/186/20
f 146/188/22 150/187/21 151/182/16 147/181/15
f 151/182/16 155/189/23 156/190/24 152/183/17
f 149/186/20 153/191/25 154/192/26 150/187/21
f 149/186/20 152/183/17 156/190/24 153/191/25
f 150/187/21 154/192/26 155/189/23 151/182/16
f 153/191/25 156/190/24 160/193/27 157/194/28
f 154/192/26 158/195/29 159/196/30 155/189/23
f 155/189/23 159/196/30 160/193/27 156/190/24
f 153/191/25 157/194/28 158/195/29 154/192/26
f 158/195/29 162/197/31 163/198/32 159/196/30
f 159/196/30 163/198/32 164/199/33 160/193/27
f 157/194/28 161/200/34 162/197/31 158/195/29
f 157/194/28 160/193/27 164/199/33 161/200/34
f 161/200/34 164/199/33 168/201/35 165/202/36
f 162/197/31 166/203/37 167/204/38 163/198/32
f 163/198/32 167/204/38 168/201/35 164/199/33
f 161/200/34 165/202/36 166/203/37 162/197/31
f 167/204/38 171/205/39 172/206/40 168/201/35
f 165/202/36 169/207/41 170/208/42 166/203/37
f 165/202/36 168/201/35 172/206/40 169/207/41
f 166/203/37 170/208/42 171/205/39 167/204/38
f 18/175/14 24/173/14 23/180/14 13/176/14
f 24/173/14 17/172/14 22/174/14 23/180/14
f 14/171/14 22/174/14 17/172/14 19/179/14
f 21/169/14 14/171/14 19/179/14 16/178/14
f 20/177/14 15/170/14 21/169/14 16/178/14
f 174/209/43 180/210/43 179/211/14 173/212/14
f 173/212/14 179/211/14 184/213/44 178/214/44
f 177/215/45 183/216/45 182/217/13 176/218/13
f 175/219/46 181/220/46 180/210/43 174/209/43
f 178/214/44 184/213/44 183/216/45 177/215/45
f 176/218/13 182/217/13 181/220/46 175/219/46
f 186/221/43 192/222/43 191/223/14 185/224/14
f 185/224/14 191/223/14 196/225/44 190/226/44
f 189/227/45 195/228/45 194/229/13 188/230/13
f 187/231/46 193/232/46 192/222/43 186/221/43
f 190/226/44 196/225/44 195/228/45 189/227/45
f 188/230/13 194/229/13 193/232/46 187/231/46
f 193/232/5 194/229/5 195/228/5 196/225/5
f 191/223/5 192/222/5 193/232/5 196/225/5
f 176/218/4 175/219/4 178/214/4 177/215/4
f 173/212/4 178/214/4 175/219/4 174/209/4
