# Blender v3.0.0 OBJ File: 'City.blend'
# www.blender.org
o platform_car_3
v -0.057812 0.412921 1.981015
v -0.057813 0.412921 1.865389
v -0.057813 0.297295 1.865389
v -0.057812 0.297295 1.981015
v 0.057813 0.412921 1.865389
v 0.057813 0.412921 1.981015
v 0.057813 0.297295 1.981015
v 0.057813 0.297295 1.865389
v -0.028217 0.412921 1.931757
v -0.028217 0.297295 1.931757
v 0.028218 0.297295 1.931757
v 0.028218 0.297295 1.865389
v -0.028217 0.412921 1.865389
v 0.028218 0.412921 1.865389
v 0.028218 0.412921 1.931757
v -0.028217 0.297295 1.865389
v 0.057812 0.412921 -1.983137
v 0.057812 0.412921 -1.867512
v 0.057812 0.297296 -1.867512
v 0.057812 0.297296 -1.983137
v -0.057813 0.412921 -1.867512
v -0.057813 0.412921 -1.983137
v -0.057813 0.297296 -1.983137
v -0.057813 0.297296 -1.867512
v 0.028217 0.412921 -1.933879
v 0.028217 0.297296 -1.933879
v -0.028217 0.297296 -1.933879
v -0.028217 0.297296 -1.867512
v 0.028217 0.412921 -1.867512
v -0.028217 0.412921 -1.867512
v -0.028217 0.412921 -1.933879
v 0.028217 0.297296 -1.867512
v -0.129705 0.455057 1.880519
v -0.129705 0.455057 -1.881913
v -0.129705 0.251536 -1.881913
v -0.129705 0.251535 1.880520
v 0.129705 0.455057 -1.881913
v 0.129705 0.251536 -1.881913
v 0.129705 0.455057 1.880519
v 0.129705 0.251535 1.880520
v -0.416069 0.446803 1.837109
v 0.416069 0.446803 1.837109
v 0.416069 0.446803 -1.838731
v -0.416069 0.446803 -1.838731
v 0.416069 0.538740 1.837109
v -0.416069 0.538740 1.837109
v 0.416069 0.538740 -1.838731
v -0.416069 0.538740 -1.838731
v -0.416054 0.538740 0.611829
v -0.416054 0.538740 1.224469
v -0.416054 0.538740 -1.838731
v -0.416054 0.538740 1.837109
v 0.416069 0.538740 1.837109
v 0.416069 0.538740 -1.838731
v 0.416069 0.538740 1.224469
v 0.416069 0.538740 0.611829
v 0.416069 0.538740 -0.000811
v 0.416069 0.538740 -0.613451
v 0.416069 0.538740 -1.226091
v 0.416069 0.688740 1.837109
v 0.416069 0.688740 -1.838731
v 0.416069 0.688740 1.224469
v 0.416069 0.688740 0.611829
v 0.416069 0.688740 -0.000811
v 0.416069 0.688740 -0.613451
v 0.416069 0.688740 -1.226091
v 0.416069 0.563740 -0.025811
v 0.416069 0.563740 -0.588451
v 0.416069 0.663740 -0.588451
v 0.416069 0.663740 -0.025811
v 0.416069 0.563740 1.199469
v 0.416069 0.563740 0.636829
v 0.416069 0.663740 0.636829
v 0.416069 0.663740 1.199469
v 0.416069 0.563740 -1.251091
v 0.416069 0.563740 -1.813731
v 0.416069 0.663741 -1.813731
v 0.416069 0.663740 -1.251091
v 0.416069 0.563740 -0.638451
v 0.416069 0.563740 -1.201091
v 0.416069 0.663740 -1.201091
v 0.416069 0.663740 -0.638451
v 0.416069 0.563740 0.586829
v 0.416069 0.563740 0.024189
v 0.416069 0.663740 0.024189
v 0.416069 0.663740 0.586829
v 0.416069 0.563740 1.812109
v 0.416069 0.563740 1.249469
v 0.416069 0.663740 1.249469
v 0.416069 0.663740 1.812109
v 0.391069 0.563740 -1.251091
v 0.391069 0.563740 -1.813731
v 0.391069 0.563740 1.812109
v 0.391069 0.563740 1.249469
v 0.391069 0.563740 1.199469
v 0.391069 0.563740 0.636829
v 0.391069 0.563740 0.586829
v 0.391069 0.563740 0.024189
v 0.391069 0.563740 -0.025811
v 0.391069 0.563740 -0.588451
v 0.391069 0.563740 -0.638451
v 0.391069 0.563740 -1.201091
v 0.391069 0.663740 -1.251091
v 0.391069 0.663741 -1.813731
v 0.391069 0.663740 1.812109
v 0.391069 0.663740 1.249469
v 0.391069 0.663740 1.199469
v 0.391069 0.663740 0.636829
v 0.391069 0.663740 0.586829
v 0.391069 0.663740 0.024189
v 0.391069 0.663740 -0.025811
v 0.391069 0.663740 -0.588451
v 0.391069 0.663740 -0.638451
v 0.391069 0.663740 -1.201091
v -0.416054 0.538740 -0.000811
v -0.416054 0.538740 -0.613451
v -0.416054 0.538740 -1.226091
v -0.416054 0.688740 1.837109
v -0.416054 0.688740 -1.838731
v -0.416054 0.688740 1.224469
v -0.416054 0.688740 0.611829
v -0.416054 0.688740 -0.000811
v -0.416054 0.688740 -0.613451
v -0.416054 0.688740 -1.226091
v -0.416054 0.563740 -0.025811
v -0.416054 0.563740 -0.588451
v -0.416054 0.663740 -0.588451
v -0.416054 0.663740 -0.025811
v -0.416054 0.563740 1.199469
v -0.416054 0.563740 0.636829
v -0.416054 0.663740 0.636829
v -0.416054 0.663740 1.199469
v -0.416054 0.563740 -1.251091
v -0.416054 0.563740 -1.813730
v -0.416054 0.663741 -1.813730
v -0.416054 0.663740 -1.251091
v -0.416054 0.563740 -0.638451
v -0.416054 0.563740 -1.201091
v -0.416054 0.663740 -1.201091
v -0.416054 0.663740 -0.638451
v -0.416054 0.563740 0.586829
v -0.416054 0.563740 0.024189
v -0.416054 0.663740 0.024189
v -0.416054 0.663740 0.586829
v -0.416054 0.563740 1.812109
v -0.416054 0.563740 1.249469
v -0.416054 0.663740 1.249469
v -0.416054 0.663740 1.812109
v -0.391054 0.563740 -1.251091
v -0.391054 0.563740 -1.813730
v -0.391054 0.563740 1.812109
v -0.391054 0.563740 1.249469
v -0.391054 0.563740 1.199469
v -0.391054 0.563740 0.636829
v -0.391054 0.563740 0.586829
v -0.391054 0.563740 0.024189
v -0.391054 0.563740 -0.025811
v -0.391054 0.563740 -0.588451
v -0.391054 0.563740 -0.638451
v -0.391054 0.563740 -1.201091
v -0.391054 0.663740 -1.251091
v -0.391054 0.663741 -1.813730
v -0.391054 0.663740 1.812109
v -0.391054 0.663740 1.249469
v -0.391054 0.663740 1.199469
v -0.391054 0.663740 0.636829
v -0.391054 0.663740 0.586829
v -0.391054 0.663740 0.024189
v -0.391054 0.663740 -0.025811
v -0.391054 0.663740 -0.588451
v -0.391054 0.663740 -0.638451
v -0.391054 0.663740 -1.201091
v -0.376054 0.538740 1.837109
v -0.376054 0.538740 -0.000811
v 0.376069 0.688740 -1.838731
v 0.376069 0.688740 -0.000811
v 0.376069 0.688740 1.837109
v 0.376069 0.538740 -1.838731
v 0.376069 0.538740 -0.000811
v 0.376069 0.538740 1.837109
v -0.376054 0.538740 -1.838731
v -0.376054 0.688740 1.837109
v -0.376054 0.688740 -0.000811
v -0.376054 0.688740 -1.838731
v -0.376054 0.538740 1.837109
v 0.376069 0.538740 -1.838731
v 0.376069 0.538740 1.837109
v -0.376054 0.538740 -1.838731
v -0.376054 0.538740 1.797109
v 0.376069 0.538740 -1.798731
v 0.376069 0.538740 1.797109
v -0.376054 0.538740 -1.798731
v 0.376069 0.719267 1.837109
v 0.296069 0.799267 1.837109
v -0.296054 0.799267 1.837109
v -0.376054 0.719267 1.837109
v 0.296069 0.799267 1.797109
v 0.376069 0.719267 1.797109
v -0.376054 0.719267 1.797109
v -0.296054 0.799267 1.797109
v 0.376069 0.719267 -1.798731
v 0.296069 0.799267 -1.798731
v -0.296054 0.799267 -1.798731
v -0.376054 0.719267 -1.798731
v 0.296069 0.799267 -1.838731
v 0.376069 0.719267 -1.838731
v -0.376054 0.719267 -1.838731
v -0.296054 0.799267 -1.838731
v -0.376054 0.538740 1.797109
v 0.376069 0.538740 -1.798731
v 0.376069 0.538740 1.797109
v -0.376054 0.538740 -1.798731
v -0.332855 0.446803 1.044128
v -0.332855 0.446803 -1.045751
v 0.332855 0.446803 1.044128
v 0.332855 0.446803 -1.045751
v -0.332855 0.246803 0.544127
v -0.332855 0.246803 -0.545752
v 0.332855 0.246803 0.544127
v 0.332855 0.246803 -0.545752
vt 0.375000 0.125000
vt 0.375000 0.125000
vt 0.375000 0.125000
vt 0.375000 0.125000
vt 0.375000 0.125000
vt 0.375000 0.125000
vt 0.375000 0.125000
vt 0.375000 0.125000
vt 0.375000 0.125000
vt 0.375000 0.125000
vt 0.375000 0.125000
vt 0.375000 0.125000
vt 0.375000 0.125000
vt 0.375000 0.125000
vt 0.375000 0.125000
vt 0.375000 0.125000
vt 0.375000 0.125000
vt 0.375000 0.125000
vt 0.375000 0.125000
vt 0.375000 0.125000
vt 0.375000 0.125000
vt 0.375000 0.125000
vt 0.375000 0.125000
vt 0.375000 0.125000
vt 0.875000 0.125000
vt 0.875000 0.125000
vt 0.875000 0.125000
vt 0.875000 0.125000
vt 0.125000 0.125000
vt 0.125000 0.125000
vt 0.125000 0.125000
vt 0.125000 0.125000
vt 0.125000 0.125000
vt 0.125000 0.125000
vt 0.125000 0.125000
vt 0.125000 0.125000
vt 0.125000 0.125000
vt 0.125000 0.125000
vt 0.125000 0.125000
vt 0.125000 0.125000
vt 0.125000 0.125000
vt 0.125000 0.125000
vt 0.125000 0.125000
vt 0.125000 0.125000
vt 0.125000 0.125000
vt 0.125000 0.125000
vt 0.125000 0.125000
vt 0.125000 0.125000
vt 0.125000 0.125000
vt 0.125000 0.125000
vt 0.125000 0.125000
vt 0.125000 0.125000
vt 0.125000 0.125000
vt 0.125000 0.125000
vt 0.125000 0.125000
vt 0.125000 0.125000
vt 0.125000 0.125000
vt 0.125000 0.125000
vt 0.125000 0.125000
vt 0.125000 0.125000
vt 0.125000 0.125000
vt 0.125000 0.125000
vt 0.125000 0.125000
vt 0.125000 0.125000
vt 0.125000 0.125000
vt 0.125000 0.125000
vt 0.125000 0.125000
vt 0.125000 0.125000
vt 0.125000 0.125000
vt 0.125000 0.125000
vt 0.125000 0.125000
vt 0.125000 0.125000
vt 0.125000 0.125000
vt 0.125000 0.125000
vt 0.125000 0.125000
vt 0.125000 0.125000
vt 0.375000 0.125000
vt 0.375000 0.125000
vt 0.375000 0.125000
vt 0.375000 0.125000
vt 0.375000 0.125000
vt 0.375000 0.125000
vt 0.375000 0.125000
vt 0.375000 0.125000
vt 0.375000 0.125000
vt 0.375000 0.125000
vt 0.375000 0.125000
vt 0.375000 0.125000
vt 0.375000 0.125000
vt 0.375000 0.125000
vt 0.375000 0.125000
vt 0.375000 0.125000
vt 0.375000 0.125000
vt 0.375000 0.125000
vt 0.375000 0.125000
vt 0.375000 0.125000
vt 0.375000 0.125000
vt 0.375000 0.125000
vt 0.375000 0.125000
vt 0.375000 0.125000
vt 0.375000 0.125000
vt 0.375000 0.125000
vt 0.375000 0.125000
vt 0.375000 0.125000
vt 0.375000 0.125000
vt 0.375000 0.125000
vt 0.375000 0.125000
vt 0.375000 0.125000
vt 0.375000 0.125000
vt 0.375000 0.125000
vt 0.375000 0.125000
vt 0.375000 0.125000
vt 0.375000 0.125000
vt 0.375000 0.125000
vt 0.375000 0.125000
vt 0.375000 0.125000
vt 0.375000 0.125000
vt 0.375000 0.125000
vt 0.375000 0.125000
vt 0.375000 0.125000
vt 0.375000 0.125000
vt 0.375000 0.125000
vt 0.375000 0.125000
vt 0.375000 0.125000
vt 0.375000 0.125000
vt 0.375000 0.125000
vt 0.375000 0.125000
vt 0.375000 0.125000
vt 0.375000 0.125000
vt 0.375000 0.125000
vt 0.375000 0.125000
vt 0.375000 0.125000
vt 0.375000 0.125000
vt 0.375000 0.125000
vt 0.375000 0.125000
vt 0.375000 0.125000
vt 0.375000 0.125000
vt 0.375000 0.125000
vt 0.375000 0.125000
vt 0.375000 0.125000
vt 0.375000 0.125000
vt 0.375000 0.125000
vt 0.625000 0.125000
vt 0.625000 0.125000
vt 0.625000 0.125000
vt 0.625000 0.125000
vt 0.625000 0.125000
vt 0.625000 0.125000
vt 0.625000 0.125000
vt 0.625000 0.125000
vt 0.625000 0.125000
vt 0.625000 0.125000
vt 0.625000 0.125000
vt 0.625000 0.125000
vt 0.625000 0.125000
vt 0.625000 0.125000
vt 0.625000 0.125000
vt 0.625000 0.125000
vt 0.625000 0.125000
vt 0.625000 0.125000
vt 0.625000 0.125000
vt 0.625000 0.125000
vt 0.625000 0.125000
vt 0.625000 0.125000
vt 0.625000 0.125000
vt 0.625000 0.125000
vt 0.375000 0.125000
vt 0.375000 0.125000
vt 0.375000 0.125000
vt 0.375000 0.125000
vt 0.375000 0.125000
vt 0.375000 0.125000
vt 0.375000 0.125000
vt 0.375000 0.125000
vt 0.375000 0.125000
vt 0.375000 0.125000
vt 0.375000 0.125000
vt 0.375000 0.125000
vt 0.375000 0.125000
vt 0.375000 0.125000
vt 0.375000 0.125000
vt 0.375000 0.125000
vt 0.375000 0.125000
vt 0.375000 0.125000
vt 0.375000 0.125000
vt 0.375000 0.125000
vt 0.375000 0.125000
vt 0.375000 0.125000
vt 0.375000 0.125000
vt 0.375000 0.125000
vt 0.375000 0.125000
vt 0.375000 0.125000
vt 0.375000 0.125000
vt 0.375000 0.125000
vt 0.375000 0.125000
vt 0.375000 0.125000
vt 0.375000 0.125000
vt 0.375000 0.125000
vt 0.375000 0.125000
vt 0.375000 0.125000
vt 0.375000 0.125000
vt 0.375000 0.125000
vt 0.375000 0.125000
vt 0.375000 0.125000
vt 0.375000 0.125000
vt 0.375000 0.125000
vt 0.375000 0.125000
vt 0.375000 0.125000
vt 0.375000 0.125000
vt 0.375000 0.125000
vt 0.375000 0.125000
vt 0.375000 0.125000
vt 0.625000 0.125000
vt 0.625000 0.125000
vt 0.625000 0.125000
vt 0.625000 0.125000
vt 0.625000 0.125000
vt 0.625000 0.125000
vt 0.625000 0.125000
vt 0.625000 0.125000
vt 0.625000 0.125000
vt 0.625000 0.125000
vt 0.625000 0.125000
vt 0.625000 0.125000
vt 0.625000 0.125000
vt 0.625000 0.125000
vt 0.625000 0.125000
vt 0.625000 0.125000
vt 0.625000 0.125000
vt 0.625000 0.125000
vt 0.625000 0.125000
vt 0.625000 0.125000
vt 0.625000 0.125000
vt 0.625000 0.125000
vt 0.625000 0.125000
vt 0.625000 0.125000
vt 0.375000 0.125000
vt 0.375000 0.125000
vt 0.375000 0.125000
vt 0.375000 0.125000
vt 0.375000 0.125000
vt 0.375000 0.125000
vt 0.375000 0.125000
vt 0.375000 0.125000
vt 0.375000 0.125000
vt 0.375000 0.125000
vt 0.375000 0.125000
vt 0.375000 0.125000
vt 0.375000 0.125000
vt 0.375000 0.125000
vt 0.375000 0.125000
vt 0.375000 0.125000
vt 0.375000 0.125000
vt 0.375000 0.125000
vt 0.375000 0.125000
vt 0.375000 0.125000
vt 0.375000 0.125000
vt 0.375000 0.125000
vt 0.375000 0.125000
vt 0.375000 0.125000
vt 0.125000 0.125000
vt 0.125000 0.125000
vt 0.125000 0.125000
vt 0.125000 0.125000
vt 0.125000 0.125000
vt 0.125000 0.125000
vt 0.125000 0.125000
vt 0.125000 0.125000
vn 0.0000 1.0000 0.0000
vn 0.0000 0.0000 -1.0000
vn -1.0000 0.0000 0.0000
vn 0.7071 0.7071 0.0000
vn -0.7071 0.7071 0.0000
vn 1.0000 0.0000 0.0000
vn 0.0000 0.0000 1.0000
vn 0.8572 0.0000 0.5150
vn 0.0000 -1.0000 0.0000
vn -0.8572 0.0000 0.5150
vn -0.8572 0.0000 -0.5150
vn 0.8572 0.0000 -0.5150
vn 0.0000 -0.9285 -0.3714
vn 0.0000 -0.9285 0.3714
s off
f 197/1/1 200/2/1 195/3/1 194/4/1
f 199/5/2 200/2/2 197/1/2 198/6/2
f 185/7/3 196/8/3 199/5/3 189/9/3
f 193/10/4 198/6/4 197/1/4 194/4/4
f 195/3/5 200/2/5 199/5/5 196/8/5
f 187/11/6 191/12/6 198/6/6 193/10/6
f 199/5/2 198/6/2 191/12/2 189/9/2
f 193/10/7 194/4/7 195/3/7 196/8/7
f 196/8/7 185/7/7 187/11/7 193/10/7
f 205/13/1 208/14/1 203/15/1 202/16/1
f 207/17/2 208/14/2 205/13/2 206/18/2
f 192/19/3 204/20/3 207/17/3 188/21/3
f 201/22/4 206/18/4 205/13/4 202/16/4
f 203/15/5 208/14/5 207/17/5 204/20/5
f 190/23/6 186/24/6 206/18/6 201/22/6
f 207/17/2 206/18/2 186/24/2 188/21/2
f 201/22/7 202/16/7 203/15/7 204/20/7
f 204/20/7 192/19/7 190/23/7 201/22/7
f 212/25/1 209/26/1 211/27/1 210/28/1
s 1
f 1/29/3 2/30/3 3/31/3 4/32/3
f 5/33/6 6/34/6 7/35/6 8/36/6
f 9/37/8 1/29/8 4/32/8 10/38/8
f 11/39/9 12/40/9 8/36/9 7/35/9
f 9/37/1 13/41/1 2/30/1 1/29/1
f 6/34/1 5/33/1 14/42/1 15/43/1
f 15/43/1 14/42/1 13/41/1 9/37/1
f 4/32/9 3/31/9 16/44/9 10/38/9
f 10/38/9 16/44/9 12/40/9 11/39/9
f 6/34/10 15/43/10 11/39/10 7/35/10
f 15/43/7 9/37/7 10/38/7 11/39/7
f 17/45/6 18/46/6 19/47/6 20/48/6
f 21/49/3 22/50/3 23/51/3 24/52/3
f 25/53/11 17/45/11 20/48/11 26/54/11
f 27/55/9 28/56/9 24/52/9 23/51/9
f 25/53/1 29/57/1 18/46/1 17/45/1
f 22/50/1 21/49/1 30/58/1 31/59/1
f 31/59/1 30/58/1 29/57/1 25/53/1
f 20/48/9 19/47/9 32/60/9 26/54/9
f 26/54/9 32/60/9 28/56/9 27/55/9
f 22/50/12 31/59/12 27/55/12 23/51/12
f 31/59/2 25/53/2 26/54/2 27/55/2
f 33/61/3 34/62/3 35/63/3 36/64/3
f 34/62/2 37/65/2 38/66/2 35/63/2
f 37/65/6 39/67/6 40/68/6 38/66/6
f 39/67/7 33/61/7 36/64/7 40/68/7
f 36/64/9 35/63/9 38/66/9 40/68/9
f 34/62/1 33/61/1 39/67/1 37/65/1
f 45/69/7 46/70/7 41/71/7 42/72/7
f 47/73/2 43/74/2 44/75/2 48/76/2
f 46/70/3 48/76/3 44/75/3 41/71/3
f 43/74/9 42/72/9 41/71/9 44/75/9
f 42/72/6 43/74/6 47/73/6 45/69/6
f 144/77/2 167/78/2 155/79/2 141/80/2
f 135/81/9 162/82/9 161/83/9 136/84/9
f 138/85/7 160/86/7 172/87/7 139/88/7
f 147/89/9 164/90/9 163/91/9 148/92/9
f 89/93/9 90/94/9 105/95/9 106/96/9
f 80/97/7 81/98/7 114/99/7 102/100/7
f 86/101/2 83/102/2 97/103/2 109/104/2
f 77/105/9 78/106/9 103/107/9 104/108/9
f 82/109/2 79/110/2 101/111/2 113/112/2
f 72/113/7 73/114/7 108/115/7 96/116/7
f 57/117/6 58/118/6 68/119/6 67/120/6
f 58/118/6 65/121/6 69/122/6 68/119/6
f 65/121/6 64/123/6 70/124/6 69/122/6
f 64/123/6 57/117/6 67/120/6 70/124/6
f 55/125/6 56/126/6 72/113/6 71/127/6
f 56/126/6 63/128/6 73/114/6 72/113/6
f 63/128/6 62/129/6 74/130/6 73/114/6
f 62/129/6 55/125/6 71/127/6 74/130/6
f 59/131/6 54/132/6 76/133/6 75/134/6
f 54/132/6 61/135/6 77/105/6 76/133/6
f 61/135/6 66/136/6 78/106/6 77/105/6
f 66/136/6 59/131/6 75/134/6 78/106/6
f 58/118/6 59/131/6 80/97/6 79/110/6
f 59/131/6 66/136/6 81/98/6 80/97/6
f 66/136/6 65/121/6 82/109/6 81/98/6
f 65/121/6 58/118/6 79/110/6 82/109/6
f 56/126/6 57/117/6 84/137/6 83/102/6
f 57/117/6 64/123/6 85/138/6 84/137/6
f 64/123/6 63/128/6 86/101/6 85/138/6
f 63/128/6 56/126/6 83/102/6 86/101/6
f 53/139/6 55/125/6 88/140/6 87/141/6
f 55/125/6 62/129/6 89/93/6 88/140/6
f 62/129/6 60/142/6 90/94/6 89/93/6
f 60/142/6 53/139/6 87/141/6 90/94/6
f 99/143/6 100/144/6 112/145/6 111/146/6
f 95/147/6 96/148/6 108/149/6 107/150/6
f 91/151/6 92/152/6 104/153/6 103/154/6
f 101/155/6 102/156/6 114/157/6 113/158/6
f 97/159/6 98/160/6 110/161/6 109/162/6
f 93/163/6 94/164/6 106/165/6 105/166/6
f 88/140/7 89/93/7 106/96/7 94/167/7
f 75/134/1 76/133/1 92/168/1 91/169/1
f 84/137/7 85/138/7 110/170/7 98/171/7
f 73/114/9 74/130/9 107/172/9 108/115/9
f 87/141/1 88/140/1 94/167/1 93/173/1
f 76/133/7 77/105/7 104/108/7 92/168/7
f 85/138/9 86/101/9 109/104/9 110/170/9
f 71/127/1 72/113/1 96/116/1 95/174/1
f 69/122/9 70/124/9 111/175/9 112/176/9
f 83/102/1 84/137/1 98/171/1 97/103/1
f 90/94/2 87/141/2 93/173/2 105/95/2
f 81/98/9 82/109/9 113/112/9 114/99/9
f 67/120/1 68/119/1 100/177/1 99/178/1
f 70/124/2 67/120/2 99/178/2 111/175/2
f 74/130/2 71/127/2 95/174/2 107/172/2
f 79/110/1 80/97/1 102/100/1 101/111/1
f 68/119/7 69/122/7 112/176/7 100/177/7
f 78/106/2 75/134/2 91/169/2 103/107/2
f 140/179/2 171/180/2 159/181/2 137/182/2
f 130/183/7 154/184/7 166/185/7 131/186/7
f 115/187/3 125/188/3 126/189/3 116/190/3
f 116/190/3 126/189/3 127/191/3 123/192/3
f 123/192/3 127/191/3 128/193/3 122/194/3
f 122/194/3 128/193/3 125/188/3 115/187/3
f 50/195/3 129/196/3 130/183/3 49/197/3
f 49/197/3 130/183/3 131/186/3 121/198/3
f 121/198/3 131/186/3 132/199/3 120/200/3
f 120/200/3 132/199/3 129/196/3 50/195/3
f 117/201/3 133/202/3 134/203/3 51/204/3
f 51/204/3 134/203/3 135/81/3 119/205/3
f 119/205/3 135/81/3 136/84/3 124/206/3
f 124/206/3 136/84/3 133/202/3 117/201/3
f 116/190/3 137/182/3 138/85/3 117/201/3
f 117/201/3 138/85/3 139/88/3 124/206/3
f 124/206/3 139/88/3 140/179/3 123/192/3
f 123/192/3 140/179/3 137/182/3 116/190/3
f 49/197/3 141/80/3 142/207/3 115/187/3
f 115/187/3 142/207/3 143/208/3 122/194/3
f 122/194/3 143/208/3 144/77/3 121/198/3
f 121/198/3 144/77/3 141/80/3 49/197/3
f 52/209/3 145/210/3 146/211/3 50/195/3
f 50/195/3 146/211/3 147/89/3 120/200/3
f 120/200/3 147/89/3 148/92/3 118/212/3
f 118/212/3 148/92/3 145/210/3 52/209/3
f 157/213/3 169/214/3 170/215/3 158/216/3
f 153/217/3 165/218/3 166/219/3 154/220/3
f 149/221/3 161/222/3 162/223/3 150/224/3
f 159/225/3 171/226/3 172/227/3 160/228/3
f 155/229/3 167/230/3 168/231/3 156/232/3
f 151/233/3 163/234/3 164/235/3 152/236/3
f 146/211/7 152/237/7 164/90/7 147/89/7
f 133/202/1 149/238/1 150/239/1 134/203/1
f 142/207/7 156/240/7 168/241/7 143/208/7
f 131/186/9 166/185/9 165/242/9 132/199/9
f 145/210/1 151/243/1 152/237/1 146/211/1
f 134/203/7 150/239/7 162/82/7 135/81/7
f 143/208/9 168/241/9 167/78/9 144/77/9
f 129/196/1 153/244/1 154/184/1 130/183/1
f 127/191/9 170/245/9 169/246/9 128/193/9
f 141/80/1 155/79/1 156/240/1 142/207/1
f 148/92/2 163/91/2 151/243/2 145/210/2
f 139/88/9 172/87/9 171/180/9 140/179/9
f 125/188/1 157/247/1 158/248/1 126/189/1
f 128/193/2 169/246/2 157/247/2 125/188/2
f 132/199/2 165/242/2 153/244/2 129/196/2
f 137/182/1 159/181/1 160/86/1 138/85/1
f 126/189/7 158/248/7 170/245/7 127/191/7
f 136/84/2 161/83/2 149/238/2 133/202/2
f 55/125/9 53/139/9 180/249/9
f 118/212/7 52/209/7 173/250/7 182/251/7
f 50/195/9 49/197/9 174/252/9 173/250/9
f 57/117/9 56/126/9 179/253/9
f 56/126/9 55/125/9 180/249/9 179/253/9
f 115/187/9 116/190/9 174/252/9
f 54/132/9 59/131/9 178/254/9
f 65/121/1 66/136/1 175/255/1 176/256/1
f 62/129/1 63/128/1 176/256/1 177/257/1
f 63/128/1 64/123/1 176/256/1
f 64/123/1 65/121/1 176/256/1
f 61/135/2 54/132/2 178/254/2 175/255/2
f 66/136/1 61/135/1 175/255/1
f 58/118/9 57/117/9 179/253/9
f 59/131/9 58/118/9 179/253/9 178/254/9
f 117/201/9 51/204/9 181/258/9
f 60/142/1 62/129/1 177/257/1
f 53/139/7 60/142/7 177/257/7 180/249/7
f 116/190/9 117/201/9 181/258/9 174/252/9
f 52/209/9 50/195/9 173/250/9
f 49/197/9 115/187/9 174/252/9
f 51/204/2 119/205/2 184/259/2 181/258/2
f 123/192/1 122/194/1 183/260/1
f 121/198/1 120/200/1 182/251/1 183/260/1
f 119/205/1 124/206/1 184/259/1
f 124/206/1 123/192/1 183/260/1 184/259/1
f 120/200/1 118/212/1 182/251/1
f 122/194/1 121/198/1 183/260/1
f 182/251/6 173/250/6 174/252/6 183/260/6
f 181/258/6 184/259/6 183/260/6 174/252/6
f 176/256/3 179/253/3 180/249/3 177/257/3
f 175/255/3 178/254/3 179/253/3 176/256/3
f 214/261/13 216/262/13 220/263/13 218/264/13
f 217/265/9 218/264/9 220/263/9 219/266/9
f 216/262/6 215/267/6 219/266/6 220/263/6
f 213/268/3 214/261/3 218/264/3 217/265/3
f 215/267/14 213/268/14 217/265/14 219/266/14
