# Blender v3.0.0 OBJ File: 'City.blend'
# www.blender.org
o refrigerator_car_2_short
v -0.057800 0.297300 1.161000
v -0.057800 0.412900 1.161000
v -0.057800 0.412900 1.045400
v -0.057800 0.297300 1.045400
v 0.057800 0.297300 1.045400
v 0.057800 0.412900 1.045400
v 0.057800 0.412900 1.161000
v 0.057800 0.297300 1.161000
v -0.028200 0.297300 1.111700
v -0.028200 0.412900 1.111700
v 0.028200 0.297300 1.111700
v 0.028200 0.297300 1.045400
v -0.028200 0.412900 1.045400
v 0.028200 0.412900 1.111700
v 0.028200 0.412900 1.045400
v -0.028200 0.297300 1.045400
v 0.057800 0.297300 -1.161000
v 0.057800 0.412900 -1.161000
v 0.057800 0.412900 -1.045400
v 0.057800 0.297300 -1.045400
v -0.057800 0.297300 -1.045400
v -0.057800 0.412900 -1.045400
v -0.057800 0.412900 -1.161000
v -0.057800 0.297300 -1.161000
v 0.028200 0.297300 -1.111700
v 0.028200 0.412900 -1.111700
v -0.028200 0.297300 -1.111700
v -0.028200 0.297300 -1.045400
v 0.028200 0.412900 -1.045400
v -0.028200 0.412900 -1.111700
v -0.028200 0.412900 -1.045400
v 0.028200 0.297300 -1.045400
v -0.129700 0.251500 1.060500
v -0.129700 0.455100 1.060500
v -0.129700 0.455100 -1.059800
v -0.129700 0.251500 -1.059800
v 0.129700 0.455100 -1.059800
v 0.129700 0.251500 -1.059800
v 0.129700 0.455100 1.060500
v 0.129700 0.251500 1.060500
v 0.411100 0.446800 -1.003500
v 0.411100 1.305600 -1.003500
v 0.411100 1.305600 1.004000
v 0.411100 0.446800 1.004000
v -0.410900 0.446800 -1.003500
v -0.410900 0.446800 1.004000
v -0.410900 1.305600 1.004000
v -0.410900 1.305600 -1.003500
v 0.333800 1.408800 -1.003500
v 0.333800 1.408800 1.004000
v 0.127400 1.472600 -1.003500
v 0.127400 1.472600 1.004000
v -0.127800 1.472600 -1.003500
v -0.127800 1.472600 1.004000
v -0.334300 1.408800 -1.003500
v -0.334300 1.408800 1.004000
v -0.431400 1.072200 -0.026200
v -0.431400 0.563100 -0.026200
v -0.431400 0.563100 0.031200
v -0.431400 1.072200 0.031200
v -0.410900 0.469500 0.031200
v -0.431400 0.469500 0.031200
v -0.431400 0.469500 -0.026200
v -0.410900 0.469500 -0.026200
v -0.410900 1.072199 0.374600
v -0.431400 1.072199 0.374600
v -0.431400 0.563100 0.374600
v -0.410900 0.563100 0.374600
v -0.410900 1.165700 -0.026200
v -0.431400 1.165700 -0.026200
v -0.431400 1.165700 0.031200
v -0.410900 1.165700 0.031200
v -0.410900 0.563100 -0.369600
v -0.431400 0.563100 -0.369600
v -0.431400 1.072200 -0.369600
v -0.410900 1.072200 -0.369600
v -0.431400 1.145700 -0.026200
v -0.431400 1.145700 0.031200
v -0.431400 0.489500 0.031200
v -0.431400 0.489500 -0.026200
v -0.410900 1.165700 0.374600
v -0.431400 1.165700 0.374600
v -0.431400 0.469500 0.374600
v -0.410900 0.469500 0.374600
v -0.410900 0.469500 -0.369600
v -0.431400 0.469500 -0.369600
v -0.431400 1.165700 -0.369600
v -0.410900 1.165700 -0.369600
v -0.431400 1.072200 -0.349600
v -0.431400 0.563100 -0.349600
v -0.431400 0.563100 -0.222400
v -0.431400 1.072200 -0.222400
v -0.431400 0.563100 -0.165000
v -0.431400 1.072200 -0.165000
v -0.431400 0.563100 0.354600
v -0.431400 1.072200 0.354600
v -0.431400 1.072200 0.222700
v -0.431400 0.563100 0.222700
v -0.431400 1.072200 0.165301
v -0.431400 0.563100 0.165300
v -0.431400 0.469500 0.222700
v -0.410900 0.469500 0.222700
v -0.431400 0.469500 0.165300
v -0.410900 0.469500 0.165300
v -0.410900 0.469500 -0.222400
v -0.431400 0.469500 -0.222400
v -0.410900 0.469500 -0.165000
v -0.431400 0.469500 -0.165000
v -0.431400 1.165700 -0.222400
v -0.410900 1.165700 -0.222400
v -0.431400 1.165700 -0.165000
v -0.410900 1.165700 -0.165000
v -0.410900 1.165700 0.222700
v -0.431400 1.165700 0.222700
v -0.410900 1.165700 0.165301
v -0.431400 1.165700 0.165301
v -0.431400 1.145700 -0.349600
v -0.431400 1.145700 -0.222400
v -0.431400 1.145700 -0.165000
v -0.431400 1.145700 0.354600
v -0.431400 1.145700 0.222700
v -0.431400 1.145700 0.165301
v -0.431400 0.489500 0.354600
v -0.431400 0.489500 0.222700
v -0.431400 0.489500 0.165300
v -0.431400 0.489500 -0.349600
v -0.431400 0.489500 -0.222400
v -0.431400 0.489500 -0.165000
v 0.431400 1.072200 -0.026200
v 0.431400 1.072200 0.031200
v 0.431400 0.563100 0.031200
v 0.431400 0.563100 -0.026200
v 0.410900 0.469500 0.031200
v 0.410900 0.469500 -0.026200
v 0.431400 0.469500 -0.026200
v 0.431400 0.469500 0.031200
v 0.410900 1.072199 0.374600
v 0.410900 0.563100 0.374600
v 0.431400 0.563100 0.374600
v 0.431400 1.072199 0.374600
v 0.410900 1.165700 -0.026200
v 0.410900 1.165700 0.031200
v 0.431400 1.165700 0.031200
v 0.431400 1.165700 -0.026200
v 0.410900 0.563100 -0.369600
v 0.410900 1.072200 -0.369600
v 0.431400 1.072200 -0.369600
v 0.431400 0.563100 -0.369600
v 0.431400 1.145700 -0.026200
v 0.431400 1.145700 0.031200
v 0.431400 0.489500 0.031200
v 0.431400 0.489500 -0.026200
v 0.410900 1.165700 0.374600
v 0.431400 1.165700 0.374600
v 0.431400 0.469500 0.374600
v 0.410900 0.469500 0.374600
v 0.410900 0.469500 -0.369600
v 0.431400 0.469500 -0.369600
v 0.431400 1.165700 -0.369600
v 0.410900 1.165700 -0.369600
v 0.431400 1.072200 -0.349600
v 0.431400 1.072200 -0.222400
v 0.431400 0.563100 -0.222400
v 0.431400 0.563100 -0.349600
v 0.431400 1.072200 -0.165000
v 0.431400 0.563100 -0.165000
v 0.431400 0.563100 0.354600
v 0.431400 0.563100 0.222700
v 0.431400 1.072200 0.222700
v 0.431400 1.072200 0.354600
v 0.431400 0.563100 0.165300
v 0.431400 1.072200 0.165301
v 0.410900 0.469500 0.222700
v 0.431400 0.469500 0.222700
v 0.410900 0.469500 0.165300
v 0.431400 0.469500 0.165300
v 0.431400 0.469500 -0.222400
v 0.410900 0.469500 -0.222400
v 0.431400 0.469500 -0.165000
v 0.410900 0.469500 -0.165000
v 0.410900 1.165700 -0.222400
v 0.431400 1.165700 -0.222400
v 0.410900 1.165700 -0.165000
v 0.431400 1.165700 -0.165000
v 0.431400 1.165700 0.222700
v 0.410900 1.165700 0.222700
v 0.431400 1.165700 0.165301
v 0.410900 1.165700 0.165301
v 0.431400 1.145700 -0.349600
v 0.431400 1.145700 -0.222400
v 0.431400 1.145700 -0.165000
v 0.431400 1.145700 0.222700
v 0.431400 1.145700 0.354600
v 0.431400 1.145700 0.165301
v 0.431400 0.489500 0.354600
v 0.431400 0.489500 0.222700
v 0.431400 0.489500 0.165300
v 0.431400 0.489500 -0.222400
v 0.431400 0.489500 -0.349600
v 0.431400 0.489500 -0.165000
v -0.181900 1.509454 -0.442100
v 0.181900 1.509454 -0.442100
v 0.181900 1.509454 -0.643900
v -0.181900 1.509454 -0.643900
v -0.181900 1.439454 -0.442100
v 0.181900 1.439454 -0.442100
v 0.181900 1.439454 -0.643900
v -0.181900 1.439454 -0.643900
v -0.181900 1.509453 0.643700
v 0.181900 1.509453 0.643700
v 0.181900 1.509453 0.441900
v -0.181900 1.509453 0.441900
v -0.181900 1.439454 0.643700
v 0.181900 1.439454 0.643700
v 0.181900 1.439454 0.441900
v -0.181900 1.439454 0.441900
vt 0.125000 0.125000
vt 0.125000 0.125000
vt 0.125000 0.125000
vt 0.125000 0.125000
vt 0.125000 0.125000
vt 0.125000 0.125000
vt 0.125000 0.125000
vt 0.125000 0.125000
vt 0.125000 0.125000
vt 0.125000 0.125000
vt 0.125000 0.125000
vt 0.125000 0.125000
vt 0.125000 0.125000
vt 0.125000 0.125000
vt 0.125000 0.125000
vt 0.125000 0.125000
vt 0.125000 0.125000
vt 0.125000 0.125000
vt 0.125000 0.125000
vt 0.125000 0.125000
vt 0.125000 0.125000
vt 0.125000 0.125000
vt 0.125000 0.125000
vt 0.125000 0.125000
vt 0.125000 0.125000
vt 0.125000 0.125000
vt 0.125000 0.125000
vt 0.125000 0.125000
vt 0.125000 0.125000
vt 0.125000 0.125000
vt 0.125000 0.125000
vt 0.125000 0.125000
vt 0.125000 0.125000
vt 0.125000 0.125000
vt 0.125000 0.125000
vt 0.125000 0.125000
vt 0.125000 0.125000
vt 0.125000 0.125000
vt 0.125000 0.125000
vt 0.125000 0.125000
vt 0.875000 0.125000
vt 0.875000 0.125000
vt 0.875000 0.125000
vt 0.875000 0.125000
vt 0.875000 0.125000
vt 0.875000 0.125000
vt 0.875000 0.125000
vt 0.875000 0.125000
vt 0.875000 0.125000
vt 0.875000 0.125000
vt 0.875000 0.125000
vt 0.875000 0.125000
vt 0.375000 0.125000
vt 0.375000 0.125000
vt 0.375000 0.125000
vt 0.375000 0.125000
vt 0.375000 0.125000
vt 0.375000 0.125000
vt 0.375000 0.125000
vt 0.375000 0.125000
vt 0.375000 0.125000
vt 0.375000 0.125000
vt 0.375000 0.125000
vt 0.375000 0.125000
vt 0.375000 0.125000
vt 0.375000 0.125000
vt 0.375000 0.125000
vt 0.375000 0.125000
vt 0.375000 0.125000
vt 0.375000 0.125000
vt 0.375000 0.125000
vt 0.375000 0.125000
vt 0.375000 0.125000
vt 0.375000 0.125000
vt 0.375000 0.125000
vt 0.375000 0.125000
vt 0.375000 0.125000
vt 0.375000 0.125000
vt 0.375000 0.125000
vt 0.375000 0.125000
vt 0.375000 0.125000
vt 0.375000 0.125000
vt 0.375000 0.125000
vt 0.375000 0.125000
vt 0.375000 0.125000
vt 0.375000 0.125000
vt 0.375000 0.125000
vt 0.375000 0.125000
vt 0.375000 0.125000
vt 0.375000 0.125000
vt 0.375000 0.125000
vt 0.375000 0.125000
vt 0.375000 0.125000
vt 0.375000 0.125000
vt 0.375000 0.125000
vt 0.375000 0.125000
vt 0.375000 0.125000
vt 0.375000 0.125000
vt 0.375000 0.125000
vt 0.375000 0.125000
vt 0.375000 0.125000
vt 0.375000 0.125000
vt 0.375000 0.125000
vt 0.375000 0.125000
vt 0.375000 0.125000
vt 0.375000 0.125000
vt 0.375000 0.125000
vt 0.375000 0.125000
vt 0.375000 0.125000
vt 0.375000 0.125000
vt 0.375000 0.125000
vt 0.375000 0.125000
vt 0.375000 0.125000
vt 0.375000 0.125000
vt 0.375000 0.125000
vt 0.375000 0.125000
vt 0.375000 0.125000
vt 0.375000 0.125000
vt 0.375000 0.125000
vt 0.375000 0.125000
vt 0.375000 0.125000
vt 0.375000 0.125000
vt 0.375000 0.125000
vt 0.375000 0.125000
vt 0.375000 0.125000
vt 0.375000 0.125000
vt 0.375000 0.125000
vt 0.375000 0.125000
vt 0.375000 0.125000
vt 0.375000 0.125000
vt 0.375000 0.125000
vt 0.375000 0.125000
vt 0.875000 0.125000
vt 0.875000 0.125000
vt 0.875000 0.125000
vt 0.875000 0.125000
vt 0.375000 0.125000
vt 0.375000 0.125000
vt 0.375000 0.125000
vt 0.375000 0.125000
vt 0.375000 0.125000
vt 0.375000 0.125000
vt 0.375000 0.125000
vt 0.375000 0.125000
vt 0.375000 0.125000
vt 0.375000 0.125000
vt 0.375000 0.125000
vt 0.375000 0.125000
vt 0.875000 0.125000
vt 0.875000 0.125000
vt 0.875000 0.125000
vt 0.875000 0.125000
vt 0.875000 0.125000
vt 0.875000 0.125000
vt 0.875000 0.125000
vt 0.875000 0.125000
vt 0.375000 0.125000
vt 0.375000 0.125000
vt 0.375000 0.125000
vt 0.375000 0.125000
vt 0.875000 0.125000
vt 0.875000 0.125000
vt 0.875000 0.125000
vt 0.875000 0.125000
vt 0.375000 0.125000
vt 0.375000 0.125000
vt 0.375000 0.125000
vt 0.375000 0.125000
vt 0.875000 0.125000
vt 0.875000 0.125000
vt 0.875000 0.125000
vt 0.875000 0.125000
vt 0.875000 0.125000
vt 0.875000 0.125000
vt 0.375000 0.125000
vt 0.375000 0.125000
vt 0.375000 0.125000
vt 0.375000 0.125000
vt 0.875000 0.125000
vt 0.875000 0.125000
vt 0.375000 0.125000
vt 0.375000 0.125000
vt 0.375000 0.125000
vt 0.375000 0.125000
vt 0.375000 0.125000
vt 0.375000 0.125000
vt 0.375000 0.125000
vt 0.375000 0.125000
vt 0.875000 0.125000
vt 0.875000 0.125000
vt 0.875000 0.125000
vt 0.875000 0.125000
vt 0.875000 0.125000
vt 0.875000 0.125000
vt 0.875000 0.125000
vt 0.875000 0.125000
vt 0.875000 0.125000
vt 0.875000 0.125000
vt 0.875000 0.125000
vt 0.875000 0.125000
vt 0.375000 0.125000
vt 0.375000 0.125000
vt 0.375000 0.125000
vt 0.375000 0.125000
vt 0.375000 0.125000
vt 0.375000 0.125000
vt 0.375000 0.125000
vt 0.375000 0.125000
vt 0.375000 0.125000
vt 0.375000 0.125000
vt 0.375000 0.125000
vt 0.375000 0.125000
vt 0.875000 0.125000
vt 0.875000 0.125000
vt 0.875000 0.125000
vt 0.875000 0.125000
vt 0.875000 0.125000
vt 0.875000 0.125000
vt 0.875000 0.125000
vt 0.875000 0.125000
vt 0.375000 0.125000
vt 0.375000 0.125000
vt 0.375000 0.125000
vt 0.375000 0.125000
vt 0.875000 0.125000
vt 0.875000 0.125000
vt 0.875000 0.125000
vt 0.875000 0.125000
vt 0.375000 0.125000
vt 0.375000 0.125000
vt 0.375000 0.125000
vt 0.375000 0.125000
vt 0.875000 0.125000
vt 0.875000 0.125000
vt 0.875000 0.125000
vt 0.875000 0.125000
vt 0.875000 0.125000
vt 0.875000 0.125000
vt 0.375000 0.125000
vt 0.375000 0.125000
vt 0.375000 0.125000
vt 0.375000 0.125000
vt 0.875000 0.125000
vt 0.875000 0.125000
vt 0.375000 0.125000
vt 0.375000 0.125000
vt 0.375000 0.125000
vt 0.375000 0.125000
vt 0.375000 0.125000
vt 0.375000 0.125000
vt 0.375000 0.125000
vt 0.375000 0.125000
vt 0.875000 0.125000
vt 0.875000 0.125000
vt 0.875000 0.125000
vt 0.875000 0.125000
vt 0.875000 0.125000
vt 0.875000 0.125000
vt 0.875000 0.125000
vt 0.875000 0.125000
vt 0.875000 0.125000
vt 0.875000 0.125000
vt 0.875000 0.125000
vt 0.875000 0.125000
vt 0.625000 0.125000
vt 0.625000 0.125000
vt 0.625000 0.125000
vt 0.625000 0.125000
vt 0.625000 0.125000
vt 0.625000 0.125000
vt 0.625000 0.125000
vt 0.625000 0.125000
vt 0.625000 0.125000
vt 0.625000 0.125000
vt 0.625000 0.125000
vt 0.625000 0.125000
vt 0.625000 0.125000
vt 0.625000 0.125000
vt 0.625000 0.125000
vt 0.625000 0.125000
vn -1.0000 0.0000 0.0000
vn 1.0000 0.0000 0.0000
vn 0.8573 -0.0000 0.5148
vn 0.8571 -0.0000 0.5152
vn 0.0000 -1.0000 0.0000
vn 0.0000 1.0000 0.0000
vn -0.8573 -0.0000 0.5148
vn -0.8571 -0.0000 0.5152
vn 0.0000 -0.0000 1.0000
vn -0.8573 0.0000 -0.5148
vn -0.8571 0.0000 -0.5152
vn 0.8573 0.0000 -0.5148
vn 0.8571 0.0000 -0.5152
vn 0.0000 0.0000 -1.0000
vn 0.8004 0.5995 0.0000
vn 0.5760 0.8174 0.0000
vn 0.1493 0.9888 0.0000
vn -0.1493 0.9888 0.0000
vn -0.5777 0.8162 0.0000
vn -0.8030 0.5960 0.0000
s off
f 1/1/1 2/2/1 3/3/1
f 3/3/1 4/4/1 1/1/1
f 5/5/2 6/6/2 7/7/2
f 7/7/2 8/8/2 5/5/2
f 9/9/3 10/10/3 2/2/4
f 2/2/3 1/1/3 9/9/4
f 5/5/5 8/8/5 11/11/5
f 11/11/5 12/12/5 5/5/5
f 3/3/6 2/2/6 10/10/6
f 10/10/6 13/13/6 3/3/6
f 14/14/6 7/7/6 6/6/6
f 6/6/6 15/15/6 14/14/6
f 10/10/6 14/14/6 15/15/6
f 15/15/6 13/13/6 10/10/6
f 9/9/5 1/1/5 4/4/5
f 4/4/5 16/16/5 9/9/5
f 11/11/5 9/9/5 16/16/5
f 16/16/5 12/12/5 11/11/5
f 8/8/7 7/7/7 14/14/8
f 14/14/7 11/11/7 8/8/8
f 11/11/9 14/14/9 10/10/9
f 10/10/9 9/9/9 11/11/9
f 17/17/2 18/18/2 19/19/2
f 19/19/2 20/20/2 17/17/2
f 21/21/1 22/22/1 23/23/1
f 23/23/1 24/24/1 21/21/1
f 25/25/10 26/26/10 18/18/11
f 18/18/10 17/17/10 25/25/11
f 21/21/5 24/24/5 27/27/5
f 27/27/5 28/28/5 21/21/5
f 19/19/6 18/18/6 26/26/6
f 26/26/6 29/29/6 19/19/6
f 30/30/6 23/23/6 22/22/6
f 22/22/6 31/31/6 30/30/6
f 26/26/6 30/30/6 31/31/6
f 31/31/6 29/29/6 26/26/6
f 25/25/5 17/17/5 20/20/5
f 20/20/5 32/32/5 25/25/5
f 27/27/5 25/25/5 32/32/5
f 32/32/5 28/28/5 27/27/5
f 24/24/12 23/23/12 30/30/13
f 30/30/12 27/27/12 24/24/13
f 27/27/14 30/30/14 26/26/14
f 26/26/14 25/25/14 27/27/14
f 33/33/1 34/34/1 35/35/1
f 35/35/1 36/36/1 33/33/1
f 36/36/14 35/35/14 37/37/14
f 37/37/14 38/38/14 36/36/14
f 38/38/2 37/37/2 39/39/2
f 39/39/2 40/40/2 38/38/2
f 40/40/9 39/39/9 34/34/9
f 34/34/9 33/33/9 40/40/9
f 40/40/5 33/33/5 36/36/5
f 36/36/5 38/38/5 40/40/5
f 39/39/6 37/37/6 35/35/6
f 39/39/6 35/35/6 34/34/6
f 51/41/14 49/42/14 42/43/14
f 50/44/9 52/45/9 43/46/9
f 53/47/14 51/41/14 42/43/14
f 52/45/9 54/48/9 43/46/9
f 55/49/14 53/47/14 42/43/14
f 54/48/9 56/50/9 43/46/9
f 48/51/14 55/49/14 42/43/14
f 56/50/9 47/52/9 43/46/9
f 86/53/1 106/54/1 127/55/1
f 127/55/1 126/56/1 86/53/1
f 106/54/1 108/57/1 128/58/1
f 128/58/1 127/55/1 106/54/1
f 108/57/1 63/59/1 80/60/1
f 80/60/1 128/58/1 108/57/1
f 63/59/1 62/61/1 79/62/1
f 79/62/1 80/60/1 63/59/1
f 62/61/1 103/63/1 125/64/1
f 125/64/1 79/62/1 62/61/1
f 103/63/1 101/65/1 124/66/1
f 124/66/1 125/64/1 103/63/1
f 101/65/1 83/67/1 123/68/1
f 123/68/1 124/66/1 101/65/1
f 83/67/1 67/69/1 95/70/1
f 95/70/1 123/68/1 83/67/1
f 67/69/1 66/71/1 96/72/1
f 96/72/1 95/70/1 67/69/1
f 66/71/1 82/73/1 120/74/1
f 120/74/1 96/72/1 66/71/1
f 82/73/1 114/75/1 121/76/1
f 121/76/1 120/74/1 82/73/1
f 114/75/1 116/77/1 122/78/1
f 122/78/1 121/76/1 114/75/1
f 116/77/1 71/79/1 78/80/1
f 78/80/1 122/78/1 116/77/1
f 71/79/1 70/81/1 77/82/1
f 77/82/1 78/80/1 71/79/1
f 70/81/1 111/83/1 119/84/1
f 119/84/1 77/82/1 70/81/1
f 111/83/1 109/85/1 118/86/1
f 118/86/1 119/84/1 111/83/1
f 109/85/1 87/87/1 117/88/1
f 117/88/1 118/86/1 109/85/1
f 87/87/1 75/89/1 89/90/1
f 89/90/1 117/88/1 87/87/1
f 75/89/1 74/91/1 90/92/1
f 90/92/1 89/90/1 75/89/1
f 74/91/1 86/53/1 126/56/1
f 126/56/1 90/92/1 74/91/1
f 158/93/2 199/94/2 198/95/2
f 198/95/2 177/96/2 158/93/2
f 177/96/2 198/95/2 200/97/2
f 200/97/2 179/98/2 177/96/2
f 179/98/2 200/97/2 152/99/2
f 152/99/2 135/100/2 179/98/2
f 135/100/2 152/99/2 151/101/2
f 151/101/2 136/102/2 135/100/2
f 136/102/2 151/101/2 197/103/2
f 197/103/2 176/104/2 136/102/2
f 176/104/2 197/103/2 196/105/2
f 196/105/2 174/106/2 176/104/2
f 174/106/2 196/105/2 195/107/2
f 195/107/2 155/108/2 174/106/2
f 155/108/2 195/107/2 167/109/2
f 167/109/2 139/110/2 155/108/2
f 139/110/2 167/109/2 170/111/2
f 170/111/2 140/112/2 139/110/2
f 140/112/2 170/111/2 193/113/2
f 193/113/2 154/114/2 140/112/2
f 154/114/2 193/113/2 192/115/2
f 192/115/2 185/116/2 154/114/2
f 185/116/2 192/115/2 194/117/2
f 194/117/2 187/118/2 185/116/2
f 187/118/2 194/117/2 150/119/2
f 150/119/2 143/120/2 187/118/2
f 143/120/2 150/119/2 149/121/2
f 149/121/2 144/122/2 143/120/2
f 144/122/2 149/121/2 191/123/2
f 191/123/2 184/124/2 144/122/2
f 184/124/2 191/123/2 190/125/2
f 190/125/2 182/126/2 184/124/2
f 182/126/2 190/125/2 189/127/2
f 189/127/2 159/128/2 182/126/2
f 159/128/2 189/127/2 161/129/2
f 161/129/2 147/130/2 159/128/2
f 147/130/2 161/129/2 164/131/2
f 164/131/2 148/132/2 147/130/2
f 148/132/2 164/131/2 199/94/2
f 199/94/2 158/93/2 148/132/2
s 1
f 41/133/2 42/43/2 43/46/2
f 43/46/2 44/134/2 41/133/2
f 45/135/1 46/136/1 47/52/1
f 47/52/1 48/51/1 45/135/1
f 41/133/5 44/134/5 46/136/5
f 46/136/5 45/135/5 41/133/5
f 44/134/9 43/46/9 47/52/9
f 47/52/9 46/136/9 44/134/9
f 42/43/14 41/133/14 45/135/14
f 45/135/14 48/51/14 42/43/14
f 42/43/15 49/42/16 50/44/16
f 50/44/16 43/46/15 42/43/15
f 49/42/16 51/41/17 52/45/17
f 52/45/17 50/44/16 49/42/16
f 51/41/17 53/47/18 54/48/18
f 54/48/18 52/45/17 51/41/17
f 53/47/18 55/49/19 56/50/19
f 56/50/19 54/48/18 53/47/18
f 55/49/19 48/51/20 47/52/20
f 47/52/20 56/50/19 55/49/19
f 57/137/1 58/138/1 59/139/1
f 59/139/1 60/140/1 57/137/1
f 61/141/5 62/61/5 63/59/5
f 63/59/5 64/142/5 61/141/5
f 65/143/9 66/71/9 67/69/9
f 67/69/9 68/144/9 65/143/9
f 69/145/6 70/81/6 71/79/6
f 71/79/6 72/146/6 69/145/6
f 73/147/14 74/91/14 75/89/14
f 75/89/14 76/148/14 73/147/14
f 77/149/1 57/150/1 60/151/1
f 60/151/1 78/152/1 77/149/1
f 79/153/1 59/154/1 58/155/1
f 58/155/1 80/156/1 79/153/1
f 81/157/9 82/73/9 66/71/9
f 66/71/9 65/143/9 81/157/9
f 83/67/9 84/158/9 68/144/9
f 68/144/9 67/69/9 83/67/9
f 85/159/14 86/53/14 74/91/14
f 74/91/14 73/147/14 85/159/14
f 87/87/14 88/160/14 76/148/14
f 76/148/14 75/89/14 87/87/14
f 89/161/1 90/162/1 91/163/1
f 91/163/1 92/164/1 89/161/1
f 92/165/1 91/166/1 93/167/1
f 93/167/1 94/168/1 92/165/1
f 94/169/1 93/170/1 58/155/1
f 58/155/1 57/150/1 94/169/1
f 95/171/1 96/172/1 97/173/1
f 97/173/1 98/174/1 95/171/1
f 98/175/1 97/176/1 99/177/1
f 99/177/1 100/178/1 98/175/1
f 100/179/1 99/180/1 60/151/1
f 60/151/1 59/154/1 100/179/1
f 84/158/5 83/67/5 101/65/5
f 101/65/5 102/181/5 84/158/5
f 102/181/5 101/65/5 103/63/5
f 103/63/5 104/182/5 102/181/5
f 104/182/5 103/63/5 62/61/5
f 62/61/5 61/141/5 104/182/5
f 86/53/5 85/159/5 105/183/5
f 105/183/5 106/54/5 86/53/5
f 106/54/5 105/183/5 107/184/5
f 107/184/5 108/57/5 106/54/5
f 108/57/5 107/184/5 64/142/5
f 64/142/5 63/59/5 108/57/5
f 88/160/6 87/87/6 109/85/6
f 109/85/6 110/185/6 88/160/6
f 110/185/6 109/85/6 111/83/6
f 111/83/6 112/186/6 110/185/6
f 112/186/6 111/83/6 70/81/6
f 70/81/6 69/145/6 112/186/6
f 82/73/6 81/157/6 113/187/6
f 113/187/6 114/75/6 82/73/6
f 114/75/6 113/187/6 115/188/6
f 115/188/6 116/77/6 114/75/6
f 116/77/6 115/188/6 72/146/6
f 72/146/6 71/79/6 116/77/6
f 117/189/1 89/161/1 92/164/1
f 92/164/1 118/190/1 117/189/1
f 118/190/1 92/164/1 94/169/1
f 94/169/1 119/191/1 118/190/1
f 119/191/1 94/169/1 57/150/1
f 57/150/1 77/149/1 119/191/1
f 96/172/1 120/192/1 121/193/1
f 121/193/1 97/173/1 96/172/1
f 97/173/1 121/193/1 122/194/1
f 122/194/1 99/180/1 97/173/1
f 99/180/1 122/194/1 78/152/1
f 78/152/1 60/151/1 99/180/1
f 123/195/1 95/171/1 98/174/1
f 98/174/1 124/196/1 123/195/1
f 124/196/1 98/174/1 100/179/1
f 100/179/1 125/197/1 124/196/1
f 125/197/1 100/179/1 59/154/1
f 59/154/1 79/153/1 125/197/1
f 90/162/1 126/198/1 127/199/1
f 127/199/1 91/163/1 90/162/1
f 91/163/1 127/199/1 128/200/1
f 128/200/1 93/170/1 91/163/1
f 93/170/1 128/200/1 80/156/1
f 80/156/1 58/155/1 93/170/1
f 129/201/2 130/202/2 131/203/2
f 131/203/2 132/204/2 129/201/2
f 133/205/5 134/206/5 135/100/5
f 135/100/5 136/102/5 133/205/5
f 137/207/9 138/208/9 139/110/9
f 139/110/9 140/112/9 137/207/9
f 141/209/6 142/210/6 143/120/6
f 143/120/6 144/122/6 141/209/6
f 145/211/14 146/212/14 147/130/14
f 147/130/14 148/132/14 145/211/14
f 149/213/2 150/214/2 130/215/2
f 130/215/2 129/216/2 149/213/2
f 151/217/2 152/218/2 132/219/2
f 132/219/2 131/220/2 151/217/2
f 153/221/9 137/207/9 140/112/9
f 140/112/9 154/114/9 153/221/9
f 155/108/9 139/110/9 138/208/9
f 138/208/9 156/222/9 155/108/9
f 157/223/14 145/211/14 148/132/14
f 148/132/14 158/93/14 157/223/14
f 159/128/14 147/130/14 146/212/14
f 146/212/14 160/224/14 159/128/14
f 161/225/2 162/226/2 163/227/2
f 163/227/2 164/228/2 161/225/2
f 162/229/2 165/230/2 166/231/2
f 166/231/2 163/232/2 162/229/2
f 165/233/2 129/216/2 132/219/2
f 132/219/2 166/234/2 165/233/2
f 167/235/2 168/236/2 169/237/2
f 169/237/2 170/238/2 167/235/2
f 168/239/2 171/240/2 172/241/2
f 172/241/2 169/242/2 168/239/2
f 171/243/2 131/220/2 130/215/2
f 130/215/2 172/244/2 171/243/2
f 156/222/5 173/245/5 174/106/5
f 174/106/5 155/108/5 156/222/5
f 173/245/5 175/246/5 176/104/5
f 176/104/5 174/106/5 173/245/5
f 175/246/5 133/205/5 136/102/5
f 136/102/5 176/104/5 175/246/5
f 158/93/5 177/96/5 178/247/5
f 178/247/5 157/223/5 158/93/5
f 177/96/5 179/98/5 180/248/5
f 180/248/5 178/247/5 177/96/5
f 179/98/5 135/100/5 134/206/5
f 134/206/5 180/248/5 179/98/5
f 160/224/6 181/249/6 182/126/6
f 182/126/6 159/128/6 160/224/6
f 181/249/6 183/250/6 184/124/6
f 184/124/6 182/126/6 181/249/6
f 183/250/6 141/209/6 144/122/6
f 144/122/6 184/124/6 183/250/6
f 154/114/6 185/116/6 186/251/6
f 186/251/6 153/221/6 154/114/6
f 185/116/6 187/118/6 188/252/6
f 188/252/6 186/251/6 185/116/6
f 187/118/6 143/120/6 142/210/6
f 142/210/6 188/252/6 187/118/6
f 189/253/2 190/254/2 162/226/2
f 162/226/2 161/225/2 189/253/2
f 190/254/2 191/255/2 165/233/2
f 165/233/2 162/226/2 190/254/2
f 191/255/2 149/213/2 129/216/2
f 129/216/2 165/233/2 191/255/2
f 170/238/2 169/237/2 192/256/2
f 192/256/2 193/257/2 170/238/2
f 169/237/2 172/244/2 194/258/2
f 194/258/2 192/256/2 169/237/2
f 172/244/2 130/215/2 150/214/2
f 150/214/2 194/258/2 172/244/2
f 195/259/2 196/260/2 168/236/2
f 168/236/2 167/235/2 195/259/2
f 196/260/2 197/261/2 171/243/2
f 171/243/2 168/236/2 196/260/2
f 197/261/2 151/217/2 131/220/2
f 131/220/2 171/243/2 197/261/2
f 164/228/2 163/227/2 198/262/2
f 198/262/2 199/263/2 164/228/2
f 163/227/2 166/234/2 200/264/2
f 200/264/2 198/262/2 163/227/2
f 166/234/2 132/219/2 152/218/2
f 152/218/2 200/264/2 166/234/2
f 201/265/6 202/266/6 203/267/6
f 203/267/6 204/268/6 201/265/6
f 205/269/9 206/270/9 202/266/9
f 202/266/9 201/265/9 205/269/9
f 206/270/2 207/271/2 203/267/2
f 203/267/2 202/266/2 206/270/2
f 207/271/14 208/272/14 204/268/14
f 204/268/14 203/267/14 207/271/14
f 208/272/1 205/269/1 201/265/1
f 201/265/1 204/268/1 208/272/1
f 209/273/6 210/274/6 211/275/6
f 211/275/6 212/276/6 209/273/6
f 213/277/9 214/278/9 210/274/9
f 210/274/9 209/273/9 213/277/9
f 214/278/2 215/279/2 211/275/2
f 211/275/2 210/274/2 214/278/2
f 215/279/14 216/280/14 212/276/14
f 212/276/14 211/275/14 215/279/14
f 216/280/1 213/277/1 209/273/1
f 209/273/1 212/276/1 216/280/1
